<svg xmlns="http://www.w3.org/2000/svg" xmlns:xlink="http://www.w3.org/1999/xlink" viewBox="0 0 1926.34 1496.15"><defs><style>.cls-1{fill:none;}.cls-2{isolation:isolate;}.cls-3{clip-path:url(#clip-path);}.cls-4{fill:#2e2e34;}.cls-5{fill:url(#col_287);}.cls-6{fill:url(#col_306);}.cls-18,.cls-7{mix-blend-mode:hard-light;}.cls-18,.cls-8{fill:#f4f4f4;}.cls-9{fill:#72acfb;}.cls-10{fill:#385988;}.cls-11{fill:#4772b0;}.cls-12{fill:#5886c7;}.cls-13{fill:#e5f2fd;}.cls-14{fill:url(#linear-gradient);}.cls-15{fill:url(#linear-gradient-2);}.cls-16{fill:url(#linear-gradient-3);}.cls-17{fill:url(#linear-gradient-4);}.cls-19{fill:#bfd4fc;}.cls-20{fill:#fff;}.cls-21{fill:url(#linear-gradient-5);}.cls-22{fill:url(#linear-gradient-6);}.cls-23{fill:url(#linear-gradient-7);}.cls-24{fill:#d4d4d4;}.cls-25{fill:url(#linear-gradient-8);}.cls-26{fill:url(#linear-gradient-9);}.cls-27{fill:url(#linear-gradient-10);}.cls-28{fill:#c5cacf;}.cls-29{fill:#cedefd;}.cls-30{fill:#df655a;}.cls-31{fill:#90c1fc;}.cls-32{fill:#4372bd;}.cls-33{fill:#4e85de;}.cls-34{fill:url(#linear-gradient-11);}.cls-35{fill:url(#linear-gradient-12);}.cls-36{fill:url(#linear-gradient-13);}.cls-37{fill:url(#linear-gradient-14);}.cls-38{fill:url(#linear-gradient-15);}.cls-39{fill:url(#linear-gradient-16);}.cls-40{fill:#dcd0c8;}.cls-41{fill:#6d6865;}.cls-42{fill:#c6bbb5;}.cls-43{fill:#948c87;}.cls-44{fill:#a98e75;}.cls-45{fill:#ebb35c;}.cls-46{fill:#454971;}.cls-47{fill:#232539;}.cls-48{fill:#dba585;}.cls-49{fill:#3e4148;}.cls-50{fill:#363957;}.cls-51{fill:#8c8581;}.cls-52{fill:#5d5955;}.cls-53{fill:#b9afaa;}.cls-54{fill:#b2a8a3;}.cls-55{fill:#f4f6ff;}.cls-56{fill:#8c8480;}.cls-57{fill:#dedfe6;}.cls-58{fill:#de5a59;}.cls-59{fill:#762020;}</style><clipPath id="clip-path"><rect class="cls-1" width="1926.34" height="1496.15"/></clipPath><linearGradient id="col_287" x1="186.22" y1="355.12" x2="1639.04" y2="1193.9" gradientUnits="userSpaceOnUse"><stop offset="0" stop-color="#af76e5"/><stop offset="1" stop-color="#640eb8"/></linearGradient><linearGradient id="col_306" x1="406.2" y1="110.85" x2="1506.47" y2="1211.12" gradientUnits="userSpaceOnUse"><stop offset="0" stop-color="#2b19bc"/><stop offset="1" stop-color="#9651d8"/></linearGradient><linearGradient id="linear-gradient" x1="-12651.92" y1="189.76" x2="-12312.43" y2="189.76" gradientTransform="matrix(-1, -0.05, -0.05, 1, -12002.68, -308.8)" gradientUnits="userSpaceOnUse"><stop offset="0" stop-color="#81d3e4"/><stop offset="1" stop-color="#6076fa"/></linearGradient><linearGradient id="linear-gradient-2" x1="-3686.96" y1="3876.06" x2="-3686.96" y2="3637.34" gradientTransform="translate(829.01 -4632.82) rotate(-41.45)" xlink:href="#linear-gradient"/><linearGradient id="linear-gradient-3" x1="-12619.43" y1="87.29" x2="-12458.72" y2="87.29" xlink:href="#linear-gradient"/><linearGradient id="linear-gradient-4" x1="-1985.15" y1="3240.1" x2="-1985.15" y2="3005.71" gradientTransform="translate(722.53 -3214.32) rotate(-29.45)" xlink:href="#linear-gradient"/><linearGradient id="linear-gradient-5" x1="996.01" y1="936.52" x2="471.98" y2="936.52" gradientUnits="userSpaceOnUse"><stop offset="0" stop-color="#eebe63"/><stop offset="1" stop-color="#dc3b57"/></linearGradient><linearGradient id="linear-gradient-6" x1="996.01" y1="965.17" x2="471.98" y2="965.17" xlink:href="#linear-gradient-5"/><linearGradient id="linear-gradient-7" x1="996.02" y1="993.82" x2="471.98" y2="993.82" xlink:href="#linear-gradient-5"/><linearGradient id="linear-gradient-8" x1="719.49" y1="253.17" x2="719.49" y2="547.89" gradientTransform="matrix(1, 0, 0, 1, 0, 0)" xlink:href="#linear-gradient"/><linearGradient id="linear-gradient-9" x1="719.25" y1="253.17" x2="719.25" y2="547.89" gradientTransform="matrix(1, 0, 0, 1, 0, 0)" xlink:href="#linear-gradient"/><linearGradient id="linear-gradient-10" x1="719.25" y1="272.23" x2="719.25" y2="530.32" gradientUnits="userSpaceOnUse"><stop offset="0" stop-color="#d3d8de"/><stop offset="1" stop-color="#fff"/></linearGradient><linearGradient id="linear-gradient-11" x1="210.5" y1="1041.94" x2="400.87" y2="1041.94" gradientTransform="matrix(1, 0, 0, 1, 0, 0)" xlink:href="#linear-gradient"/><linearGradient id="linear-gradient-12" x1="350.15" y1="1148.18" x2="522.31" y2="1148.18" gradientTransform="matrix(1, 0, 0, 1, 0, 0)" xlink:href="#linear-gradient"/><linearGradient id="linear-gradient-13" x1="364.87" y1="1173.21" x2="494.09" y2="1173.21" gradientTransform="matrix(1, 0, 0, 1, 0, 0)" xlink:href="#linear-gradient"/><linearGradient id="linear-gradient-14" x1="318.2" y1="1069.23" x2="468.69" y2="1069.23" gradientTransform="matrix(1, 0, 0, 1, 0, 0)" xlink:href="#linear-gradient"/><linearGradient id="linear-gradient-15" x1="283.67" y1="1285.08" x2="422.54" y2="1285.08" gradientUnits="userSpaceOnUse"><stop offset="0" stop-color="#e59148"/><stop offset="1" stop-color="#f1cc52"/></linearGradient><linearGradient id="linear-gradient-16" x1="283.67" y1="1285.08" x2="422.54" y2="1285.08" gradientUnits="userSpaceOnUse"><stop offset="0" stop-color="#b37239"/><stop offset="1" stop-color="#f1cc52"/></linearGradient></defs><title>Монтажная область 58</title><g class="cls-2"><g id="_Layer_" data-name="&lt;Layer&gt;"><g class="cls-3"><path class="cls-4" d="M0,0V1496.15H1926.34V0ZM1151.85,106.3c-4.13,0-4.12-9,0-9S1156,106.3,1151.85,106.3Z"/><path class="cls-5" d="M1592.64,496.07c-170,9.48-416.85,84.22-715-205.93C632.1,51.23,208.48,188.78,112.84,506,11.31,842.86,260.71,1117.68,441,1223.77c222.11,130.73,662.56,149.22,903.28,56.61,241.51-92.91,410.55-258.75,465.55-387.42C1897.33,688.18,1806.18,484.17,1592.64,496.07Z"/><path class="cls-6" d="M1825.52,538.14C1778.45,391.07,1592.24,277,1326.18,384S947.87,426.69,752.33,304.1C493.48,141.82,157.34,214.6,98.88,504,34.56,822.39,311.05,1072.78,463,1167.6s661,281.37,1133.88-57.84C1789.33,971.74,1884.44,722.27,1825.52,538.14Z"/><g class="cls-7"><rect class="cls-8" x="1003.33" y="582.49" width="381.64" height="443.25" rx="25.22"/></g><path class="cls-9" d="M1235,766.33A97.53,97.53,0,1,0,1051.35,832c.73,2.06,1.54,4.09,2.4,6.08A97.53,97.53,0,0,0,1235,766.33ZM1167.8,868a73,73,0,0,1-91.67-39.67c-.64-1.48-1.25-3-1.8-4.56A73.12,73.12,0,1,1,1167.8,868Z"/><path class="cls-10" d="M1073.38,777.38l-23.3-7.28a97.68,97.68,0,0,1,90.19-68.44l.72,24.4a73.24,73.24,0,0,0-67.61,51.32Z"/><path class="cls-11" d="M1076.13,828.35l-22.38,9.75c-.86-2-1.67-4-2.4-6.08a97.06,97.06,0,0,1-1.27-61.92l23.3,7.28a72.72,72.72,0,0,0,.95,46.41C1074.88,825.34,1075.49,826.87,1076.13,828.35Z"/><path class="cls-12" d="M1068.87,862.37a97.06,97.06,0,0,1-15.12-24.27l22.38-9.75a73.06,73.06,0,0,0,11.33,18.21Z"/><path class="cls-9" d="M1319.58,825.91a40.34,40.34,0,1,0-34.51,72.93c.81.39,1.65.75,2.48,1.08a40.34,40.34,0,0,0,32-74Zm10.08,49.4a30.26,30.26,0,0,1-29.78,17.22,29.88,29.88,0,0,1-8.64-2q-.93-.37-1.86-.81a30.25,30.25,0,1,1,40.28-14.4Z"/><path class="cls-10" d="M1275.53,876.42l-9,4.68a40.39,40.39,0,0,1,6.37-46.4l7.34,6.93a30.32,30.32,0,0,0-4.76,34.79Z"/><path class="cls-11" d="M1291.24,890.52l-3.69,9.4c-.83-.33-1.67-.69-2.48-1.08a40.15,40.15,0,0,1-18.49-17.74l9-4.68a30.08,30.08,0,0,0,13.85,13.29Q1290.31,890.15,1291.24,890.52Z"/><path class="cls-9" d="M1338.79,756.78a40.35,40.35,0,1,0-72.94-34.51c-.38.82-.75,1.65-1.07,2.48a40.34,40.34,0,0,0,74,32Zm-49.41,10.08a30.26,30.26,0,0,1-17.22-29.77,30.61,30.61,0,0,1,2-8.65c.25-.62.52-1.24.81-1.85a30.24,30.24,0,0,1,40.28-14.41,30.25,30.25,0,0,1-25.88,54.68Z"/><path class="cls-9" d="M1288.28,712.73l-4.69-8.94a40.4,40.4,0,0,1,46.4,6.36l-6.92,7.35a30.29,30.29,0,0,0-34.79-4.77Z"/><path class="cls-11" d="M1274.17,728.44l-9.39-3.69c.32-.83.69-1.66,1.07-2.48a40.08,40.08,0,0,1,17.74-18.48l4.69,8.94a30,30,0,0,0-13.3,13.86C1274.69,727.2,1274.42,727.82,1274.17,728.44Z"/><path class="cls-12" d="M1262.1,736.27a40,40,0,0,1,2.68-11.52l9.39,3.69a30.61,30.61,0,0,0-2,8.65Z"/><polygon class="cls-13" points="1289.92 929.19 1214.59 929.19 1214.59 927.69 1288.43 927.69 1288.43 899.23 1289.92 899.23 1289.92 929.19"/><polygon class="cls-13" points="1148.06 929.19 1050.08 929.19 1050.08 927.69 1146.56 927.69 1146.56 881.1 1148.06 881.1 1148.06 929.19"/><rect class="cls-9" x="1050.08" y="912.11" width="67.42" height="8.98"/><rect class="cls-9" x="1214.59" y="912.11" width="39.65" height="8.98"/><rect class="cls-9" x="1034.81" y="620.53" width="32.26" height="6.9"/><rect class="cls-9" x="1169.32" y="646.49" width="50.06" height="6.9"/><rect class="cls-9" x="1104.59" y="646.49" width="30.56" height="6.9"/><rect class="cls-9" x="1034.81" y="646.49" width="60.54" height="6.9"/><rect class="cls-9" x="1076.89" y="620.53" width="47.81" height="6.9"/><rect class="cls-9" x="1144.71" y="646.49" width="13.13" height="6.9"/><rect class="cls-9" x="1183.66" y="620.92" width="35.72" height="6.9"/><rect class="cls-9" x="1232.12" y="646.49" width="30.46" height="6.9"/><rect class="cls-9" x="1136.46" y="620.92" width="37.86" height="6.9"/><path class="cls-14" d="M590.45,570.23c22,48,34.37,93.46,18.17,113.73a26.55,26.55,0,0,1-3.14,3.3c-12.48,11-37,11.24-78.47-5.13-110.3-43.57-115.54-118.76-137.84-192.19-22-72.51-98.82-60.25-100.77-59.93C467.39,367.67,553.11,488.81,590.45,570.23Z"/><path class="cls-15" d="M608.62,684a26.55,26.55,0,0,1-3.14,3.3c-20.72-12.48-60.39-39-79.1-68.65-8.82-14-16.23-29.79-24.1-46.47-14.84-31.54-30.22-64.16-57-89.18l3-3.22c27.44,25.61,43,58.61,58,90.54,7.8,16.56,15.16,32.2,23.86,46C548.33,645.24,588.41,671.81,608.62,684Z"/><path class="cls-16" d="M571.28,589.85c-1.3,3.19-2.13,5-2.23,5.2-.34-1.76-.67-3.51-1-5.2-14.71-75.4-34.39-83.27-93.39-149.22C414.32,373.18,449,310.34,449,310.34,651.16,368.74,585,556.14,571.28,589.85Z"/><path class="cls-17" d="M571.28,589.85c-1.3,3.19-2.13,5-2.23,5.2-.34-1.76-.67-3.51-1-5.2,6.55-65.18-32.77-141.66-45.13-155.38-12.78-14.21-20.66-33.76-23.63-41.12-.5-1.22-1-2.39-1.13-2.65l2.85-1.61a31.9,31.9,0,0,1,1.31,3c2.91,7.21,10.64,26.36,23,40.13C541,449.67,577.29,526.51,571.28,589.85Z"/><rect class="cls-18" x="538.18" y="199.32" width="978.98" height="363.47" rx="46.72"/><rect class="cls-19" x="1314.03" y="303.66" width="119.64" height="12"/><rect class="cls-19" x="1314.03" y="340.82" width="137.51" height="12"/><rect class="cls-19" x="1313.82" y="377.77" width="71.15" height="12"/><rect class="cls-19" x="1313.82" y="414.73" width="109.61" height="12"/><rect class="cls-20" x="589.45" y="987.68" width="367.04" height="12.28"/><rect class="cls-21" x="589.45" y="930.38" width="272.59" height="12.28"/><rect class="cls-22" x="589.45" y="959.03" width="294.54" height="12.28"/><rect class="cls-23" x="589.45" y="987.68" width="191.12" height="12.28"/><rect class="cls-24" x="665.93" y="529.4" width="106.64" height="13.14"/><rect class="cls-24" x="640.06" y="506" width="158.38" height="13.14"/><path class="cls-25" d="M747,325.66a27.54,27.54,0,1,1-27.54-27.53A27.53,27.53,0,0,1,747,325.66Z"/><path class="cls-26" d="M769.16,415.42v52.36a121,121,0,0,1-99.82,0V415.42a49.91,49.91,0,1,1,99.82,0Z"/><rect class="cls-20" x="891.56" y="284.94" width="256.48" height="16.53"/><rect class="cls-20" x="1175.59" y="284.94" width="99.67" height="16.53"/><rect class="cls-20" x="891.56" y="247.29" width="120.44" height="16.53"/><path class="cls-27" d="M719.25,481.82A123.08,123.08,0,0,1,668,470.77a124,124,0,1,1,102.53,0A123,123,0,0,1,719.25,481.82Zm0-241.53A117.51,117.51,0,0,0,670.7,464.8a117.85,117.85,0,0,0,97.1,0,117.51,117.51,0,0,0-48.55-224.52Z"/><path class="cls-20" d="M1162.76,970.92h62.77a16.83,16.83,0,0,1,16.83,16.83v62.77a16.84,16.84,0,0,1-16.84,16.84h-62.76a16.84,16.84,0,0,1-16.84-16.84V987.75A16.83,16.83,0,0,1,1162.76,970.92Z"/><rect class="cls-28" x="1189.59" y="999.95" width="9.13" height="38.37"/><rect class="cls-28" x="1189.59" y="999.96" width="9.12" height="38.37" transform="translate(2213.29 -175.01) rotate(90)"/><rect class="cls-29" x="909.79" y="332.8" width="6.55" height="158.8"/><rect class="cls-29" x="939.87" y="332.8" width="6.55" height="158.8"/><rect class="cls-29" x="969.96" y="332.8" width="6.55" height="158.8"/><rect class="cls-29" x="1000.06" y="332.8" width="6.55" height="158.8"/><rect class="cls-29" x="1030.15" y="332.8" width="6.55" height="158.8"/><rect class="cls-29" x="1060.24" y="332.8" width="6.55" height="158.8"/><rect class="cls-29" x="1090.33" y="332.8" width="6.55" height="158.8"/><rect class="cls-29" x="1120.41" y="332.8" width="6.55" height="158.8"/><rect class="cls-29" x="1150.51" y="332.8" width="6.55" height="158.8"/><rect class="cls-29" x="1180.6" y="332.8" width="6.55" height="158.8"/><rect class="cls-29" x="1210.69" y="332.8" width="6.55" height="158.8"/><rect class="cls-29" x="1240.78" y="332.8" width="6.55" height="158.8"/><rect class="cls-30" x="909.79" y="380.28" width="6.55" height="111.32"/><rect class="cls-30" x="939.87" y="418.75" width="6.55" height="72.85"/><rect class="cls-30" x="969.96" y="355.72" width="6.55" height="135.88"/><rect class="cls-30" x="1000.06" y="452.03" width="6.55" height="39.56"/><rect class="cls-30" x="1030.15" y="412.2" width="6.55" height="79.4"/><rect class="cls-30" x="1060.24" y="382.46" width="6.55" height="109.14"/><rect class="cls-30" x="1090.33" y="421.2" width="6.55" height="70.39"/><rect class="cls-30" x="1120.41" y="372.36" width="6.55" height="119.23"/><rect class="cls-30" x="1150.51" y="426.11" width="6.55" height="65.48"/><rect class="cls-30" x="1180.6" y="386.82" width="6.55" height="104.77"/><rect class="cls-30" x="1210.69" y="439.21" width="6.55" height="52.39"/><rect class="cls-30" x="1240.78" y="386.82" width="6.55" height="104.77"/><rect class="cls-18" x="364.87" y="582.49" width="615.2" height="563.33" rx="34.66"/><path class="cls-31" d="M592.86,753.12a86.44,86.44,0,0,0-46.94-108.49c-1.76-.76-3.57-1.48-5.4-2.13a86.53,86.53,0,1,0,52.34,110.62Zm-103.33,32a64.88,64.88,0,0,1,43.7-122.18c1.37.49,2.72,1,4,1.6a64.88,64.88,0,0,1-47.74,120.58Z"/><path class="cls-32" d="M492,662.05l-6.45-20.68a86.67,86.67,0,0,0-60.73,80l21.65.65a65,65,0,0,1,45.53-60Z"/><path class="cls-33" d="M537.27,664.49l8.65-19.86c-1.76-.76-3.57-1.48-5.4-2.13a86.17,86.17,0,0,0-54.93-1.13L492,662.05a64.59,64.59,0,0,1,41.19.84C534.6,663.38,536,663.92,537.27,664.49Z"/><path class="cls-9" d="M567.46,658a86.12,86.12,0,0,0-21.54-13.41l-8.65,19.86a64.56,64.56,0,0,1,16.16,10.06Z"/><rect class="cls-9" x="838.27" y="928.8" width="30.03" height="102.87"/><rect class="cls-9" x="793.62" y="957.65" width="30.03" height="74.02"/><rect class="cls-9" x="881.58" y="881.13" width="30.03" height="150.54"/><polygon class="cls-9" points="906.77 805.92 906.24 802.67 826.98 815.65 801.29 870.41 715.84 876.21 688.16 917.04 622.83 915.42 622.75 918.71 689.87 920.38 717.66 879.39 803.45 873.57 829.23 818.62 906.77 805.92"/><path class="cls-33" d="M809.91,668.84h85.41a9.76,9.76,0,0,0,9.76-9.76h0a9.76,9.76,0,0,0-9.76-9.76H809.91a9.76,9.76,0,0,0-9.76,9.76h0A9.76,9.76,0,0,0,809.91,668.84Z"/><path class="cls-9" d="M809.91,702.91h85.41a9.77,9.77,0,0,0,9.76-9.77h0a9.76,9.76,0,0,0-9.76-9.76H809.91a9.76,9.76,0,0,0-9.76,9.76h0A9.77,9.77,0,0,0,809.91,702.91Z"/><path class="cls-9" d="M809.91,737h85.41a9.76,9.76,0,0,0,9.76-9.77h0a9.76,9.76,0,0,0-9.76-9.76H809.91a9.76,9.76,0,0,0-9.76,9.76h0A9.76,9.76,0,0,0,809.91,737Z"/><polygon class="cls-9" points="655.32 685.73 606.47 685.73 606.47 683.85 654.54 683.85 680.26 658.14 711.76 658.14 711.76 660.01 681.03 660.01 655.32 685.73"/><polygon class="cls-9" points="701.61 771.06 638.75 771.06 618.38 750.69 619.7 749.36 639.52 769.18 701.61 769.18 701.61 771.06"/><rect class="cls-33" x="684.91" y="670.55" width="65.16" height="8"/><rect class="cls-33" x="665.03" y="752.08" width="52.45" height="7.99"/><path class="cls-34" d="M227.13,790.38c16.41-7.85,32.75,44.41,32.75,44.41,27.91,36.87,66.9-12.18,63.09,42.93-6.68,96.45,111,30.33,56.71,131s47.94,56.93,14.2,138.12,10,178-40.77,138.22c0,0-44.7-98-90.8-128.35s27.62-66.31,13.2-107.5c-20.95-59.83-71.43-57.48-35-121.77S171.33,817.07,227.13,790.38Z"/><path class="cls-20" d="M369.18,1248.19c-22-15.47-47.76-123.32-49.29-187.55-.79-32.9-10.51-46.61-19.1-58.71-8.2-11.56-15.28-21.54-11.16-44.46,7.89-43.82-12.85-62.73-13.05-62.91l2.39-2.74c.93.81,22.52,20.32,14.24,66.29-3.85,21.42,2.51,30.38,10.55,41.72,8.44,11.9,18.95,26.71,19.76,60.72,1.65,68.94,28,170.76,47.75,184.67Z"/><path class="cls-35" d="M377.41,1256.19a47.3,47.3,0,0,1-9.3-1c-8.48-1.72-14-6.19-16.53-13.3-5.93-17,7.81-44.52,19-57.81.18-.22,18.85-23,16.86-54.67-.33-5.3-.88-10.21-1.36-14.53-1.41-12.52-2.42-21.57,2.95-27.6,4.74-5.33,13.89-7.63,30.59-7.71,29.28-.14,40.86-12.26,50.16-22,4-4.13,7.69-8,12.22-10.52h0c14.6-8,30-9.14,36.76-2.78,3.18,3,5.87,8.93.6,20-4.82,10.07-11.07,16.45-16.1,21.58-6.76,6.89-11.22,11.45-8.9,20.53.55,2.13,1.18,4.28,1.81,6.44,4.51,15.44,9.63,33-16.8,44.83-5.61,2.51-10.72,4.52-15.22,6.29-18.45,7.24-29.59,11.61-42.16,38.14-2.43,5.14-4.58,10-6.66,14.71C405.39,1239.2,397.89,1256.18,377.41,1256.19Zm106.31-206c-4,2.2-7.42,5.74-11.33,9.84-9.79,10.24-22,23-52.79,23.13-15.35.07-24,2.07-27.88,6.49-4.3,4.82-3.36,13.19-2.06,24.77.49,4.37,1,9.32,1.39,14.71,2.08,33.13-16.9,56.27-17.71,57.24-11,13.14-23.55,39.32-18.32,54.27,2,5.81,6.68,9.49,13.81,10.93,24.89,5,31.76-10.54,43.15-36.34,2.08-4.73,4.24-9.62,6.7-14.81,13.18-27.83,25.48-32.66,44.11-40,4.47-1.75,9.53-3.74,15.06-6.22,23.54-10.58,19.29-25.11,14.79-40.49-.64-2.19-1.28-4.39-1.84-6.56-2.83-11.06,2.76-16.77,9.83-24,5.09-5.19,10.85-11.08,15.41-20.61,2.39-5,4.37-11.78.18-15.74-5.49-5.21-19.47-3.78-32.5,3.34Z"/><path class="cls-36" d="M368.5,1277.2l-3.63-.2c.18-3.41,4.76-83.89,37.08-107.45,35.45-25.84,46.63-53.61,51.95-72.25,6.27-22,38.2-27.83,39.55-28.07l.64,3.58c-.31.06-31,5.72-36.69,25.49-5.47,19.16-16.95,47.69-53.31,74.19C373.16,1195,368.55,1276.37,368.5,1277.2Z"/><path class="cls-37" d="M442.38,871.6c-23-7.88-18.19,36.39-27.89,69.15s-108,14.29-66.72,96.3-52.17,27.43-24.27,99,2.43,148.11,32.76,128.64,17-109.6,48.57-120.31,36.69-23.2,5.47-52.31,81.82-58,53.92-116.8S468.92,880.7,442.38,871.6Z"/><path class="cls-20" d="M370.33,1261.27c-2.89-12.25-27.56-120.08-4.54-133.11,20.28-11.49,19.79-56.17,16.62-98.36-2.8-37.35,45.17-54.81,47.21-55.53l1.21,3.43c-.47.17-47.38,17.26-44.79,51.83,3.25,43.33,3.6,89.31-18.46,101.8-17.48,9.9-1.39,96.55,6.29,129.11Z"/><polygon class="cls-38" points="422.54 1222.88 389.75 1347.28 316.46 1347.28 283.67 1222.88 422.54 1222.88"/><path class="cls-39" d="M422.54,1222.88s-72.19,13.55-72.19,124.4H316.46l-32.79-124.4Z"/><polygon class="cls-19" points="620.8 149.84 620.8 160.39 517.95 160.39 517.95 263.24 507.4 263.24 507.4 149.84 620.8 149.84"/><rect class="cls-19" x="1467.98" y="119.1" width="83.72" height="5.87"/><rect class="cls-19" x="1467.98" y="130.16" width="83.72" height="24.67"/><rect class="cls-19" x="1410.57" y="139.54" width="49.38" height="3.69"/><rect class="cls-19" x="1410.57" y="144.84" width="49.38" height="9.99"/><rect class="cls-19" x="1549.86" y="119.1" width="3.68" height="69.13"/><rect class="cls-40" x="524.31" y="1061.26" width="103.31" height="6.13"/><rect class="cls-41" x="538.15" y="1083.36" width="9.05" height="278.9" transform="translate(1085.36 2445.61) rotate(180)"/><rect class="cls-42" x="611.45" y="1059.53" width="71.81" height="8.76"/><rect class="cls-43" x="633.76" y="984.8" width="27.19" height="82.59"/><rect class="cls-44" x="487.25" y="1067.5" width="397.87" height="15.86"/><path class="cls-45" d="M410.89,971.52s-4.35,61,7.57,68.33c7.47,4.57,37.25,20,36.37,22.89S438,1088.5,438,1088.5,380.8,1050.82,379,1039c-1.8-11.59,2.82-89.35,10.68-92.93,5.89-2.69,9-.47,16.42,5C416.47,958.8,410.89,971.52,410.89,971.52Z"/><path class="cls-46" d="M481.27,1324.18s-1.78,12.35-2,14.2-19.79-1.09-19.79-1.09l-1.59-14.7S478.83,1322.44,481.27,1324.18Z"/><path class="cls-47" d="M479.47,1336.81s6.21,7.44,12.21,10.68,15.41,4.53,19,7.89c2.56,2.42,9.32,12.85-15.59,12.64s-36.9,1.48-39.57-2.52,3.86-29.53,3.86-29.53S465.24,1338.1,479.47,1336.81Z"/><path class="cls-46" d="M606.63,1324.3s-1.78,12.34-2,14.2-19.79-1.1-19.79-1.1l-1.58-14.7S604.19,1322.55,606.63,1324.3Z"/><path class="cls-47" d="M604.84,1336.93s6.2,7.44,12.2,10.68,28.06,5.91,31.6,9.26c2.56,2.43,6.82,12.18-28.22,11.27-24.89-.65-36.91,1.47-39.58-2.53s3.86-29.52,3.86-29.52S590.26,1338.36,604.84,1336.93Z"/><path class="cls-47" d="M418.16,1110.88s71.13,12,87.21,14.56,103.18,24.21,114.08,30.81c8.67,5.26-4.55,131.54-7.64,179.72H577.5L575,1191.45c-41.18,1-70.56-9.63-100.55-5.08s-55,11-74-14.53C400.42,1171.84,399.72,1116.47,418.16,1110.88Z"/><path class="cls-47" d="M488.27,1336.09,454.84,1334l-3.26-142.57c-17.73.44-23.8-.68-38.15-2.42l-27-62.76c23.66,4.73,99.48,23.85,109.58,30C504.69,1161.51,491.36,1287.91,488.27,1336.09Z"/><path class="cls-48" d="M450.9,844.23s26.09-7.2,36,13,5.44,58.62-7.7,62.23-32-.55-37.5-13.14-9.81-30.51-8.5-42.1S444,847,450.9,844.23Z"/><path class="cls-48" d="M472.42,915.46s-.29,15.4,1.41,18.68-36.31,2.46-36.31,2.46,6-18.49,2.58-34.24C436.74,886.77,472.42,915.46,472.42,915.46Z"/><path class="cls-49" d="M438.06,896.53s2,4.13,11.87,3.46,22.81-12.53,27-13.59,4.43-3.44,4.43-3.44l2.21,3.93,4.28.65s-2.91-11.89,3.42-16.08-2.85-37.93-34.93-29.79c0,0-24.49,4.48-24.81,18.15S433.3,889.29,438.06,896.53Z"/><path class="cls-40" d="M475.82,933.75s-.1-6.28-2.95-6.88-29.87-4.32-33.36-2.94L438,932.2S444.73,936.34,475.82,933.75Z"/><path class="cls-48" d="M483.65,880.16c-.73-5.14-6.58-11-9.92-3s2.26,19.66,6,19S484.64,887.13,483.65,880.16Z"/><path class="cls-50" d="M589.06,1007.84h0C589.21,1007.92,589.24,1007.93,589.06,1007.84Z"/><path class="cls-49" d="M443.3,847.9s-31.8-1.5-5.55,48.14Z"/><polygon class="cls-51" points="372.46 1353.01 374.82 1359.66 474.76 1328.69 469.97 1315.22 372.46 1353.01"/><rect class="cls-51" x="466.83" y="1215.3" width="11.36" height="108.65"/><rect class="cls-52" x="439.01" y="1209.52" width="67" height="6.4"/><polygon class="cls-51" points="573.44 1353.01 571.08 1359.66 471.14 1328.69 475.53 1314.37 573.44 1353.01"/><polygon class="cls-51" points="503.03 1358.94 503.03 1366.68 471.14 1328.69 475.53 1314.37 503.03 1358.94"/><path class="cls-53" d="M582.78,1362.26a9.34,9.34,0,1,1-9.34-9.34A9.34,9.34,0,0,1,582.78,1362.26Z"/><path class="cls-53" d="M503.82,1362.26a9.34,9.34,0,1,1-9.34-9.34A9.34,9.34,0,0,1,503.82,1362.26Z"/><path class="cls-53" d="M381.8,1362.26a9.34,9.34,0,1,1-9.34-9.34A9.34,9.34,0,0,1,381.8,1362.26Z"/><rect class="cls-40" x="393.59" y="1185.27" width="158.72" height="24.25" rx="11.07"/><rect class="cls-41" x="825.16" y="1083.36" width="9.05" height="278.9"/><rect class="cls-54" x="529.95" y="858.94" width="234.81" height="165.65" rx="11.05"/><rect class="cls-55" x="539.14" y="867.9" width="216.42" height="130.74"/><path class="cls-56" d="M746,1011c0,3.72-3.91,6.73-8.73,6.73s-8.72-3-8.72-6.73,3.91-6.73,8.72-6.73S746,1007.25,746,1011Z"/><path class="cls-43" d="M696,1067.71v-3s-4.14-18.33-33.45-18.33-28.72,21.28-28.72,21.28Z"/><path class="cls-48" d="M633.43,1049.15s6.37-.49,8.71-1.9,16.28-10.79,19.56-9.29,25.1,8.19,24.34,11.38-2.77,2.88-4.31,2.31-17.39-3.89-18.78-3.33c0,0,15.56,5.68,15.62,9.83s-3.26,5.15-4.73,6.71-3.25,5.46-7.26,5.76S643,1064.11,639,1063.8s-11.48.25-12-.41S633.43,1049.15,633.43,1049.15Z"/><path class="cls-45" d="M517.5,942.44c-20.3-3.57-41.68-8.69-41.68-8.69L438,932.2s-34.7,7.65-48.37,13.82c-1.3.59-1.31,31-4.86,38.92l11.33,23.91s6.54,47.35,7.9,68.42c.63,9.66-1.76,93.43-1.76,93.43s3.4,1.68,29.2,4.53,90.3-1,90.7-4.08-12.49-113.5-13.06-119.22c-.87-8.78,2.54-49.35,2.54-49.35,4.86,6.54,17.26,36,30.18,50.07,7.6,8.25,45.23,13.31,52.33,13.55,15.44.51,43.61,3.59,44.43,2.09.66-.9,2.46-25,.69-25.6-1.54-.51-53.86-3.52-67.26-10.63-4.9-2.6-19.55-34.56-19.55-34.56S528.7,947.47,517.5,942.44Z"/><rect class="cls-40" x="356.51" y="1016.69" width="109.46" height="151.59" rx="21.26"/><path class="cls-40" d="M446.57,1203.49c-16.13,0-29.23-5.42-38.91-16.11-21.88-24.16-17.94-66.63-17.77-68.42a6.09,6.09,0,0,1,12.12,1.2c0,.48-3.53,39,14.71,59.07,7.37,8.13,17.14,12.08,29.85,12.08a6.09,6.09,0,0,1,0,12.18Z"/><rect class="cls-57" x="554.49" y="878.31" width="63.39" height="6.91" rx="1.58"/><rect class="cls-57" x="554.49" y="893.12" width="63.39" height="6.91" rx="1.58"/><path class="cls-57" d="M559.81,910.12h52.75a5.33,5.33,0,0,1,5.33,5.33v67.45a5.32,5.32,0,0,1-5.32,5.32H559.81a5.32,5.32,0,0,1-5.32-5.32V915.44A5.32,5.32,0,0,1,559.81,910.12Z"/><rect class="cls-57" x="630.68" y="878.31" width="112.89" height="109.91" rx="8.43"/><polygon class="cls-47" points="1466.13 862.25 1404.12 896.34 1341.84 798.34 1417.17 772.18 1466.13 862.25"/><polygon class="cls-40" points="1462.2 859.31 1404.2 891.19 1345.97 799.54 1416.41 775.07 1462.2 859.31"/><path class="cls-48" d="M1483.44,842.17s-10.8-5.16-15.53-7.86S1451,827.91,1450,827s-36.12-3-38.25-4.89-4.21,4.31,4.9,6.31,21.78,6.87,22.47,10.43-9.35,4.4-10.37,7.34.29,2.27,1.73,2.9,11.94-5.19,16.57-3.54,11.69-.64,15.23.57,20.77,7,20.77,7Z"/><path class="cls-48" d="M1401.1,884.05s-9.07-8.17-13.46-11.58-12.62-13.46-13.83-14-16.94-32.86-19.5-34.15,2.42-5.64,7.84,2.17,15,17.84,18.59,17.11.5-10.53,2.88-12.63,2.25-.62,3.4.5-.24,13.28,3.12,17,3.95,11.27,6.48,14.13,14.68,16.84,14.68,16.84Z"/><path class="cls-46" d="M1596.38,1320.25s2,13.61,2.21,15.66,21.82-1.2,21.82-1.2l1.75-16.21S1599.08,1318.33,1596.38,1320.25Z"/><path class="cls-47" d="M1598.35,1334.18s-6.83,8.2-13.44,11.78-17,5-20.91,8.69c-2.82,2.67-10.28,14.18,17.18,13.94s40.7,1.63,43.64-2.78-4.26-32.55-4.26-32.55S1614.06,1335.6,1598.35,1334.18Z"/><path class="cls-46" d="M1441.79,1320.25s2,13.61,2.21,15.66,21.82-1.2,21.82-1.2l1.75-16.21S1444.49,1318.33,1441.79,1320.25Z"/><path class="cls-47" d="M1443.77,1334.18s-6.83,8.2-13.45,11.78-30.93,6.51-34.85,10.21c-2.82,2.68-7.51,13.43,31.12,12.42,27.46-.71,40.7,1.63,43.64-2.78s-4.26-32.55-4.26-32.55S1459.85,1335.76,1443.77,1334.18Z"/><path class="cls-47" d="M1578.51,970.42s20.28,32.2,18.76,61.32,7.35,60.9,10.4,91.31c3.39,33.91,17.29,114.17,17.79,132.31s-2.15,76.05-2.15,76.05l-27.81.64s-23.36-140.33-29.41-154.65S1530,1061,1529,1049.55,1578.51,970.42,1578.51,970.42Z"/><path class="cls-47" d="M1471.8,974.78s-15.28,79.79-17.29,97.61-3.36,86.24-4.38,97.38-6.72,145.73-12.1,162.28h35.56s27.29-97.85,27.29-144.15,21.09-100.64,34.7-131.19,44.76-31.27,53.14-87.94C1588.72,968.77,1483.12,956.8,1471.8,974.78Z"/><path class="cls-48" d="M1544.69,699.63s-27.21-10.17-39.76,10.55-11.34,62.18,2.38,67.27,34.32,2.44,41.34-10.52,13.36-31.7,13.06-44.22S1551.83,703.24,1544.69,699.63Z"/><path class="cls-48" d="M1510.26,778.4s1.14,7.35-.74,11,35.26,3.71,35.26,3.71,3-19.68,8.73-36.31S1510.26,778.4,1510.26,778.4Z"/><path class="cls-49" d="M1553.51,756.77s-2.57,4.22-13,2.58-23.22-15.55-27.58-17.08-4.41-4.09-4.41-4.09l-2.74,4-4.63.3s4.23-12.45-2.15-17.53,6.62-40.29,40.16-28.56c0,0,25.76,7.1,24.83,21.75S1559.27,749.47,1553.51,756.77Z"/><path class="cls-40" d="M1507.32,788.93s.12-6.91,3.25-7.57,34.6-3.69,38.44-2.18v8.06S1541.6,791.8,1507.32,788.93Z"/><path class="cls-48" d="M1509.18,732.85c.59-2.46,6.84-9.48,9.23-2s-3.62,17.63-7,16.77S1507.7,739.08,1509.18,732.85Z"/><path class="cls-50" d="M1382.46,870.63h0C1382.29,870.72,1382.27,870.73,1382.46,870.63Z"/><path class="cls-58" d="M1601.38,1047.14s-16.69,4.92-45.14,8-99.55-1.13-100-4.49,15.29-125.18,14.4-131.46-1.38-28.62-1.38-28.62c-.35,6.12-6.59,31.14-14.12,44.78-2.73,4.93-11.85,20.37-16.25,16.86-21.3-17-54.28-81.1-56.37-81.63,1.75-.77,15.62-7.16,17.57-7.81,1.71-.56,17.07,15.71,26.38,25.79,4.15,4.5,7.1,7.76,7.1,7.76,2.69-6,12.48-44.15,15.53-57.34,6.86-29.75,5.8-31,5.8-31,20.82-6.3,52.42-19.12,52.42-19.12l41.69-1.7s38.27,8.43,53.34,15.23c1.43.65,1.44,34.14,5.36,42.92l-12.5,26.36S1588,924,1586.5,947.18C1585.81,957.84,1601.38,1047.14,1601.38,1047.14Z"/><path class="cls-58" d="M1609.44,888.87c-1.09,3.51-6,6.48-9.25,7.78a11.93,11.93,0,0,1-6.67.67l-1.63-.3h0l-28.57-5.3s-6.25-72,39-89.26C1603.55,802.85,1619.44,856.63,1609.44,888.87Z"/><path class="cls-59" d="M1600.19,896.65h0a11.93,11.93,0,0,1-6.67.67l-1.63-.3h0l2.82-36.8Z"/><path class="cls-59" d="M1433.57,896.37l-3.49,14.79s-3.79-14.84-3.61-22.55C1430.62,893.11,1433.57,896.37,1433.57,896.37Z"/><path class="cls-49" d="M1552.44,702.07s35.65-4.46.6,55.1Z"/><polygon class="cls-47" points="1370.51 793.08 1366.89 786.86 1395.44 777.01 1399.07 783.2 1370.51 793.08"/></g><rect class="cls-4" x="1116.69" y="67.55" width="55.88" height="49.2"/></g></g></svg>
