<svg width="80" height="80" viewBox="0 0 80 80" fill="none" xmlns="http://www.w3.org/2000/svg">
<g clip-path="url(#clip0_33_670)">
<path d="M49.1214 65.3097H29.4611C29.0921 65.3097 28.7383 65.163 28.4774 64.902C28.2165 64.641 28.0699 64.287 28.0699 63.9179V53.5456C24.7731 51.1768 22.312 47.8232 21.0402 43.9669C19.7684 40.1106 19.7515 35.9502 20.9919 32.0837C22.2323 28.2171 24.6661 24.8436 27.9435 22.4481C31.2209 20.0525 35.1731 18.7582 39.232 18.7513C43.2909 18.7444 47.2475 20.0252 50.533 22.4095C53.8186 24.7939 56.2639 28.1591 57.5174 32.0214C58.771 35.8836 58.7683 40.0441 57.5096 43.9047C56.251 47.7653 53.8013 51.1273 50.5126 53.5073V63.9179C50.5126 64.287 50.366 64.641 50.1051 64.902C49.8442 65.163 49.4904 65.3097 49.1214 65.3097ZM30.8522 62.5261H47.7303V52.7836C47.7305 52.5541 47.7875 52.3282 47.8961 52.126C48.0047 51.9239 48.1616 51.7517 48.3528 51.6249C51.2899 49.6717 53.52 46.8239 54.7127 43.5034C55.9054 40.1829 55.9972 36.5664 54.9746 33.1896C53.952 29.8127 51.8693 26.8553 49.0351 24.7554C46.2009 22.6556 42.766 21.5249 39.2393 21.531C35.7125 21.5371 32.2815 22.6796 29.4546 24.7893C26.6277 26.8989 24.5552 29.8635 23.5443 33.2439C22.5333 36.6242 22.6376 40.2404 23.8418 43.5567C25.0459 46.8731 27.2858 49.7132 30.2296 51.6562C30.4214 51.7834 30.5786 51.9561 30.6872 52.1589C30.7958 52.3617 30.8525 52.5883 30.8522 52.8184V62.5261Z" fill="#00FFD1"/>
<path d="M35.743 54.3293L30.5007 37.6493H48.1339L42.8916 54.3293" stroke="#FFA800" stroke-width="3" stroke-linejoin="round"/>
<path d="M47.9459 70.2053H30.4696C30.1007 70.2053 29.7468 70.0586 29.4859 69.7976C29.225 69.5366 29.0785 69.1826 29.0785 68.8135C29.0785 68.4444 29.225 68.0903 29.4859 67.8293C29.7468 67.5683 30.1007 67.4217 30.4696 67.4217H47.9459C48.3149 67.4217 48.6687 67.5683 48.9296 67.8293C49.1905 68.0903 49.3371 68.4444 49.3371 68.8135C49.3371 69.1826 49.1905 69.5366 48.9296 69.7976C48.6687 70.0586 48.3149 70.2053 47.9459 70.2053Z" fill="#00FFD1"/>
<path d="M46.0991 75.1009H32.3268C31.9578 75.1009 31.604 74.9543 31.3431 74.6932C31.0822 74.4322 30.9356 74.0782 30.9356 73.7091C30.9356 73.34 31.0822 72.986 31.3431 72.725C31.604 72.464 31.9578 72.3173 32.3268 72.3173H46.0991C46.4681 72.3173 46.8219 72.464 47.0828 72.725C47.3437 72.986 47.4903 73.34 47.4903 73.7091C47.4903 74.0782 47.3437 74.4322 47.0828 74.6932C46.8219 74.9543 46.4681 75.1009 46.0991 75.1009Z" fill="#00FFD1"/>
<path d="M42.8647 79.9965H35.5612C35.1923 79.9965 34.8384 79.8499 34.5775 79.5889C34.3166 79.3279 34.1701 78.9739 34.1701 78.6047C34.1701 78.2356 34.3166 77.8816 34.5775 77.6206C34.8384 77.3596 35.1923 77.213 35.5612 77.213H42.8647C43.2337 77.213 43.5875 77.3596 43.8484 77.6206C44.1093 77.8816 44.2559 78.2356 44.2559 78.6047C44.2559 78.9739 44.1093 79.3279 43.8484 79.5889C43.5875 79.8499 43.2337 79.9965 42.8647 79.9965Z" fill="#00FFD1"/>
<path d="M39.2825 15.4071C38.9136 15.4071 38.5597 15.2605 38.2988 14.9995C38.038 14.7384 37.8914 14.3844 37.8914 14.0153V1.39179C37.8914 1.02266 38.038 0.668655 38.2988 0.407644C38.5597 0.146633 38.9136 0 39.2825 0C39.6515 0 40.0053 0.146633 40.2662 0.407644C40.5271 0.668655 40.6737 1.02266 40.6737 1.39179V14.0153C40.6737 14.3844 40.5271 14.7384 40.2662 14.9995C40.0053 15.2605 39.6515 15.4071 39.2825 15.4071Z" fill="#AD00FF"/>
<path d="M26.7274 18.0793C26.4829 18.0797 26.2426 18.0156 26.0307 17.8934C25.8188 17.7712 25.6429 17.5953 25.5206 17.3834L19.2187 6.46139C19.0342 6.14163 18.9843 5.76165 19.0798 5.40505C19.1754 5.04844 19.4086 4.74442 19.7282 4.55986C20.0478 4.3753 20.4276 4.32531 20.7841 4.4209C21.1405 4.5165 21.4444 4.74984 21.6289 5.0696L27.9308 15.9917C28.1146 16.3114 28.1641 16.6912 28.0682 17.0474C27.9723 17.4037 27.739 17.7072 27.4195 17.8915C27.2099 18.0151 26.9708 18.08 26.7274 18.0793Z" fill="#AD00FF"/>
<path d="M17.7198 26.4301C17.4758 26.4307 17.2359 26.3671 17.0242 26.2456L6.10368 19.9304C5.93743 19.8434 5.79049 19.7236 5.6717 19.5783C5.55291 19.4331 5.46473 19.2652 5.41245 19.0849C5.36017 18.9047 5.34489 18.7157 5.36751 18.5293C5.39014 18.343 5.45021 18.1632 5.5441 18.0006C5.638 17.8381 5.76378 17.6963 5.91388 17.5837C6.06398 17.4711 6.2353 17.39 6.41754 17.3453C6.59977 17.3007 6.78916 17.2934 6.9743 17.3238C7.15943 17.3543 7.33649 17.4219 7.49483 17.5226L18.4153 23.8344C18.6798 23.9879 18.8864 24.2243 19.0031 24.5071C19.1198 24.7898 19.1402 25.1032 19.061 25.3987C18.9818 25.6942 18.8075 25.9553 18.5651 26.1418C18.3226 26.3282 18.0256 26.4295 17.7198 26.4301Z" fill="#AD00FF"/>
<path d="M13.995 37.5852H1.39115C1.02219 37.5852 0.668348 37.4386 0.407457 37.1776C0.146566 36.9166 0 36.5626 0 36.1935C0 35.8243 0.146566 35.4703 0.407457 35.2093C0.668348 34.9483 1.02219 34.8017 1.39115 34.8017H13.995C14.3639 34.8017 14.7178 34.9483 14.9786 35.2093C15.2395 35.4703 15.3861 35.8243 15.3861 36.1935C15.3861 36.5626 15.2395 36.9166 14.9786 37.1776C14.7178 37.4386 14.3639 37.5852 13.995 37.5852Z" fill="#AD00FF"/>
<path d="M52.3837 18.0793C52.1392 18.0801 51.899 18.0152 51.6881 17.8914C51.3692 17.7067 51.1366 17.4028 51.0415 17.0466C50.9463 16.6904 50.9962 16.311 51.1804 15.9917L57.4823 5.0696C57.6667 4.74984 57.9706 4.5165 58.3271 4.4209C58.6835 4.32531 59.0633 4.3753 59.3829 4.55986C59.7025 4.74442 59.9358 5.04844 60.0313 5.40505C60.1269 5.76165 60.0769 6.14163 59.8924 6.46139L53.5905 17.3834C53.4683 17.5953 53.2923 17.7712 53.0804 17.8934C52.8686 18.0156 52.6282 18.0797 52.3837 18.0793Z" fill="#AD00FF"/>
<path d="M61.3983 26.4301C61.0926 26.4295 60.7954 26.3282 60.553 26.1418C60.3106 25.9553 60.1363 25.6942 60.0571 25.3987C59.9779 25.1032 59.9982 24.7898 60.115 24.5071C60.2317 24.2243 60.4383 23.9879 60.7028 23.8344L71.6267 17.5296C71.9447 17.3632 72.3146 17.3261 72.6592 17.4261C73.0038 17.5262 73.2964 17.7555 73.476 18.0663C73.6556 18.3771 73.7081 18.7453 73.6228 19.0939C73.5374 19.4426 73.3207 19.7448 73.0179 19.9374L62.1009 26.2457C61.8871 26.3683 61.6447 26.4319 61.3983 26.4301Z" fill="#AD00FF"/>
<path d="M77.72 37.5852H65.1162C64.7472 37.5852 64.3934 37.4386 64.1325 37.1776C63.8716 36.9166 63.725 36.5626 63.725 36.1935C63.725 35.8243 63.8716 35.4703 64.1325 35.2093C64.3934 34.9483 64.7472 34.8017 65.1162 34.8017H77.72C78.0889 34.8017 78.4428 34.9483 78.7037 35.2093C78.9645 35.4703 79.1111 35.8243 79.1111 36.1935C79.1111 36.5626 78.9645 36.9166 78.7037 37.1776C78.4428 37.4386 78.0889 37.5852 77.72 37.5852Z" fill="#AD00FF"/>
</g>
<defs>
<clipPath id="clip0_33_670">
<rect width="79.1111" height="80" fill="white"/>
</clipPath>
</defs>
</svg>
