<svg width="88" height="88" viewBox="0 0 88 88" fill="none" xmlns="http://www.w3.org/2000/svg">
<circle cx="44" cy="44" r="43.5" fill="#2E2B39" stroke="#AC00FF"/>
<path d="M41.55 38.6875C41.55 41.9037 38.937 44.5 35.7 44.5C32.463 44.5 29.85 41.9037 29.85 38.6875C29.85 35.4712 32.463 32.875 35.7 32.875C38.937 32.875 41.55 35.4712 41.55 38.6875ZM47.4 60H24V56.125C24 51.8431 29.2455 48.375 35.7 48.375C42.1545 48.375 47.4 51.8431 47.4 56.125V60ZM33.75 38.6875C33.75 39.7531 34.6275 40.625 35.7 40.625C36.7725 40.625 37.65 39.7531 37.65 38.6875C37.65 37.6219 36.7725 36.75 35.7 36.75C34.6275 36.75 33.75 37.6219 33.75 38.6875ZM27.9 56.125H43.5C43.5 53.9937 40.0095 52.25 35.7 52.25C31.3905 52.25 27.9 53.9937 27.9 56.125ZM63 44.5V48.375H45.45V44.5H63ZM63 36.75V40.625H45.45V36.75H63ZM63 29V32.875H45.45V29H63Z" fill="white"/>
</svg>
