<svg width="439" height="362" viewBox="0 0 439 362" fill="none" xmlns="http://www.w3.org/2000/svg">
<g clip-path="url(#clip0_1111_3180)">
<path d="M366.54 62.1363C361.779 62.1375 357.124 60.7246 353.164 58.0765C349.205 55.4283 346.119 51.6639 344.297 47.2593C342.475 42.8548 341.998 38.0081 342.928 33.3324C343.857 28.6566 346.151 24.362 349.519 20.9918C352.886 17.6215 357.177 15.3271 361.847 14.3988C366.518 13.4704 371.358 13.9499 375.756 15.7765C380.154 17.6031 383.913 20.6948 386.556 24.6604C389.199 28.626 390.607 33.2874 390.604 38.0549C390.604 41.2195 389.981 44.3531 388.772 47.2768C387.562 50.2005 385.789 52.857 383.554 55.0946C381.319 57.3322 378.665 59.1071 375.745 60.3179C372.825 61.5287 369.695 62.1517 366.534 62.1513L366.54 62.1363ZM397.863 29.9119C397.11 26.9973 395.953 24.2029 394.425 21.6101L397.926 16.3402L393.069 11.4778L388.21 6.61239L382.947 10.1176C380.357 8.58737 377.566 7.42862 374.655 6.67529L373.407 0.473694H359.67L358.425 6.67529C355.514 7.42809 352.723 8.58687 350.134 10.1176L344.867 6.61239L340.011 11.4778L335.152 16.3402L338.652 21.6101C337.126 24.2035 335.969 26.9978 335.214 29.9119L329.021 31.1612V44.9156L335.214 46.1649C335.969 49.079 337.126 51.8732 338.652 54.4667L335.152 59.7365L340.011 64.602L344.867 69.4644L350.134 65.9591C352.723 67.4899 355.514 68.6487 358.425 69.4015L359.67 75.6031H373.407L374.655 69.4015C377.566 68.6481 380.357 67.4894 382.947 65.9591L388.21 69.4644L393.069 64.602L397.926 59.7365L394.425 54.4667C395.953 51.8739 397.11 49.0794 397.863 46.1649L404.057 44.9156V31.1642L397.863 29.9119Z" fill="#8600C7"/>
<path d="M366.54 62.1363C361.779 62.1375 357.124 60.7246 353.164 58.0765C349.205 55.4283 346.119 51.6639 344.297 47.2593C342.475 42.8548 341.998 38.0081 342.928 33.3324C343.857 28.6566 346.151 24.362 349.519 20.9918C352.886 17.6215 357.177 15.3271 361.847 14.3988C366.518 13.4704 371.358 13.9499 375.756 15.7765C380.154 17.6031 383.913 20.6948 386.556 24.6604C389.199 28.626 390.607 33.2874 390.604 38.0549C390.604 41.2195 389.981 44.3531 388.772 47.2768C387.562 50.2005 385.789 52.857 383.554 55.0946C381.319 57.3322 378.665 59.1071 375.745 60.3179C372.825 61.5287 369.695 62.1517 366.534 62.1513L366.54 62.1363ZM397.863 29.9119C397.11 26.9973 395.953 24.2029 394.425 21.6101L397.926 16.3402L393.069 11.4778L388.21 6.61239L382.947 10.1176C380.357 8.58737 377.566 7.42862 374.655 6.67529L373.407 0.473694H359.67L358.425 6.67529C355.514 7.42809 352.723 8.58687 350.134 10.1176L344.867 6.61239L340.011 11.4778L335.152 16.3402L338.652 21.6101C337.126 24.2035 335.969 26.9978 335.214 29.9119L329.021 31.1612V44.9156L335.214 46.1649C335.969 49.079 337.126 51.8732 338.652 54.4667L335.152 59.7365L340.011 64.602L344.867 69.4644L350.134 65.9591C352.723 67.4899 355.514 68.6487 358.425 69.4015L359.67 75.6031H373.407L374.655 69.4015C377.566 68.6481 380.357 67.4894 382.947 65.9591L388.21 69.4644L393.069 64.602L397.926 59.7365L394.425 54.4667C395.953 51.8739 397.11 49.0794 397.863 46.1649L404.057 44.9156V31.1642L397.863 29.9149" fill="#8600C7"/>
<path d="M392.874 103.175C390.692 103.175 388.558 102.527 386.744 101.313C384.929 100.099 383.514 98.373 382.679 96.354C381.844 94.3351 381.625 92.1135 382.051 89.9702C382.477 87.8268 383.528 85.8581 385.071 84.3129C386.615 82.7676 388.581 81.7153 390.722 81.289C392.862 80.8626 395.081 81.0815 397.097 81.9177C399.114 82.754 400.837 84.1702 402.05 85.9872C403.263 87.8042 403.91 89.9404 403.91 92.1257C403.91 95.0561 402.747 97.8665 400.678 99.9386C398.608 102.011 395.801 103.175 392.874 103.175ZM407.237 88.4018C406.89 87.0652 406.358 85.7835 405.657 84.5939L407.264 82.1792L405.038 79.9472L402.812 77.7182L400.397 79.327C399.209 78.6263 397.929 78.0949 396.594 77.7482L396.022 74.905H389.739L389.167 77.7482C387.832 78.0944 386.552 78.6258 385.364 79.327L382.952 77.7182L380.723 79.9472L378.497 82.1792L380.104 84.5939C379.404 85.7836 378.873 87.0653 378.527 88.4018L375.687 88.974V95.2655L378.527 95.8377C378.872 97.1737 379.402 98.4545 380.104 99.6425L378.497 102.06L380.723 104.289L382.952 106.518L385.364 104.912C386.551 105.614 387.832 106.144 389.167 106.488L389.739 109.331H396.022L396.594 106.488C397.929 106.144 399.209 105.613 400.397 104.912L402.812 106.518L405.038 104.289L407.264 102.06L405.657 99.6425C406.358 98.454 406.89 97.1734 407.237 95.8377L410.074 95.2655V88.974L407.237 88.4018Z" fill="#8600C7"/>
<path d="M392.874 103.175C390.692 103.175 388.558 102.527 386.744 101.313C384.929 100.099 383.514 98.373 382.679 96.354C381.844 94.3351 381.625 92.1135 382.051 89.9702C382.477 87.8268 383.528 85.8581 385.071 84.3129C386.615 82.7676 388.581 81.7153 390.722 81.289C392.862 80.8626 395.081 81.0815 397.097 81.9177C399.114 82.754 400.837 84.1702 402.05 85.9872C403.263 87.8042 403.91 89.9404 403.91 92.1257C403.91 95.0561 402.747 97.8665 400.678 99.9386C398.608 102.011 395.801 103.175 392.874 103.175ZM407.237 88.4018C406.89 87.0652 406.358 85.7835 405.657 84.5939L407.264 82.1792L405.038 79.9472L402.812 77.7182L400.397 79.327C399.209 78.6263 397.929 78.0949 396.594 77.7482L396.022 74.905H389.739L389.167 77.7482C387.832 78.0944 386.552 78.6258 385.364 79.327L382.952 77.7182L380.723 79.9472L378.497 82.1792L380.104 84.5939C379.404 85.7836 378.873 87.0653 378.527 88.4018L375.687 88.974V95.2655L378.527 95.8377C378.872 97.1737 379.402 98.4545 380.104 99.6425L378.497 102.06L380.723 104.289L382.952 106.518L385.364 104.912C386.551 105.614 387.832 106.144 389.167 106.488L389.739 109.331H396.022L396.594 106.488C397.929 106.144 399.209 105.613 400.397 104.912L402.812 106.518L405.038 104.289L407.264 102.06L405.657 99.6425C406.358 98.454 406.89 97.1734 407.237 95.8377L410.074 95.2655V88.974L407.237 88.4018Z" fill="#8600C7"/>
<path d="M207.643 307.511H241.431V204.75H207.643V307.511Z" fill="#AEBECC"/>
<path d="M93.4743 254.249H355.594C359.53 254.249 363.304 252.683 366.087 249.897C368.869 247.111 370.433 243.332 370.433 239.392V63.0111C370.433 59.0708 368.869 55.2919 366.087 52.5057C363.304 49.7195 359.53 48.1542 355.594 48.1542H93.4743C91.5255 48.1538 89.5956 48.5378 87.795 49.2842C85.9944 50.0307 84.3582 51.125 82.98 52.5046C81.6018 53.8843 80.5085 55.5222 79.7626 57.3249C79.0168 59.1276 78.6328 61.0598 78.6328 63.0111V239.383C78.6328 241.334 79.0168 243.266 79.7626 245.069C80.5085 246.872 81.6018 248.509 82.98 249.889C84.3582 251.269 85.9944 252.363 87.795 253.11C89.5956 253.856 91.5255 254.24 93.4743 254.24" fill="#F0F0F0"/>
<path d="M90.0723 221.952H359.003V26.2179H90.0723V221.952Z" fill="white"/>
<path d="M90.0723 49.8589H359.003V26.2179H90.0723V49.8589Z" fill="#AC00FF"/>
<path d="M215.124 236.731C215.123 238.596 215.675 240.418 216.709 241.969C217.743 243.519 219.214 244.728 220.934 245.442C222.654 246.155 224.547 246.342 226.373 245.979C228.2 245.615 229.877 244.717 231.194 243.399C232.511 242.081 233.407 240.401 233.771 238.572C234.134 236.744 233.947 234.848 233.234 233.126C232.521 231.404 231.314 229.932 229.766 228.896C228.217 227.861 226.397 227.308 224.535 227.309C222.039 227.309 219.645 228.302 217.879 230.069C216.114 231.835 215.122 234.232 215.121 236.731" fill="#23172D"/>
<path d="M173.322 73.6797H261.04C261.944 73.6797 262.811 73.3202 263.45 72.6802C264.089 72.0403 264.448 71.1723 264.448 70.2673V70.0846C264.448 69.6366 264.36 69.193 264.188 68.7791C264.017 68.3653 263.766 67.9893 263.45 67.6727C263.133 67.3561 262.757 67.105 262.344 66.9338C261.93 66.7627 261.487 66.6748 261.04 66.6752H173.337C172.89 66.6748 172.447 66.7627 172.033 66.9338C171.62 67.105 171.244 67.3561 170.928 67.6727C170.611 67.9893 170.36 68.3653 170.189 68.7791C170.017 69.193 169.929 69.6366 169.929 70.0846V70.2673C169.929 71.1723 170.288 72.0403 170.927 72.6802C171.567 73.3202 172.433 73.6797 173.337 73.6797" fill="#DFE1E8"/>
<path d="M173.322 86.3136H261.04C261.943 86.3136 262.81 85.9545 263.449 85.3152C264.088 84.6759 264.447 83.8087 264.448 82.9042V82.7185C264.447 81.814 264.088 80.9468 263.449 80.3075C262.81 79.6682 261.943 79.3091 261.04 79.3091H173.337C172.434 79.3091 171.568 79.6682 170.928 80.3075C170.289 80.9468 169.93 81.814 169.929 82.7185V82.9042C169.93 83.8087 170.289 84.6759 170.928 85.3152C171.568 85.9545 172.434 86.3136 173.337 86.3136" fill="#DFE1E8"/>
<path d="M173.322 98.9475H261.04C261.487 98.9479 261.93 98.86 262.344 98.6889C262.757 98.5177 263.133 98.2666 263.45 97.95C263.766 97.6334 264.017 97.2574 264.188 96.8436C264.36 96.4297 264.448 95.9861 264.448 95.5381V95.3554C264.448 94.4504 264.089 93.5824 263.45 92.9425C262.811 92.3025 261.944 91.943 261.04 91.943H173.337C172.433 91.943 171.567 92.3025 170.927 92.9425C170.288 93.5824 169.929 94.4504 169.929 95.3554V95.5381C169.929 95.9861 170.017 96.4297 170.189 96.8436C170.36 97.2574 170.611 97.6334 170.928 97.95C171.244 98.2666 171.62 98.5177 172.033 98.6889C172.447 98.86 172.89 98.9479 173.337 98.9475" fill="#DFE1E8"/>
<path d="M117.765 118.17C114.23 118.174 110.841 119.581 108.342 122.084C105.842 124.587 104.436 127.98 104.432 131.519V192.915C104.436 196.455 105.842 199.849 108.341 202.352C110.841 204.855 114.23 206.264 117.765 206.268H218.574C222.11 206.264 225.499 204.856 228 202.353C230.5 199.85 231.906 196.456 231.91 192.915V131.528C231.906 127.989 230.5 124.595 228 122.092C225.499 119.589 222.109 118.182 218.574 118.179L117.765 118.17ZM218.574 208.18H117.765C113.724 208.175 109.849 206.565 106.992 203.704C104.134 200.842 102.527 196.962 102.523 192.915V131.528C102.523 127.479 104.128 123.596 106.986 120.731C109.844 117.866 113.721 116.254 117.765 116.249H218.574C222.621 116.249 226.503 117.859 229.365 120.724C232.226 123.59 233.834 127.476 233.834 131.528V192.915C233.83 196.965 232.221 200.848 229.359 203.71C226.498 206.572 222.619 208.18 218.574 208.18Z" fill="#DFE1E8"/>
<path d="M125.74 139.396H210.603C212.388 139.395 214.1 138.685 215.362 137.421C216.625 136.157 217.334 134.442 217.335 132.655V131.373C217.335 129.585 216.626 127.87 215.363 126.605C214.101 125.34 212.388 124.63 210.603 124.629H125.74C123.954 124.63 122.242 125.34 120.979 126.605C119.717 127.87 119.007 129.585 119.007 131.373V132.655C119.008 134.442 119.718 136.157 120.98 137.421C122.243 138.685 123.955 139.395 125.74 139.396Z" fill="#DFE1E8"/>
<path d="M300.537 311.387H148.532V303.631H300.537V311.387Z" fill="#F0F0F0"/>
<path d="M328.757 136.43C328.757 141.033 327.309 145.519 324.619 149.252C321.929 152.985 318.134 155.776 313.772 157.228L313.377 157.354C308.975 158.726 304.253 158.671 299.884 157.197C295.515 155.723 291.723 152.906 289.048 149.147C286.373 145.388 284.951 140.879 284.987 136.263C285.022 131.647 286.513 127.161 289.245 123.443C291.978 119.726 295.813 116.967 300.204 115.561C304.595 114.155 309.317 114.173 313.697 115.612C318.078 117.052 321.892 119.84 324.596 123.578C327.3 127.316 328.756 131.814 328.757 136.43Z" fill="#00FFD1"/>
<path d="M301.65 134.114C301.65 134.114 300.154 124.434 308.161 124.614C316.169 124.794 316.064 129.578 315.92 134.33C315.777 139.081 312.71 138.725 316.172 145.334C319.634 151.943 313.179 151.943 313.179 151.943L308.167 145.052L301.656 134.12" fill="#23172D"/>
<path d="M307.288 125.537C307.288 125.537 301.863 126.393 301.651 134.108C301.438 141.823 303.111 143.47 307.859 141.861C312.608 140.253 314.101 132.179 314.209 130.929C314.317 129.68 314.601 124.608 307.288 125.537Z" fill="white"/>
<path d="M316.812 152.38C316.827 154.693 315.591 156.239 313.772 157.228L313.377 157.354C308.002 159.018 302.194 158.555 297.15 156.059C296.489 154.741 297.449 152.872 299.385 150.002C300.72 148.027 302.024 146.014 304.263 145.034C307.554 144.507 311.052 144.477 313.512 145.867C315.472 146.979 316.779 148.992 316.803 152.38" fill="#FFA800"/>
<path d="M300.451 149.885L297.955 153.818C297.955 153.797 298.129 153.201 298.407 151.476C298.464 151.149 298.521 150.78 298.58 150.367C298.599 150.244 298.626 150.123 298.661 150.005C299.726 147.542 303.054 145.708 303.177 145.648L300.451 149.885Z" fill="#FFA800"/>
<path d="M317.922 155.346C316.608 156.117 315.217 156.747 313.772 157.228L313.377 157.354C312.823 155.925 312.345 154.687 312.24 154.358C312.21 154.265 312.138 154.091 312.042 153.857C311.594 152.764 310.585 150.331 310.573 148.429C310.573 147.2 310.968 146.194 312.204 145.909C312.632 145.803 313.077 145.785 313.512 145.858C314.888 146.11 315.693 147.356 316.142 148.447L316.16 148.501C316.387 149.064 316.553 149.651 316.653 150.25L316.713 150.493C316.791 150.792 316.941 151.392 317.132 152.141C317.351 153.015 317.629 154.127 317.922 155.337" fill="white"/>
<path d="M310.908 138.392C310.438 139.291 309.942 144.798 309.942 144.798C309.942 144.798 303.308 147.308 303.987 145.888C304.274 145.19 304.411 144.44 304.391 143.686C304.395 143.239 304.371 142.791 304.319 142.347C304.301 142.203 304.287 142.119 304.287 142.119C304.287 142.119 311.378 137.502 310.908 138.392Z" fill="white"/>
<path d="M305.076 131.079C305.076 131.079 307.859 135.615 310.391 137.401C312.922 139.186 311.638 140.618 311.638 140.618C311.638 140.618 318.248 126.684 311.965 125.719C305.681 124.755 301.827 124.683 301.65 134.108C301.65 134.108 304.505 131.001 305.076 131.073" fill="#23172D"/>
<path d="M308.102 141.778C307.081 143.276 304.391 143.686 304.391 143.686C304.395 143.239 304.371 142.791 304.319 142.347C306.046 142.679 308.102 141.778 308.102 141.778Z" fill="#A77860"/>
<path d="M298.673 149.974C298.673 149.974 298.529 150.274 298.41 151.472L299.388 149.998C299.388 149.998 301.133 147.491 301.731 146.841C302.175 146.383 302.665 145.973 303.194 145.618C303.194 145.618 299.717 147.269 298.676 149.972" fill="#BD4444"/>
<path d="M311.872 153.699C311.872 153.699 316.127 152.027 317.389 151.931C317.389 151.931 316.531 145.085 312.348 145.81C308.164 146.535 311.872 153.699 311.872 153.699Z" fill="#FFA800"/>
<path d="M304.263 145.034C304.263 145.034 301.136 149.846 302.195 150.265C303.254 150.685 308.979 149.705 311.414 145.133C311.414 145.133 307.776 143.264 304.263 145.034Z" fill="white"/>
<path d="M336.842 72.5082C336.842 78.147 335.172 83.6591 332.043 88.3476C328.914 93.036 324.467 96.6901 319.264 98.8478C314.061 101.006 308.336 101.57 302.812 100.47C297.289 99.3694 292.215 96.6538 288.233 92.6664C284.251 88.679 281.539 83.5988 280.441 78.0683C279.342 72.5378 279.907 66.8054 282.062 61.5961C284.218 56.3867 287.868 51.9343 292.551 48.802C297.234 45.6697 302.739 43.9982 308.371 43.9988C315.922 43.9996 323.164 47.0036 328.503 52.3501C333.843 57.6965 336.842 64.9476 336.842 72.5082Z" fill="#00D8AE"/>
<path d="M326.917 88.24L324.822 95.7837C320.988 98.5054 316.538 100.23 311.872 100.802C311.031 100.907 310.175 100.973 309.311 101C309.011 101 308.688 101.015 308.377 101.015C307.455 101.015 306.543 100.97 305.645 100.886C300.333 100.382 295.271 98.3846 291.043 95.1246C290.642 92.632 290.208 89.8697 289.828 87.2902C291.923 86.5083 298.58 84.2404 302.785 82.8173L302.961 82.7604L303.233 82.6675L303.946 82.4248C304.176 82.3469 304.397 82.275 304.601 82.2031L306.285 81.6369L306.372 81.6069H306.42L312.073 82.0324L313.021 82.1043L313.32 82.1252L313.452 82.1582C313.79 82.2451 314.78 82.5057 316.094 82.9072C319.442 83.9318 324.87 85.8821 326.92 88.24" fill="#D9C7C1"/>
<path d="M309.852 58.3524C309.852 58.3524 316.632 59.4969 315.48 70.1235C314.328 80.7501 308.347 79.8123 307.946 79.7974C307.545 79.7824 301.929 79.9262 301.632 66.9328C301.632 66.9328 301.546 57.3278 309.852 58.3524Z" fill="white"/>
<path d="M312.823 76.7026C312.823 76.7026 312.587 81.0767 313 82.0294C313.413 82.9822 307.557 85.9931 303.918 82.5627C303.918 82.5627 304.655 77.7692 304.427 76.0945C304.2 74.4197 312.823 76.6936 312.823 76.6936" fill="white"/>
<path d="M315.618 67.1156C315.618 67.1156 316.369 66.3276 316.635 67.1365C316.901 67.9454 315.438 71.5256 315.525 71.6904C315.525 71.6904 315.384 71.99 315.208 71.8252C315.031 71.6604 315.618 67.1156 315.618 67.1156Z" fill="white"/>
<path d="M301.71 66.834C301.71 66.834 300.989 66.0161 300.693 66.81C300.396 67.6039 301.48 71.1841 301.614 71.4058C301.614 71.4058 301.848 71.7743 302.033 71.6065C302.219 71.4387 301.71 66.834 301.71 66.834Z" fill="white"/>
<path d="M316.052 66.2168C315.819 67.6698 315.597 68.7513 315.597 68.7513L314.61 70.0396C314.61 70.0396 314.669 67.1875 314.52 66.7441C314.441 66.482 314.376 66.216 314.325 65.9471C314.212 65.4079 314.095 64.8027 314.026 64.599C313.898 64.2784 308.215 62.6156 303.152 64.9495C303.152 64.9495 303.197 65.3869 303.194 65.8782C303.194 66.4475 303.128 67.0766 302.868 67.1815C302.383 67.3582 302.587 70.5189 302.587 70.5189L301.797 69.6202C301.797 69.6202 301.57 67.9724 301.345 66.073C301.294 65.6296 301.24 65.1742 301.192 64.7218C301.079 62.8134 301.27 59.3471 303.751 57.3128C305.427 56.5938 308.102 55.9826 312.56 57.3488C312.56 57.3488 313.58 57.4177 313.868 57.6933C316.644 60.7552 316.064 66.2467 316.064 66.2467" fill="#23172D"/>
<path d="M304.891 78.3773C304.891 78.3773 305.971 79.8754 308.482 79.8244C310.992 79.7735 312.073 78.4552 312.073 78.4552C312.073 78.4552 310.876 80.9479 308.455 80.9209C306.034 80.894 304.864 78.3773 304.864 78.3773" fill="#C78D71"/>
<path d="M303.23 82.6676C303.23 82.6676 305.047 85.8313 308.494 86.1309C310.681 86.3196 312.575 83.5454 313.461 82.1822C311.809 81.579 310.053 81.3113 308.297 81.3946C306.54 81.4779 304.818 81.9107 303.23 82.6676Z" fill="white"/>
<path d="M312.829 81.1965C312.829 81.1965 311.444 83.0151 308.491 84.9595L310.328 87.7906L313.458 82.1972L312.829 81.1965Z" fill="#EDDAD3"/>
<path d="M304.056 81.604C305.268 83.0338 306.783 84.1751 308.491 84.9445L306.477 87.8625L302.955 82.7694L304.056 81.616" fill="#EDDAD3"/>
<path d="M308.491 84.9445L310.065 87.3412C310.065 87.3412 308.413 88.279 306.875 87.2843L308.491 84.9445Z" fill="#5073AB"/>
<path d="M328.733 87.7876C328.464 88.7613 328.057 90.1844 326.988 94.0791C326.662 94.3787 326.327 94.6393 325.989 94.906C325.651 95.1726 325.214 95.5052 324.816 95.7868C320.981 98.5085 316.531 100.233 311.866 100.805C312.288 90.9363 313.458 82.1852 313.458 82.1852C314.379 82.4269 315.255 82.6685 316.085 82.9102C323.308 84.9864 326.974 86.8049 328.224 87.5H328.251C328.577 87.6827 328.727 87.7816 328.727 87.7816" fill="#AC00FF"/>
<path d="M302.677 100.445C297.172 99.3145 292.123 96.5831 288.161 92.5931C287.988 92.4164 287.814 92.2366 287.647 92.0568C287.147 89.9357 286.815 88.5546 286.794 88.4617C286.794 88.4617 290.316 86.1428 302.778 82.8143C302.778 83.1139 302.778 91.1041 302.677 100.442" fill="#AC00FF"/>
<path d="M309.391 87.6049C309.278 90.2054 309.266 95.2475 309.305 101C309.005 101 308.682 101.015 308.371 101.015C307.449 101.015 306.537 100.97 305.639 100.886C306.187 93.7915 307.108 89.3545 307.53 87.5989C307.668 87.0237 307.752 86.7361 307.752 86.7361L309.424 87.0117C309.424 87.1945 309.403 87.3922 309.391 87.6109" fill="#5073AB"/>
<path d="M330.16 90.8465C329.19 92.0061 328.129 93.087 326.989 94.0791C326.662 94.3787 326.327 94.6394 325.989 94.906L328.733 87.7966C329.403 88.3599 329.93 90.2952 330.169 90.8495" fill="#AC00FF"/>
<path d="M288.161 92.5812C287.988 92.4044 287.814 92.2247 287.647 92.0449C287.006 91.3678 286.403 90.6618 285.836 89.9268C286.16 89.1568 286.48 88.6385 286.794 88.4468L288.161 92.5752" fill="#AC00FF"/>
<path d="M136.455 42.5069H104.51C103.66 42.5061 102.845 42.1674 102.244 41.5652C101.643 40.963 101.305 40.1465 101.305 39.2953V36.7816C101.306 35.9309 101.644 35.1152 102.245 34.5137C102.846 33.9121 103.66 33.5738 104.51 33.573H136.455C137.305 33.5738 138.119 33.9121 138.72 34.5137C139.321 35.1152 139.659 35.9309 139.66 36.7816V39.2953C139.66 40.1465 139.322 40.963 138.721 41.5652C138.12 42.1674 137.305 42.5061 136.455 42.5069Z" fill="#FFA800"/>
<path d="M328.757 188.64C328.757 192.974 327.474 197.21 325.069 200.812C322.665 204.415 319.247 207.224 315.249 208.882C311.25 210.54 306.851 210.974 302.606 210.129C298.361 209.283 294.462 207.197 291.402 204.133C288.342 201.069 286.257 197.165 285.413 192.915C284.569 188.665 285.002 184.259 286.658 180.256C288.315 176.253 291.119 172.831 294.718 170.423C298.316 168.016 302.547 166.731 306.875 166.731C312.678 166.731 318.244 169.039 322.348 173.148C326.452 177.257 328.757 182.83 328.757 188.64Z" fill="#00FFD1"/>
<path d="M306.875 197.376C306.582 197.376 306.302 197.259 306.096 197.052C305.889 196.844 305.773 196.564 305.773 196.271V181.01C305.766 180.86 305.788 180.71 305.84 180.569C305.892 180.428 305.972 180.3 306.075 180.191C306.178 180.082 306.303 179.996 306.44 179.936C306.578 179.877 306.726 179.847 306.876 179.847C307.026 179.847 307.174 179.877 307.312 179.936C307.45 179.996 307.574 180.082 307.677 180.191C307.78 180.3 307.86 180.428 307.912 180.569C307.964 180.71 307.987 180.86 307.979 181.01V196.271C307.979 196.564 307.863 196.845 307.655 197.053C307.448 197.26 307.167 197.376 306.875 197.376Z" fill="#949494"/>
<path d="M314.499 189.743H299.253C298.961 189.743 298.681 189.627 298.475 189.42C298.268 189.213 298.152 188.933 298.152 188.64C298.152 188.348 298.268 188.067 298.475 187.861C298.681 187.654 298.961 187.538 299.253 187.538H314.499C314.791 187.538 315.071 187.654 315.278 187.861C315.484 188.067 315.6 188.348 315.6 188.64C315.6 188.933 315.484 189.213 315.278 189.42C315.071 189.627 314.791 189.743 314.499 189.743Z" fill="#949494"/>
<path d="M260.142 137.76H248.203C247.639 137.76 247.081 137.649 246.559 137.434C246.038 137.218 245.565 136.901 245.166 136.502C244.767 136.102 244.451 135.628 244.235 135.107C244.02 134.585 243.909 134.025 243.909 133.461V121.513C243.909 120.948 244.02 120.389 244.235 119.867C244.451 119.345 244.767 118.871 245.166 118.471C245.565 118.072 246.038 117.755 246.559 117.538C247.08 117.322 247.639 117.211 248.203 117.211H260.142C261.282 117.211 262.375 117.664 263.18 118.471C263.986 119.278 264.439 120.372 264.439 121.513V133.461C264.439 134.026 264.328 134.585 264.112 135.107C263.896 135.629 263.579 136.103 263.18 136.502C262.781 136.901 262.307 137.218 261.786 137.434C261.265 137.649 260.706 137.76 260.142 137.76Z" fill="#AC00FF"/>
<path d="M253.52 132.014L248.332 127.484C248.223 127.398 248.133 127.291 248.067 127.169C248.001 127.047 247.961 126.913 247.948 126.775C247.935 126.637 247.951 126.498 247.993 126.366C248.036 126.234 248.105 126.112 248.196 126.008C248.287 125.903 248.398 125.818 248.523 125.758C248.647 125.698 248.783 125.664 248.921 125.657C249.06 125.651 249.198 125.673 249.327 125.722C249.457 125.771 249.575 125.845 249.675 125.941L253.344 129.144L258.577 123.302C258.758 123.1 259.012 122.978 259.282 122.964C259.553 122.949 259.818 123.043 260.019 123.224C260.221 123.405 260.342 123.659 260.357 123.93C260.372 124.2 260.278 124.466 260.097 124.668L253.514 132.014" fill="#F3F3F3"/>
<path d="M260.142 164.092H248.203C247.639 164.092 247.081 163.981 246.559 163.765C246.038 163.549 245.565 163.233 245.166 162.833C244.767 162.434 244.451 161.96 244.235 161.438C244.02 160.916 243.909 160.357 243.909 159.792V147.844C243.909 147.28 244.02 146.721 244.235 146.199C244.451 145.677 244.767 145.203 245.166 144.804C245.565 144.404 246.038 144.088 246.559 143.872C247.081 143.656 247.639 143.545 248.203 143.545H260.142C260.706 143.545 261.265 143.656 261.786 143.872C262.307 144.088 262.781 144.404 263.18 144.803C263.579 145.203 263.896 145.677 264.112 146.199C264.328 146.72 264.439 147.28 264.439 147.844V159.792C264.439 160.357 264.328 160.916 264.112 161.438C263.896 161.96 263.579 162.434 263.18 162.833C262.781 163.233 262.307 163.549 261.786 163.765C261.265 163.981 260.706 164.092 260.142 164.092Z" fill="#AC00FF"/>
<path d="M253.52 158.345L248.331 153.815C248.142 153.633 248.029 153.385 248.017 153.121C248.005 152.858 248.095 152.601 248.268 152.402C248.441 152.204 248.684 152.079 248.946 152.055C249.208 152.031 249.469 152.109 249.675 152.272L253.343 155.475L258.577 149.633C258.666 149.533 258.775 149.452 258.896 149.394C259.017 149.336 259.148 149.302 259.282 149.295C259.416 149.288 259.55 149.307 259.676 149.352C259.803 149.396 259.919 149.465 260.019 149.555C260.119 149.645 260.2 149.753 260.258 149.874C260.316 149.996 260.349 150.127 260.357 150.261C260.364 150.395 260.345 150.529 260.3 150.656C260.256 150.783 260.187 150.899 260.097 150.999L253.514 158.345" fill="#F3F3F3"/>
<path d="M260.142 190.426H248.203C247.639 190.426 247.08 190.315 246.559 190.098C246.038 189.882 245.565 189.565 245.166 189.166C244.767 188.766 244.451 188.292 244.235 187.77C244.02 187.248 243.909 186.688 243.909 186.124V174.176C243.909 173.611 244.02 173.052 244.235 172.53C244.451 172.008 244.767 171.534 245.166 171.135C245.565 170.736 246.038 170.419 246.559 170.203C247.081 169.987 247.639 169.876 248.203 169.877H260.142C260.706 169.876 261.265 169.987 261.786 170.203C262.307 170.419 262.781 170.736 263.18 171.135C263.579 171.534 263.896 172.008 264.112 172.53C264.328 173.052 264.439 173.611 264.439 174.176V186.124C264.439 187.265 263.986 188.359 263.18 189.166C262.375 189.973 261.282 190.426 260.142 190.426Z" fill="#AC00FF"/>
<path d="M161.33 317.73C161.33 317.73 160.288 320.079 159.409 321.01C158.529 321.942 155.157 323.605 155.139 326.373C155.121 329.369 160.824 328.539 163.047 328.428C165.27 328.317 165.441 326.718 166.384 325.019C167.326 323.32 168.269 323.608 168.445 322.239C168.622 320.869 167.727 317.805 167.727 317.805L161.33 317.73Z" fill="#8600C7"/>
<path d="M161.233 316.864L161.069 318.284C161.069 318.284 164.576 319.461 167.888 318.41L167.706 316.465L161.233 316.864Z" fill="#4F4946"/>
<path d="M202.431 317.73C202.431 317.73 203.475 320.079 204.352 321.01C205.228 321.942 208.604 323.605 208.622 326.373C208.64 329.369 202.936 328.539 200.713 328.428C198.49 328.317 198.319 326.718 197.377 325.019C196.434 323.32 195.492 323.608 195.315 322.239C195.139 320.869 196.033 317.805 196.033 317.805L202.431 317.73Z" fill="#8600C7"/>
<path d="M202.526 316.864L202.691 318.284C202.691 318.284 199.184 319.461 195.869 318.41L196.054 316.465L202.526 316.864Z" fill="#4F4946"/>
<path d="M200.683 279.016C200.683 282.713 204.133 316.466 204.133 316.466C203.736 317.697 195.273 317.547 193.96 316.933C192.646 316.319 188.804 282.866 188.559 279.139C188.314 275.412 182.808 242.993 181.65 243.116C180.492 243.238 175.007 277.98 174.082 280.814C173.158 283.648 168.969 317.253 168.969 317.253C166.066 318.853 159.16 316.849 159.16 316.849C159.16 316.849 160.608 282.351 160.773 281.308C161.018 279.765 160.773 275.616 161.434 266.388C162.033 258.14 164.205 240.183 165.581 230.455C165.629 230.11 165.677 229.778 165.722 229.46C165.991 227.567 166.195 226.165 166.294 225.508C166.336 225.209 166.356 225.068 166.356 225.068C166.728 224.909 167.116 224.768 167.52 224.625C177.188 221.383 195.588 221.59 195.588 221.59C195.588 221.59 195.842 224.885 195.863 225.062C195.884 225.239 195.929 225.562 195.977 225.961C196.084 226.818 196.246 228.094 196.428 229.577C196.428 229.577 196.428 229.598 196.428 229.61L196.446 229.745C197.096 235.021 198.014 242.741 197.942 243.544C197.808 244.775 200.698 275.319 200.698 279.016" fill="#8600C7"/>
<path d="M202.06 169.676L197.311 186.753C197.149 187.307 196.955 187.987 196.748 188.778V188.808C196.747 188.815 196.747 188.822 196.748 188.829C195.647 193.028 194.956 197.325 194.684 201.658C194.486 205.169 195.136 219.283 195.136 219.283C195.136 219.283 187.954 221.979 177.182 221.287C177.182 221.287 165.614 221.018 166.557 213.917C169.052 195.121 166.614 187.37 166.284 185.486C166.284 185.486 164.92 176.824 163.795 169.176C167.05 167.977 180.752 162.812 180.752 162.812L187.954 163.352C187.954 163.352 198.903 166.048 202.063 169.691" fill="#D9C7C1"/>
<path d="M184.364 138.68C184.364 138.68 191.393 139.878 190.202 150.888C189.011 161.898 182.802 160.937 182.386 160.922C181.97 160.907 176.144 161.053 175.836 147.578C175.836 147.578 175.749 137.616 184.364 138.68Z" fill="white"/>
<path d="M187.431 157.725C187.431 157.725 187.189 162.261 187.616 163.25C188.044 164.238 181.97 167.36 178.197 163.801C178.197 163.801 178.96 158.846 178.723 157.093C178.487 155.34 187.431 157.725 187.431 157.725Z" fill="white"/>
<path d="M190.342 147.773C190.342 147.773 191.123 146.958 191.399 147.794C191.674 148.629 190.151 152.347 190.247 152.515C190.247 152.515 190.103 152.839 189.917 152.659C189.732 152.479 190.342 147.773 190.342 147.773Z" fill="white"/>
<path d="M175.917 147.476C175.917 147.476 175.171 146.628 174.863 147.455C174.555 148.282 175.68 151.991 175.821 152.219C175.821 152.219 176.063 152.599 176.252 152.425C176.44 152.251 175.917 147.476 175.917 147.476Z" fill="white"/>
<path d="M190.794 146.838C190.552 148.336 190.321 149.465 190.321 149.465L189.298 150.804C189.298 150.804 189.358 147.844 189.202 147.38C189.142 147.203 189.073 146.892 189.002 146.553C188.885 145.996 188.765 145.355 188.681 145.157C188.55 144.824 182.655 143.099 177.407 145.52C177.407 145.52 177.452 145.975 177.449 146.481C177.449 147.08 177.38 147.734 177.11 147.832C176.608 148.018 176.811 151.296 176.811 151.296L175.991 150.352C175.991 150.352 175.755 148.638 175.525 146.67C175.471 146.212 175.417 145.738 175.366 145.271C175.249 143.294 175.444 139.698 178.02 137.586C179.759 136.84 184.504 136.088 187.155 137.625C187.155 137.625 188.574 138.524 188.873 138.794C191.752 141.969 190.791 146.853 190.791 146.853" fill="#23172D"/>
<path d="M179.217 159.448C179.217 159.448 180.339 161.009 182.945 160.946C185.551 160.883 186.685 159.526 186.685 159.526C186.685 159.526 185.45 162.111 182.933 162.084C180.417 162.057 179.217 159.445 179.217 159.445" fill="#C78D71"/>
<path d="M177.494 163.885C177.494 163.885 179.376 167.18 182.951 167.48C185.22 167.675 187.165 164.784 188.086 163.378C186.375 162.754 184.558 162.478 182.739 162.565C180.92 162.652 179.137 163.1 177.494 163.885Z" fill="white"/>
<path d="M187.452 162.36C187.452 162.36 186.012 164.244 182.963 166.255L184.866 169.194L188.116 163.37L187.464 162.354" fill="#EDDAD3"/>
<path d="M178.352 162.797C179.609 164.279 181.18 165.463 182.951 166.261L180.857 169.286L177.224 164.118L178.346 162.797" fill="#EDDAD3"/>
<path d="M182.942 166.26L184.573 168.747C184.573 168.747 182.861 169.718 181.267 168.687L182.942 166.26Z" fill="#5073AB"/>
<path d="M166.162 222.551C166.162 222.551 174.983 225.808 194.933 222.74L194.669 219.124C194.669 219.124 183.104 222.539 166.512 219.612L166.162 222.551Z" fill="#1A2833"/>
<path d="M188.104 163.375C188.104 163.375 186.039 178.826 186.324 192.137C186.608 205.448 190.923 230.395 190.923 230.395C190.923 230.395 198.616 229.643 200.525 227.234C200.525 227.234 196.111 203.216 196.237 199.671C196.363 196.127 201.895 169.343 201.895 169.343C201.895 169.343 199.732 166.455 188.104 163.39" fill="#AC00FF"/>
<path d="M177.062 164.184C177.062 164.184 177.045 178.826 176.763 192.134C176.482 205.442 174.732 230.215 174.732 230.215C174.732 230.215 165.704 228.93 163.795 226.521C163.795 226.521 166.976 203.216 166.85 199.656C166.724 196.097 162.769 169.577 162.769 169.577C162.769 169.577 164.136 167.624 177.062 164.184Z" fill="#AC00FF"/>
<path d="M183.613 224.271H178.191V220.236H183.613V224.271Z" fill="#3E5E78"/>
<path d="M182.185 168.118C182.185 168.118 179.765 176.393 179.552 192.823C179.34 209.252 179.851 213.965 179.851 213.965L181.742 217.71L184.262 213.815C184.262 213.815 183.454 176.006 183.921 168.418L182.188 168.118" fill="#5073AB"/>
<path d="M192.293 191.241C192.293 191.241 195.884 189.443 196.371 189.12C196.859 188.796 202.853 187.921 203.607 187.939C204.361 187.957 204.394 188.566 204.181 188.778C203.969 188.991 197.987 189.977 197.883 190.12C197.778 190.264 198.388 190.207 198.388 190.207C198.388 190.207 204.836 190.111 205.288 190.543C205.74 190.974 205.223 191.385 204.959 191.492C204.959 191.492 205.558 192.167 204.866 192.445C204.349 192.641 203.817 192.793 203.275 192.901C203.275 192.901 204.124 193.341 203.574 193.733C203.023 194.126 196.18 196.244 196.18 196.244C196.18 196.244 193.64 191.379 192.29 191.241" fill="white"/>
<path d="M204.603 203.608C199.947 204.72 189.181 202.913 185.082 202.008C184.214 201.817 183.23 201.616 182.221 201.409C180.542 201.077 178.792 200.756 177.371 200.51C175.62 200.196 174.378 199.986 174.378 199.986C174.378 199.986 196.967 194.893 197.802 194.893C198.636 194.893 195.707 181.672 195.707 181.672C195.707 181.672 192.796 170.587 194.307 166.246C194.307 166.246 200.04 167.986 201.895 169.313C202.927 170.053 203.69 174.856 204.394 178.122C205.291 182.259 207.365 191.687 207.601 193.677C207.817 195.489 209.262 202.479 204.609 203.593" fill="#AC00FF"/>
<path d="M170.037 166.314C170.037 166.314 163.101 168.687 162.769 169.589C161.366 173.406 160.713 177.579 160.258 179.251C159.705 181.294 158.448 187.403 158.125 189.395C157.715 191.936 156.928 200.936 157.269 202.326C157.703 204.078 161.829 203.95 164.053 203.602C166.276 203.254 197.183 195.726 197.183 195.726C197.183 195.726 195.42 189.967 195.333 189.458C195.333 189.458 171.506 192.184 168.472 192.832C167.765 192.965 167.066 193.136 166.377 193.344C166.377 193.344 171.635 171.752 170.052 166.314" fill="#AC00FF"/>
<path d="M174.142 192.085C174.142 192.085 171.03 189.551 170.614 189.131C170.199 188.712 164.546 186.558 163.804 186.42C163.697 186.382 163.582 186.374 163.471 186.397C163.36 186.42 163.257 186.472 163.174 186.549C163.09 186.625 163.029 186.723 162.997 186.832C162.964 186.941 162.962 187.056 162.99 187.166C163.089 187.684 168.855 189.62 168.924 189.782C168.993 189.943 168.412 189.761 168.412 189.761C168.412 189.761 162.128 188.263 161.602 188.598C161.075 188.934 161.485 189.434 161.719 189.596C161.719 189.596 161 190.129 161.602 190.549C162.067 190.85 162.555 191.113 163.062 191.336C163.062 191.336 162.134 191.582 162.598 192.085C163.062 192.589 166.362 193.344 166.362 193.344C166.362 193.344 172.805 191.93 174.142 192.085Z" fill="white"/>
<path d="M192.7 196.813L182.227 201.418C180.549 201.086 178.798 200.765 177.377 200.519L192.706 196.819" fill="#263947"/>
<path d="M187.649 138.599C187.649 138.599 189.393 137.721 190.342 138.872C191.291 140.022 191.386 146.299 190.234 148.707C189.082 151.116 190.42 140.16 187.655 138.599" fill="#23172D"/>
<path d="M121.248 342.764H118.127V200.78H121.248V342.764Z" fill="#6C6473"/>
<path d="M125.632 319.33H41.709C39.225 319.33 36.8429 318.342 35.0865 316.583C33.3301 314.825 32.3433 312.439 32.3433 309.952V150.84C32.3433 148.353 33.3301 145.968 35.0865 144.21C36.8429 142.451 39.225 141.463 41.709 141.463H125.632C128.116 141.463 130.498 142.451 132.255 144.21C134.011 145.968 134.998 148.353 134.998 150.84V309.952C134.998 312.439 134.011 314.825 132.255 316.583C130.498 318.342 128.116 319.33 125.632 319.33Z" fill="#BDAFAA"/>
<path d="M122.93 312.379H44.4019C41.9481 312.379 39.5948 311.403 37.8597 309.666C36.1246 307.928 35.1499 305.572 35.1499 303.115V153.591C35.1499 151.134 36.1246 148.778 37.8597 147.04C39.5948 145.303 41.9481 144.327 44.4019 144.327H122.918C125.371 144.328 127.724 145.304 129.458 147.041C131.193 148.779 132.167 151.134 132.167 153.591V303.115C132.168 304.332 131.929 305.536 131.464 306.66C130.999 307.784 130.318 308.805 129.459 309.665C128.6 310.526 127.581 311.208 126.458 311.674C125.336 312.139 124.133 312.379 122.918 312.379" fill="white"/>
<path d="M98.9651 147.033H68.3755V140.115H98.9651V147.033Z" fill="#6C6473"/>
<path d="M51.4036 253.164C49.2966 253.166 47.2765 254.006 45.7866 255.497C44.2967 256.989 43.4587 259.012 43.4563 261.121V296.518C43.4579 298.628 44.2956 300.651 45.7857 302.143C47.2758 303.635 49.2963 304.474 51.4036 304.476H113.505C115.612 304.473 117.632 303.634 119.122 302.142C120.611 300.651 121.45 298.628 121.452 296.518V261.13C121.449 259.021 120.61 256.999 119.121 255.507C117.631 254.016 115.611 253.176 113.505 253.173L51.4036 253.164ZM113.505 305.653H51.4036C48.9849 305.65 46.6662 304.686 44.956 302.974C43.2457 301.262 42.2834 298.94 42.2803 296.518V261.13C42.2834 258.709 43.2457 256.387 44.956 254.675C46.6662 252.962 48.9849 251.999 51.4036 251.996H113.505C115.923 251.999 118.242 252.962 119.952 254.675C121.662 256.387 122.625 258.709 122.628 261.13V296.527C122.625 298.949 121.662 301.271 119.952 302.983C118.242 304.695 115.923 305.659 113.505 305.662" fill="#FFA800"/>
<path d="M57.7864 220.044H57.771C57.8325 220.072 57.8417 220.075 57.7864 220.044Z" fill="#AC00FF"/>
<path d="M111.727 197.14C109.958 197.14 108.229 197.665 106.758 198.649C105.287 199.633 104.141 201.031 103.464 202.668C102.787 204.304 102.61 206.105 102.955 207.842C103.3 209.579 104.152 211.174 105.403 212.427C106.654 213.679 108.247 214.532 109.982 214.877C111.717 215.223 113.516 215.046 115.15 214.368C116.784 213.69 118.181 212.542 119.164 211.07C120.146 209.597 120.671 207.866 120.671 206.095C120.668 203.721 119.724 201.445 118.048 199.766C116.371 198.087 114.098 197.143 111.727 197.14ZM111.727 216.227C109.726 216.227 107.769 215.633 106.105 214.519C104.441 213.406 103.144 211.824 102.378 209.972C101.612 208.121 101.411 206.083 101.802 204.118C102.192 202.152 103.156 200.347 104.571 198.93C105.987 197.513 107.79 196.548 109.753 196.157C111.716 195.766 113.751 195.967 115.6 196.734C117.449 197.5 119.029 198.799 120.141 200.465C121.253 202.132 121.847 204.091 121.847 206.095C121.844 208.781 120.777 211.356 118.879 213.256C116.982 215.155 114.41 216.224 111.727 216.227Z" fill="#FFA800"/>
<path d="M111.727 220.481C109.958 220.481 108.227 221.005 106.756 221.989C105.284 222.973 104.137 224.372 103.459 226.009C102.782 227.646 102.604 229.447 102.949 231.185C103.294 232.923 104.146 234.519 105.397 235.772C106.648 237.025 108.242 237.879 109.978 238.225C111.713 238.571 113.512 238.393 115.147 237.715C116.782 237.038 118.18 235.889 119.163 234.416C120.146 232.943 120.671 231.211 120.671 229.439C120.669 227.065 119.726 224.788 118.049 223.109C116.372 221.429 114.099 220.484 111.727 220.481ZM111.727 239.568C109.726 239.568 107.769 238.974 106.105 237.861C104.44 236.747 103.143 235.164 102.377 233.313C101.612 231.461 101.411 229.424 101.802 227.458C102.193 225.493 103.157 223.687 104.572 222.27C105.988 220.854 107.792 219.889 109.755 219.498C111.718 219.108 113.753 219.309 115.602 220.076C117.451 220.843 119.031 222.142 120.143 223.809C121.255 225.476 121.848 227.435 121.847 229.439C121.844 232.125 120.776 234.7 118.879 236.599C116.982 238.498 114.41 239.566 111.727 239.568Z" fill="#FFA800"/>
<path d="M66.1014 206.541C65.2665 206.541 64.4228 206.499 63.5879 206.421C57.4983 205.837 51.8056 203.135 47.4987 198.785C47.3281 198.611 47.1665 198.446 47.0199 198.287C46.4394 197.688 45.8798 197.017 45.3562 196.34C41.7927 191.754 39.8668 186.104 39.8864 180.294C39.8943 173.334 42.6587 166.663 47.5731 161.741C52.4876 156.82 59.1509 154.052 66.1014 154.043V155.22C59.4625 155.228 53.0979 157.873 48.4038 162.573C43.7097 167.274 41.0695 173.647 41.0624 180.294C41.0436 185.843 42.883 191.238 46.2868 195.618C46.7859 196.265 47.3172 196.887 47.8787 197.481C48.0193 197.634 48.1779 197.781 48.3335 197.955C49.1242 198.755 49.9691 199.5 50.8619 200.184C54.5791 203.05 59.0304 204.806 63.7016 205.247C64.4975 205.322 65.3054 205.361 66.0954 205.361C66.3946 205.361 66.6549 205.361 66.9183 205.361C67.6783 205.337 68.4353 205.28 69.1714 205.187C73.2735 204.681 77.1863 203.165 80.5599 200.774C80.913 200.519 81.26 200.259 81.5892 200.001C81.9183 199.743 82.1727 199.531 82.4689 199.273C85.1905 196.92 87.3742 194.009 88.8715 190.736C90.3689 187.463 91.1447 183.906 91.1464 180.306C91.1454 179.073 91.0554 177.843 90.8771 176.624L92.041 176.456C92.2279 177.731 92.3219 179.017 92.3223 180.306C92.3228 184.074 91.5125 187.798 89.9464 191.225C88.3803 194.651 86.0953 197.7 83.2469 200.163C82.9477 200.432 82.6245 200.69 82.3253 200.924C82.026 201.157 81.6191 201.469 81.251 201.733C77.7177 204.236 73.62 205.824 69.324 206.355C68.555 206.451 67.759 206.511 66.9661 206.538C66.6908 206.538 66.4096 206.553 66.1044 206.553" fill="#FFA800"/>
<path d="M84.3931 194.189C84.3153 194.082 84.2293 193.982 84.1358 193.889C84.1006 193.843 84.0544 193.806 84.0012 193.781C84.0012 193.781 83.9862 193.781 83.9772 193.766C79.0909 191.07 70.2698 188.853 70.2698 188.853C70.0155 188.254 70.0364 186.223 70.0723 185.003C70.988 183.94 71.8168 182.274 72.2806 179.682C72.4302 179.793 72.5409 179.539 72.5409 179.539C72.4601 179.395 73.7797 176.171 73.5433 175.443C73.5342 175.376 73.5073 175.311 73.4653 175.258C73.4232 175.204 73.3676 175.162 73.3042 175.137C73.2407 175.112 73.1718 175.105 73.1044 175.115C73.037 175.126 72.9737 175.154 72.9209 175.198C72.9509 175.012 72.9837 174.817 73.0166 174.598C73.0166 174.598 73.5403 169.658 71.0418 166.905C70.7845 166.656 69.8629 166.605 69.8629 166.605C65.8503 165.374 63.4416 165.925 61.9365 166.569C59.7013 168.403 59.5426 171.521 59.6324 173.241C59.6773 173.646 59.7252 174.056 59.7701 174.44C59.791 174.595 59.809 174.739 59.8269 174.904C59.7764 174.858 59.7144 174.826 59.6474 174.812C59.5803 174.798 59.5109 174.803 59.4462 174.825C59.3816 174.848 59.3242 174.887 59.28 174.939C59.2359 174.992 59.2067 175.055 59.1955 175.123C58.9262 175.839 59.9017 179.056 60.0244 179.257C60.0244 179.257 60.2338 179.587 60.3984 179.437C60.8622 182.265 61.694 184.006 62.5648 185.081C62.478 186.666 62.1937 188.652 62.1159 189.177C60.0663 189.824 49.794 192.562 46.682 194.608C46.4008 194.779 46.1135 195.246 45.8232 195.938C46.3359 196.602 46.8785 197.237 47.451 197.844C47.6036 198.006 47.7502 198.167 47.9148 198.326C51.4766 201.923 56.0225 204.382 60.9789 205.394C61.8596 205.575 62.7497 205.708 63.645 205.792C64.4529 205.87 65.2718 205.909 66.1016 205.909C66.3859 205.909 66.6642 205.909 66.9455 205.909C67.7204 205.885 68.4924 205.825 69.2495 205.732C73.4488 205.219 77.4543 203.666 80.9042 201.214C81.2633 200.957 81.6154 200.692 81.9605 200.42C82.2597 200.181 82.5589 199.932 82.8581 199.68C83.8873 198.787 84.8448 197.815 85.7217 196.771C85.3797 195.853 84.9328 194.977 84.3901 194.162" fill="#FFA800"/>
<path d="M359.313 251.432H389.679V253.23H359.313V251.432Z" fill="#E2D2CA"/>
<path d="M385.609 340.014H382.949V257.925H385.609V340.014Z" fill="#6C6473"/>
<path d="M342.958 250.92H364.065V253.5H342.958V250.92Z" fill="#CCBDB7"/>
<path d="M349.514 253.239H357.506V228.933H349.514V253.239Z" fill="#4667A8"/>
<path d="M283.625 257.934H400.571V253.269H283.625V257.934Z" fill="#6C6473"/>
<path d="M423.015 225.02C423.015 225.02 424.296 242.996 420.789 245.129C418.596 246.477 409.841 251.016 410.101 251.87C410.361 252.724 415.044 259.447 415.044 259.447C415.044 259.447 431.857 248.362 432.399 244.865C432.929 241.453 431.57 218.57 429.26 217.515C427.528 216.727 426.615 217.377 424.434 219.013C421.373 221.287 423.012 225.032 423.012 225.032" fill="#AC00FF"/>
<path d="M392.372 230.149L390.876 229.601C390.876 229.601 392.725 225.257 393.53 225.362C394.236 225.466 394.935 225.609 395.625 225.79L392.363 230.149" fill="#EAD8CF"/>
<path d="M392.034 230.898C392.222 230.757 395.182 225.071 395.182 225.071L401.51 225.928L398.084 232.666L392.028 230.898" fill="#DA9B5B"/>
<path d="M402.327 328.806C402.327 328.806 402.851 332.44 402.926 333C403 333.56 408.743 332.676 408.743 332.676L409.206 328.35C409.206 328.35 403.057 328.305 402.324 328.818" fill="#424773"/>
<path d="M402.872 332.524C402.872 332.524 401.05 334.714 399.281 335.669C397.513 336.625 394.751 337 393.71 337.991C392.956 338.701 390.969 341.772 398.288 341.709C405.607 341.646 409.137 342.144 409.921 340.966C410.705 339.789 408.787 332.278 408.787 332.278C408.787 332.278 407.052 332.904 402.869 332.524" fill="#8600C7"/>
<path d="M365.469 328.842C365.469 328.842 365.992 332.476 366.067 333.036C366.142 333.596 371.887 332.715 371.887 332.715L372.351 328.362C372.351 328.362 366.199 328.317 365.469 328.83" fill="#424773"/>
<path d="M366.008 332.557C366.008 332.557 364.185 334.747 362.417 335.7C360.648 336.652 354.167 337.44 353.126 338.426C352.375 339.142 351.124 342.021 361.423 341.742C368.739 341.554 372.27 342.177 373.057 340.999C373.844 339.822 371.92 332.311 371.92 332.311C371.92 332.311 370.289 332.976 366.002 332.557" fill="#8600C7"/>
<path d="M420.879 266.047C420.879 266.047 399.969 269.591 395.245 270.334C390.52 271.077 364.918 277.455 361.717 279.4C359.164 280.946 363.051 318.113 363.958 332.29H374.045L374.778 289.748C386.881 290.047 395.517 286.913 404.329 288.25C413.141 289.586 420.487 291.497 426.092 283.974C426.092 283.974 426.301 267.679 420.879 266.035" fill="#8600C7"/>
<path d="M400.268 332.314L410.098 331.715L411.055 289.754C416.265 289.885 418.051 289.553 422.27 289.041L430.206 270.573C423.249 271.967 400.966 277.593 397.994 279.397C395.445 280.945 399.362 318.143 400.268 332.323" fill="#8600C7"/>
<path d="M411.25 187.553C411.25 187.553 403.584 185.432 400.66 191.388C397.737 197.343 399.063 208.641 402.925 209.705C406.788 210.768 412.345 209.543 413.946 205.834C415.547 202.125 416.83 196.846 416.447 193.446C416.064 190.045 413.285 188.368 411.25 187.553Z" fill="white"/>
<path d="M404.933 208.524C404.933 208.524 405.014 213.054 404.518 214.022C404.021 214.99 415.191 214.744 415.191 214.744C415.191 214.744 413.432 209.303 414.428 204.669C415.424 200.034 404.933 208.524 404.933 208.524Z" fill="white"/>
<path d="M415.029 202.952C415.029 202.952 414.431 204.168 411.54 203.971C408.65 203.773 404.835 200.283 403.608 199.971C402.381 199.659 402.306 198.958 402.306 198.958L401.657 200.115L400.4 200.307C400.4 200.307 401.253 196.807 399.392 195.573C397.531 194.339 400.23 184.41 409.658 186.807C409.658 186.807 416.855 188.125 416.953 192.152C417.052 196.178 416.427 200.822 415.029 202.952Z" fill="#23172D"/>
<path d="M403.928 213.917C403.928 213.917 403.961 212.072 404.796 211.895C405.631 211.718 413.578 210.621 414.604 211.026L415.044 213.462C415.044 213.462 413.069 214.681 403.928 213.917Z" fill="#E2D2CA"/>
<path d="M401.63 198.134C401.846 196.622 403.563 194.884 404.545 197.236C405.526 199.588 403.88 203.024 402.779 202.841C401.678 202.658 401.34 200.184 401.63 198.131" fill="white"/>
<path d="M370.645 235.71C370.588 235.734 370.58 235.737 370.645 235.71V235.71Z" fill="#AC00FF"/>
<path d="M413.488 188.64C413.488 188.64 422.836 188.203 415.119 202.808L413.488 188.64Z" fill="#23172D"/>
<path d="M434.314 337.29L433.617 339.25L404.242 330.136L405.649 326.172L434.314 337.29Z" fill="#918783"/>
<path d="M403.234 328.74H406.573V296.764H403.234V328.74Z" fill="#918783"/>
<path d="M395.056 296.95H414.748V295.065H395.056V296.95Z" fill="#5E5854"/>
<path d="M375.235 337.29L375.933 339.25L405.307 330.136L404.018 325.921L375.235 337.305" fill="#918783"/>
<path d="M395.933 339.04V341.317L405.307 330.136L404.018 325.921L395.939 339.04" fill="#918783"/>
<path d="M372.492 340.014C372.491 340.558 372.652 341.09 372.953 341.543C373.255 341.996 373.684 342.349 374.186 342.557C374.688 342.766 375.241 342.82 375.774 342.714C376.307 342.608 376.797 342.346 377.181 341.961C377.565 341.577 377.827 341.086 377.933 340.553C378.039 340.019 377.984 339.465 377.776 338.963C377.568 338.46 377.215 338.031 376.763 337.729C376.311 337.427 375.779 337.266 375.236 337.266C374.508 337.266 373.81 337.556 373.295 338.071C372.781 338.586 372.492 339.285 372.492 340.014Z" fill="#BFB2AC"/>
<path d="M395.69 340.014C395.69 340.558 395.85 341.09 396.152 341.543C396.453 341.995 396.882 342.348 397.384 342.557C397.886 342.765 398.438 342.82 398.971 342.715C399.504 342.609 399.994 342.347 400.379 341.963C400.763 341.578 401.025 341.088 401.131 340.554C401.237 340.021 401.183 339.468 400.975 338.965C400.768 338.462 400.416 338.032 399.964 337.73C399.512 337.428 398.981 337.266 398.437 337.266C397.709 337.266 397.011 337.556 396.496 338.071C395.981 338.586 395.691 339.285 395.69 340.014Z" fill="#BFB2AC"/>
<path d="M431.567 340.014C431.567 340.558 431.727 341.09 432.029 341.543C432.33 341.995 432.759 342.348 433.261 342.557C433.763 342.765 434.315 342.82 434.848 342.715C435.381 342.609 435.871 342.347 436.256 341.963C436.64 341.578 436.902 341.088 437.008 340.554C437.114 340.021 437.06 339.468 436.852 338.965C436.645 338.462 436.293 338.032 435.841 337.73C435.389 337.428 434.858 337.266 434.314 337.266C433.586 337.266 432.888 337.556 432.373 338.071C431.858 338.586 431.568 339.285 431.567 340.014Z" fill="#BFB2AC"/>
<path d="M384.966 295.065H424.583C425.516 295.065 426.411 294.693 427.071 294.033C427.73 293.372 428.101 292.476 428.102 291.542V291.449C428.101 290.515 427.73 289.619 427.071 288.959C426.411 288.298 425.516 287.927 424.583 287.926H384.966C384.033 287.927 383.139 288.298 382.479 288.959C381.819 289.619 381.448 290.515 381.447 291.449V291.542C381.448 292.476 381.819 293.372 382.479 294.033C383.139 294.693 384.033 295.065 384.966 295.065Z" fill="#E2D2CA"/>
<path d="M298.586 340.014H301.247V257.925H298.586V340.014Z" fill="#6C6473"/>
<path d="M322.512 240.638H384.511C385.442 240.638 386.334 240.268 386.992 239.61C387.65 238.951 388.021 238.058 388.021 237.127V195.405C388.021 194.473 387.652 193.579 386.993 192.92C386.335 192.261 385.442 191.891 384.511 191.891H322.512C321.581 191.891 320.689 192.261 320.031 192.92C319.372 193.579 319.002 194.473 319.002 195.405V237.127C319.003 238.058 319.373 238.951 320.032 239.61C320.69 240.268 321.582 240.638 322.512 240.638Z" fill="#5F8BE3"/>
<path d="M321.704 232.998H385.316V194.524H321.704V232.998Z" fill="#F5F7FF"/>
<path d="M321.704 197.586H385.316V194.524H321.704V197.586Z" fill="#CECFD6"/>
<path d="M326.229 230.631H329.562C329.847 230.631 330.13 230.575 330.394 230.466C330.657 230.357 330.897 230.196 331.098 229.994C331.3 229.792 331.46 229.553 331.569 229.289C331.678 229.025 331.735 228.742 331.735 228.456V202.065C331.735 201.779 331.678 201.497 331.569 201.233C331.46 200.969 331.3 200.729 331.098 200.527C330.897 200.325 330.657 200.165 330.394 200.056C330.13 199.946 329.847 199.89 329.562 199.89H326.238C325.662 199.89 325.109 200.119 324.702 200.527C324.294 200.935 324.065 201.488 324.065 202.065V228.456C324.065 229.033 324.294 229.586 324.702 229.994C325.109 230.402 325.662 230.631 326.238 230.631" fill="#CECFD6"/>
<path d="M370.702 202.736H382.345C382.499 202.737 382.651 202.707 382.794 202.648C382.936 202.589 383.065 202.503 383.174 202.394C383.283 202.285 383.37 202.156 383.429 202.014C383.488 201.871 383.518 201.719 383.518 201.565V201.064C383.518 200.753 383.394 200.454 383.174 200.234C382.954 200.014 382.656 199.89 382.345 199.89H370.702C370.391 199.89 370.093 200.014 369.873 200.234C369.653 200.454 369.529 200.753 369.529 201.064V201.565C369.529 201.719 369.56 201.871 369.619 202.014C369.678 202.156 369.764 202.285 369.873 202.394C369.982 202.503 370.111 202.589 370.254 202.648C370.396 202.707 370.548 202.737 370.702 202.736Z" fill="#CECFD6"/>
<path d="M371.95 231.416H381.094C381.737 231.416 382.354 231.161 382.808 230.706C383.263 230.251 383.518 229.633 383.518 228.99V207.071C383.518 206.428 383.263 205.81 382.808 205.355C382.354 204.9 381.737 204.645 381.094 204.645H371.95C371.308 204.645 370.692 204.901 370.238 205.356C369.784 205.811 369.529 206.428 369.529 207.071V228.99C369.529 229.633 369.784 230.25 370.238 230.705C370.692 231.16 371.308 231.416 371.95 231.416Z" fill="#CECFD6"/>
<path d="M351.286 236.686C351.286 237.127 351.417 237.558 351.662 237.924C351.907 238.29 352.255 238.575 352.662 238.744C353.069 238.912 353.516 238.956 353.948 238.869C354.38 238.783 354.776 238.57 355.087 238.258C355.398 237.947 355.61 237.549 355.696 237.117C355.781 236.685 355.737 236.237 355.568 235.83C355.4 235.423 355.114 235.075 354.748 234.83C354.382 234.585 353.952 234.454 353.512 234.454C353.219 234.454 352.93 234.512 352.659 234.624C352.389 234.736 352.143 234.901 351.937 235.108C351.73 235.316 351.566 235.562 351.454 235.832C351.343 236.103 351.285 236.393 351.286 236.686Z" fill="#59524F"/>
<path d="M339.224 253.329V252.463C339.224 252.463 340.441 247.07 349.056 247.07C357.671 247.07 357.5 253.332 357.5 253.332H339.224" fill="#314875"/>
<path d="M357.602 247.87C357.602 247.87 355.732 247.723 355.044 247.31C354.356 246.897 350.256 244.131 349.293 244.575C348.329 245.018 341.917 246.971 342.138 247.924C342.36 248.877 342.955 248.772 343.407 248.604C343.859 248.436 348.518 247.46 348.928 247.625C348.928 247.625 344.356 249.296 344.335 250.516C344.314 251.735 345.292 252.032 345.726 252.49C346.16 252.948 346.681 254.099 347.86 254.186C349.038 254.273 354.79 252.271 355.974 252.178C357.159 252.086 359.35 252.25 359.499 252.059C359.649 251.867 357.602 247.864 357.602 247.864" fill="white"/>
<path d="M391.678 216.461C397.647 215.412 403.928 213.905 403.928 213.905L415.044 213.45C415.044 213.45 425.245 215.7 429.263 217.515C429.643 217.689 429.646 226.629 430.691 228.972L427.36 236.006C427.36 236.006 425.436 249.943 425.038 256.142C424.853 258.988 425.556 283.642 425.556 283.642C425.556 283.642 424.557 284.136 416.971 284.972C409.386 285.808 390.433 284.672 390.313 283.774C390.194 282.875 393.982 250.369 394.15 248.685C394.407 246.103 393.407 234.164 393.407 234.164C391.977 236.087 388.321 244.766 384.535 248.898C382.3 251.327 371.238 252.816 369.152 252.885C364.616 253.038 356.334 253.943 356.091 253.485C355.9 253.221 355.37 246.127 355.891 245.953C356.346 245.803 371.72 244.913 375.66 242.822C377.1 242.055 381.409 232.636 381.409 232.636C381.409 232.636 388.386 217.914 391.678 216.431" fill="#AC00FF"/>
<path d="M413.584 282.929H432.244C434.036 282.929 435.754 282.216 437.021 280.947C438.288 279.679 439 277.958 439 276.164V245.075C439 243.281 438.288 241.56 437.021 240.29C435.754 239.021 434.036 238.308 432.244 238.307H413.584C411.792 238.308 410.073 239.021 408.806 240.29C407.539 241.56 406.828 243.281 406.828 245.075V276.158C406.828 277.952 407.539 279.673 408.807 280.941C410.074 282.21 411.792 282.923 413.584 282.923" fill="#E2D2CA"/>
<path d="M412.528 293.289C417.27 293.289 421.119 291.692 423.964 288.549C430.394 281.437 429.239 268.941 429.186 268.41C429.182 268.162 429.126 267.917 429.023 267.69C428.92 267.464 428.771 267.262 428.585 267.097C428.4 266.931 428.182 266.806 427.946 266.729C427.71 266.652 427.46 266.625 427.213 266.649C426.966 266.674 426.727 266.75 426.51 266.871C426.294 266.993 426.105 267.159 425.956 267.358C425.806 267.556 425.7 267.784 425.643 268.026C425.586 268.268 425.58 268.519 425.625 268.764C425.625 268.908 426.663 280.235 421.304 286.14C419.135 288.537 416.265 289.697 412.528 289.697C412.052 289.697 411.595 289.886 411.258 290.223C410.922 290.56 410.732 291.017 410.732 291.494C410.732 291.971 410.922 292.428 411.258 292.765C411.595 293.102 412.052 293.292 412.528 293.292" fill="#E2D2CA"/>
<path d="M354.433 210.25C354.433 212.028 353.907 213.765 352.921 215.243C351.934 216.721 350.532 217.873 348.892 218.554C347.252 219.234 345.447 219.412 343.705 219.065C341.964 218.718 340.365 217.862 339.109 216.605C337.854 215.348 336.999 213.747 336.652 212.004C336.306 210.26 336.484 208.453 337.163 206.811C337.843 205.168 338.993 203.765 340.469 202.777C341.946 201.789 343.681 201.262 345.457 201.262C347.837 201.262 350.121 202.209 351.804 203.895C353.488 205.58 354.433 207.866 354.433 210.25Z" fill="#EEF0F7"/>
<path d="M351.3 215.214L350.639 217.611C349.429 218.471 348.024 219.015 346.552 219.196C346.284 219.23 346.014 219.25 345.744 219.256C345.645 219.256 345.549 219.256 345.445 219.256C345.157 219.257 344.869 219.243 344.583 219.214C344.268 219.185 343.956 219.139 343.646 219.076C342.31 218.806 341.054 218.232 339.975 217.398C339.846 216.611 339.709 215.742 339.589 214.924C340.25 214.678 342.354 213.962 343.679 213.516L343.733 213.495L343.82 213.468L344.044 213.39L344.251 213.321L344.783 213.141H344.807H344.825L346.621 213.276L346.92 213.297H347.013H347.051C347.159 213.324 347.473 213.405 347.886 213.534C348.943 213.857 350.654 214.471 351.3 215.214Z" fill="#D9C7C1"/>
<path d="M345.917 205.783C345.917 205.783 348.054 206.146 347.692 209.498C347.33 212.851 345.442 212.557 345.316 212.551C345.19 212.545 343.416 212.593 343.323 208.491C343.323 208.491 343.296 205.462 345.917 205.795" fill="white"/>
<path d="M346.854 211.58C346.854 211.58 346.782 212.958 346.911 213.261C347.04 213.564 345.193 214.51 344.044 213.429C344.044 213.429 344.278 211.931 344.203 211.389C344.128 210.846 346.854 211.58 346.854 211.58Z" fill="white"/>
<path d="M347.737 208.551C347.737 208.551 347.973 208.303 348.057 208.551C348.14 208.8 347.677 209.935 347.707 209.989C347.707 209.989 347.662 210.085 347.608 210.031C347.62 209.53 347.663 209.03 347.737 208.533" fill="white"/>
<path d="M343.347 208.462C343.347 208.462 343.12 208.201 343.027 208.462C342.934 208.722 343.275 209.84 343.326 209.909C343.326 209.909 343.401 210.025 343.458 209.975C343.455 209.474 343.421 208.973 343.356 208.477" fill="white"/>
<path d="M347.875 208.267C347.8 208.725 347.731 209.067 347.731 209.067L347.432 209.474C347.444 209.126 347.434 208.778 347.402 208.431C347.384 208.378 347.363 208.282 347.342 208.18C347.306 208.012 347.267 207.82 347.243 207.754C347.219 207.688 345.409 207.128 343.814 207.865C343.814 207.865 343.814 208.003 343.814 208.165C343.814 208.327 343.793 208.545 343.712 208.575C343.557 208.632 343.623 209.627 343.623 209.627L343.371 209.342C343.371 209.342 343.299 208.821 343.228 208.222C343.213 208.081 343.198 207.937 343.18 207.793C343.147 207.194 343.204 206.098 343.988 205.454C344.517 205.229 345.361 205.037 346.767 205.469C346.911 205.473 347.052 205.51 347.18 205.576C348.057 206.541 347.875 208.273 347.875 208.273" fill="#23172D"/>
<path d="M344.353 212.102C344.493 212.261 344.668 212.386 344.865 212.466C345.062 212.545 345.275 212.578 345.487 212.56C345.695 212.569 345.904 212.535 346.099 212.461C346.295 212.387 346.473 212.274 346.624 212.129C346.624 212.129 346.25 212.914 345.484 212.905C344.718 212.896 344.353 212.102 344.353 212.102Z" fill="#C78D71"/>
<path d="M343.826 213.459C344.005 213.752 344.247 214.001 344.534 214.19C344.821 214.378 345.146 214.501 345.486 214.549C346.178 214.609 346.776 213.734 347.054 213.306C346.533 213.115 345.979 213.029 345.425 213.056C344.87 213.082 344.326 213.219 343.826 213.459Z" fill="white"/>
<path d="M346.857 212.988C346.464 213.455 346.002 213.86 345.487 214.187L346.067 215.086L347.055 213.321L346.857 213.003" fill="#EDDAD3"/>
<path d="M344.086 213.123C344.47 213.574 344.948 213.934 345.487 214.178L344.852 215.097L343.739 213.486L344.086 213.123Z" fill="#EDDAD3"/>
<path d="M345.487 214.178L345.986 214.933C345.83 215.015 345.656 215.057 345.48 215.054C345.304 215.05 345.131 215.003 344.978 214.915L345.487 214.178Z" fill="#5073AB"/>
<path d="M351.875 215.074C351.874 215.091 351.874 215.108 351.875 215.125C351.818 215.319 351.609 216.065 351.337 217.057C351.235 217.147 351.127 217.234 351.022 217.318C350.918 217.401 350.777 217.506 350.651 217.596C349.441 218.456 348.037 219.001 346.564 219.181C346.699 216.065 347.067 213.306 347.067 213.306C347.366 213.381 347.635 213.459 347.895 213.534C349.22 213.877 350.505 214.362 351.726 214.981L351.875 215.071" fill="#AC00FF"/>
<path d="M343.652 219.067C342.316 218.797 341.06 218.223 339.981 217.389C339.663 217.144 339.363 216.877 339.083 216.589L338.919 216.419L338.649 215.286C338.649 215.286 339.762 214.552 343.694 213.489C343.694 213.576 343.694 216.104 343.661 219.049" fill="#AC00FF"/>
<path d="M345.771 215.017C345.735 215.835 345.732 217.413 345.744 219.241C345.645 219.241 345.55 219.241 345.445 219.241C345.157 219.242 344.869 219.228 344.583 219.199C344.674 217.788 344.875 216.385 345.181 215.005C345.226 214.822 345.253 214.732 345.253 214.732L345.78 214.819C345.78 214.876 345.78 214.939 345.78 215.008" fill="#5073AB"/>
<path d="M352.33 216.038C352.022 216.404 351.686 216.745 351.324 217.057C351.223 217.147 351.115 217.234 351.01 217.318C351.01 217.318 351.525 215.82 351.875 215.074C352.111 215.232 352.222 215.775 352.33 216.038Z" fill="#AC00FF"/>
<path d="M339.074 216.59L338.91 216.419C338.708 216.206 338.518 215.983 338.338 215.751C338.394 215.571 338.497 215.411 338.638 215.286L339.071 216.59" fill="#AC00FF"/>
<path d="M278.694 324.596C278.694 324.596 277.524 322.679 275.917 321.933C274.31 321.187 271.022 323.794 270.735 325.244L266.919 330.816L267.644 331.313L269.678 328.338C268.293 331.679 266.312 335.675 267.703 337.686C269.571 340.382 273.808 343.114 274.924 342.641C276.04 342.168 275.821 334.324 275.821 334.324C274.624 327.398 278.697 324.596 278.697 324.596" fill="#8600C7"/>
<path d="M278.694 324.596C277.902 326.138 277.202 327.726 276.6 329.351C275.887 331.427 275.753 337.182 275.301 337.581C274.849 337.979 271.303 336.188 270.813 334.037C270.322 331.886 271.779 327.583 273.15 325.325C273.887 324.056 274.819 322.912 275.911 321.933C275.911 321.933 278.332 322.403 278.688 324.596" fill="#E7E5E8"/>
<path d="M292.398 274.181C292.398 274.181 290.223 285.73 290.223 288.492C290.223 291.255 289.472 295.773 287.715 299.122C285.959 302.471 278.257 325.343 277.59 328.006C276.922 330.669 276.348 333.186 276.348 333.186C276.348 333.186 272.503 331.427 272.503 328.917C272.503 326.406 275.845 305.65 276.432 301.549C277.018 297.447 281.866 276.44 281.866 276.44L292.398 274.181Z" fill="#E7E5E8"/>
<path d="M280.109 273.426C280.109 273.426 280.86 283.052 280.776 285.562C280.693 288.073 279.523 293.765 279.523 295.272C279.523 296.779 279.523 327.994 280.77 331.76C282.018 335.526 277.266 332.934 277.266 332.934C277.266 332.934 268.993 312.403 268.993 303.837C268.993 295.272 269.995 291.003 269.409 285.562C268.822 280.122 266.222 272.961 266.222 272.961L280.109 273.426Z" fill="white"/>
<path d="M267.59 227.099C267.59 227.099 263.143 232.555 261.973 239.838C260.803 247.121 263.359 260.849 264.265 264.821C265.064 268.308 266.59 279.465 266.659 280.637C266.659 280.637 281.62 282.333 292.991 278.734C292.991 278.734 294.029 263.155 294.699 256.54C295.37 249.925 292.102 227.6 292.102 227.6L267.566 227.099" fill="#FFA800"/>
<path d="M284.693 341.245C279.337 336.559 280.771 331.751 280.771 331.751C280.771 331.751 278.628 330.987 276.881 331.421C275.133 331.856 274.209 336.011 274.906 337.338L275.444 344.16L276.342 344.088L276.043 340.448C277.078 343.962 278.06 348.375 280.435 349.07C283.625 350.005 288.694 349.451 289.274 348.366C289.855 347.282 284.687 341.245 284.687 341.245" fill="#8600C7"/>
<path d="M287.838 176.099C287.838 176.099 286.512 184 287.658 186.654C288.804 189.308 281.572 183.55 281.572 183.55C281.572 183.55 284.564 174.862 287.838 176.099Z" fill="#23172D"/>
<path d="M285.166 154.151C285.166 154.151 273.562 151.491 272.117 163.906C270.672 176.321 275.89 177.879 272.359 186.292C268.829 194.704 280.986 183.55 280.986 183.55L285.175 154.151" fill="#23172D"/>
<path d="M284.164 153.971C287.156 153.911 293.7 155.595 294.496 163.516C294.308 164.796 294.02 166.059 293.634 167.294C293.072 168.954 294.427 173.924 294.032 174.155C293.637 174.386 292.012 174.655 292.012 174.655C292.012 174.655 290.124 179.991 288.236 179.892C286.348 179.793 279.26 178.113 276.067 171.318C272.874 164.523 272.138 154.214 284.164 153.971Z" fill="white"/>
<path d="M251.71 252.265C251.71 252.265 251.988 247.487 253.251 246.747C254.514 246.007 253.784 247.484 253.784 247.484C253.784 247.484 253.074 250.95 252.919 252.355C252.919 252.424 251.722 252.265 251.722 252.265" fill="#1D3B54"/>
<path d="M257.557 241.507C257.805 242.924 258.14 244.325 258.559 245.701C259.205 247.765 259.801 248.421 259.544 249.596C259.346 250.495 258.347 251.16 258.083 250.872C257.82 250.584 257.703 247.115 256.267 247.133C254.831 247.151 256.698 251.432 255.842 251.115C254.986 250.797 251.695 248.997 251.901 247.247C252.108 245.497 253.427 244.233 253.341 241.618C253.266 239.245 254.002 238.253 254.002 238.253L257.557 241.486" fill="white"/>
<path d="M256.411 247.007C256.411 247.007 258.323 247.496 258.206 253.976L256.04 253.614C256.04 253.614 256.079 250.033 255.441 248.08C255.441 248.08 255.552 246.813 256.417 247.007" fill="#1D3B54"/>
<path d="M264.355 255.438L247.482 250.645L247.53 271.448L264.322 281.527L264.355 255.435" fill="#EDDAD3"/>
<path d="M264.331 281.53L262.219 281.919L245.878 271.739L246.078 250.728L247.482 250.635L264.331 281.53Z" fill="#EDDAD3"/>
<path d="M285.771 183.155C285.771 183.155 290.259 185.003 291.07 185.551C291.881 186.1 293.482 192.628 293.883 193.191C294.284 193.754 298.164 198.584 297.626 202.499C297.207 205.576 295.468 207.203 294.334 208.411C293.2 209.618 292.168 216.11 291.815 217.075C291.462 218.04 292.584 230.706 292.584 230.706C292.584 230.706 279.388 235.847 267.581 227.084C267.581 227.084 269.939 218.603 269.939 217.075C269.939 215.547 268.413 204.77 264.316 198.419C260.22 192.068 265.04 185.312 268.173 184.509C271.306 183.706 277.33 181.45 277.33 181.45L285.762 183.14" fill="#FFA800"/>
<path d="M271.372 183.562C271.372 183.562 264.768 183.155 261.455 187.017C258.143 190.878 258.323 195.459 257.479 197.448C256.635 199.438 254.708 208.003 254.286 209.39C253.864 210.777 253.454 218.573 252.853 224.846C252.251 231.12 252.371 242.822 252.371 242.822L258.691 241.675C258.691 241.675 258.945 230.509 259.107 224.037C259.268 217.566 264.526 206.125 266.515 201.118C268.505 196.112 276.417 186.696 271.372 183.553" fill="#FFA800"/>
<path d="M290.414 185.201C291.331 185.309 292.206 185.648 292.956 186.187C293.707 186.725 294.309 187.446 294.705 188.281C296.091 191.178 296.62 193.584 296.982 194.309C297.344 195.034 302.368 204.564 302.668 206.676C302.967 208.788 302.488 212.647 299.837 213.671C297.186 214.696 287.67 214.816 287.67 214.816C287.67 214.816 290.079 209.914 287.85 207.38C287.85 207.38 294.756 206.131 296.393 205.966C298.116 205.792 288.239 187.37 290.426 185.198" fill="#FFA800"/>
<path d="M274.595 193.386L287.461 223.48L303.503 215.912L291.638 187.013L274.583 193.386" fill="#23172D"/>
<path d="M281.985 208.171C281.985 208.171 280.244 208.635 279.69 208.716C279.137 208.797 279.822 209.819 280.498 209.852C281.175 209.885 281.994 208.171 281.994 208.171" fill="white"/>
<path d="M283.147 216.733C283.54 216.719 283.929 216.642 284.299 216.506C284.299 216.506 284.897 216.11 285.343 215.855C285.486 215.778 285.612 215.709 285.696 215.673C286.389 215.464 287.043 215.146 287.635 214.729C288.389 214.13 290.852 211.793 290.852 211.793L289.224 209.336L287.967 207.383C287.967 207.383 282.677 207.527 281.911 207.982C281.837 208.027 281.766 208.076 281.698 208.129C281.085 208.584 280.822 209.184 280.528 209.459C280.421 209.564 279.424 210.658 279.484 211.092C279.501 211.337 279.58 211.574 279.714 211.779C279.848 211.985 280.033 212.153 280.25 212.266C280.25 212.266 280.466 213.45 281.082 213.974C281.138 214.297 281.268 214.604 281.461 214.869C281.655 215.134 281.907 215.35 282.198 215.502C282.198 215.502 282.497 216.598 283.147 216.721" fill="white"/>
<path d="M287.838 207.383C287.838 207.383 295.675 205.981 297.838 205.753C297.915 204.051 297.832 202.346 297.59 200.66C297.195 198.326 295.28 195.198 295.28 195.198L299.286 198.872C299.286 198.872 302.578 205.193 302.656 206.661C302.733 208.129 303.122 210.421 301.16 212.734C299.197 215.047 290.011 213.986 290.011 213.986C290.011 213.986 290.777 211.149 287.826 207.368" fill="#FFA800"/>
<path d="M285.426 178.631C285.426 178.631 285.175 179.38 284.879 180.491C284.729 181.06 284.58 181.726 284.421 182.43C284.023 184.386 283.757 186.678 284.224 188.221C284.224 188.221 280.007 189.551 276.878 183.55C276.878 183.55 278.472 177.226 276.74 173.313C275.007 169.4 285.417 178.631 285.417 178.631" fill="white"/>
<path d="M294.496 163.516C294.496 163.516 289.574 166.677 284.762 167.207C279.951 167.737 277.282 175.024 277.282 175.024C277.282 175.024 269.717 163.229 275.809 155.981C281.902 148.734 295.804 154.346 294.505 163.516" fill="#23172D"/>
<path d="M282.775 166.929C282.775 166 281.782 164.577 280.226 165.802C278.67 167.028 280.591 171.495 281.848 171.108C283.105 170.722 282.775 167.89 282.775 166.929Z" fill="white"/>
<path d="M286.037 183.266C286.037 183.266 288.018 189.126 283.383 189.096C278.748 189.066 276.725 185.414 275.399 182.172C275.399 182.172 277.539 181.136 278.532 180.974C279.526 180.812 286.037 183.257 286.037 183.257" fill="white"/>
<path d="M258.212 253.694L256.037 253.976V252.96L258.212 253.694Z" fill="#1D3B54"/>
<path d="M252.937 252.196L251.74 252.34C251.74 252.34 251.74 251.978 251.74 251.858C251.74 251.738 252.895 252.121 252.937 252.196Z" fill="#1D3B54"/>
<path d="M280.771 331.76C281.124 333.484 281.58 335.184 282.138 336.853C282.898 338.95 286.453 343.561 286.351 344.16C286.249 344.759 282.315 345.616 280.573 344.223C278.832 342.83 277.231 338.531 276.872 335.87C276.654 334.426 276.597 332.962 276.701 331.505C276.701 331.505 279.095 330.265 280.771 331.766" fill="white"/>
<path d="M285.256 179.239C285.103 179.808 284.879 180.491 284.705 181.171C282.472 179.688 280.558 177.773 279.074 175.539C281.234 177.606 285.256 179.239 285.256 179.239Z" fill="#A77860"/>
<path d="M108.804 66.4624H153.687C155.444 66.4624 157.128 67.1609 158.37 68.4043C159.612 69.6477 160.309 71.334 160.309 73.0924V91.2539C160.309 92.1246 160.138 92.9867 159.805 93.7911C159.472 94.5955 158.985 95.3264 158.37 95.9421C157.755 96.5577 157.025 97.0461 156.221 97.3793C155.418 97.7125 154.557 97.8839 153.687 97.8839H108.804C107.934 97.8839 107.073 97.7124 106.27 97.3792C105.467 97.046 104.737 96.5576 104.123 95.9419C103.508 95.3262 103.02 94.5953 102.688 93.7909C102.356 92.9865 102.185 92.1244 102.185 91.2539V73.1074C102.185 72.2369 102.356 71.3748 102.688 70.5705C103.02 69.7661 103.508 69.0352 104.123 68.4195C104.737 67.8038 105.467 67.3153 106.27 66.9821C107.073 66.6489 107.934 66.4774 108.804 66.4774" fill="#00FFD1"/>
<path d="M72.2832 224.232C72.3395 224.26 72.3484 224.263 72.2832 224.232V224.232Z" fill="#AC00FF"/>
<path d="M44.6381 219.22H87.5677C88.1417 219.219 88.692 218.99 89.0976 218.584C89.5032 218.177 89.731 217.626 89.731 217.051V215.733C89.731 215.158 89.5032 214.607 89.0976 214.2C88.692 213.793 88.1417 213.564 87.5677 213.564H44.6381C44.0635 213.564 43.5125 213.792 43.1062 214.199C42.6999 214.606 42.4717 215.157 42.4717 215.733V217.051C42.4717 217.626 42.6999 218.178 43.1062 218.585C43.5125 218.991 44.0635 219.22 44.6381 219.22Z" fill="#FFA800"/>
<path d="M44.6381 229.418H87.5677C88.1414 229.418 88.6917 229.19 89.0974 228.784C89.5031 228.377 89.731 227.827 89.731 227.252V225.931C89.731 225.356 89.5031 224.805 89.0974 224.399C88.6917 223.993 88.1414 223.765 87.5677 223.765H44.6381C44.3537 223.765 44.072 223.82 43.8092 223.929C43.5464 224.038 43.3076 224.197 43.1064 224.398C42.9052 224.599 42.7455 224.838 42.6366 225.101C42.5277 225.364 42.4717 225.646 42.4717 225.931V227.252C42.4725 227.827 42.701 228.378 43.1072 228.784C43.5134 229.19 44.064 229.418 44.6381 229.418Z" fill="#FFA800"/>
<path d="M44.6381 239.616H87.5677C88.1414 239.616 88.6917 239.388 89.0974 238.982C89.5031 238.576 89.731 238.025 89.731 237.45V236.129C89.731 235.555 89.5031 235.004 89.0974 234.597C88.6917 234.191 88.1414 233.963 87.5677 233.963H44.6381C44.064 233.963 43.5134 234.191 43.1072 234.597C42.701 235.003 42.4725 235.554 42.4717 236.129V237.45C42.4725 238.025 42.701 238.576 43.1072 238.982C43.5134 239.388 44.064 239.616 44.6381 239.616Z" fill="#FFA800"/>
<path d="M116.844 191.747H106.59C105.52 191.747 104.495 191.322 103.739 190.565C102.982 189.808 102.557 188.782 102.556 187.711V155.987C102.557 154.917 102.982 153.89 103.738 153.133C104.495 152.375 105.52 151.95 106.59 151.949H116.844C117.913 151.95 118.938 152.375 119.694 153.133C120.45 153.89 120.875 154.917 120.875 155.987V187.723C120.871 188.792 120.445 189.815 119.69 190.569C118.934 191.323 117.911 191.747 116.844 191.747Z" fill="#FFA800"/>
<path d="M6.59797 263.021C6.59797 263.021 7.30118 264.174 7.38796 265.118C7.45977 265.864 8.08515 266.978 8.35744 267.593C8.62973 268.207 9.50045 270.996 9.53037 271.721C9.54533 272.021 8.88409 273.887 8.97685 274.483C9.06961 275.079 9.4137 276.281 8.87809 276.344C8.34248 276.407 7.73204 275.445 7.73204 275.445C7.74568 275.597 7.71508 275.75 7.64393 275.885C7.57279 276.02 7.46418 276.131 7.33112 276.206C6.43345 276.616 5.98162 276.257 5.98162 276.257C5.98162 276.257 5.65541 276.856 5.24547 276.943C4.3478 277.123 3.90495 276.76 3.90495 276.76C3.61203 276.981 3.25396 277.097 2.88762 277.09C2.6538 277.081 2.42628 277.011 2.22781 276.887C2.02934 276.763 1.86684 276.589 1.75655 276.383C1.75655 276.383 0.748135 276.589 0.454895 276.119C0.161656 275.649 0.212536 275.145 0.0928464 274.717C-0.0268431 274.289 0.0629299 270.439 1.37054 267.664C2.67814 264.89 1.03844 262.182 1.03844 262.182L6.59797 263.015" fill="white"/>
<path d="M7.87552 275.091C7.87552 275.091 7.96529 271.634 7.05565 270.897C6.14601 270.16 6.04132 271.409 6.04132 271.409C6.04132 271.409 6.16694 270.175 5.17352 270.01C4.1801 269.845 4.13822 271.308 4.13822 271.308C4.1143 271.177 4.06348 271.052 3.98897 270.942C3.91447 270.831 3.8179 270.738 3.70538 270.667C3.59287 270.596 3.46689 270.549 3.33537 270.529C3.20385 270.51 3.06965 270.518 2.94133 270.553C1.89704 270.747 2.14542 271.961 2.14542 271.961C2.14542 271.961 1.14901 270.762 0.502683 271.916C-0.586491 273.845 0.463746 276.11 0.463746 276.11C0.463746 276.11 0.762999 276.631 1.7654 276.374C1.7654 276.374 2.42965 277.716 3.9138 276.751C3.9138 276.751 5.43384 277.59 5.9904 276.248C5.9904 276.248 7.66607 277.045 7.88451 275.076" fill="#DB9C7C"/>
<path d="M18.3126 213.216C18.3126 213.216 12.4 232.941 10.4011 240.219C9.77577 242.501 8.2587 264.294 8.00736 265.172C7.75601 266.05 0.227539 267.251 0.227539 267.251C0.227539 267.251 1.12516 239.988 1.22091 238.49C1.31666 236.992 9.49447 206.556 11.8733 205.469C13.6686 204.657 14.5992 205.331 16.8494 207.002C20.0032 209.345 18.3126 213.204 18.3126 213.204" fill="#AC00FF"/>
<path d="M76.6163 186.591L75.958 185.584L89.4889 176.716L90.1472 177.723L76.6163 186.591Z" fill="#4DA8F2"/>
<path d="M91.5893 181.815C91.5312 182.19 91.413 182.552 91.2393 182.888C91.2393 182.888 90.7994 183.415 90.5062 183.811C90.4295 183.906 90.3585 184.006 90.2937 184.11C90.0172 184.747 89.6391 185.335 89.1746 185.851C88.5312 186.504 86.0238 188.586 86.0238 188.586L83.8723 186.759L81.6401 185.755C81.6401 185.755 82.8879 180.315 83.4175 179.637C83.4714 179.572 83.5252 179.506 83.5791 179.452C84.0848 178.918 84.6833 178.736 84.9795 178.487C85.0902 178.397 86.2392 177.567 86.6461 177.675C86.8773 177.719 87.0935 177.821 87.2742 177.972C87.4548 178.123 87.594 178.318 87.6785 178.538C87.6785 178.538 88.7796 178.876 89.2075 179.524C89.509 179.614 89.7858 179.772 90.0166 179.986C90.2475 180.2 90.4262 180.464 90.539 180.758C90.539 180.758 91.5444 181.159 91.5893 181.8" fill="white"/>
<path d="M13.5159 347.902C13.5159 347.902 12.9743 351.647 12.9174 352.21C12.8606 352.773 6.93295 351.878 6.93295 351.878L6.45117 347.42C6.45117 347.42 12.7918 347.375 13.5338 347.902" fill="#424773"/>
<path d="M12.9832 351.731C12.9832 351.731 14.8594 353.987 16.6786 354.969C18.4979 355.952 21.3465 356.345 22.4207 357.366C23.1957 358.103 25.2454 361.261 17.702 361.204C10.1585 361.147 6.52294 361.65 5.71205 360.437C4.90115 359.224 6.88206 351.482 6.88206 351.482C6.88206 351.482 8.67737 352.126 12.9832 351.737" fill="#8600C7"/>
<path d="M55.9815 347.902C55.9815 347.902 55.4429 351.647 55.3831 352.21C55.3232 352.773 49.3986 351.878 49.3986 351.878L48.9199 347.42C48.9199 347.42 55.2574 347.375 55.9995 347.902" fill="#424773"/>
<path d="M55.4371 351.731C55.4371 351.731 57.3162 353.987 59.1325 354.969C60.9488 355.952 67.6335 356.767 68.7077 357.78C69.4827 358.517 70.7723 361.474 60.1559 361.198C52.6154 361 48.9769 361.644 48.169 360.431C47.3611 359.218 49.3389 351.476 49.3389 351.476C49.3389 351.476 51.0205 352.165 55.4371 351.731Z" fill="#8600C7"/>
<path d="M18.4231 251.666C18.4231 251.666 12.8546 260.525 13.2675 268.533C13.6805 276.542 11.2508 285.284 10.4129 293.648C9.47935 302.975 5.66429 325.052 5.52366 330.043C5.38302 335.034 6.1221 350.961 6.1221 350.961L13.7643 351.135C13.7643 351.135 20.1796 312.538 21.8433 308.592C23.507 304.647 31.7446 276.577 32.0169 273.426C32.2892 270.274 18.4231 251.66 18.4231 251.66" fill="#8600C7"/>
<path d="M47.7383 252.879C47.7383 252.879 51.9275 274.828 52.49 279.726C53.0526 284.624 53.4146 303.448 53.6869 306.51C53.9592 309.572 56.2752 346.503 57.0113 351.15H47.2446C47.2446 351.15 39.7461 324.237 39.7461 311.501C39.7461 298.765 33.9531 283.819 30.2128 275.415C26.4725 267.011 17.9147 266.817 15.6167 251.226C15.6167 251.226 44.6234 247.93 47.7353 252.882" fill="#8600C7"/>
<path d="M27.7171 177.196C27.7171 177.196 35.1976 174.401 38.6387 180.099C42.0798 185.797 41.7506 197.2 37.9834 198.602C34.2162 200.004 28.5549 199.273 26.6129 195.708C24.671 192.143 22.9415 186.99 23.0223 183.544C23.103 180.099 25.7362 178.19 27.6991 177.196" fill="white"/>
<path d="M37.1724 198.865C37.1724 198.865 36.8731 200.885 37.3758 201.879C37.8785 202.874 27.6899 202.901 27.6899 202.901C27.6899 202.901 26.8641 197.487 25.2961 192.912C23.7282 188.338 37.1754 198.865 37.1754 198.865" fill="white"/>
<path d="M25.2932 192.912C25.2932 192.912 25.9964 194.075 28.8839 193.625C31.7714 193.176 35.2634 189.347 36.4633 188.925C37.6632 188.502 37.6602 187.798 37.6602 187.798L38.4112 188.898L39.6859 188.979C39.6859 188.979 38.5219 185.554 40.2844 184.161C42.0468 182.768 38.4651 173.076 29.252 176.303C29.252 176.303 22.1724 178.253 22.4297 182.295C22.687 186.336 23.7193 190.914 25.3022 192.921" fill="#23172D"/>
<path d="M37.9803 201.76C37.9803 201.76 37.9474 199.86 37.0826 199.662C36.2179 199.465 27.5763 198.65 26.52 199.063V201.277C26.52 201.277 28.5577 202.533 37.9743 201.745" fill="#E2D2CA"/>
<path d="M37.4686 186.333C37.3071 185.659 35.5925 183.727 34.9342 185.794C34.2759 187.861 35.9276 190.645 36.8492 190.405C37.7708 190.165 37.8786 188.047 37.4686 186.333Z" fill="white"/>
<path d="M52.2744 204.63C46.3498 203.845 37.9805 201.748 37.9805 201.748L26.5262 201.28C26.5262 201.28 16.0145 203.596 11.8642 205.475C11.4723 205.654 11.4723 214.867 10.3921 217.282L13.8242 224.532C13.8242 224.532 15.808 238.894 16.218 245.282C16.4065 248.215 12.1275 272.775 12.1275 272.775C12.1275 272.775 16.7117 274.127 24.5274 274.99C32.3431 275.852 51.8794 274.69 52.0021 273.755C52.1247 272.82 48.2199 239.332 48.0463 237.597C47.78 234.934 48.962 220.787 48.962 220.787C50.7573 219.385 66.6162 212.021 70.9369 208.18C72.0949 207.152 76.9783 202.392 78.3667 200.75C83.2829 194.929 87.3135 189.938 87.8012 188.862C88.3578 188.263 82.46 185.036 81.9274 184.859C81.4576 184.704 74.8119 193.323 72.2566 196.097C71.1165 197.335 66.3738 200.786 66.3738 200.786C66.3738 200.786 55.9698 204.848 52.2624 204.636" fill="#AC00FF"/>
<path d="M25.5865 177.87C25.5865 177.87 16.0562 178.616 25.2873 192.912L25.5865 177.87Z" fill="#23172D"/>
<path d="M90.147 177.723L90.9281 176.525L89.4888 176.713L90.147 177.723Z" fill="#DFE1E8"/>
</g>
<defs>
<clipPath id="clip0_1111_3180">
<rect width="439" height="360.778" fill="white" transform="translate(0 0.473694)"/>
</clipPath>
</defs>
</svg>
