<svg width="430" height="372" viewBox="0 0 430 372" fill="none" xmlns="http://www.w3.org/2000/svg">
<path d="M355.511 111.11C317.564 113.233 262.461 129.973 195.908 64.9855C141.098 11.4745 46.5373 42.2829 25.1884 113.334C2.52471 188.784 58.1961 250.338 98.4407 274.1C148.02 303.381 246.338 307.522 300.072 286.784C353.982 265.974 391.716 228.829 403.993 200.01C423.525 154.138 403.178 108.444 355.511 111.11Z" fill="#8600C7"/>
<path d="M407.495 120.532C396.988 87.5918 355.422 62.0424 296.032 86.0082C236.641 109.974 211.585 95.5699 167.936 68.1122C110.155 31.7648 35.1194 48.0661 22.0721 112.886C7.71453 184.201 69.433 240.281 103.351 261.519C137.27 282.757 250.901 324.54 356.458 248.564C399.417 217.65 420.647 161.774 407.495 120.532Z" fill="#AC00FF"/>
<path d="M303.525 130.466H229.594C226.485 130.466 223.964 132.995 223.964 136.115V224.096C223.964 227.216 226.485 229.745 229.594 229.745H303.525C306.634 229.745 309.154 227.216 309.154 224.096V136.115C309.154 132.995 306.634 130.466 303.525 130.466Z" fill="white"/>
<path d="M275.678 171.642C273.816 166.158 269.858 161.641 264.677 159.085C259.495 156.528 253.513 156.142 248.048 158.011C242.582 159.88 238.08 163.851 235.533 169.05C232.985 174.249 232.6 180.251 234.463 185.735C234.534 185.941 234.608 186.147 234.686 186.351C234.849 186.813 235.03 187.267 235.222 187.713C237.483 192.896 241.661 196.996 246.876 199.15C252.09 201.304 257.934 201.344 263.177 199.262C268.42 197.179 272.654 193.136 274.986 187.985C277.318 182.833 277.567 176.975 275.68 171.642H275.678ZM260.678 194.415C256.78 195.82 252.496 195.684 248.695 194.033C244.894 192.383 241.862 189.342 240.215 185.529C240.072 185.198 239.936 184.857 239.813 184.508C238.726 181.458 238.565 178.153 239.35 175.011C240.135 171.869 241.831 169.031 244.223 166.856C246.616 164.682 249.597 163.267 252.79 162.793C255.984 162.318 259.245 162.804 262.163 164.19C265.081 165.575 267.524 167.798 269.183 170.576C270.843 173.355 271.643 176.565 271.484 179.8C271.325 183.035 270.214 186.151 268.29 188.752C266.366 191.353 263.717 193.324 260.678 194.415Z" fill="#AC00FF"/>
<path d="M239.601 174.122L234 172.5C236 165.957 238.392 163.747 242 161C245.608 158.253 250.166 156.958 254.693 156.817V162.627C251.299 162.734 248.023 163.897 245.318 165.957C242.614 168.017 240.616 170.871 239.601 174.122Z" fill="#00D8AE"/>
<path d="M240.215 185.545L235.22 187.729C235.028 187.281 234.847 186.833 234.684 186.367C233.082 181.899 232.582 177.03 234 172.5L239.601 174.129C238.538 177.524 238.613 181.175 239.813 184.524C239.936 184.86 240.072 185.202 240.215 185.545Z" fill="#00FFD1"/>
<path d="M238.594 193.16C237.208 191.525 236.07 189.694 235.219 187.724L240.215 185.54C240.854 187.017 241.706 188.392 242.744 189.619L238.594 193.16Z" fill="#FFA800"/>
<path d="M294.558 184.987C292.4 183.962 289.923 183.84 287.675 184.647C285.426 185.453 283.588 187.124 282.567 189.29C281.545 191.456 281.423 193.941 282.228 196.197C283.032 198.454 284.696 200.297 286.855 201.322C287.036 201.409 287.223 201.49 287.409 201.564C289.58 202.41 291.994 202.379 294.143 201.477C296.292 200.575 298.009 198.873 298.934 196.728C299.858 194.582 299.918 192.161 299.101 189.972C298.284 187.783 296.653 185.997 294.552 184.989L294.558 184.987ZM296.809 196.052C296.222 197.296 295.272 198.331 294.084 199.02C292.897 199.709 291.528 200.019 290.161 199.909C289.499 199.857 288.849 199.706 288.232 199.461C288.094 199.406 287.956 199.345 287.817 199.279C286.61 198.706 285.599 197.787 284.913 196.637C284.226 195.487 283.895 194.159 283.961 192.821C284.027 191.483 284.487 190.194 285.283 189.118C286.079 188.041 287.175 187.226 288.432 186.775C289.69 186.324 291.053 186.257 292.348 186.583C293.643 186.909 294.813 187.613 295.71 188.607C296.607 189.6 297.19 190.837 297.385 192.163C297.581 193.489 297.38 194.843 296.809 196.054V196.052Z" fill="#AC00FF"/>
<path d="M284.725 196.296L282.716 197.344C281.847 195.678 281.517 193.782 281.772 191.92C282.027 190.057 282.854 188.321 284.138 186.951L285.776 188.504C284.815 189.531 284.196 190.833 284.006 192.23C283.815 193.626 284.063 195.047 284.714 196.296H284.725Z" fill="#385988"/>
<path d="M288.232 199.459L287.409 201.564C287.223 201.49 287.036 201.409 286.855 201.322C285.083 200.486 283.633 199.09 282.728 197.349L284.737 196.3C285.415 197.605 286.501 198.65 287.828 199.277C287.958 199.342 288.094 199.403 288.232 199.459Z" fill="#4772B0"/>
<path d="M298.846 169.503C299.367 168.438 299.674 167.28 299.749 166.095C299.824 164.911 299.666 163.723 299.283 162.6C298.901 161.477 298.302 160.441 297.52 159.55C296.738 158.659 295.79 157.931 294.728 157.409C293.666 156.886 292.512 156.578 291.331 156.503C290.151 156.427 288.967 156.586 287.848 156.97C286.729 157.354 285.695 157.955 284.808 158.739C283.92 159.523 283.195 160.475 282.674 161.541C282.636 161.619 282.6 161.696 282.564 161.765C282.48 161.949 282.397 162.135 282.326 162.32C281.482 164.499 281.513 166.921 282.412 169.077C283.311 171.234 285.007 172.957 287.146 173.884C289.284 174.812 291.697 174.872 293.878 174.053C296.059 173.233 297.839 171.597 298.844 169.488L298.846 169.503ZM287.817 171.761C286.267 171.026 285.053 169.727 284.422 168.127C283.791 166.528 283.79 164.747 284.419 163.147C284.475 163.008 284.535 162.869 284.6 162.733C285.365 161.109 286.742 159.856 288.427 159.25C290.112 158.644 291.969 158.735 293.587 159.503C295.183 160.285 296.407 161.667 296.995 163.349C297.582 165.031 297.485 166.878 296.726 168.489C295.966 170.1 294.604 171.345 292.935 171.956C291.266 172.566 289.425 172.492 287.81 171.75L287.817 171.761Z" fill="#AC00FF"/>
<path d="M287.571 159.637L286.524 157.635C288.184 156.763 290.074 156.432 291.93 156.687C293.786 156.943 295.517 157.772 296.882 159.059L295.337 160.706C294.314 159.74 293.016 159.118 291.624 158.926C290.233 158.735 288.816 158.983 287.571 159.637Z" fill="#AC00FF"/>
<path d="M284.422 163.147L282.326 162.32C282.397 162.134 282.48 161.949 282.564 161.765C283.397 159.987 284.788 158.533 286.524 157.626L287.571 159.628C286.269 160.308 285.226 161.399 284.603 162.733C284.538 162.878 284.478 163.017 284.422 163.147Z" fill="#4772B0"/>
<path d="M281.728 164.91C281.799 164.025 282 163.155 282.326 162.329L284.422 163.156C284.179 163.776 284.029 164.429 283.975 165.093L281.728 164.91Z" fill="#FFA800"/>
<path d="M287.937 208.12H271.122V207.784H287.605V201.409H287.937V208.12Z" fill="#E5F2FD"/>
<path d="M256.272 208.12H234.4V207.784H255.937V197.349H256.272V208.12Z" fill="#E5F2FD"/>
<path d="M249.45 204.294H234.4V206.306H249.45V204.294Z" fill="#AC00FF"/>
<path d="M279.973 204.294H271.122V206.306H279.973V204.294Z" fill="#AC00FF"/>
<path d="M238.193 138.986H230.992V140.532H238.193V138.986Z" fill="#AC00FF"/>
<path d="M272.192 144.801H261.017V146.346H272.192V144.801Z" fill="#AC00FF"/>
<path d="M253.39 144.801H246.568V146.346H253.39V144.801Z" fill="#AC00FF"/>
<path d="M244.506 144.801H230.992V146.346H244.506V144.801Z" fill="#AC00FF"/>
<path d="M251.057 138.986H240.385V140.532H251.057V138.986Z" fill="#AC00FF"/>
<path d="M258.454 144.801H255.523V146.346H258.454V144.801Z" fill="#AC00FF"/>
<path d="M272.192 139.074H264.218V140.619H272.192V139.074Z" fill="#AC00FF"/>
<path d="M281.835 144.801H275.035V146.346H281.835V144.801Z" fill="#AC00FF"/>
<path d="M262.133 139.074H253.682V140.619H262.133V139.074Z" fill="#AC00FF"/>
<path d="M131.801 127.72C136.712 138.471 139.473 148.653 135.857 153.193C135.645 153.459 135.41 153.707 135.156 153.932C132.37 156.396 126.897 156.45 117.64 152.783C93.0185 143.025 91.8488 126.184 86.871 109.737C81.9601 93.4959 64.8122 96.2419 64.377 96.3135C104.331 82.3506 123.466 109.484 131.801 127.72Z" fill="#00FFD1"/>
<path d="M135.857 153.202C135.645 153.468 135.41 153.716 135.156 153.941C130.531 151.146 121.676 145.206 117.499 138.565C115.53 135.429 113.876 131.893 112.12 128.157C108.807 121.092 105.374 113.786 99.396 108.182L100.066 107.461C106.191 113.197 109.664 120.589 113.012 127.74C114.754 131.449 116.396 134.952 118.339 138.043C122.399 144.521 131.346 150.472 135.857 153.202Z" fill="url(#paint0_linear_1111_2801)"/>
<path d="M127.522 132.115C127.232 132.829 127.047 133.234 127.024 133.279C126.948 132.885 126.875 132.493 126.801 132.115C123.518 115.226 119.124 113.464 105.954 98.6922C92.4852 83.5848 100.227 69.5099 100.227 69.5099C145.353 82.5903 130.585 124.564 127.522 132.115Z" fill="#00D8AE"/>
<path d="M127.522 132.115C127.231 132.829 127.046 133.234 127.024 133.279C126.948 132.885 126.874 132.493 126.801 132.115C128.263 117.516 119.486 100.386 116.727 97.3125C113.874 94.1298 112.115 89.751 111.452 88.1025C111.34 87.8292 111.229 87.5672 111.2 87.5089L111.836 87.1483C111.945 87.3723 112.041 87.5963 112.128 87.8203C112.778 89.4352 114.503 93.7244 117.262 96.8086C120.762 100.717 128.863 117.928 127.522 132.115Z" fill="url(#paint1_linear_1111_2801)"/>
<path d="M328.234 44.6437H130.562C124.802 44.6437 120.133 49.3287 120.133 55.108V115.589C120.133 121.369 124.802 126.054 130.562 126.054H328.234C333.993 126.054 338.662 121.369 338.662 115.589V55.108C338.662 49.3287 333.993 44.6437 328.234 44.6437Z" fill="white"/>
<path d="M320.026 68.0137H293.319V70.7015H320.026V68.0137Z" fill="#AC00FF"/>
<path d="M324.014 76.3368H293.319V79.0246H324.014V76.3368Z" fill="#AC00FF"/>
<path d="M309.155 84.6129H293.272V87.3006H309.155V84.6129Z" fill="#AC00FF"/>
<path d="M317.74 92.8912H293.272V95.5789H317.74V92.8912Z" fill="#AC00FF"/>
<path d="M213.509 221.22H131.578V223.971H213.509V221.22Z" fill="white"/>
<path d="M192.425 208.386H131.578V211.137H192.425V208.386Z" fill="url(#paint2_linear_1111_2801)"/>
<path d="M197.325 214.803H131.578V217.554H197.325V214.803Z" fill="url(#paint3_linear_1111_2801)"/>
<path d="M174.24 221.22H131.578V223.971H174.24V221.22Z" fill="url(#paint4_linear_1111_2801)"/>
<path d="M172.454 118.575H148.65V121.518H172.454V118.575Z" fill="#AC00FF"/>
<path d="M178.229 113.334H142.875V116.277H178.229V113.334Z" fill="#AC00FF"/>
<path d="M166.746 72.9413C166.746 74.577 166.099 76.1459 164.946 77.303C163.794 78.4601 162.231 79.1107 160.601 79.1119C158.971 79.1119 157.408 78.4623 156.255 77.3059C155.103 76.1495 154.456 74.5811 154.456 72.9458C154.455 72.1357 154.614 71.3335 154.923 70.585C155.231 69.8365 155.684 69.1564 156.255 68.5834C156.825 68.0104 157.503 67.5558 158.248 67.2455C158.994 66.9353 159.794 66.7754 160.601 66.7751C162.231 66.7751 163.793 67.4244 164.946 68.5802C166.099 69.736 166.747 71.3038 166.748 72.939L166.746 72.9413Z" fill="#FFA800"/>
<path d="M171.693 93.0412V104.773C168.193 106.364 164.395 107.186 160.552 107.186C156.71 107.186 152.911 106.364 149.411 104.773V93.0412C149.411 90.0764 150.585 87.233 152.674 85.1366C154.764 83.0402 157.597 81.8624 160.552 81.8624C163.507 81.8624 166.341 83.0402 168.43 85.1366C170.519 87.233 171.693 90.0764 171.693 93.0412Z" fill="#FFA800"/>
<path d="M256.267 63.8208H199.015V67.5232H256.267V63.8208Z" fill="white"/>
<path d="M284.665 63.8208H262.417V67.5232H284.665V63.8208Z" fill="white"/>
<path d="M225.9 55.388H199.015V59.0904H225.9V55.388Z" fill="white"/>
<path d="M160.552 107.918C156.607 107.93 152.705 107.09 149.112 105.454C145.801 103.946 142.818 101.799 140.335 99.1338C137.851 96.469 135.915 93.3393 134.637 89.9236C133.36 86.5078 132.765 82.8729 132.888 79.2265C133.011 75.5801 133.848 71.9937 135.352 68.6722C138.388 61.9654 143.954 56.7429 150.826 54.1538C157.699 51.5647 165.315 51.8209 171.999 54.8661C178.683 57.9115 183.888 63.4964 186.468 70.3922C189.048 77.288 188.793 84.9299 185.758 91.6369C182.988 97.7582 178.099 102.664 171.999 105.443C168.405 107.085 164.501 107.929 160.552 107.918ZM160.552 53.8201C153.595 53.8219 146.924 56.5965 142.005 61.5336C137.087 66.4708 134.325 73.166 134.326 80.1467C134.326 85.2025 135.777 90.1513 138.506 94.4014C141.235 98.6514 145.126 102.023 149.715 104.113C153.12 105.657 156.815 106.456 160.552 106.456C164.289 106.456 167.984 105.657 171.389 104.113C174.526 102.685 177.352 100.65 179.705 98.1266C182.059 95.6027 183.894 92.6384 185.105 89.403C186.317 86.1675 186.881 82.7243 186.767 79.2699C186.652 75.8155 185.86 72.4176 184.437 69.2702C182.356 64.6638 178.997 60.7564 174.761 58.0156C170.525 55.2748 165.592 53.8166 160.552 53.8156V53.8201Z" fill="#AC00FF"/>
<path d="M259.553 217.466H273.564C274.561 217.467 275.516 217.864 276.22 218.571C276.925 219.278 277.321 220.236 277.321 221.236V235.295C277.322 235.791 277.226 236.283 277.038 236.741C276.849 237.2 276.573 237.617 276.223 237.968C275.874 238.319 275.459 238.598 275.003 238.788C274.546 238.978 274.057 239.076 273.562 239.076H259.553C259.059 239.075 258.57 238.977 258.114 238.787C257.658 238.596 257.243 238.318 256.895 237.967C256.546 237.615 256.27 237.199 256.082 236.74C255.893 236.282 255.797 235.791 255.798 235.295V221.236C255.798 220.236 256.194 219.278 256.899 218.571C257.603 217.864 258.559 217.466 259.555 217.466H259.553Z" fill="white"/>
<path d="M267.58 223.969H265.542V232.563H267.58V223.969Z" fill="#C5CACF"/>
<path d="M270.841 227.246H262.276V229.288H270.841V227.246Z" fill="#C5CACF"/>
<path d="M204.547 74.5405H203.084V110.108H204.547V74.5405Z" fill="#AC00FF"/>
<path d="M211.261 74.5405H209.799V110.108H211.261V74.5405Z" fill="#AC00FF"/>
<path d="M217.978 74.5405H216.516V110.108H217.978V74.5405Z" fill="#AC00FF"/>
<path d="M224.697 74.5405H223.235V110.108H224.697V74.5405Z" fill="#AC00FF"/>
<path d="M231.413 74.5405H229.951V110.108H231.413V74.5405Z" fill="#AC00FF"/>
<path d="M238.13 74.5405H236.668V110.108H238.13V74.5405Z" fill="#AC00FF"/>
<path d="M244.847 74.5405H243.385V110.108H244.847V74.5405Z" fill="#AC00FF"/>
<path d="M251.561 74.5405H250.099V110.108H251.561V74.5405Z" fill="#AC00FF"/>
<path d="M258.28 74.5405H256.818V110.108H258.28V74.5405Z" fill="#AC00FF"/>
<path d="M264.997 74.5405H263.535V110.108H264.997V74.5405Z" fill="#AC00FF"/>
<path d="M271.714 74.5405H270.252V110.108H271.714V74.5405Z" fill="#AC00FF"/>
<path d="M278.43 74.5405H276.968V110.108H278.43V74.5405Z" fill="#AC00FF"/>
<path d="M204.547 85.175H203.084V110.109H204.547V85.175Z" fill="#FFA800"/>
<path d="M211.261 93.7916H209.799V110.109H211.261V93.7916Z" fill="#FFA800"/>
<path d="M217.978 79.6741H216.516V110.108H217.978V79.6741Z" fill="#FFA800"/>
<path d="M224.697 101.246H223.235V110.106H224.697V101.246Z" fill="#FFA800"/>
<path d="M231.413 92.3245H229.951V110.108H231.413V92.3245Z" fill="#FFA800"/>
<path d="M238.13 85.6633H236.668V110.108H238.13V85.6633Z" fill="#FFA800"/>
<path d="M244.847 94.3403H243.385V110.106H244.847V94.3403Z" fill="#FFA800"/>
<path d="M251.561 83.4011H250.099V110.106H251.561V83.4011Z" fill="#FFA800"/>
<path d="M258.28 95.4401H256.818V110.106H258.28V95.4401Z" fill="#FFA800"/>
<path d="M264.997 86.6398H263.535V110.106H264.997V86.6398Z" fill="#FFA800"/>
<path d="M271.714 98.3741H270.252V110.108H271.714V98.3741Z" fill="#FFA800"/>
<path d="M278.43 86.6398H276.968V110.106H278.43V86.6398Z" fill="#FFA800"/>
<path d="M211.036 130.466H89.1836C84.9107 130.466 81.4468 133.942 81.4468 138.229V248.877C81.4468 253.165 84.9107 256.641 89.1836 256.641H211.036C215.308 256.641 218.772 253.165 218.772 248.877V138.229C218.772 133.942 215.308 130.466 211.036 130.466Z" fill="white"/>
<path d="M132.339 168.684C133.995 164.056 133.834 158.97 131.889 154.457C129.943 149.944 126.36 146.343 121.866 144.384C121.473 144.214 121.069 144.053 120.66 143.907C117.063 142.616 113.165 142.425 109.46 143.357C105.754 144.289 102.408 146.303 99.8426 149.143C97.2777 151.984 95.6098 155.524 95.0499 159.316C94.49 163.107 95.0632 166.981 96.697 170.445C98.3309 173.91 100.952 176.811 104.229 178.781C107.506 180.752 111.291 181.702 115.107 181.514C118.922 181.325 122.596 180.006 125.665 177.722C128.733 175.438 131.057 172.293 132.344 168.684H132.339ZM109.274 175.851C105.66 174.55 102.71 171.864 101.07 168.381C99.4297 164.899 99.2346 160.905 100.527 157.279C101.82 153.652 104.495 150.689 107.964 149.04C111.433 147.391 115.413 147.191 119.028 148.485C119.334 148.595 119.636 148.709 119.921 148.844C123.366 150.348 126.093 153.137 127.527 156.621C128.961 160.105 128.989 164.012 127.606 167.517C126.223 171.022 123.537 173.85 120.115 175.405C116.693 176.96 112.802 177.12 109.265 175.851H109.274Z" fill="#AC00FF"/>
<path d="M109.825 148.286L108.385 143.661C104.551 144.865 101.185 147.237 98.7559 150.448C96.3266 153.659 94.9539 157.55 94.8286 161.579L99.6614 161.725C99.7553 158.703 100.784 155.786 102.605 153.378C104.427 150.969 106.95 149.19 109.825 148.286Z" fill="#FFA800"/>
<path d="M119.93 148.832L121.861 144.384C121.468 144.214 121.064 144.053 120.656 143.907C116.706 142.482 112.399 142.393 108.394 143.654L109.825 148.286C112.828 147.34 116.057 147.406 119.019 148.474C119.334 148.588 119.647 148.705 119.93 148.832Z" fill="#00FFD1"/>
<path d="M126.669 147.379C125.224 146.145 123.606 145.133 121.865 144.375L119.935 148.823C121.241 149.392 122.456 150.152 123.542 151.077L126.669 147.379Z" fill="#AC00FF"/>
<path d="M193.823 208.032H187.12V231.073H193.823V208.032Z" fill="#AC00FF"/>
<path d="M183.856 214.494H177.153V231.073H183.856V214.494Z" fill="#AC00FF"/>
<path d="M203.491 197.355H196.788V231.073H203.491V197.355Z" fill="#AC00FF"/>
<path d="M202.411 180.51L202.292 179.782L184.6 182.689L178.865 194.954L159.791 196.253L153.612 205.398L139.029 205.036L139.011 205.772L153.994 206.147L160.197 196.966L179.347 195.662L185.102 183.354L202.411 180.51Z" fill="#AC00FF"/>
<path d="M180.796 149.807H199.861C200.439 149.807 200.993 149.576 201.402 149.166C201.81 148.756 202.04 148.2 202.04 147.621C202.04 147.041 201.81 146.485 201.402 146.075C200.993 145.665 200.439 145.435 199.861 145.435H180.796C180.218 145.435 179.664 145.665 179.255 146.075C178.847 146.485 178.617 147.041 178.617 147.621C178.617 148.2 178.847 148.756 179.255 149.166C179.664 149.576 180.218 149.807 180.796 149.807Z" fill="#FFA800"/>
<path d="M180.796 157.438H199.861C200.439 157.437 200.993 157.206 201.401 156.795C201.81 156.385 202.039 155.829 202.04 155.249C202.04 154.67 201.81 154.114 201.402 153.704C200.993 153.294 200.439 153.063 199.861 153.063H180.796C180.218 153.063 179.664 153.294 179.255 153.704C178.847 154.114 178.617 154.67 178.617 155.249C178.618 155.829 178.847 156.385 179.256 156.795C179.664 157.206 180.218 157.437 180.796 157.438Z" fill="#AC00FF"/>
<path d="M180.796 165.073H199.861C200.439 165.073 200.993 164.843 201.402 164.433C201.81 164.023 202.04 163.467 202.04 162.887C202.04 162.307 201.81 161.751 201.402 161.341C200.993 160.931 200.439 160.701 199.861 160.701H180.796C180.218 160.701 179.664 160.931 179.255 161.341C178.847 161.751 178.617 162.307 178.617 162.887C178.617 163.174 178.673 163.459 178.782 163.724C178.891 163.989 179.052 164.23 179.254 164.434C179.456 164.637 179.696 164.798 179.96 164.908C180.224 165.018 180.507 165.075 180.794 165.075L180.796 165.073Z" fill="#AC00FF"/>
<path d="M146.281 153.59H135.377V153.169H146.107L151.848 147.41H158.88V147.829H152.02L146.281 153.59Z" fill="#AC00FF"/>
<path d="M156.614 172.702H142.583L138.036 168.139L138.33 167.842L142.755 172.281H156.614V172.702Z" fill="#AC00FF"/>
<path d="M167.431 150.19H152.886V151.982H167.431V150.19Z" fill="#00FFD1"/>
<path d="M160.157 168.451H148.449V170.24H160.157V168.451Z" fill="#00FFD1"/>
<path d="M50.7002 177.034C54.3633 175.275 58.0107 186.981 58.0107 186.981C64.2408 195.239 72.9442 184.253 72.0938 196.596C70.6026 218.199 96.8713 203.389 84.7526 225.937C72.6339 248.485 95.4538 238.689 87.9223 256.874C80.3909 275.058 90.1546 296.742 78.8216 287.832C78.8216 287.832 68.8437 265.882 58.5532 259.084C48.2627 252.286 64.7185 244.232 61.4997 235.006C56.812 221.606 45.555 222.132 53.687 207.732C61.8189 193.333 38.2445 183.007 50.7002 177.034Z" fill="#00FFD1"/>
<path d="M82.4086 279.569C77.4977 276.104 71.7475 251.948 71.406 237.562C71.2297 230.193 69.06 227.122 67.1425 224.412C65.3121 221.823 63.7317 219.588 64.6513 214.454C66.4125 204.639 61.7829 200.404 61.7383 200.363L62.2718 199.75C62.4794 199.931 67.2988 204.301 65.4505 214.597C64.5911 219.395 66.0108 221.402 67.8055 223.942C69.6895 226.607 72.0355 229.924 72.2163 237.542C72.5846 252.983 78.4665 275.789 82.8751 278.904L82.4086 279.569Z" fill="white"/>
<path d="M84.2459 281.361C83.5482 281.356 82.8527 281.281 82.1699 281.137C80.277 280.752 79.0448 279.751 78.4801 278.158C77.1563 274.351 80.2234 268.187 82.7213 265.21C82.7614 265.161 86.929 260.059 86.4848 252.965C86.4111 251.778 86.2883 250.678 86.1812 249.711C85.8664 246.906 85.641 244.879 86.8508 243.529C87.9089 242.335 89.9514 241.82 93.6792 241.802C100.215 241.771 102.8 239.056 104.876 236.874C105.769 235.949 106.593 235.083 107.604 234.518C110.863 232.726 114.3 232.471 115.809 233.895C116.519 234.567 117.12 235.896 115.943 238.375C114.867 240.631 113.472 242.06 112.349 243.209C110.84 244.752 109.845 245.773 110.363 247.807C110.486 248.284 110.626 248.765 110.767 249.249C111.773 252.708 112.916 256.641 107.017 259.29C105.764 259.853 104.624 260.303 103.619 260.699C99.5008 262.321 97.0141 263.3 94.2083 269.242C93.6658 270.393 93.1859 271.482 92.7216 272.537C90.4916 277.556 88.8286 281.359 84.2459 281.361ZM107.977 235.221C107.084 235.714 106.32 236.507 105.447 237.425C103.262 239.719 100.537 242.577 93.6636 242.606C90.2371 242.622 88.3063 243.07 87.4402 244.06C86.4803 245.139 86.6901 247.014 86.9803 249.608C87.0897 250.586 87.2036 251.695 87.2906 252.902C87.7549 260.323 83.5182 265.506 83.3373 265.723C80.8819 268.666 78.0805 274.53 79.248 277.878C79.6944 279.18 80.739 280.004 82.3306 280.327C87.8866 281.446 89.4201 277.966 91.9626 272.187C92.4269 271.128 92.9091 270.032 93.4582 268.87C96.4003 262.637 99.1459 261.555 103.305 259.911C104.302 259.519 105.432 259.073 106.666 258.518C111.921 256.148 110.972 252.893 109.968 249.449C109.825 248.958 109.682 248.465 109.557 247.979C108.925 245.502 110.173 244.223 111.751 242.604C112.887 241.441 114.173 240.122 115.191 237.988C115.725 236.868 116.166 235.349 115.231 234.462C114.006 233.295 110.885 233.615 107.977 235.21V235.221Z" fill="url(#paint5_linear_1111_2801)"/>
<path d="M82.2571 286.067L81.4468 286.022C81.487 285.258 82.5093 267.233 89.7238 261.956C97.637 256.168 100.133 249.948 101.32 245.773C102.72 240.846 109.847 239.54 110.149 239.486L110.291 240.288C110.222 240.301 103.372 241.569 102.101 245.997C100.88 250.289 98.3178 256.679 90.2015 262.614C83.2973 267.656 82.2683 285.888 82.2571 286.067Z" fill="url(#paint6_linear_1111_2801)"/>
<path d="M98.7487 195.221C93.6147 193.456 94.6884 203.372 92.5231 210.709C90.3579 218.047 68.4153 213.91 77.6298 232.278C86.8444 250.647 65.9844 238.422 72.2122 254.452C78.4401 270.482 72.7547 287.626 79.525 283.265C86.2953 278.904 83.3197 258.717 90.3668 256.318C97.4139 253.919 98.5568 251.122 91.5878 244.602C84.6189 238.082 109.852 231.611 103.624 218.441C97.396 205.271 104.677 197.259 98.7487 195.221Z" fill="#00D8AE"/>
<path d="M82.6657 282.499C82.0206 279.755 76.5138 255.604 81.6523 252.685C86.1793 250.112 86.0699 240.104 85.3622 230.654C84.7372 222.289 95.4451 218.378 95.9005 218.217L96.1706 218.985C96.0657 219.023 85.5944 222.851 86.1726 230.594C86.898 240.299 86.9761 250.598 82.0519 253.395C78.15 255.613 81.7416 275.02 83.4559 282.313L82.6657 282.499Z" fill="white"/>
<path d="M94.32 273.9L87.0006 301.764H70.6407L63.3213 273.9H94.32Z" fill="#FFA800"/>
<path d="M94.32 273.9C94.32 273.9 78.2057 276.935 78.2057 301.764H70.6407L63.3213 273.9H94.32Z" fill="#FFA800"/>
<path d="M138.576 33.5612V35.9241H115.618V58.9605H113.263V33.5612H138.576Z" fill="white"/>
<path d="M140.098 237.701H117.037V239.074H140.098V237.701Z" fill="#CECBD0"/>
<path d="M122.149 242.649H120.129V305.117H122.149V242.649Z" fill="#544B5C"/>
<path d="M152.518 237.313H136.489V239.275H152.518V237.313Z" fill="#C6BBB5"/>
<path d="M147.538 220.575H141.469V239.074H147.538V220.575Z" fill="#544B5C"/>
<path d="M197.578 239.099H108.765V242.651H197.578V239.099Z" fill="#544B5C"/>
<path d="M91.7304 217.601C91.7304 217.601 90.7595 231.264 93.4202 232.905C95.0877 233.929 101.735 237.385 101.539 238.032C101.342 238.68 97.782 243.802 97.782 243.802C97.782 243.802 85.0137 235.363 84.6119 232.715C84.2101 230.119 85.2414 212.702 86.9959 211.901C88.3107 211.298 89.0049 211.795 90.6612 213.021C92.9649 214.752 91.7304 217.601 91.7304 217.601Z" fill="#FFA800"/>
<path d="M107.43 296.59C107.43 296.59 107.033 299.356 106.983 299.77C106.934 300.185 102.566 299.526 102.566 299.526L102.211 296.233C102.211 296.233 106.885 296.191 107.43 296.59Z" fill="#454971"/>
<path d="M107.028 299.418C107.028 299.418 108.414 301.085 109.753 301.811C111.093 302.536 113.193 302.825 113.995 303.578C114.566 304.12 116.075 306.456 110.515 306.409C104.954 306.362 102.278 306.74 101.682 305.845C101.086 304.949 102.543 299.23 102.543 299.23C102.543 299.23 103.851 299.707 107.028 299.418Z" fill="#23172D"/>
<path d="M135.413 296.617C135.413 296.617 135.016 299.381 134.966 299.797C134.917 300.214 130.549 299.551 130.549 299.551L130.196 296.258C130.196 296.258 134.868 296.225 135.413 296.617Z" fill="#454971"/>
<path d="M135.013 299.445C135.013 299.445 136.397 301.112 137.736 301.837C139.076 302.563 144 303.161 144.79 303.911C145.362 304.456 146.313 306.64 138.491 306.436C132.935 306.29 130.252 306.765 129.656 305.869C129.06 304.973 130.518 299.257 130.518 299.257C130.518 299.257 131.759 299.775 135.013 299.445Z" fill="#23172D"/>
<path d="M93.3422 248.815C93.3422 248.815 109.22 251.502 112.809 252.076C116.399 252.649 135.841 257.498 138.274 258.977C140.21 260.155 137.259 288.439 136.569 299.23H128.91L128.352 266.861C119.16 267.085 112.602 264.704 105.907 265.723C99.2129 266.742 93.6302 268.187 89.389 262.468C89.3823 262.468 89.226 250.067 93.3422 248.815Z" fill="#23172D"/>
<path d="M108.992 299.257L101.53 298.789L100.802 266.85C96.8444 266.948 95.4895 266.697 92.2863 266.308L86.2593 252.251C91.5407 253.31 108.465 257.592 110.72 258.97C112.657 260.155 109.682 288.466 108.992 299.257Z" fill="#23172D"/>
<path d="M100.66 189.091C100.66 189.091 106.483 187.478 108.696 192.002C110.908 196.527 109.91 205.132 106.977 205.941C104.044 206.749 99.8337 205.817 98.6059 202.997C97.3782 200.178 96.4161 196.164 96.7086 193.568C97.001 190.972 99.1104 189.711 100.66 189.091Z" fill="white"/>
<path d="M105.454 205.045C105.454 205.045 105.389 208.494 105.769 209.229C106.148 209.963 97.6636 209.78 97.6636 209.78C97.6636 209.78 99.0029 205.638 98.2394 202.11C97.4894 198.619 105.454 205.045 105.454 205.045Z" fill="white"/>
<path d="M97.7846 200.805C97.7846 200.805 98.231 201.73 100.434 201.58C102.637 201.43 105.526 198.773 106.461 198.536C107.396 198.298 107.45 197.765 107.45 197.765L107.943 198.645L108.899 198.791C108.899 198.791 108.249 196.128 109.662 195.189C111.075 194.251 109.026 186.694 101.865 188.517C101.865 188.517 96.3984 189.521 96.3269 192.582C96.2555 195.644 96.722 199.183 97.7846 200.805Z" fill="#23172D"/>
<path d="M106.213 209.141C106.213 209.141 106.191 207.735 105.543 207.6C104.896 207.466 98.8759 206.633 98.0968 206.942L97.7598 208.794C97.7598 208.794 99.2732 209.721 106.213 209.141Z" fill="#CECBD0"/>
<path d="M107.961 197.138C107.798 195.987 106.492 194.674 105.747 196.466C105.001 198.258 106.251 200.87 107.086 200.722C107.921 200.574 108.182 198.699 107.961 197.138Z" fill="white"/>
<path d="M98.9541 189.912C98.9541 189.912 91.8557 189.576 97.7152 200.695L98.9541 189.912Z" fill="#23172D"/>
<path d="M83.1411 303.047L83.6679 304.536L105.977 297.6L104.907 294.583L83.1411 303.047Z" fill="#544B5C"/>
<path d="M106.742 272.203H104.207V296.538H106.742V272.203Z" fill="#544B5C"/>
<path d="M112.952 270.908H97.9966V272.342H112.952V270.908Z" fill="#5D5955"/>
<path d="M128.004 303.047L127.477 304.536L105.168 297.6L106.148 294.392L128.004 303.047Z" fill="#544B5C"/>
<path d="M112.287 304.375V306.109L105.168 297.6L106.148 294.392L112.287 304.375Z" fill="#544B5C"/>
<path d="M130.089 305.119C130.089 305.533 129.966 305.937 129.737 306.281C129.508 306.625 129.183 306.893 128.802 307.052C128.421 307.21 128.001 307.251 127.597 307.171C127.193 307.09 126.821 306.891 126.53 306.598C126.238 306.305 126.039 305.933 125.959 305.527C125.879 305.121 125.92 304.7 126.078 304.318C126.235 303.936 126.503 303.609 126.846 303.379C127.188 303.149 127.591 303.027 128.004 303.027C128.557 303.027 129.087 303.247 129.478 303.64C129.869 304.032 130.089 304.564 130.089 305.119Z" fill="#544B5C"/>
<path d="M112.463 305.119C112.463 305.533 112.341 305.937 112.112 306.281C111.883 306.625 111.557 306.893 111.176 307.052C110.795 307.21 110.376 307.251 109.972 307.171C109.567 307.09 109.196 306.891 108.904 306.598C108.613 306.305 108.414 305.933 108.334 305.527C108.253 305.121 108.294 304.7 108.452 304.318C108.61 303.936 108.877 303.609 109.22 303.379C109.563 303.149 109.966 303.027 110.378 303.027C110.931 303.027 111.462 303.247 111.853 303.64C112.244 304.032 112.463 304.564 112.463 305.119Z" fill="#544B5C"/>
<path d="M85.226 305.119C85.226 305.533 85.1037 305.937 84.8746 306.281C84.6455 306.625 84.3199 306.893 83.9389 307.052C83.5579 307.21 83.1387 307.251 82.7343 307.171C82.3299 307.09 81.9584 306.891 81.6668 306.598C81.3752 306.305 81.1767 305.933 81.0962 305.527C81.0158 305.121 81.0571 304.7 81.2149 304.318C81.3727 303.936 81.6399 303.609 81.9828 303.379C82.3256 303.149 82.7287 303.027 83.1411 303.027C83.694 303.027 84.2243 303.247 84.6153 303.64C85.0063 304.032 85.226 304.564 85.226 305.119Z" fill="#544B5C"/>
<path d="M120.816 265.477H90.3285C88.9638 265.477 87.8574 266.587 87.8574 267.956V268.429C87.8574 269.798 88.9638 270.908 90.3285 270.908H120.816C122.181 270.908 123.287 269.798 123.287 268.429V267.956C123.287 266.587 122.181 265.477 120.816 265.477Z" fill="#CECBD0"/>
<path d="M186.214 242.651H184.193V305.119H186.214V242.651Z" fill="#544B5C"/>
<path d="M168.244 192.385H120.762C119.4 192.385 118.296 193.493 118.296 194.86V227.013C118.296 228.379 119.4 229.488 120.762 229.488H168.244C169.606 229.488 170.71 228.379 170.71 227.013V194.86C170.71 193.493 169.606 192.385 168.244 192.385Z" fill="#544B5C"/>
<path d="M168.657 194.392H120.348V223.675H168.657V194.392Z" fill="#F4F6FF"/>
<path d="M166.523 226.444C166.523 227.277 165.65 227.951 164.574 227.951C163.498 227.951 162.628 227.279 162.628 226.444C162.628 225.608 163.501 224.936 164.574 224.936C165.648 224.936 166.523 225.604 166.523 226.444Z" fill="#544B5C"/>
<path d="M155.362 239.145V238.474C155.362 238.474 154.438 234.372 147.895 234.372C141.352 234.372 141.484 239.139 141.484 239.139L155.362 239.145Z" fill="#544B5C"/>
<path d="M141.395 234.988C141.395 234.988 142.817 234.879 143.339 234.563C143.862 234.247 146.973 232.146 147.706 232.482C148.438 232.818 153.308 234.316 153.139 235.031C152.969 235.745 152.52 235.676 152.177 235.548C151.833 235.421 148.295 234.677 147.985 234.802C147.985 234.802 151.458 236.075 151.471 237.004C151.485 237.934 150.744 238.158 150.415 238.507C150.087 238.857 149.69 239.73 148.795 239.797C147.9 239.864 143.531 238.339 142.638 238.27C141.746 238.2 140.076 238.326 139.96 238.178C139.844 238.03 141.395 234.988 141.395 234.988Z" fill="white"/>
<path d="M115.517 211.079C110.985 210.279 106.213 209.132 106.213 209.132L97.7707 208.785C97.7707 208.785 90.0249 210.498 86.9735 211.88C86.6833 212.013 86.6811 218.824 85.8887 220.598L88.4177 225.953C88.4177 225.953 89.8776 236.559 90.1812 241.278C90.3218 243.441 89.7883 262.204 89.7883 262.204C89.7883 262.204 90.5473 262.581 96.3064 263.219C102.066 263.857 116.463 262.995 116.553 262.305C116.642 261.615 113.765 236.883 113.637 235.602C113.443 233.636 114.204 224.549 114.204 224.549C115.289 226.014 118.057 232.612 120.941 235.763C122.638 237.611 131.037 238.745 132.622 238.798C136.069 238.913 142.357 239.602 142.54 239.266C142.687 239.065 143.089 233.667 142.694 233.533C142.35 233.418 130.671 232.744 127.68 231.152C126.586 230.569 123.316 223.411 123.316 223.411C123.316 223.411 118.017 212.214 115.517 211.079Z" fill="#FFA800"/>
<path d="M99.2687 227.718H84.3262C81.7053 227.718 79.5806 229.85 79.5806 232.48V256.909C79.5806 259.539 81.7053 261.671 84.3262 261.671H99.2687C101.89 261.671 104.014 259.539 104.014 256.909V232.48C104.014 229.85 101.89 227.718 99.2687 227.718Z" fill="#CECBD0"/>
<path d="M99.6838 269.558C96.0832 269.558 93.1591 268.344 90.9983 265.949C86.1142 260.538 86.9937 251.025 87.0316 250.624C87.0708 250.267 87.2488 249.94 87.5269 249.714C87.8049 249.488 88.1607 249.381 88.5169 249.416C88.8731 249.452 89.201 249.627 89.4294 249.903C89.6579 250.18 89.7685 250.535 89.7371 250.893C89.7371 251.001 88.9491 259.629 93.0207 264.124C94.6658 265.945 96.8467 266.829 99.6838 266.829C100.044 266.829 100.39 266.973 100.645 267.229C100.9 267.485 101.043 267.832 101.043 268.194C101.043 268.555 100.9 268.902 100.645 269.158C100.39 269.414 100.044 269.558 99.6838 269.558Z" fill="#CECBD0"/>
<path d="M137.571 196.724H124.127C123.932 196.724 123.774 196.882 123.774 197.078V197.918C123.774 198.113 123.932 198.271 124.127 198.271H137.571C137.766 198.271 137.924 198.113 137.924 197.918V197.078C137.924 196.882 137.766 196.724 137.571 196.724Z" fill="#DEDFE6"/>
<path d="M137.571 200.041H124.127C123.932 200.041 123.774 200.199 123.774 200.395V201.235C123.774 201.43 123.932 201.589 124.127 201.589H137.571C137.766 201.589 137.924 201.43 137.924 201.235V200.395C137.924 200.199 137.766 200.041 137.571 200.041Z" fill="#DEDFE6"/>
<path d="M124.961 203.849H136.736C137.052 203.849 137.355 203.974 137.578 204.198C137.801 204.422 137.926 204.726 137.926 205.042V220.15C137.926 220.466 137.801 220.769 137.578 220.992C137.356 221.216 137.054 221.341 136.739 221.341H124.961C124.647 221.341 124.344 221.216 124.122 220.992C123.899 220.769 123.774 220.466 123.774 220.15V205.031C123.774 204.715 123.899 204.412 124.122 204.189C124.344 203.965 124.647 203.84 124.961 203.84V203.849Z" fill="#DEDFE6"/>
<path d="M164.099 196.724H142.663C141.624 196.724 140.781 197.569 140.781 198.612V219.453C140.781 220.496 141.624 221.341 142.663 221.341H164.099C165.138 221.341 165.981 220.496 165.981 219.453V198.612C165.981 197.569 165.138 196.724 164.099 196.724Z" fill="#DEDFE6"/>
<path d="M327.272 193.127L313.43 200.762L299.527 178.812L316.343 172.953L327.272 193.127Z" fill="#23172D"/>
<path d="M326.394 192.468L313.447 199.609L300.449 179.081L316.173 173.6L326.394 192.468Z" fill="#CECBD0"/>
<path d="M331.135 188.629C331.135 188.629 328.725 187.473 327.669 186.869C326.613 186.264 323.894 185.435 323.671 185.231C323.448 185.027 315.608 184.559 315.133 184.136C314.657 183.713 314.193 185.101 316.226 185.549C318.26 185.997 321.088 187.088 321.242 187.885C321.396 188.683 319.155 188.871 318.927 189.529C318.7 190.188 318.992 190.038 319.314 190.179C319.635 190.32 321.979 189.017 323.012 189.386C324.046 189.756 325.622 189.243 326.412 189.514C327.202 189.785 331.048 191.082 331.048 191.082L331.135 188.629Z" fill="white"/>
<path d="M312.755 198.009C312.755 198.009 310.73 196.179 309.751 195.416C308.771 194.652 306.934 192.401 306.663 192.28C306.393 192.159 302.882 184.92 302.311 184.631C301.739 184.342 302.851 183.368 304.061 185.117C305.27 186.866 307.409 189.113 308.21 188.949C309.012 188.786 308.322 186.591 308.853 186.121C309.384 185.65 309.355 185.982 309.612 186.233C309.869 186.483 309.559 189.207 310.309 190.04C311.059 190.873 311.201 192.564 311.755 193.205C312.309 193.846 315.032 196.968 315.032 196.968L312.755 198.009Z" fill="white"/>
<path d="M356.346 295.709C356.346 295.709 356.792 298.758 356.839 299.217C356.886 299.676 361.71 298.948 361.71 298.948L362.1 295.317C362.1 295.317 356.948 295.279 356.346 295.709Z" fill="#454971"/>
<path d="M356.786 298.829C356.786 298.829 355.261 300.666 353.786 301.468C352.31 302.27 349.991 302.588 349.118 303.414C348.489 304.012 346.823 306.59 352.953 306.537C359.083 306.483 362.038 306.902 362.694 305.914C363.351 304.926 361.744 298.623 361.744 298.623C361.744 298.623 360.293 299.147 356.786 298.829Z" fill="#AC00FF"/>
<path d="M321.838 295.709C321.838 295.709 322.285 298.758 322.332 299.217C322.379 299.676 327.202 298.948 327.202 298.948L327.593 295.317C327.593 295.317 322.441 295.279 321.838 295.709Z" fill="#454971"/>
<path d="M322.28 298.829C322.28 298.829 320.755 300.666 319.278 301.468C317.8 302.27 312.373 302.926 311.498 303.755C310.869 304.355 309.822 306.763 318.445 306.537C324.575 306.378 327.53 306.902 328.186 305.914C328.843 304.926 327.235 298.623 327.235 298.623C327.235 298.623 325.869 299.183 322.28 298.829Z" fill="#AC00FF"/>
<path d="M352.357 217.35C352.357 217.35 356.884 224.562 356.545 231.084C356.206 237.607 358.186 244.725 358.866 251.536C359.623 259.131 362.726 277.108 362.837 281.171C362.949 285.234 362.358 298.193 362.358 298.193L356.15 298.337C356.15 298.337 350.935 266.921 349.585 263.714C348.234 260.506 341.529 237.643 341.306 235.078C341.082 232.513 352.357 217.35 352.357 217.35Z" fill="#00D8AE"/>
<path d="M328.537 218.331C328.537 218.331 325.126 236.202 324.678 240.194C324.229 244.185 323.928 259.51 323.7 262.005C323.472 264.5 322.2 294.646 320.999 298.352H328.937C328.937 298.352 335.028 276.436 335.028 266.066C335.028 255.695 339.736 243.524 342.774 236.682C345.812 229.839 352.766 229.678 354.636 216.985C354.636 216.985 331.064 214.304 328.537 218.331Z" fill="#00D8AE"/>
<path d="M344.808 156.703C344.808 156.703 338.734 154.425 335.932 159.066C333.131 163.707 333.401 172.993 336.464 174.133C339.526 175.273 344.125 174.68 345.692 171.777C347.259 168.874 348.674 164.677 348.607 161.872C348.54 159.068 346.401 157.512 344.808 156.703Z" fill="white"/>
<path d="M337.122 174.346C337.122 174.346 337.376 175.992 336.957 176.81C336.537 177.627 344.828 177.641 344.828 177.641C344.828 177.641 345.497 173.233 346.776 169.508C348.055 165.783 337.122 174.346 337.122 174.346Z" fill="white"/>
<path d="M346.777 169.501C346.777 169.501 346.203 170.446 343.875 170.079C341.546 169.712 338.691 166.596 337.718 166.253C336.745 165.911 336.734 165.337 336.734 165.337L336.122 166.233L335.089 166.301C335.089 166.301 336.033 163.512 334.609 162.374C333.185 161.236 336.086 153.35 343.573 155.977C343.573 155.977 349.323 157.568 349.116 160.849C348.908 164.13 348.062 167.866 346.777 169.501Z" fill="#23172D"/>
<path d="M336.466 176.704C336.466 176.704 336.493 175.157 337.191 175.009C337.89 174.861 344.915 174.182 345.772 174.521V176.326C345.772 176.326 344.118 177.347 336.466 176.704Z" fill="#CECBD0"/>
<path d="M336.881 164.144C337.013 163.593 338.408 162.02 338.942 163.696C339.475 165.371 338.133 167.644 337.379 167.452C336.624 167.259 336.551 165.539 336.881 164.144Z" fill="white"/>
<path d="M357.462 234.538C357.462 234.538 353.737 235.64 347.386 236.33C341.035 237.02 325.164 236.077 325.064 235.324C324.963 234.572 328.477 207.287 328.278 205.88C328.079 204.473 327.97 199.47 327.97 199.47C327.892 200.841 326.499 206.444 324.818 209.5C324.209 210.604 322.173 214.062 321.191 213.276C316.436 209.468 309.074 195.111 308.608 194.992C308.999 194.82 312.095 193.389 312.53 193.243C312.912 193.118 316.34 196.762 318.418 199.02C319.345 200.027 320.003 200.758 320.003 200.758C320.604 199.414 322.789 190.869 323.47 187.915C325.001 181.251 324.765 180.971 324.765 180.971C329.412 179.56 336.466 176.689 336.466 176.689L345.772 176.308C345.772 176.308 354.315 178.196 357.679 179.719C357.998 179.865 358 187.366 358.875 189.332L356.085 195.237C356.085 195.237 354.475 206.957 354.141 212.149C353.987 214.537 357.462 234.538 357.462 234.538Z" fill="#FFA800"/>
<path d="M359.261 199.089C359.018 199.875 357.922 200.54 357.196 200.832C356.725 201.024 356.208 201.076 355.708 200.982L355.344 200.914L348.966 199.727C348.966 199.727 347.571 183.601 357.672 179.735C357.946 179.822 361.493 191.868 359.261 199.089Z" fill="#FFA800"/>
<path d="M357.197 200.832C356.725 201.024 356.208 201.076 355.708 200.982L355.344 200.914L355.973 192.672L357.197 200.832Z" fill="#762020"/>
<path d="M320.003 200.776L319.224 204.088C319.224 204.088 318.378 200.764 318.418 199.037C319.345 200.039 320.003 200.776 320.003 200.776Z" fill="#762020"/>
<path d="M346.538 157.249C346.538 157.249 354.496 156.251 346.672 169.591L346.538 157.249Z" fill="#23172D"/>
<path d="M305.927 177.634L305.119 176.241L311.492 174.035L312.302 175.421L305.927 177.634Z" fill="#23172D"/>
<defs>
<linearGradient id="paint0_linear_1111_2801" x1="139.252" y1="159.241" x2="103.948" y2="119.259" gradientUnits="userSpaceOnUse">
<stop stop-color="#81D3E4"/>
<stop offset="1" stop-color="#6076FA"/>
</linearGradient>
<linearGradient id="paint1_linear_1111_2801" x1="54808.3" y1="95862" x2="49500.8" y2="86470.4" gradientUnits="userSpaceOnUse">
<stop stop-color="#81D3E4"/>
<stop offset="1" stop-color="#6076FA"/>
</linearGradient>
<linearGradient id="paint2_linear_1111_2801" x1="222.33" y1="209.762" x2="105.356" y2="209.762" gradientUnits="userSpaceOnUse">
<stop stop-color="#EEBE63"/>
<stop offset="1" stop-color="#DC3B57"/>
</linearGradient>
<linearGradient id="paint3_linear_1111_2801" x1="194946" y1="2715.55" x2="160493" y2="2715.55" gradientUnits="userSpaceOnUse">
<stop stop-color="#EEBE63"/>
<stop offset="1" stop-color="#DC3B57"/>
</linearGradient>
<linearGradient id="paint4_linear_1111_2801" x1="126543" y1="2643.31" x2="104186" y2="2643.31" gradientUnits="userSpaceOnUse">
<stop stop-color="#EEBE63"/>
<stop offset="1" stop-color="#DC3B57"/>
</linearGradient>
<linearGradient id="paint5_linear_1111_2801" x1="89170.1" y1="-34865.2" x2="95790.5" y2="-34865.2" gradientUnits="userSpaceOnUse">
<stop stop-color="#81D3E4"/>
<stop offset="1" stop-color="#6076FA"/>
</linearGradient>
<linearGradient id="paint6_linear_1111_2801" x1="67345.2" y1="-32396.6" x2="71072.5" y2="-32396.6" gradientUnits="userSpaceOnUse">
<stop stop-color="#81D3E4"/>
<stop offset="1" stop-color="#6076FA"/>
</linearGradient>
</defs>
</svg>
