<svg width="46" height="46" viewBox="0 0 46 46" fill="none" xmlns="http://www.w3.org/2000/svg">
<circle cx="22.75" cy="22.5822" r="22" fill="#2E2B39" stroke="#AC00FF"/>
<path d="M27.1323 22.6988C28.5645 23.6869 29.5682 25.0257 29.5682 26.8107V29.9982H33.75V26.8107C33.75 24.4944 30.0177 23.1238 27.1323 22.6988ZM25.3864 21.4982C27.6968 21.4982 29.5682 19.5963 29.5682 17.2482C29.5682 14.9 27.6968 12.9982 25.3864 12.9982C24.895 12.9982 24.435 13.1044 23.9959 13.2532C24.8955 14.3839 25.3863 15.794 25.3863 17.2482C25.3863 18.7023 24.8955 20.1124 23.9959 21.2432C24.435 21.3919 24.895 21.4982 25.3864 21.4982ZM19.1136 21.4982C21.4241 21.4982 23.2955 19.5963 23.2955 17.2482C23.2955 14.9 21.4241 12.9982 19.1136 12.9982C16.8032 12.9982 14.9318 14.9 14.9318 17.2482C14.9318 19.5963 16.8032 21.4982 19.1136 21.4982ZM19.1136 15.1232C20.2636 15.1232 21.2045 16.0794 21.2045 17.2482C21.2045 18.4169 20.2636 19.3732 19.1136 19.3732C17.9636 19.3732 17.0227 18.4169 17.0227 17.2482C17.0227 16.0794 17.9636 15.1232 19.1136 15.1232ZM19.1136 22.5607C16.3223 22.5607 10.75 23.9844 10.75 26.8107V29.9982H27.4773V26.8107C27.4773 23.9844 21.905 22.5607 19.1136 22.5607ZM25.3864 27.8732H12.8409V26.8213C13.05 26.0563 16.2909 24.6857 19.1136 24.6857C21.9364 24.6857 25.1773 26.0563 25.3864 26.8107V27.8732Z" fill="white"/>
</svg>
