<svg width="65" height="81" viewBox="0 0 65 81" fill="none" xmlns="http://www.w3.org/2000/svg">
<g clip-path="url(#clip0_33_714)">
<path d="M35.1356 75.5544H28.2002C27.8108 75.5544 27.4372 75.3996 27.1618 75.1241C26.8864 74.8485 26.7317 74.4747 26.7317 74.085V59.4457C22.8559 58.2558 19.4648 55.8511 17.0587 52.5863C14.6525 49.3214 13.3586 45.3694 13.3677 41.3128V19.9288C13.3677 19.5391 13.5224 19.1653 13.7978 18.8897C14.0732 18.6142 14.4468 18.4594 14.8363 18.4594H49.836C50.2255 18.4594 50.5991 18.6142 50.8745 18.8897C51.1499 19.1653 51.3046 19.5391 51.3046 19.9288V41.2981C51.3236 45.5922 49.879 49.7645 47.2092 53.1265C44.5393 56.4885 40.8037 58.8393 36.6189 59.791V74.0703C36.6208 74.2658 36.5838 74.4596 36.5099 74.6406C36.4361 74.8216 36.3269 74.9859 36.1888 75.1241C36.0507 75.2624 35.8864 75.3716 35.7055 75.4455C35.5247 75.5194 35.3309 75.5564 35.1356 75.5544ZM29.6688 72.6156H33.667V58.5971C33.6626 58.2444 33.7852 57.9018 34.0124 57.632C34.2395 57.3622 34.5561 57.1832 34.9043 57.1277C38.6688 56.5334 42.0963 54.6099 44.5659 51.7055C47.0356 48.8011 48.3842 45.1078 48.3674 41.2945V21.3982H16.3048V41.2981C16.2958 44.8951 17.499 48.3901 19.7201 51.2184C21.9412 54.0468 25.0504 56.0432 28.5454 56.8852C28.8651 56.9626 29.1497 57.1451 29.3534 57.4036C29.5571 57.662 29.6682 57.9814 29.6688 58.3106V72.6156Z" fill="#FFA800"/>
<path d="M9.82843 46.4338C7.25419 46.3841 4.80216 45.3259 2.99922 43.4867C1.19629 41.6475 0.18631 39.174 0.18631 36.5978C0.18631 34.0215 1.19629 31.5481 2.99922 29.7089C4.80216 27.8697 7.25419 26.8115 9.82843 26.7617C10.2179 26.7617 10.5914 26.9165 10.8669 27.1921C11.1423 27.4677 11.297 27.8414 11.297 28.2312C11.297 28.6209 11.1423 28.9946 10.8669 29.2702C10.5914 29.5458 10.2179 29.7006 9.82843 29.7006C8.02781 29.7422 6.3149 30.4871 5.05611 31.776C3.79732 33.065 3.09258 34.7956 3.09258 36.5978C3.09258 38.3999 3.79732 40.1306 5.05611 41.4195C6.3149 42.7085 8.02781 43.4534 9.82843 43.495C10.2179 43.495 10.5914 43.6498 10.8669 43.9254C11.1423 44.2009 11.297 44.5747 11.297 44.9644C11.297 45.3541 11.1423 45.7279 10.8669 46.0035C10.5914 46.279 10.2179 46.4338 9.82843 46.4338Z" fill="#FFA800"/>
<path d="M55.0568 46.4337C54.6673 46.4337 54.2938 46.2789 54.0184 46.0033C53.7429 45.7278 53.5882 45.354 53.5882 44.9643C53.5882 44.5746 53.7429 44.2008 54.0184 43.9252C54.2938 43.6497 54.6673 43.4949 55.0568 43.4949C55.9754 43.5161 56.889 43.3533 57.7438 43.0163C58.5987 42.6792 59.3776 42.1745 60.0348 41.532C60.6919 40.8894 61.2141 40.1219 61.5706 39.2745C61.9272 38.4272 62.1108 37.5171 62.1108 36.5977C62.1108 35.6783 61.9272 34.7682 61.5706 33.9208C61.2141 33.0734 60.6919 32.3059 60.0348 31.6634C59.3776 31.0208 58.5987 30.5161 57.7438 30.1791C56.889 29.842 55.9754 29.6793 55.0568 29.7005C54.6673 29.7005 54.2938 29.5457 54.0184 29.2701C53.7429 28.9945 53.5882 28.6208 53.5882 28.231C53.5882 27.8413 53.7429 27.4676 54.0184 27.192C54.2938 26.9164 54.6673 26.7616 55.0568 26.7616C56.3637 26.7363 57.6625 26.9721 58.8773 27.455C60.0921 27.938 61.1984 28.6585 62.1316 29.5743C63.0648 30.4902 63.8061 31.5831 64.3122 32.789C64.8182 33.9949 65.0789 35.2897 65.0789 36.5977C65.0789 37.9056 64.8182 39.2004 64.3122 40.4063C63.8061 41.6123 63.0648 42.7051 62.1316 43.621C61.1984 44.5369 60.0921 45.2574 58.8773 45.7403C57.6625 46.2233 56.3637 46.459 55.0568 46.4337Z" fill="#FFA800"/>
<path d="M48.2059 80.7893H48.1765L14.5829 80.1061C14.1934 80.1022 13.8215 79.9436 13.5488 79.6653C13.2761 79.387 13.1251 79.0117 13.129 78.6219C13.1329 78.2322 13.2914 77.86 13.5695 77.5872C13.8477 77.3144 14.2228 77.1633 14.6123 77.1672H14.6417L48.2353 77.8505C48.6248 77.8544 48.9967 78.0129 49.2694 78.2913C49.542 78.5696 49.693 78.9449 49.6891 79.3346C49.6852 79.7243 49.5268 80.0965 49.2486 80.3694C48.9705 80.6422 48.5954 80.7932 48.2059 80.7893Z" fill="#FFA800"/>
<path d="M32.8116 15.5204C32.4221 15.5204 32.0486 15.3656 31.7732 15.0901C31.4978 14.8145 31.343 14.4407 31.343 14.051V2.25875C31.343 1.86903 31.4978 1.49527 31.7732 1.21969C32.0486 0.944121 32.4221 0.789307 32.8116 0.789307C33.2011 0.789307 33.5746 0.944121 33.85 1.21969C34.1254 1.49527 34.2802 1.86903 34.2802 2.25875V14.051C34.2802 14.4407 34.1254 14.8145 33.85 15.0901C33.5746 15.3656 33.2011 15.5204 32.8116 15.5204Z" fill="#00FFD1"/>
<path d="M19.5723 15.256C19.3148 15.2557 19.0619 15.1877 18.839 15.0587C18.616 14.9298 18.4308 14.7444 18.302 14.5212L11.6494 2.99347C11.5432 2.82622 11.4718 2.6392 11.4397 2.44364C11.4075 2.24809 11.4152 2.04805 11.4624 1.85556C11.5095 1.66307 11.595 1.4821 11.7139 1.32355C11.8327 1.16499 11.9824 1.03214 12.1538 0.932956C12.3253 0.833777 12.5151 0.770337 12.7117 0.74644C12.9083 0.722542 13.1077 0.738689 13.2979 0.793907C13.4882 0.849124 13.6653 0.94227 13.8186 1.06775C13.9719 1.19322 14.0983 1.34842 14.1901 1.52403L20.8427 13.0518C20.9715 13.2751 21.0394 13.5283 21.0394 13.7861C21.0395 14.0439 20.9718 14.2972 20.8431 14.5206C20.7143 14.7439 20.5292 14.9294 20.3061 15.0585C20.0831 15.1876 19.83 15.2557 19.5723 15.256Z" fill="#00FFD1"/>
<path d="M46.6565 15.2559C46.3989 15.2557 46.1458 15.1876 45.9228 15.0585C45.6997 14.9294 45.5146 14.7439 45.3859 14.5206C45.2572 14.2972 45.1894 14.0439 45.1895 13.7861C45.1895 13.5283 45.2574 13.2751 45.3862 13.0518L52.0425 1.52403C52.1343 1.34842 52.2607 1.19322 52.414 1.06775C52.5673 0.94227 52.7444 0.849124 52.9346 0.793907C53.1248 0.738689 53.3243 0.722542 53.5209 0.74644C53.7175 0.770337 53.9073 0.833777 54.0788 0.932956C54.2502 1.03213 54.3999 1.16499 54.5187 1.32355C54.6376 1.4821 54.7231 1.66307 54.7702 1.85556C54.8173 2.04805 54.8251 2.24809 54.7929 2.44364C54.7608 2.6392 54.6894 2.82622 54.5832 2.99347L47.9306 14.5212C47.8015 14.7449 47.6157 14.9306 47.3921 15.0596C47.1684 15.1886 46.9147 15.2563 46.6565 15.2559Z" fill="#00FFD1"/>
<path d="M33.5055 49.6299C33.116 49.6299 32.7424 49.475 32.467 49.1995C32.1916 48.9239 32.0369 48.5501 32.0369 48.1604V34.344L28.7546 37.6282C28.6195 37.7703 28.4573 37.8838 28.2776 37.9622C28.098 38.0406 27.9044 38.0821 27.7084 38.0845C27.5124 38.0868 27.3179 38.0499 27.1364 37.9758C26.9549 37.9018 26.79 37.7921 26.6515 37.6533C26.5131 37.5145 26.4037 37.3493 26.33 37.1676C26.2563 36.9858 26.2198 36.7912 26.2225 36.595C26.2251 36.3989 26.267 36.2053 26.3457 36.0257C26.4243 35.846 26.5381 35.6839 26.6803 35.5489L32.4665 29.7557C32.6719 29.5499 32.9336 29.4098 33.2187 29.353C33.5037 29.2962 33.7991 29.3253 34.0676 29.4366C34.3361 29.5479 34.5656 29.7365 34.7269 29.9783C34.8883 30.2202 34.9743 30.5045 34.9741 30.7953V48.1604C34.9741 48.5501 34.8193 48.9239 34.5439 49.1995C34.2685 49.475 33.895 49.6299 33.5055 49.6299Z" fill="#AD00FF"/>
</g>
<defs>
<clipPath id="clip0_33_714">
<rect width="64.8889" height="80" fill="white" transform="translate(0 0.789307)"/>
</clipPath>
</defs>
</svg>
