<svg width="371" height="224" viewBox="0 0 371 224" fill="none" xmlns="http://www.w3.org/2000/svg">
<path d="M269.472 0.0705959L13.5045 1.40796C6.04619 1.44693 0.0392092 8.98303 0.0875762 18.2403L0.593745 115.12C0.642112 124.377 6.72751 131.85 14.1858 131.811L270.153 130.473C277.611 130.434 283.618 122.898 283.57 113.641L283.064 16.7619C283.015 7.50456 276.93 0.0316281 269.472 0.0705959Z" fill="#CECBD0"/>
<rect x="146.846" y="36.2148" width="82.0051" height="9.53548" rx="4.76774" fill="#BDAFAA"/>
<rect x="146.846" y="55.2856" width="82.0051" height="9.53548" rx="4.76774" fill="#BDAFAA"/>
<rect x="146.846" y="74.3564" width="82.0051" height="9.53548" rx="4.76774" fill="#BDAFAA"/>
<circle cx="59.1199" cy="62.9136" r="41.9561" fill="#6C6473"/>
<path d="M92.2006 212.307C92.2006 212.307 91.1674 214.638 90.2945 215.562C89.4215 216.487 86.0752 218.137 86.0574 220.884C86.0396 223.857 91.6989 223.033 93.905 222.923C96.1111 222.813 96.2803 221.226 97.2156 219.54C98.1509 217.855 99.0862 218.14 99.2614 216.781C99.4366 215.423 98.5487 212.381 98.5487 212.381L92.2006 212.307Z" fill="#8600C7"/>
<path d="M92.1056 211.448L91.9423 212.857C91.9423 212.857 95.4222 214.026 98.709 212.982L98.528 211.053L92.1056 211.448Z" fill="#4F4946"/>
<path d="M132.985 212.307C132.985 212.307 134.021 214.638 134.891 215.562C135.761 216.487 139.111 218.137 139.128 220.884C139.146 223.857 133.487 223.033 131.281 222.923C129.075 222.813 128.906 221.226 127.97 219.54C127.035 217.855 126.1 218.14 125.925 216.781C125.749 215.423 126.637 212.381 126.637 212.381L132.985 212.307Z" fill="#8600C7"/>
<path d="M133.08 211.448L133.244 212.857C133.244 212.857 129.764 214.026 126.474 212.982L126.658 211.053L133.08 211.448Z" fill="#4F4946"/>
<path d="M131.251 173.892C131.251 177.56 134.675 211.053 134.675 211.053C134.28 212.274 125.883 212.126 124.58 211.516C123.276 210.907 119.464 177.712 119.22 174.014C118.977 170.315 113.514 138.146 112.364 138.268C111.215 138.39 105.773 172.863 104.855 175.675C103.938 178.488 99.7811 211.834 99.7811 211.834C96.901 213.422 90.0481 211.433 90.0481 211.433C90.0481 211.433 91.4851 177.201 91.6485 176.166C91.8919 174.635 91.6485 170.518 92.3047 161.361C92.8985 153.177 95.0541 135.357 96.4199 125.705C96.4675 125.363 96.515 125.033 96.5595 124.718C96.8267 122.839 97.0287 121.447 97.1266 120.796C97.1682 120.499 97.189 120.359 97.189 120.359C97.5572 120.202 97.9431 120.062 98.344 119.919C107.937 116.703 126.195 116.908 126.195 116.908C126.195 116.908 126.447 120.178 126.468 120.353C126.489 120.529 126.533 120.85 126.581 121.245C126.688 122.096 126.848 123.362 127.029 124.834C127.029 124.834 127.029 124.854 127.029 124.866L127.047 125C127.691 130.235 128.603 137.896 128.532 138.693C128.398 139.915 131.266 170.223 131.266 173.892" fill="#FFA800"/>
<path d="M132.617 65.3943L127.905 82.3397C127.745 82.8896 127.552 83.5645 127.347 84.3493V84.379C127.346 84.3859 127.346 84.393 127.347 84.3998C126.254 88.5667 125.568 92.83 125.298 97.1297C125.102 100.614 125.747 114.619 125.747 114.619C125.747 114.619 118.62 117.295 107.931 116.608C107.931 116.608 96.4526 116.34 97.3879 109.295C99.8642 90.6428 97.4443 82.9521 97.1177 81.0821C97.1177 81.0821 95.7638 72.4876 94.6473 64.8979C97.8778 63.7087 111.474 58.5835 111.474 58.5835L118.62 59.1186C118.62 59.1186 129.485 61.7942 132.62 65.4092" fill="#D9C7C1"/>
<path d="M115.057 34.637C115.057 34.637 122.032 35.8261 120.85 46.7513C119.669 57.6766 113.507 56.7223 113.095 56.7074C112.682 56.6925 106.901 56.8382 106.595 43.4663C106.595 43.4663 106.509 33.5816 115.057 34.637Z" fill="white"/>
<path d="M118.101 53.5355C118.101 53.5355 117.86 58.0364 118.285 59.0175C118.71 59.9985 112.682 63.0962 108.938 59.5645C108.938 59.5645 109.695 54.6474 109.46 52.9082C109.226 51.1691 118.101 53.5355 118.101 53.5355Z" fill="white"/>
<path d="M121.438 42.7318C121.198 44.2182 120.969 45.339 120.969 45.339L119.953 46.6679C119.953 46.6679 120.013 43.7307 119.858 43.2699C119.799 43.0945 119.731 42.7853 119.66 42.4494C119.544 41.8964 119.425 41.2602 119.342 41.064C119.211 40.734 113.362 39.0216 108.154 41.4237C108.154 41.4237 108.198 41.8756 108.196 42.378C108.196 42.9726 108.127 43.6207 107.86 43.7188C107.361 43.9031 107.563 47.1554 107.563 47.1554L106.75 46.219C106.75 46.219 106.515 44.5185 106.286 42.5653C106.233 42.1105 106.179 41.6407 106.129 41.177C106.013 39.2149 106.206 35.6474 108.763 33.5516C110.488 32.8113 115.197 32.0651 117.828 33.5902C117.828 33.5902 119.235 34.4821 119.532 34.7496C122.388 37.9009 121.435 42.7467 121.435 42.7467" fill="#23172D"/>
<path d="M108.24 59.6477C108.24 59.6477 110.108 62.9178 113.656 63.2151C115.907 63.4084 117.837 60.5395 118.751 59.1453C117.054 58.526 115.25 58.2515 113.445 58.3378C111.641 58.424 109.871 58.8693 108.24 59.6477Z" fill="white"/>
<path d="M118.122 58.1344C118.122 58.1344 116.693 60.0043 113.668 61.9991L115.556 64.9154L118.781 59.1362L118.134 58.1284" fill="#EDDAD3"/>
<path d="M96.9958 117.862C96.9958 117.862 105.749 121.093 125.545 118.049L125.283 114.461C125.283 114.461 113.807 117.85 97.3433 114.946L96.9958 117.862Z" fill="#1A2833"/>
<path d="M118.769 59.1421C118.769 59.1421 116.72 74.4732 117.002 87.6816C117.284 100.89 121.566 125.645 121.566 125.645C121.566 125.645 129.2 124.899 131.094 122.509C131.094 122.509 126.714 98.6752 126.839 95.1583C126.964 91.6414 132.454 65.064 132.454 65.064C132.454 65.064 130.307 62.1982 118.769 59.1569" fill="#AC00FF"/>
<path d="M107.813 59.9448C107.813 59.9448 107.795 74.4732 107.516 87.6787C107.237 100.884 105.5 125.467 105.5 125.467C105.5 125.467 96.5417 124.192 94.6473 121.801C94.6473 121.801 97.8035 98.6753 97.6788 95.1436C97.5541 91.6118 93.6289 65.296 93.6289 65.296C93.6289 65.296 94.9858 63.3577 107.813 59.9448Z" fill="#AC00FF"/>
<path d="M114.312 119.569H108.932V115.564H114.312V119.569Z" fill="#3E5E78"/>
<path d="M112.896 63.8481C112.896 63.8481 110.494 72.0592 110.283 88.3624C110.072 104.666 110.58 109.342 110.58 109.342L112.456 113.058L114.956 109.193C114.956 109.193 114.155 71.6757 114.618 64.1454L112.899 63.8481" fill="#5073AB"/>
<path d="M122.926 86.7929C122.926 86.7929 126.489 85.0092 126.973 84.6881C127.457 84.3671 133.404 83.499 134.152 83.5169C134.9 83.5347 134.933 84.1382 134.722 84.3493C134.511 84.5603 128.576 85.5384 128.472 85.6811C128.368 85.8238 128.974 85.7673 128.974 85.7673C128.974 85.7673 135.372 85.6722 135.821 86.1002C136.269 86.5283 135.755 86.9356 135.494 87.0426C135.494 87.0426 136.088 87.7115 135.402 87.988C134.889 88.1822 134.361 88.3333 133.822 88.4399C133.822 88.4399 134.666 88.8768 134.119 89.2663C133.573 89.6557 126.783 91.7575 126.783 91.7575C126.783 91.7575 124.262 86.9297 122.923 86.7929" fill="white"/>
<path d="M135.141 99.0649C130.521 100.168 119.838 98.3751 115.77 97.4773C114.909 97.2871 113.932 97.0879 112.931 96.8827C111.266 96.5528 109.529 96.2347 108.118 95.9909C106.381 95.6787 105.149 95.4706 105.149 95.4706C105.149 95.4706 127.563 90.4168 128.392 90.4168C129.22 90.4168 126.313 77.2975 126.313 77.2975C126.313 77.2975 123.424 66.2979 124.924 61.9902C124.924 61.9902 130.613 63.7175 132.454 65.0344C133.478 65.7687 134.235 70.5343 134.933 73.7747C135.824 77.8802 137.881 87.2358 138.116 89.2098C138.33 91.0083 139.764 97.9441 135.147 99.05" fill="#AC00FF"/>
<path d="M100.841 62.0586C100.841 62.0586 93.9584 64.4131 93.6288 65.3079C92.2363 69.0954 91.5889 73.2366 91.1376 74.8954C90.5883 76.9229 89.3413 82.9845 89.0206 84.9615C88.6139 87.4825 87.8329 96.413 88.1714 97.7924C88.6019 99.5315 92.6965 99.4037 94.9026 99.0588C97.1087 98.714 127.777 91.2432 127.777 91.2432C127.777 91.2432 126.028 85.5293 125.942 85.024C125.942 85.024 102.299 87.7293 99.288 88.3714C98.5867 88.5037 97.8929 88.6734 97.2096 88.8797C97.2096 88.8797 102.426 67.4543 100.856 62.0586" fill="#AC00FF"/>
<path d="M104.915 87.6311C104.915 87.6311 101.827 85.1161 101.414 84.6999C101.001 84.2837 95.3926 82.1463 94.6562 82.0095C94.5502 81.972 94.436 81.9642 94.3258 81.9866C94.2157 82.0091 94.1137 82.0611 94.0307 82.1371C93.9478 82.2131 93.887 82.3103 93.8549 82.4182C93.8229 82.5261 93.8207 82.6407 93.8486 82.7497C93.9466 83.264 99.6682 85.1845 99.7365 85.345C99.8048 85.5055 99.2288 85.3243 99.2288 85.3243C99.2288 85.3243 92.9935 83.8378 92.4709 84.1708C91.9483 84.5037 92.3551 85.0002 92.5867 85.1607C92.5867 85.1607 91.8741 85.6899 92.4709 86.1061C92.9321 86.4052 93.4167 86.6666 93.9199 86.8879C93.9199 86.8879 92.9994 87.1317 93.4597 87.6311C93.9199 88.1305 97.1949 88.8797 97.1949 88.8797C97.1949 88.8797 103.588 87.4765 104.915 87.6311Z" fill="white"/>
<path d="M356.719 216.578H353.622V75.688H356.719V216.578Z" fill="#6C6473"/>
<path d="M285.365 218.342H282.268V77.4517H285.365V218.342Z" fill="#6C6473"/>
<path d="M361.069 193.325H277.792C275.328 193.325 272.964 192.344 271.221 190.599C269.478 188.854 268.499 186.487 268.499 184.02V26.1337C268.499 23.6658 269.478 21.299 271.221 19.554C272.964 17.8089 275.328 16.8286 277.792 16.8286H361.069C363.534 16.8286 365.898 17.8089 367.641 19.554C369.383 21.299 370.363 23.6658 370.363 26.1337V184.02C370.363 186.487 369.383 188.854 367.641 190.599C365.898 192.344 363.534 193.325 361.069 193.325Z" fill="#BDAFAA"/>
<path d="M358.388 186.427H280.465C278.03 186.427 275.695 185.459 273.973 183.735C272.251 182.011 271.284 179.673 271.284 177.235V28.8625C271.284 26.4246 272.251 24.0866 273.973 22.3627C275.695 20.6389 278.03 19.6704 280.465 19.6704H358.376C360.81 19.6712 363.145 20.64 364.866 22.3638C366.587 24.0875 367.554 26.4251 367.554 28.8625V177.235C367.554 178.442 367.317 179.637 366.856 180.753C366.395 181.868 365.719 182.881 364.867 183.735C364.014 184.588 363.002 185.265 361.889 185.727C360.775 186.189 359.581 186.427 358.376 186.427" fill="white"/>
<path d="M334.608 22.3551H304.254V15.4907H334.608V22.3551Z" fill="#6C6473"/>
<path d="M287.412 127.669C285.322 127.671 283.317 128.504 281.839 129.984C280.36 131.464 279.529 133.471 279.526 135.565V170.689C279.528 172.783 280.359 174.79 281.838 176.271C283.316 177.751 285.321 178.583 287.412 178.585H349.035C351.126 178.583 353.13 177.75 354.609 176.27C356.087 174.789 356.919 172.782 356.921 170.689V135.574C356.918 133.48 356.086 131.474 354.608 129.994C353.129 128.514 351.125 127.681 349.035 127.678L287.412 127.669ZM349.035 179.753H287.412C285.012 179.75 282.712 178.794 281.014 177.095C279.317 175.396 278.363 173.092 278.359 170.689V135.574C278.363 133.171 279.317 130.867 281.014 129.168C282.712 127.468 285.012 126.512 287.412 126.509H349.035C351.435 126.512 353.736 127.468 355.433 129.168C357.13 130.867 358.085 133.171 358.088 135.574V170.698C358.085 173.101 357.13 175.405 355.433 177.104C353.736 178.803 351.435 179.759 349.035 179.762" fill="#FFA800"/>
<path d="M347.271 72.0756C345.516 72.0756 343.8 72.5967 342.341 73.5731C340.881 74.5495 339.744 75.9374 339.072 77.561C338.4 79.1847 338.224 80.9714 338.567 82.695C338.909 84.4187 339.755 86.0021 340.996 87.2448C342.237 88.4875 343.818 89.3338 345.54 89.6766C347.261 90.0195 349.046 89.8435 350.668 89.171C352.289 88.4984 353.675 87.3596 354.65 85.8983C355.626 84.437 356.146 82.7189 356.146 80.9615C356.143 78.6058 355.207 76.3475 353.543 74.6817C351.88 73.016 349.624 72.0787 347.271 72.0756ZM347.271 91.0157C345.285 91.0157 343.344 90.4261 341.692 89.3213C340.041 88.2165 338.754 86.6463 337.994 84.8091C337.234 82.9719 337.035 80.9503 337.422 79C337.81 77.0497 338.766 75.2582 340.171 73.8521C341.575 72.446 343.364 71.4884 345.312 71.1004C347.26 70.7125 349.279 70.9116 351.114 71.6726C352.949 72.4335 354.517 73.7223 355.621 75.3757C356.724 77.0291 357.313 78.9729 357.313 80.9615C357.31 83.6271 356.251 86.1826 354.368 88.0675C352.486 89.9523 349.934 91.0126 347.271 91.0157Z" fill="#FFA800"/>
<path d="M347.271 95.2376C345.515 95.237 343.799 95.7579 342.338 96.7342C340.878 97.7106 339.739 99.0987 339.067 100.723C338.395 102.347 338.218 104.134 338.561 105.859C338.903 107.583 339.748 109.167 340.99 110.411C342.231 111.654 343.813 112.501 345.535 112.844C347.257 113.188 349.043 113.012 350.665 112.339C352.287 111.666 353.674 110.527 354.65 109.065C355.625 107.603 356.146 105.885 356.146 104.127C356.144 101.77 355.208 99.5112 353.544 97.8448C351.881 96.1784 349.625 95.2408 347.271 95.2376ZM347.271 114.178C345.285 114.178 343.343 113.588 341.692 112.483C340.041 111.378 338.754 109.808 337.994 107.97C337.234 106.133 337.035 104.111 337.423 102.161C337.81 100.211 338.767 98.4191 340.172 97.0131C341.576 95.6071 343.366 94.6498 345.314 94.2622C347.262 93.8746 349.281 94.0741 351.116 94.8355C352.951 95.597 354.519 96.8861 355.622 98.5399C356.725 100.194 357.314 102.138 357.313 104.127C357.31 106.792 356.251 109.347 354.368 111.231C352.486 113.116 349.933 114.175 347.271 114.178Z" fill="#FFA800"/>
<path d="M301.997 81.405C301.169 81.405 300.331 81.3634 299.503 81.2861C293.46 80.7059 287.811 78.0247 283.538 73.7083C283.368 73.5359 283.208 73.3724 283.063 73.2148C282.487 72.6202 281.931 71.9543 281.412 71.2824C277.876 66.7316 275.965 61.1256 275.984 55.3598C275.992 48.4543 278.735 41.8338 283.612 36.9506C288.488 32.0674 295.1 29.3202 301.997 29.3115V30.4798C295.409 30.4877 289.094 33.1116 284.436 37.7759C279.778 42.4401 277.158 48.7639 277.151 55.3598C277.132 60.8663 278.958 66.2202 282.335 70.5659C282.83 71.2084 283.358 71.8256 283.915 72.4151C284.054 72.5667 284.212 72.7124 284.366 72.8848C285.151 73.6788 285.989 74.4178 286.875 75.0966C290.564 77.9412 294.981 79.683 299.616 80.1208C300.406 80.1951 301.207 80.2337 301.991 80.2337C302.288 80.2337 302.546 80.2337 302.808 80.2337C303.562 80.2099 304.313 80.1535 305.043 80.0613C309.114 79.5591 312.997 78.0545 316.344 75.6822C316.694 75.4295 317.039 75.1709 317.366 74.9153C317.692 74.6596 317.944 74.4486 318.238 74.1929C320.939 71.8585 323.106 68.9692 324.592 65.7215C326.078 62.4738 326.847 58.9439 326.849 55.3717C326.848 54.1489 326.759 52.9278 326.582 51.718L327.737 51.5515C327.922 52.8164 328.016 54.0932 328.016 55.3717C328.016 59.1109 327.212 62.8064 325.658 66.2066C324.104 69.6068 321.837 72.6318 319.01 75.0758C318.714 75.3434 318.393 75.599 318.096 75.8309C317.799 76.0628 317.395 76.372 317.03 76.6336C313.524 79.1179 309.458 80.6939 305.195 81.2207C304.432 81.3158 303.642 81.3753 302.855 81.4021C302.582 81.4021 302.303 81.4169 302 81.4169" fill="#FFA800"/>
<path d="M320.148 69.1479C320.07 69.0422 319.985 68.9428 319.892 68.8506C319.857 68.8043 319.812 68.7675 319.759 68.7436C319.759 68.7436 319.744 68.7436 319.735 68.7287C314.886 66.0531 306.133 63.8532 306.133 63.8532C305.881 63.2587 305.902 61.243 305.937 60.0331C306.846 58.9777 307.668 57.3248 308.128 54.7533C308.277 54.8633 308.387 54.6106 308.387 54.6106C308.307 54.4679 309.616 51.2691 309.381 50.5467C309.372 50.4795 309.346 50.416 309.304 50.3626C309.262 50.3093 309.207 50.2681 309.144 50.2432C309.081 50.2184 309.013 50.2108 308.946 50.2213C308.879 50.2318 308.816 50.26 308.764 50.3029C308.794 50.1186 308.826 49.9254 308.859 49.7083C308.859 49.7083 309.379 44.8061 306.899 42.074C306.644 41.8273 305.729 41.7767 305.729 41.7767C301.748 40.5549 299.358 41.1019 297.864 41.7411C295.646 43.5604 295.489 46.6552 295.578 48.3616C295.622 48.763 295.67 49.1702 295.714 49.5508C295.735 49.7054 295.753 49.8481 295.771 50.0116C295.721 49.9657 295.659 49.9342 295.593 49.9205C295.526 49.9067 295.457 49.9112 295.393 49.9334C295.329 49.9556 295.272 49.9948 295.228 50.0467C295.184 50.0987 295.155 50.1615 295.144 50.2286C294.877 50.9391 295.845 54.132 295.967 54.3312C295.967 54.3312 296.175 54.6581 296.338 54.5095C296.798 57.3159 297.624 59.0431 298.488 60.1104C298.401 61.683 298.119 63.654 298.042 64.1743C296.008 64.8164 285.815 67.5336 282.727 69.5641C282.448 69.7335 282.163 70.1973 281.875 70.884C282.384 71.542 282.922 72.1723 283.49 72.7748C283.642 72.9353 283.787 73.0958 283.95 73.2534C287.485 76.822 291.996 79.2623 296.914 80.2664C297.788 80.4468 298.671 80.5787 299.559 80.6617C300.361 80.739 301.174 80.7777 301.997 80.7777C302.279 80.7777 302.555 80.7777 302.834 80.7777C303.603 80.7539 304.37 80.6945 305.121 80.6023C309.288 80.0928 313.262 78.5521 316.686 76.1193C317.042 75.8636 317.391 75.601 317.734 75.3314C318.031 75.0936 318.328 74.8469 318.625 74.5971C319.646 73.7109 320.596 72.7457 321.466 71.7105C321.127 70.7993 320.683 69.9304 320.145 69.1211" fill="#FFA800"/>
<path d="M280.699 93.9863H323.298C323.868 93.9855 324.414 93.7584 324.816 93.3548C325.219 92.9513 325.445 92.4042 325.445 91.8339V90.5259C325.445 89.9556 325.219 89.4085 324.816 89.005C324.414 88.6014 323.868 88.3743 323.298 88.3735H280.699C280.129 88.3735 279.582 88.6002 279.179 89.0039C278.776 89.4075 278.55 89.955 278.55 90.5259V91.8339C278.55 92.4047 278.776 92.9522 279.179 93.3558C279.582 93.7595 280.129 93.9863 280.699 93.9863Z" fill="#FFA800"/>
<path d="M280.699 104.106H323.298C323.867 104.106 324.413 103.879 324.816 103.476C325.219 103.073 325.445 102.526 325.445 101.956V100.645C325.445 100.075 325.219 99.5287 324.816 99.1256C324.413 98.7225 323.867 98.4961 323.298 98.4961H280.699C280.417 98.4957 280.138 98.551 279.877 98.6588C279.616 98.7667 279.379 98.9249 279.179 99.1246C278.98 99.3242 278.821 99.5612 278.713 99.8222C278.605 100.083 278.55 100.363 278.55 100.645V101.956C278.55 102.527 278.777 103.073 279.18 103.476C279.583 103.879 280.13 104.106 280.699 104.106Z" fill="#00FFD1"/>
<path d="M280.699 114.226H323.298C323.867 114.226 324.413 113.999 324.816 113.596C325.219 113.193 325.445 112.646 325.445 112.076V110.765C325.445 110.195 325.219 109.648 324.816 109.245C324.413 108.842 323.867 108.616 323.298 108.616H280.699C280.13 108.616 279.583 108.842 279.18 109.245C278.777 109.648 278.55 110.195 278.55 110.765V112.076C278.55 112.647 278.777 113.193 279.18 113.596C279.583 113.999 280.13 114.226 280.699 114.226Z" fill="#00FFD1"/>
<path d="M352.348 66.7248H342.173C341.112 66.7248 340.094 66.3031 339.344 65.5522C338.593 64.8013 338.171 63.7827 338.171 62.7204V31.2408C338.171 30.1782 338.593 29.1594 339.344 28.408C340.094 27.6566 341.112 27.2342 342.173 27.2334H352.348C353.409 27.2342 354.427 27.6567 355.177 28.4082C355.927 29.1596 356.348 30.1785 356.348 31.2408V62.7323C356.345 63.7923 355.922 64.8077 355.172 65.5562C354.423 66.3046 353.407 66.7248 352.348 66.7248Z" fill="#00FFD1"/>
<path d="M219.961 124.563C219.961 124.563 220.658 125.708 220.745 126.644C220.816 127.385 221.436 128.49 221.707 129.1C221.977 129.709 222.841 132.477 222.87 133.197C222.885 133.494 222.229 135.346 222.321 135.938C222.413 136.529 222.755 137.721 222.223 137.784C221.692 137.846 221.086 136.892 221.086 136.892C221.1 137.043 221.069 137.194 220.999 137.328C220.928 137.462 220.82 137.573 220.688 137.647C219.797 138.054 219.349 137.698 219.349 137.698C219.349 137.698 219.025 138.292 218.619 138.378C217.728 138.557 217.288 138.197 217.288 138.197C216.998 138.416 216.642 138.531 216.279 138.524C216.047 138.516 215.821 138.446 215.624 138.323C215.427 138.2 215.266 138.027 215.157 137.822C215.157 137.822 214.156 138.028 213.865 137.561C213.574 137.094 213.624 136.595 213.506 136.169C213.387 135.744 213.476 131.924 214.773 129.171C216.071 126.418 214.444 123.731 214.444 123.731L219.961 124.557" fill="white"/>
<path d="M221.228 136.541C221.228 136.541 221.318 133.11 220.415 132.379C219.512 131.647 219.408 132.887 219.408 132.887C219.408 132.887 219.533 131.662 218.547 131.499C217.562 131.335 217.52 132.786 217.52 132.786C217.496 132.656 217.446 132.532 217.372 132.423C217.298 132.313 217.202 132.221 217.09 132.15C216.979 132.08 216.854 132.033 216.723 132.014C216.593 131.994 216.46 132.002 216.332 132.037C215.296 132.23 215.543 133.434 215.543 133.434C215.543 133.434 214.554 132.245 213.912 133.389C212.832 135.304 213.874 137.551 213.874 137.551C213.874 137.551 214.171 138.069 215.165 137.813C215.165 137.813 215.825 139.145 217.297 138.188C217.297 138.188 218.806 139.02 219.358 137.688C219.358 137.688 221.021 138.479 221.237 136.526" fill="#DB9C7C"/>
<path d="M231.585 75.1423C231.585 75.1423 225.718 94.7157 223.734 101.937C223.114 104.202 221.608 125.827 221.359 126.698C221.11 127.569 213.639 128.761 213.639 128.761C213.639 128.761 214.53 101.708 214.625 100.221C214.72 98.735 222.835 68.5337 225.195 67.4545C226.977 66.6489 227.9 67.3177 230.133 68.9766C233.262 71.3014 231.585 75.1305 231.585 75.1305" fill="#AC00FF"/>
<path d="M289.439 48.7224L288.786 47.7235L302.213 38.9238L302.866 39.9227L289.439 48.7224Z" fill="#4DA8F2"/>
<path d="M304.297 43.9838C304.24 44.355 304.122 44.7144 303.95 45.048C303.95 45.048 303.514 45.5713 303.223 45.9637C303.146 46.0585 303.076 46.1578 303.012 46.261C302.737 46.8931 302.362 47.4764 301.901 47.9882C301.263 48.6363 298.775 50.7024 298.775 50.7024L296.64 48.889L294.425 47.8931C294.425 47.8931 295.663 42.4944 296.188 41.8225C296.242 41.7571 296.295 41.6917 296.349 41.6382C296.851 41.109 297.445 40.9277 297.738 40.6809C297.848 40.5917 298.988 39.7683 299.392 39.8753C299.622 39.9189 299.836 40.0204 300.015 40.1703C300.195 40.3201 300.333 40.5132 300.417 40.7314C300.417 40.7314 301.509 41.0674 301.934 41.7095C302.233 41.7988 302.508 41.9557 302.737 42.1681C302.966 42.3804 303.143 42.6426 303.255 42.9344C303.255 42.9344 304.253 43.3327 304.297 43.9689" fill="white"/>
<path d="M226.297 212.59C226.297 212.59 228.158 214.829 229.964 215.804C231.769 216.779 234.596 217.168 235.662 218.182C236.431 218.913 238.464 222.047 230.979 221.99C223.494 221.934 219.886 222.433 219.082 221.229C218.277 220.025 220.243 212.343 220.243 212.343C220.243 212.343 222.024 212.982 226.297 212.596" fill="#8600C7"/>
<path d="M268.424 212.59C268.424 212.59 270.288 214.828 272.091 215.803C273.893 216.778 280.526 217.587 281.592 218.592C282.361 219.323 283.641 222.257 273.106 221.984C265.624 221.788 262.013 222.427 261.211 221.223C260.41 220.019 262.372 212.337 262.372 212.337C262.372 212.337 264.041 213.021 268.424 212.59Z" fill="#8600C7"/>
<path d="M231.695 113.296C231.695 113.296 226.169 122.087 226.579 130.033C226.989 137.98 224.578 146.654 223.746 154.955C222.82 164.209 219.034 186.116 218.895 191.069C218.755 196.022 219.488 211.826 219.488 211.826L227.072 211.998C227.072 211.998 233.438 173.699 235.089 169.783C236.739 165.868 244.914 138.015 245.184 134.888C245.454 131.76 231.695 113.29 231.695 113.29" fill="#8600C7"/>
<path d="M260.784 114.5C260.784 114.5 264.941 136.279 265.499 141.14C266.057 146.001 266.416 164.679 266.687 167.717C266.957 170.756 269.255 207.402 269.985 212.013H260.294C260.294 212.013 252.853 185.308 252.853 172.67C252.853 160.032 247.105 145.201 243.393 136.862C239.682 128.523 231.19 128.33 228.91 112.859C228.91 112.859 257.693 109.589 260.781 114.503" fill="#8600C7"/>
<path d="M240.917 39.3994C240.917 39.3994 248.34 36.6258 251.755 42.2802C255.169 47.9346 254.843 59.2492 251.104 60.6405C247.366 62.0318 241.749 61.3065 239.822 57.7688C237.895 54.2311 236.178 49.1178 236.259 45.699C236.339 42.2802 238.952 40.3864 240.899 39.3994" fill="white"/>
<path d="M250.3 60.9023C250.3 60.9023 250.003 62.906 250.501 63.893C251 64.88 240.89 64.9067 240.89 64.9067C240.89 64.9067 240.071 59.5347 238.515 54.9952C236.959 50.4556 250.303 60.9023 250.303 60.9023" fill="white"/>
<path d="M238.512 54.9951C238.512 54.9951 239.21 56.1486 242.075 55.7027C244.94 55.2567 248.405 51.4574 249.596 51.0383C250.787 50.6191 250.784 49.9205 250.784 49.9205L251.529 51.0115L252.794 51.0918C252.794 51.0918 251.639 47.6938 253.388 46.3114C255.137 44.929 251.582 35.3118 242.44 38.5136C242.44 38.5136 235.415 40.4489 235.671 44.4593C235.926 48.4697 236.95 53.0122 238.521 55.004" fill="#23172D"/>
<path d="M251.101 63.774C251.101 63.774 251.069 61.8892 250.211 61.693C249.353 61.4968 240.778 60.6882 239.729 61.0984V63.2955C239.729 63.2955 241.752 64.5411 251.096 63.7592" fill="#E2D2CA"/>
<path d="M250.594 48.4665C250.433 47.7977 248.732 45.8802 248.079 47.9314C247.426 49.9827 249.065 52.7445 249.979 52.5067C250.894 52.2689 251 50.167 250.594 48.4665Z" fill="white"/>
<path d="M265.285 66.6219C259.406 65.8431 251.101 63.762 251.101 63.762L239.735 63.2983C239.735 63.2983 229.305 65.5963 225.186 67.4603C224.797 67.6387 224.797 76.7802 223.726 79.1763L227.131 86.3707C227.131 86.3707 229.1 100.623 229.507 106.961C229.694 109.871 225.448 134.243 225.448 134.243C225.448 134.243 229.996 135.584 237.752 136.44C245.507 137.296 264.893 136.142 265.015 135.215C265.137 134.287 261.262 101.057 261.09 99.3354C260.825 96.6925 261.998 82.6546 261.998 82.6546C263.78 81.2633 279.516 73.956 283.804 70.1448C284.953 69.1251 289.799 64.4012 291.176 62.7721C296.055 56.9958 300.054 52.0431 300.538 50.9758C301.091 50.3812 295.238 47.1794 294.71 47.004C294.244 46.8494 287.649 55.4024 285.113 58.1552C283.982 59.383 279.276 62.8077 279.276 62.8077C279.276 62.8077 268.952 66.839 265.273 66.6279" fill="#AC00FF"/>
<path d="M302.866 39.923L303.641 38.7339L302.213 38.9212L302.866 39.923Z" fill="#DFE1E8"/>
</svg>
