<svg width="28" height="24" viewBox="0 0 28 24" fill="none" xmlns="http://www.w3.org/2000/svg">
<path d="M22.76 13.1733L14.6667 21.2533V24H17.4133L25.4933 15.9067L22.76 13.1733ZM27.6 12.7733L25.8933 11.0667C25.8292 10.9958 25.751 10.9391 25.6638 10.9001C25.5766 10.8611 25.4822 10.8406 25.3867 10.84C25.1867 10.8533 25 10.92 24.8667 11.0667L23.5333 12.4L26.2667 15.0667L27.6 13.7333C27.8533 13.4667 27.8533 13.04 27.6 12.7733ZM12 18.6667H2.66667V5.33333L13.3333 12L24 5.33333V8H26.6667V2.66667C26.6667 1.2 25.4667 0 24 0H2.66667C1.2 0 0 1.2 0 2.66667V18.6667C0 20.1333 1.2 21.3333 2.66667 21.3333H12V18.6667ZM24 2.66667L13.3333 9.33333L2.66667 2.66667H24Z" fill="white"/>
</svg>
