<svg width="209" height="101" viewBox="0 0 209 101" fill="none" xmlns="http://www.w3.org/2000/svg">
<path d="M53.4656 78.548C53.3754 79.0053 53.3909 79.4762 53.5112 79.9269C53.6314 80.3777 53.8534 80.7972 54.1612 81.1555C54.4689 81.5138 54.855 81.802 55.2916 81.9995C55.7281 82.1969 56.2045 82.2988 56.6866 82.2978H174.458C175.22 82.3007 175.958 82.0465 176.547 81.5792C177.135 81.1119 177.535 80.4609 177.679 79.7387L179.409 71.0352H54.9655L53.4656 78.548Z" fill="#B6B2B9"/>
<path d="M188.812 1.37059H70.8606C70.0979 1.36851 69.3583 1.63384 68.7693 2.12086C68.1803 2.60787 67.7789 3.28608 67.6341 4.03861L54.8157 71.0352H179.437L192.02 5.26142C192.112 4.78426 192.097 4.29255 191.978 3.82165C191.858 3.35076 191.636 2.9124 191.327 2.53811C191.019 2.16382 190.631 1.86289 190.193 1.65701C189.755 1.45113 189.277 1.34542 188.793 1.34744" fill="white"/>
<path d="M108.3 82.298C109.836 78.0423 110.791 74.996 110.791 74.996C110.791 74.996 114.316 56.5164 98.5979 61.2531C98.5979 61.2531 93.1437 65.3485 90.5788 74.0294C89.7788 76.723 88.8279 79.6044 87.8998 82.2751H108.3" fill="#544B5C"/>
<path d="M141.388 82.2979C141.097 73.3014 140.523 66.0824 139.537 64.1374C136.617 58.9041 124.683 54.1412 124.683 54.1412L108.367 56.5204C108.367 56.5204 101.551 58.4292 99.3579 63.1876C98.6222 64.7888 96.8407 72.5686 94.9389 82.2979H141.397" fill="#E1E5F5"/>
<path d="M110.884 42.7942C110.884 42.7942 109.864 50.1575 107.618 55.5318C107.618 55.5318 107.005 59.7107 115.987 57.9178C124.969 56.1248 123.743 51.7497 123.743 51.7497V34.4316L110.884 42.7942Z" fill="white"/>
<path d="M99.1762 24.7588C99.1762 24.7588 99.2725 41.0531 103.912 48.8976C107.081 52.2009 117.878 47.0174 122.421 40.0136C126.965 33.0099 126.878 22.4581 123.284 16.6047C119.689 10.7513 107.846 12.5023 104.375 14.5258C100.905 16.5493 98.9791 22.1532 99.1762 24.7588Z" fill="white"/>
<path d="M120.936 34.4148C120.936 34.4148 124.109 29.6987 126.232 32.51C128.356 35.3213 120.983 41.0588 120.44 38.8733C119.896 36.6878 120.917 34.4148 120.917 34.4148" fill="#E1E5F5"/>
<path d="M99.2688 25.0644C99.2688 25.0644 93.569 20.117 100.444 13.7236C102.936 11.8775 104.637 12.0594 106.6 12.2458C107.883 12.4124 109.185 12.3879 110.461 12.1731C114.585 11.3955 122.049 12.1731 124.8 16.4383C127.551 20.7036 126.565 30.5847 125.777 31.5533C124.989 32.5218 122.639 33.1039 122.639 34.85C122.639 36.5961 122.243 37.9512 121.653 37.9512C121.063 37.9512 121.068 35.0455 121.068 32.9129C121.068 30.7802 120.671 26.7105 119.685 23.8185C118.699 20.9264 114.188 21.0901 112.419 21.4948C110.65 21.8995 109.484 26.3467 99.264 25.0826" fill="#23172D"/>
<path d="M106.643 46.9841C102.96 46.1876 103.448 43.3112 107.205 42.1142C107.205 42.1142 111.208 40.2936 112.568 43.0745C113.143 44.9269 110.34 47.7852 106.643 46.9841ZM120.656 29.8346C120.692 30.1487 121.71 39.4425 118.013 42.0323C114.17 44.5901 114.01 41.3177 110.97 40.8352C107.93 40.3528 105.443 40.5167 104.083 42.5147C102.882 44.5082 103.119 45.3866 102.001 44.8313C101.759 45.4685 103.444 49.3827 106.004 50.4204C108.565 51.4581 114.649 48.2631 117.374 45.869C120.099 43.475 121.779 41.9594 122.258 39.884C122.737 37.8086 122.495 33.8171 123.061 31.0225C123.376 28.9107 121.441 29.516 120.656 29.8392" fill="#23172D"/>
<path d="M123.404 50.6217C123.404 50.6217 118.646 56.4773 110.837 57.195C109.251 56.5954 108.397 53.7244 108.397 53.7244L107.178 55.5415C107.178 55.5415 106.565 59.1302 107.178 60.5385C107.906 60.6611 110.591 58.8667 110.591 58.8667C110.591 58.8667 112.446 61.3788 113.768 61.8558C115.089 62.3328 123.65 56.7135 124.503 53.9651C124.445 52.7751 124.066 51.6214 123.404 50.6217Z" fill="#23172D"/>
<path d="M142.805 82.2979C142.373 73.428 141.818 66.6478 141.291 65.2501C139.293 60.8084 131.8 55.0956 124.392 54.1412C124.392 54.1412 121.61 66.3854 118.872 82.2979H142.805Z" fill="#544B5C"/>
<path d="M100.839 82.2979C104.658 66.3947 107.609 56.9569 107.609 56.9569C105.42 57.1925 101.532 58.8644 98.8583 61.4878C97.4082 64.3331 95.1638 72.5113 92.8271 82.2979H100.839Z" fill="#544B5C"/>
<path d="M110.605 59.0687C109.164 64.627 107.982 70.2446 106.906 75.8714L107.434 75.9627C108.51 70.3405 109.697 64.7366 111.129 59.1874L110.605 59.0687Z" fill="#91B9E6"/>
<path d="M208.231 25.1798C204.891 38.5915 191.334 49.465 177.946 49.465C164.558 49.465 156.412 38.5915 159.747 25.1798C163.083 11.7681 176.644 0.894653 190.032 0.894653C203.42 0.894653 211.567 11.7681 208.231 25.1798Z" fill="#00FFD1"/>
<path d="M177.614 37.4966C177.245 37.5106 176.878 37.4399 176.543 37.2902C176.207 37.1405 175.913 36.9161 175.686 36.6355L169.303 28.4254C168.411 27.2803 168.892 25.4227 170.377 24.2776C171.862 23.1324 173.781 23.1324 174.668 24.2776L179.44 30.4182L196.491 17.2397C197.976 16.0946 199.895 16.0946 200.787 17.2397C201.679 18.3849 201.198 20.2424 199.713 21.3876L179.981 36.6355C179.317 37.1742 178.482 37.478 177.614 37.4966Z" fill="#23172D"/>
<path d="M22.9314 100.203H20.5013V78.4894H22.9348V100.203" fill="#E7E5E8"/>
<path d="M6.64632 36.559C6.64632 36.559 4.64944 37.557 3.77628 40.4279C2.90312 43.2988 7.64434 51.0349 7.64434 50.6603C7.64434 50.2857 12.3873 48.1649 12.3873 48.1649L10.0158 39.429L6.64632 36.559Z" fill="#8600C7"/>
<path d="M32.6024 46.1195H70.0786L70.7335 42.6047H33.2581" fill="#E7E5E8"/>
<path d="M36.575 24.8154L33.2582 42.609H70.7335L73.9739 25.2316C74.0041 25.0695 73.9982 24.9027 73.9567 24.743C73.9151 24.5834 73.839 24.4349 73.7336 24.308C73.6282 24.1812 73.4962 24.079 73.3469 24.0089C73.1976 23.9388 73.0346 23.9024 72.8697 23.9023H37.6783C37.4161 23.9023 37.1622 23.994 36.9605 24.1615C36.7588 24.3291 36.6221 24.5619 36.5742 24.8197" fill="#CECBD0"/>
<path d="M55.0345 49.1943L64.956 41.8047L55.2222 41.2433L46.0489 48.356L55.0336 49.1986" fill="#23172D"/>
<path d="M52.2579 46.7922L54.7542 45.4188C54.7542 45.4188 57.1639 44.4208 57.2344 44.4208C57.3049 44.4208 57.5147 44.6544 57.2573 45.1461C57 45.6379 56.323 45.7543 56.323 45.7543L55.8788 46.9944L58.1874 46.6674L58.7174 46.5425C58.7174 46.5425 58.3437 47.4768 58.1874 47.6968C58.0311 47.9168 57.1579 48.4766 57.1579 48.4766C57.1579 48.4766 55.5042 49.8491 54.9113 50.0054C54.3185 50.1617 52.2596 50.2552 52.2596 50.2552L50.9498 50.2237L49.7327 50.4734C49.3238 49.6077 49.1411 48.6524 49.2018 47.6968L52.2596 46.7922" fill="white"/>
<path d="M67.0472 52.5323L74.2856 99.7033H76.0328L71.2907 52.2826L67.0438 52.5323" fill="#E7E5E8"/>
<path d="M81.7712 52.5323L89.0096 99.7033H90.7568L86.0138 52.2826L81.7712 52.5323Z" fill="#E7E5E8"/>
<path d="M39.3422 52.5323L32.1039 99.7033H30.3541L35.0962 52.2826L39.3431 52.5323" fill="#CECBD0"/>
<path d="M24.6166 52.5323L17.3782 99.7033H15.631L20.374 52.2826L24.6166 52.5323Z" fill="#CECBD0"/>
<path d="M87.0127 54.2796H21.8714V52.0372H87.0127V54.2838" fill="#857E8A"/>
<path d="M88.2604 53.0317H23.8674C23.542 53.0232 23.2328 52.888 23.0057 52.6549C22.7785 52.4217 22.6514 52.1091 22.6514 51.7836C22.6514 51.4581 22.7785 51.1454 23.0057 50.9123C23.2328 50.6791 23.542 50.5439 23.8674 50.5354H88.2604C88.5858 50.5439 88.895 50.6791 89.1222 50.9123C89.3493 51.1454 89.4764 51.4581 89.4764 51.7836C89.4764 52.1091 89.3493 52.4217 89.1222 52.6549C88.895 52.888 88.5858 53.0232 88.2604 53.0317Z" fill="#FBC23D"/>
<path d="M26.0223 94.9621C26.0223 94.9621 26.4317 93.9598 28.1457 94.1382C29.8598 94.3166 30.0696 94.6334 30.3074 95.4734C30.5452 96.3135 31.1772 97.1985 31.5815 97.3752C31.9858 97.5518 33.4679 98.4615 34.6537 98.6C35.8394 98.7384 36.0042 99.4493 35.7579 99.7891C35.5115 100.129 31.0863 100.606 30.0976 100.524C30.0976 100.524 26.7621 100.621 25.9654 100.398C25.1687 100.175 25.9781 95.29 26.0274 94.9621" fill="#00FFD1"/>
<path d="M26.4784 87.7756L25.9645 95.5984C25.9645 95.5984 27.1843 95.9908 28.1118 96.6711C29.4835 97.676 30.6064 96.4588 30.6064 96.4588L30.9156 91.5375L26.4784 87.7756Z" fill="white"/>
<path d="M36.4093 73.997L31.3555 95.7104C31.3555 95.7104 28.7344 96.085 25.5526 94.5875C25.5526 94.5875 28.3606 74.1838 28.5475 72.8732C28.7343 71.5626 36.0347 72.8732 36.4093 73.997Z" fill="#8600C7"/>
<path d="M15.9215 17.8191C15.9215 17.8191 17.9965 18.2056 19.3606 21.2616C20.7247 24.3177 20.396 31.0295 19.6775 31.8593C18.9589 32.6892 16.5985 32.5499 13.2825 31.6945C9.77796 30.79 8.38245 27.3024 7.61376 24.9913C6.14094 20.5668 9.7491 15.6727 15.9215 17.8191Z" fill="white"/>
<path d="M10.1619 35.7037L11.351 29.9874C11.351 29.9874 14.4224 28.8653 16.5195 30.824L17.2329 31.6938L17.475 35.3461C17.475 35.3461 14.2559 36.2158 10.1577 35.7011" fill="white"/>
<path d="M44.5565 94.9621C44.5565 94.9621 44.9659 93.9598 46.68 94.1382C48.394 94.3166 48.603 94.6334 48.8408 95.4734C49.0786 96.3135 49.7106 97.1985 50.1149 97.3752C50.5192 97.5518 52.0013 98.4615 53.1871 98.6C54.3728 98.7384 54.5376 99.4493 54.2913 99.7891C54.0449 100.129 49.6197 100.606 48.6293 100.524C48.6293 100.524 45.2947 100.621 44.4979 100.398C43.7012 100.175 44.5107 95.29 44.5599 94.9621" fill="#00FFD1"/>
<path d="M42.5852 88.3472L44.458 95.9601C44.458 95.9601 45.9546 95.5856 46.8287 96.3347C47.7027 97.0838 49.3241 96.5836 49.3241 96.5836L47.9516 90.5938L42.5852 88.3472Z" fill="white"/>
<path d="M27.112 62.8896C27.4866 62.8896 40.2154 67.1365 42.7117 69.0052C45.2072 71.002 49.2001 93.2464 49.4498 93.7449C49.6995 94.2435 45.8314 95.6136 43.3343 95.2424C43.2094 94.7438 37.3445 75.993 37.3445 74.7452C37.3445 74.7452 27.3609 74.2458 23.1183 73.4975C18.8756 72.7492 16.0047 72.6235 14.2576 68.0063C12.5104 63.3891 22.7437 63.0154 22.7437 63.0154L27.1112 62.8896" fill="#8600C7"/>
<path d="M48.8884 46.4797C48.8884 46.4797 51.3218 46.4177 51.5087 46.6674C51.6956 46.9172 52.5696 49.1629 51.7584 50.0989L51.0721 50.5984H48.9487L48.8858 46.4797" fill="#E7E5E8"/>
<path d="M9.73465 34.8747L10.3937 33.1895C10.3937 33.1895 14.3247 31.9732 17.6942 33.4707C18.5367 34.3124 19.0039 35.623 19.0039 35.623L9.73801 34.8747" fill="#E7E5E8"/>
<path d="M8.89295 35.0616C8.89295 35.0616 9.39155 34.1884 10.2656 34.0627C11.1396 33.937 15.1325 33.4393 17.7528 34.1884C18.7508 34.5621 19.2503 35.0616 19.2503 35.0616C19.2503 35.0616 22.9943 36.3093 24.2421 37.0585C25.4898 37.8076 25.8644 43.5477 26.1107 45.4189C26.357 47.29 25.6113 49.2878 25.6113 49.2878C25.6113 49.2878 28.6061 61.5188 28.6061 63.2643C28.6061 65.0098 27.6081 67.0083 24.1138 68.2561C20.6194 69.5038 11.1353 69.0052 7.89066 67.0083C6.89264 65.0114 5.3952 41.3011 5.14549 39.0545C4.89577 36.8079 8.88955 35.0624 8.88955 35.0624" fill="#8600C7"/>
<path d="M22.1831 36.5589C22.1831 36.5589 23.1174 35.9975 25.3649 37.4932C27.6123 38.989 33.789 44.6059 34.5382 44.9805C35.2873 45.3551 49.7004 46.1034 49.7004 46.1034C49.7004 46.1034 51.7593 48.7246 49.5135 50.7835C49.5135 50.7835 35.599 51.3449 32.9787 51.158C30.3584 50.9712 21.6226 45.9165 21.6226 45.9165C21.6226 45.9165 18.0654 40.675 22.184 36.5572" fill="#8600C7"/>
<path d="M18.9071 21.8648C18.9071 21.8648 19.2816 23.5491 17.7842 24.672L17.8776 26.5406C17.8776 26.5406 18.4391 28.2249 18.0645 28.4093C17.6899 28.5936 17.5973 28.3158 17.5973 28.3158C17.5973 28.3158 16.3802 26.3504 16.0056 26.2569C15.631 26.1635 16.8482 28.8773 16.8482 28.8773C16.8482 28.8773 15.631 30.7459 13.3853 31.0304L13.8533 30.3747C13.8533 30.3747 12.8238 31.0304 11.2321 30.9361C9.64037 30.8419 8.42488 28.4093 8.42488 28.4093C8.42488 28.4093 8.70518 29.065 8.42488 29.3436C8.14459 29.6222 6.55628 27.1912 6.45945 24.1029L5.99142 25.0372C6.10223 23.4742 6.41632 21.9324 6.92574 20.4506C7.76747 18.0171 11.5124 16.2385 13.5704 16.2385C15.6285 16.2385 17.6891 16.4262 18.2505 16.2385C18.8119 16.0508 18.5316 17.6425 18.5316 17.6425C18.6965 17.2506 18.8217 16.8431 18.9054 16.4262C19.2799 16.1451 19.8397 18.3917 19.6545 19.2343L19.4668 20.076C19.4668 20.076 20.1225 19.2343 20.216 18.7663C20.5897 18.672 20.4963 20.7309 18.9054 21.8546" fill="#FFA800"/>
<path d="M55.567 48.3932L58.3037 47.8462L58.8702 46.6129L58.5619 46.4711L58.0676 47.5472L55.5008 48.0569L55.567 48.3898" fill="#E74D4D"/>
<path d="M57.9826 47.6289L57.7711 47.8056C57.5783 47.9653 57.2853 48.2073 57.0228 48.4171C56.892 48.5224 56.768 48.6193 56.6712 48.694C56.6228 48.7305 56.5803 48.762 56.5472 48.7849C56.5279 48.7992 56.5078 48.8123 56.4869 48.824C56.4171 48.8548 56.3453 48.8809 56.272 48.9021C56.1183 48.9514 55.9221 49.0074 55.7624 49.0499C55.6027 49.0924 55.4889 49.1238 55.4889 49.1238L55.5738 49.4516C55.5738 49.4516 55.7862 49.3973 56.0223 49.3302C56.1404 49.2962 56.2643 49.2597 56.3722 49.2257C56.4624 49.199 56.5507 49.166 56.6364 49.1272C56.6863 49.0994 56.7343 49.0682 56.7799 49.0338C56.9778 48.8894 57.3295 48.6091 57.6352 48.3543C57.941 48.0995 58.1975 47.8888 58.1984 47.8888L57.9801 47.6289" fill="#E74D4D"/>
<path d="M16.9662 29.6484C16.9444 29.7345 16.9341 29.823 16.9357 29.9117C16.9415 30.2639 17.0653 30.604 17.2873 30.8775C17.5761 31.2504 18.0823 31.6275 18.947 31.9154L19.054 31.5935C18.2344 31.32 17.7935 30.9777 17.5557 30.6702C17.3793 30.4563 17.2802 30.189 17.2746 29.9117C17.2742 29.8674 17.2777 29.8231 17.2848 29.7792L17.2907 29.747V29.741L17.1964 29.7147L17.2899 29.7419L17.1956 29.7155L17.289 29.7427L16.9637 29.6493" fill="#B6B2B9"/>
<path d="M68.2932 39.5514H48.3269L50.8241 26.5754H70.7913L68.2932 39.5514Z" fill="#23172D"/>
<path d="M19.0616 27.5573C19.0616 28.484 18.5223 29.2348 17.8581 29.2348C17.1939 29.2348 16.6545 28.484 16.6545 27.5573C16.6545 26.6306 17.193 25.8798 17.8581 25.8798C18.5231 25.8798 19.0616 26.6306 19.0616 27.5573Z" fill="#3B3144"/>
<path d="M17.932 27.8011L18.0755 27.9616C18.3958 28.3201 19.1976 29.2272 19.9178 30.1063C20.278 30.5454 20.6177 30.9778 20.8649 31.3294C20.9696 31.475 21.0669 31.6258 21.1562 31.7813C21.1842 31.8311 21.2089 31.8828 21.2301 31.9359C21.2393 31.9585 21.2458 31.9822 21.2497 32.0063C21.2507 32.0388 21.2449 32.071 21.2326 32.101C21.2203 32.131 21.2018 32.1581 21.1783 32.1805C21.0757 32.265 20.9516 32.3194 20.8199 32.3376C20.6865 32.3623 20.5512 32.3746 20.4156 32.3741H20.3374H20.3111L20.2916 32.6646C20.2916 32.6646 20.3409 32.6646 20.4156 32.6646C20.6324 32.6691 20.8487 32.6405 21.0569 32.5797C21.1792 32.5425 21.2914 32.4777 21.3847 32.3903C21.4352 32.3407 21.4751 32.2814 21.5019 32.216C21.5288 32.1506 21.5421 32.0805 21.541 32.0098C21.5377 31.9405 21.5212 31.8725 21.4926 31.8093C21.3864 31.5545 21.1316 31.1893 20.8004 30.7518C19.8083 29.4489 18.1503 27.6091 18.1486 27.6091L17.932 27.8045" fill="#3B3144"/>
<path d="M37.3453 65.5107L35.0987 75.8689H33.7261L34.9739 65.7613L37.3453 65.5116" fill="#857E8A"/>
<path d="M41.4631 66.384H21.3558V63.8885H39.4671C39.9965 63.8885 40.5042 64.0988 40.8785 64.4732C41.2528 64.8475 41.4631 65.3552 41.4631 65.8846V66.384Z" fill="#857E8A"/>
<path d="M4.89916 74.7453L0.0313727 51.3399C-0.0139381 51.122 -0.0101239 50.8968 0.0425291 50.6806C0.0951822 50.4644 0.195338 50.2627 0.335747 50.09C0.476155 49.9174 0.653265 49.7782 0.854207 49.6827C1.05515 49.5871 1.27486 49.5375 1.49738 49.5375H17.6007C18.0312 49.5368 18.4487 49.6848 18.7827 49.9564C19.1167 50.228 19.3466 50.6066 19.4337 51.0281L24.3652 74.7453" fill="#857E8A"/>
<path d="M37.9714 77.3129H7.38953C6.88708 77.3129 6.3982 77.1498 5.99631 76.8483C5.59442 76.5467 5.30124 76.1229 5.16078 75.6405L4.89917 74.7452H37.9714V77.3129Z" fill="#857E8A"/>
<path d="M22.8567 96.9692H20.8547L11.7324 100.591H31.979L22.8567 96.9692Z" fill="#E7E5E8"/>
</svg>
