<svg width="210" height="121" viewBox="0 0 210 121" fill="none" xmlns="http://www.w3.org/2000/svg">
<path d="M106.486 45.8852C105.942 45.8852 105.474 45.7692 105.082 45.5372C104.698 45.3052 104.378 44.9412 104.122 44.4452L105.25 43.6772C105.362 43.8932 105.514 44.0612 105.706 44.1812C105.898 44.3012 106.102 44.3612 106.318 44.3612C106.662 44.3612 106.918 44.2572 107.086 44.0492C107.262 43.8412 107.35 43.4692 107.35 42.9332V37.9172H109.114V43.0772C109.114 43.5892 109.022 44.0612 108.838 44.4932C108.654 44.9172 108.366 45.2572 107.974 45.5132C107.59 45.7612 107.094 45.8852 106.486 45.8852ZM112.279 45.8852C111.919 45.8852 111.603 45.8052 111.331 45.6452C111.067 45.4852 110.863 45.2692 110.719 44.9972C110.575 44.7252 110.503 44.4212 110.503 44.0852C110.503 43.4452 110.767 42.9532 111.295 42.6092C111.823 42.2572 112.675 42.0212 113.851 41.9012C113.843 41.7252 113.803 41.5772 113.731 41.4572C113.667 41.3292 113.567 41.2332 113.431 41.1692C113.295 41.0972 113.123 41.0612 112.915 41.0612C112.667 41.0612 112.415 41.1052 112.159 41.1932C111.903 41.2812 111.627 41.4092 111.331 41.5772L110.707 40.4252C110.963 40.2652 111.227 40.1292 111.499 40.0172C111.771 39.8972 112.051 39.8052 112.339 39.7412C112.635 39.6772 112.939 39.6452 113.251 39.6452C113.763 39.6452 114.191 39.7452 114.535 39.9452C114.887 40.1372 115.155 40.4332 115.339 40.8332C115.523 41.2252 115.615 41.7292 115.615 42.3452V45.7412H114.175L114.055 45.1292H114.007C113.751 45.3532 113.483 45.5372 113.203 45.6812C112.923 45.8172 112.615 45.8852 112.279 45.8852ZM112.867 44.5052C113.067 44.5052 113.243 44.4612 113.395 44.3732C113.547 44.2852 113.699 44.1652 113.851 44.0132V43.0052C113.435 43.0612 113.103 43.1332 112.855 43.2212C112.615 43.3092 112.443 43.4172 112.339 43.5452C112.243 43.6652 112.195 43.8012 112.195 43.9532C112.195 44.1372 112.255 44.2772 112.375 44.3732C112.503 44.4612 112.667 44.5052 112.867 44.5052ZM117.108 45.7412V37.3292H118.848V42.1292H118.896L120.744 39.7892H122.676L120.612 42.2612L122.832 45.7412H120.924L119.58 43.4252L118.848 44.2532V45.7412H117.108ZM125.065 45.8852C124.705 45.8852 124.389 45.8052 124.117 45.6452C123.853 45.4852 123.649 45.2692 123.505 44.9972C123.361 44.7252 123.289 44.4212 123.289 44.0852C123.289 43.4452 123.553 42.9532 124.081 42.6092C124.609 42.2572 125.461 42.0212 126.637 41.9012C126.629 41.7252 126.589 41.5772 126.517 41.4572C126.453 41.3292 126.353 41.2332 126.217 41.1692C126.081 41.0972 125.909 41.0612 125.701 41.0612C125.453 41.0612 125.201 41.1052 124.945 41.1932C124.689 41.2812 124.413 41.4092 124.117 41.5772L123.493 40.4252C123.749 40.2652 124.013 40.1292 124.285 40.0172C124.557 39.8972 124.837 39.8052 125.125 39.7412C125.421 39.6772 125.725 39.6452 126.037 39.6452C126.549 39.6452 126.977 39.7452 127.321 39.9452C127.673 40.1372 127.941 40.4332 128.125 40.8332C128.309 41.2252 128.401 41.7292 128.401 42.3452V45.7412H126.961L126.841 45.1292H126.793C126.537 45.3532 126.269 45.5372 125.989 45.6812C125.709 45.8172 125.401 45.8852 125.065 45.8852ZM125.653 44.5052C125.853 44.5052 126.029 44.4612 126.181 44.3732C126.333 44.2852 126.485 44.1652 126.637 44.0132V43.0052C126.221 43.0612 125.889 43.1332 125.641 43.2212C125.401 43.3092 125.229 43.4172 125.125 43.5452C125.029 43.6652 124.981 43.8012 124.981 43.9532C124.981 44.1372 125.041 44.2772 125.161 44.3732C125.289 44.4612 125.453 44.5052 125.653 44.5052ZM131.645 45.8852C131.253 45.8852 130.849 45.8092 130.433 45.6572C130.017 45.5052 129.661 45.2852 129.365 44.9972L130.109 44.0012C130.381 44.2172 130.649 44.3692 130.913 44.4572C131.185 44.5372 131.445 44.5772 131.693 44.5772C131.957 44.5772 132.149 44.5332 132.269 44.4452C132.389 44.3492 132.449 44.2252 132.449 44.0732C132.449 43.9372 132.393 43.8252 132.281 43.7372C132.177 43.6492 132.037 43.5732 131.861 43.5092C131.693 43.4372 131.501 43.3612 131.285 43.2812C130.997 43.1772 130.733 43.0452 130.493 42.8852C130.253 42.7252 130.057 42.5332 129.905 42.3092C129.761 42.0852 129.689 41.8172 129.689 41.5052C129.689 40.9452 129.897 40.4972 130.313 40.1612C130.737 39.8172 131.289 39.6452 131.969 39.6452C132.401 39.6452 132.793 39.7172 133.145 39.8612C133.505 39.9972 133.813 40.1772 134.069 40.4012L133.313 41.3852C133.097 41.2332 132.881 41.1252 132.665 41.0612C132.449 40.9892 132.237 40.9532 132.029 40.9532C131.797 40.9532 131.625 40.9972 131.513 41.0852C131.401 41.1732 131.345 41.2852 131.345 41.4212C131.345 41.5332 131.385 41.6292 131.465 41.7092C131.545 41.7892 131.665 41.8652 131.825 41.9372C131.993 42.0012 132.201 42.0732 132.449 42.1532C132.753 42.2572 133.029 42.3892 133.277 42.5492C133.533 42.7012 133.733 42.8932 133.877 43.1252C134.021 43.3572 134.093 43.6372 134.093 43.9652C134.093 44.3252 133.997 44.6492 133.805 44.9372C133.621 45.2252 133.349 45.4572 132.989 45.6332C132.629 45.8012 132.181 45.8852 131.645 45.8852ZM130.901 38.9012L132.281 36.7052H134.141L134.237 36.8972L132.245 38.9012H130.901ZM81.1929 62.7412V54.9172H83.1609L84.4089 58.3972C84.4889 58.6292 84.5609 58.8652 84.6249 59.1052C84.6969 59.3372 84.7689 59.5812 84.8409 59.8372H84.8889C84.9609 59.5812 85.0289 59.3372 85.0929 59.1052C85.1569 58.8652 85.2289 58.6292 85.3089 58.3972L86.5329 54.9172H88.5009V62.7412H86.8809V59.8732C86.8809 59.6172 86.8929 59.3172 86.9169 58.9732C86.9489 58.6212 86.9809 58.2732 87.0129 57.9292C87.0529 57.5772 87.0889 57.2732 87.1209 57.0172H87.0729L86.4369 59.0812L85.3329 62.0692H84.3009L83.2089 59.0812L82.5969 57.0172H82.5489C82.5809 57.2732 82.6129 57.5772 82.6449 57.9292C82.6849 58.2732 82.7169 58.6212 82.7409 58.9732C82.7649 59.3172 82.7769 59.6172 82.7769 59.8732V62.7412H81.1929ZM90.1896 62.7412V56.7892H91.9536V62.7412H90.1896ZM91.0656 55.9132C90.7696 55.9132 90.5296 55.8292 90.3456 55.6612C90.1616 55.4932 90.0696 55.2692 90.0696 54.9892C90.0696 54.7092 90.1616 54.4852 90.3456 54.3172C90.5296 54.1492 90.7696 54.0652 91.0656 54.0652C91.3616 54.0652 91.6016 54.1492 91.7856 54.3172C91.9696 54.4852 92.0616 54.7092 92.0616 54.9892C92.0616 55.2692 91.9696 55.4932 91.7856 55.6612C91.6016 55.8292 91.3616 55.9132 91.0656 55.9132ZM93.506 62.7412V56.7892H94.946L95.066 57.5452H95.114C95.362 57.2972 95.642 57.0852 95.954 56.9092C96.266 56.7332 96.622 56.6452 97.022 56.6452C97.678 56.6452 98.15 56.8612 98.438 57.2932C98.726 57.7172 98.87 58.3012 98.87 59.0452V62.7412H97.106V59.2732C97.106 58.8412 97.046 58.5452 96.926 58.3852C96.814 58.2252 96.63 58.1452 96.374 58.1452C96.15 58.1452 95.958 58.1972 95.798 58.3012C95.638 58.3972 95.462 58.5372 95.27 58.7212V62.7412H93.506ZM100.373 62.7412V56.7892H102.137V62.7412H100.373ZM101.249 55.9132C100.953 55.9132 100.713 55.8292 100.529 55.6612C100.345 55.4932 100.253 55.2692 100.253 54.9892C100.253 54.7092 100.345 54.4852 100.529 54.3172C100.713 54.1492 100.953 54.0652 101.249 54.0652C101.545 54.0652 101.785 54.1492 101.969 54.3172C102.153 54.4852 102.245 54.7092 102.245 54.9892C102.245 55.2692 102.153 55.4932 101.969 55.6612C101.785 55.8292 101.545 55.9132 101.249 55.9132ZM106.092 62.7412V56.7892H107.856V62.7412H106.092ZM106.968 55.9132C106.672 55.9132 106.432 55.8292 106.248 55.6612C106.064 55.4932 105.972 55.2692 105.972 54.9892C105.972 54.7092 106.064 54.4852 106.248 54.3172C106.432 54.1492 106.672 54.0652 106.968 54.0652C107.264 54.0652 107.504 54.1492 107.688 54.3172C107.872 54.4852 107.964 54.7092 107.964 54.9892C107.964 55.2692 107.872 55.4932 107.688 55.6612C107.504 55.8292 107.264 55.9132 106.968 55.9132ZM111.028 62.8732C110.628 62.8732 110.308 62.7932 110.068 62.6332C109.836 62.4652 109.668 62.2332 109.564 61.9372C109.46 61.6332 109.408 61.2812 109.408 60.8812V54.3412H111.172V60.9532C111.172 61.1452 111.204 61.2772 111.268 61.3492C111.34 61.4132 111.416 61.4452 111.496 61.4452C111.528 61.4452 111.556 61.4452 111.58 61.4452C111.612 61.4372 111.652 61.4292 111.7 61.4212L111.916 62.7292C111.82 62.7692 111.696 62.8012 111.544 62.8252C111.4 62.8572 111.228 62.8732 111.028 62.8732ZM114.462 62.8732C114.062 62.8732 113.742 62.7932 113.502 62.6332C113.27 62.4652 113.102 62.2332 112.998 61.9372C112.894 61.6332 112.842 61.2812 112.842 60.8812V54.3412H114.606V60.9532C114.606 61.1452 114.638 61.2772 114.702 61.3492C114.774 61.4132 114.85 61.4452 114.93 61.4452C114.962 61.4452 114.99 61.4452 115.014 61.4452C115.046 61.4372 115.086 61.4292 115.134 61.4212L115.35 62.7292C115.254 62.7692 115.13 62.8012 114.978 62.8252C114.834 62.8572 114.662 62.8732 114.462 62.8732ZM118.063 62.8852C117.415 62.8852 116.943 62.6732 116.647 62.2492C116.359 61.8172 116.215 61.2292 116.215 60.4852V56.7892H117.979V60.2572C117.979 60.6892 118.039 60.9852 118.159 61.1452C118.279 61.3052 118.467 61.3852 118.723 61.3852C118.939 61.3852 119.127 61.3332 119.287 61.2292C119.447 61.1252 119.611 60.9572 119.779 60.7252V56.7892H121.543V62.7412H120.103L119.971 61.9132H119.935C119.687 62.2092 119.415 62.4452 119.119 62.6212C118.823 62.7972 118.471 62.8852 118.063 62.8852ZM124.848 62.8852C124.456 62.8852 124.052 62.8092 123.636 62.6572C123.22 62.5052 122.864 62.2852 122.568 61.9972L123.312 61.0012C123.584 61.2172 123.852 61.3692 124.116 61.4572C124.388 61.5372 124.648 61.5772 124.896 61.5772C125.16 61.5772 125.352 61.5332 125.472 61.4452C125.592 61.3492 125.652 61.2252 125.652 61.0732C125.652 60.9372 125.596 60.8252 125.484 60.7372C125.38 60.6492 125.24 60.5732 125.064 60.5092C124.896 60.4372 124.704 60.3612 124.488 60.2812C124.2 60.1772 123.936 60.0452 123.696 59.8852C123.456 59.7252 123.26 59.5332 123.108 59.3092C122.964 59.0852 122.892 58.8172 122.892 58.5052C122.892 57.9452 123.1 57.4972 123.516 57.1612C123.94 56.8172 124.492 56.6452 125.172 56.6452C125.604 56.6452 125.996 56.7172 126.348 56.8612C126.708 56.9972 127.016 57.1772 127.272 57.4012L126.516 58.3852C126.3 58.2332 126.084 58.1252 125.868 58.0612C125.652 57.9892 125.44 57.9532 125.232 57.9532C125 57.9532 124.828 57.9972 124.716 58.0852C124.604 58.1732 124.548 58.2852 124.548 58.4212C124.548 58.5332 124.588 58.6292 124.668 58.7092C124.748 58.7892 124.868 58.8652 125.028 58.9372C125.196 59.0012 125.404 59.0732 125.652 59.1532C125.956 59.2572 126.232 59.3892 126.48 59.5492C126.736 59.7012 126.936 59.8932 127.08 60.1252C127.224 60.3572 127.296 60.6372 127.296 60.9652C127.296 61.3252 127.2 61.6492 127.008 61.9372C126.824 62.2252 126.552 62.4572 126.192 62.6332C125.832 62.8012 125.384 62.8852 124.848 62.8852ZM130.474 62.8732C129.738 62.8732 129.21 62.6612 128.89 62.2372C128.57 61.8052 128.41 61.2492 128.41 60.5692V58.1692H127.606V56.8612L128.518 56.7892L128.722 54.9652H130.186V56.7892H131.614V58.1692H130.186V60.5452C130.186 60.8812 130.254 61.1252 130.39 61.2772C130.534 61.4212 130.722 61.4932 130.954 61.4932C131.05 61.4932 131.146 61.4852 131.242 61.4692C131.338 61.4532 131.43 61.4292 131.518 61.3972L131.806 62.6332C131.654 62.6972 131.462 62.7532 131.23 62.8012C131.006 62.8492 130.754 62.8732 130.474 62.8732ZM132.775 62.7412V56.7892H134.215L134.335 57.8332H134.383C134.599 57.4332 134.855 57.1372 135.151 56.9452C135.455 56.7452 135.763 56.6452 136.075 56.6452C136.243 56.6452 136.383 56.6572 136.495 56.6812C136.607 56.6972 136.703 56.7252 136.783 56.7652L136.447 58.2652C136.351 58.2412 136.259 58.2252 136.171 58.2172C136.083 58.2012 135.975 58.1932 135.847 58.1932C135.623 58.1932 135.387 58.2732 135.139 58.4332C134.899 58.5932 134.699 58.8772 134.539 59.2852V62.7412H132.775ZM138.729 62.8852C138.369 62.8852 138.053 62.8052 137.781 62.6452C137.517 62.4852 137.313 62.2692 137.169 61.9972C137.025 61.7252 136.953 61.4212 136.953 61.0852C136.953 60.4452 137.217 59.9532 137.745 59.6092C138.273 59.2572 139.125 59.0212 140.301 58.9012C140.293 58.7252 140.253 58.5772 140.181 58.4572C140.117 58.3292 140.017 58.2332 139.881 58.1692C139.745 58.0972 139.573 58.0612 139.365 58.0612C139.117 58.0612 138.865 58.1052 138.609 58.1932C138.353 58.2812 138.077 58.4092 137.781 58.5772L137.157 57.4252C137.413 57.2652 137.677 57.1292 137.949 57.0172C138.221 56.8972 138.501 56.8052 138.789 56.7412C139.085 56.6772 139.389 56.6452 139.701 56.6452C140.213 56.6452 140.641 56.7452 140.985 56.9452C141.337 57.1372 141.605 57.4332 141.789 57.8332C141.973 58.2252 142.065 58.7292 142.065 59.3452V62.7412H140.625L140.505 62.1292H140.457C140.201 62.3532 139.933 62.5372 139.653 62.6812C139.373 62.8172 139.065 62.8852 138.729 62.8852ZM139.317 61.5052C139.517 61.5052 139.693 61.4612 139.845 61.3732C139.997 61.2852 140.149 61.1652 140.301 61.0132V60.0052C139.885 60.0612 139.553 60.1332 139.305 60.2212C139.065 60.3092 138.893 60.4172 138.789 60.5452C138.693 60.6652 138.645 60.8012 138.645 60.9532C138.645 61.1372 138.705 61.2772 138.825 61.3732C138.953 61.4612 139.117 61.5052 139.317 61.5052ZM146.185 62.8852C145.625 62.8852 145.117 62.7612 144.661 62.5132C144.213 62.2652 143.857 61.9092 143.593 61.4452C143.337 60.9812 143.209 60.4212 143.209 59.7652C143.209 59.1092 143.353 58.5492 143.641 58.0852C143.929 57.6212 144.309 57.2652 144.781 57.0172C145.253 56.7692 145.761 56.6452 146.305 56.6452C146.673 56.6452 147.001 56.7052 147.289 56.8252C147.585 56.9372 147.837 57.0892 148.045 57.2812L147.217 58.3732C147.113 58.2852 146.993 58.2132 146.857 58.1572C146.729 58.1012 146.581 58.0732 146.413 58.0732C146.133 58.0732 145.889 58.1412 145.681 58.2772C145.473 58.4132 145.309 58.6092 145.189 58.8652C145.069 59.1212 145.009 59.4212 145.009 59.7652C145.009 60.1092 145.069 60.4092 145.189 60.6652C145.309 60.9212 145.469 61.1172 145.669 61.2532C145.877 61.3892 146.109 61.4572 146.365 61.4572C146.565 61.4572 146.753 61.4212 146.929 61.3492C147.105 61.2772 147.269 61.1852 147.421 61.0732L148.117 62.1532C147.869 62.3772 147.577 62.5572 147.241 62.6932C146.905 62.8212 146.553 62.8852 146.185 62.8852ZM148.822 65.0932C148.582 65.0932 148.378 65.0772 148.21 65.0452C148.042 65.0132 147.894 64.9732 147.766 64.9252L148.09 63.6292C148.17 63.6532 148.25 63.6732 148.33 63.6892C148.402 63.7052 148.478 63.7132 148.558 63.7132C148.79 63.7132 148.95 63.6332 149.038 63.4732C149.134 63.3212 149.182 63.0812 149.182 62.7532V56.7892H150.958V62.6932C150.958 63.1332 150.89 63.5332 150.754 63.8932C150.626 64.2612 150.406 64.5532 150.094 64.7692C149.79 64.9852 149.366 65.0932 148.822 65.0932ZM150.07 55.9132C149.774 55.9132 149.534 55.8292 149.35 55.6612C149.166 55.4932 149.074 55.2692 149.074 54.9892C149.074 54.7092 149.166 54.4852 149.35 54.3172C149.534 54.1492 149.774 54.0652 150.07 54.0652C150.366 54.0652 150.606 54.1492 150.79 54.3172C150.974 54.4852 151.066 54.7092 151.066 54.9892C151.066 55.2692 150.974 55.4932 150.79 55.6612C150.606 55.8292 150.366 55.9132 150.07 55.9132ZM154.01 62.8852C153.65 62.8852 153.334 62.8052 153.062 62.6452C152.798 62.4852 152.594 62.2692 152.45 61.9972C152.306 61.7252 152.234 61.4212 152.234 61.0852C152.234 60.4452 152.498 59.9532 153.026 59.6092C153.554 59.2572 154.406 59.0212 155.582 58.9012C155.574 58.7252 155.534 58.5772 155.462 58.4572C155.398 58.3292 155.298 58.2332 155.162 58.1692C155.026 58.0972 154.854 58.0612 154.646 58.0612C154.398 58.0612 154.146 58.1052 153.89 58.1932C153.634 58.2812 153.358 58.4092 153.062 58.5772L152.438 57.4252C152.694 57.2652 152.958 57.1292 153.23 57.0172C153.502 56.8972 153.782 56.8052 154.07 56.7412C154.366 56.6772 154.67 56.6452 154.982 56.6452C155.494 56.6452 155.922 56.7452 156.266 56.9452C156.618 57.1372 156.886 57.4332 157.07 57.8332C157.254 58.2252 157.346 58.7292 157.346 59.3452V62.7412H155.906L155.786 62.1292H155.738C155.482 62.3532 155.214 62.5372 154.934 62.6812C154.654 62.8172 154.346 62.8852 154.01 62.8852ZM154.598 61.5052C154.798 61.5052 154.974 61.4612 155.126 61.3732C155.278 61.2852 155.43 61.1652 155.582 61.0132V60.0052C155.166 60.0612 154.834 60.1332 154.586 60.2212C154.346 60.3092 154.174 60.4172 154.07 60.5452C153.974 60.6652 153.926 60.8012 153.926 60.9532C153.926 61.1372 153.986 61.2772 154.106 61.3732C154.234 61.4612 154.398 61.5052 154.598 61.5052ZM99.0255 81.9492V73.7892H100.465L100.585 74.3772H100.633C100.865 74.1612 101.129 73.9852 101.425 73.8492C101.721 73.7132 102.021 73.6452 102.325 73.6452C102.805 73.6452 103.217 73.7692 103.561 74.0172C103.913 74.2652 104.181 74.6172 104.365 75.0732C104.557 75.5292 104.653 76.0612 104.653 76.6692C104.653 77.3492 104.533 77.9292 104.293 78.4092C104.053 78.8892 103.741 79.2572 103.357 79.5132C102.981 79.7612 102.577 79.8852 102.145 79.8852C101.897 79.8852 101.649 79.8332 101.401 79.7292C101.161 79.6172 100.937 79.4612 100.729 79.2612L100.789 80.2092V81.9492H99.0255ZM101.737 78.4452C101.937 78.4452 102.121 78.3852 102.289 78.2652C102.465 78.1452 102.601 77.9572 102.697 77.7012C102.793 77.4372 102.841 77.1012 102.841 76.6932C102.841 76.3332 102.801 76.0372 102.721 75.8052C102.649 75.5652 102.537 75.3852 102.385 75.2652C102.233 75.1452 102.041 75.0852 101.809 75.0852C101.633 75.0852 101.461 75.1292 101.293 75.2172C101.133 75.2972 100.965 75.4332 100.789 75.6252V78.0612C100.949 78.1972 101.109 78.2972 101.269 78.3612C101.437 78.4172 101.593 78.4452 101.737 78.4452ZM105.904 79.7412V73.7892H107.344L107.464 74.8332H107.512C107.728 74.4332 107.984 74.1372 108.28 73.9452C108.584 73.7452 108.892 73.6452 109.204 73.6452C109.372 73.6452 109.512 73.6572 109.624 73.6812C109.736 73.6972 109.832 73.7252 109.912 73.7652L109.576 75.2652C109.48 75.2412 109.388 75.2252 109.3 75.2172C109.212 75.2012 109.104 75.1932 108.976 75.1932C108.752 75.1932 108.516 75.2732 108.268 75.4332C108.028 75.5932 107.828 75.8772 107.668 76.2852V79.7412H105.904ZM113.124 79.8852C112.62 79.8852 112.148 79.7652 111.708 79.5252C111.268 79.2772 110.908 78.9212 110.628 78.4572C110.356 77.9852 110.22 77.4212 110.22 76.7652C110.22 76.1092 110.356 75.5492 110.628 75.0852C110.908 74.6132 111.268 74.2572 111.708 74.0172C112.148 73.7692 112.62 73.6452 113.124 73.6452C113.62 73.6452 114.088 73.7692 114.528 74.0172C114.968 74.2572 115.324 74.6132 115.596 75.0852C115.876 75.5492 116.016 76.1092 116.016 76.7652C116.016 77.4212 115.876 77.9852 115.596 78.4572C115.324 78.9212 114.968 79.2772 114.528 79.5252C114.088 79.7652 113.62 79.8852 113.124 79.8852ZM113.124 78.4572C113.364 78.4572 113.564 78.3892 113.724 78.2532C113.892 78.1172 114.016 77.9212 114.096 77.6652C114.176 77.4092 114.216 77.1092 114.216 76.7652C114.216 76.4212 114.176 76.1212 114.096 75.8652C114.016 75.6092 113.892 75.4132 113.724 75.2772C113.564 75.1412 113.364 75.0732 113.124 75.0732C112.876 75.0732 112.672 75.1412 112.512 75.2772C112.352 75.4132 112.232 75.6092 112.152 75.8652C112.072 76.1212 112.032 76.4212 112.032 76.7652C112.032 77.1092 112.072 77.4092 112.152 77.6652C112.232 77.9212 112.352 78.1172 112.512 78.2532C112.672 78.3892 112.876 78.4572 113.124 78.4572ZM119.853 79.8852C119.293 79.8852 118.785 79.7612 118.329 79.5132C117.881 79.2652 117.525 78.9092 117.261 78.4452C117.005 77.9812 116.877 77.4212 116.877 76.7652C116.877 76.1092 117.021 75.5492 117.309 75.0852C117.597 74.6212 117.977 74.2652 118.449 74.0172C118.921 73.7692 119.429 73.6452 119.973 73.6452C120.341 73.6452 120.669 73.7052 120.957 73.8252C121.253 73.9372 121.505 74.0892 121.713 74.2812L120.885 75.3732C120.781 75.2852 120.661 75.2132 120.525 75.1572C120.397 75.1012 120.249 75.0732 120.081 75.0732C119.801 75.0732 119.557 75.1412 119.349 75.2772C119.141 75.4132 118.977 75.6092 118.857 75.8652C118.737 76.1212 118.677 76.4212 118.677 76.7652C118.677 77.1092 118.737 77.4092 118.857 77.6652C118.977 77.9212 119.137 78.1172 119.337 78.2532C119.545 78.3892 119.777 78.4572 120.033 78.4572C120.233 78.4572 120.421 78.4212 120.597 78.3492C120.773 78.2772 120.937 78.1852 121.089 78.0732L121.785 79.1532C121.537 79.3772 121.245 79.5572 120.909 79.6932C120.573 79.8212 120.221 79.8852 119.853 79.8852ZM125.174 79.8852C124.606 79.8852 124.094 79.7612 123.638 79.5132C123.182 79.2652 122.822 78.9092 122.558 78.4452C122.294 77.9812 122.162 77.4212 122.162 76.7652C122.162 76.1172 122.294 75.5612 122.558 75.0972C122.83 74.6332 123.182 74.2772 123.614 74.0292C124.046 73.7732 124.498 73.6452 124.97 73.6452C125.538 73.6452 126.01 73.7732 126.386 74.0292C126.762 74.2772 127.042 74.6172 127.226 75.0492C127.41 75.4812 127.502 75.9652 127.502 76.5012C127.502 76.6532 127.494 76.8052 127.478 76.9572C127.462 77.1012 127.446 77.2172 127.43 77.3052H123.53L123.506 76.0812H125.99C125.99 75.7692 125.914 75.5132 125.762 75.3132C125.61 75.1052 125.358 75.0012 125.006 75.0012C124.814 75.0012 124.626 75.0532 124.442 75.1572C124.258 75.2612 124.106 75.4412 123.986 75.6972C123.866 75.9532 123.81 76.3092 123.818 76.7652C123.826 77.2132 123.906 77.5652 124.058 77.8212C124.218 78.0772 124.418 78.2612 124.658 78.3732C124.898 78.4772 125.15 78.5292 125.414 78.5292C125.646 78.5292 125.866 78.4972 126.074 78.4332C126.29 78.3612 126.502 78.2652 126.71 78.1452L127.286 79.2252C126.99 79.4332 126.654 79.5972 126.278 79.7172C125.902 79.8292 125.534 79.8852 125.174 79.8852ZM130.473 79.8852C130.081 79.8852 129.677 79.8092 129.261 79.6572C128.845 79.5052 128.489 79.2852 128.193 78.9972L128.937 78.0012C129.209 78.2172 129.477 78.3692 129.741 78.4572C130.013 78.5372 130.273 78.5772 130.521 78.5772C130.785 78.5772 130.977 78.5332 131.097 78.4452C131.217 78.3492 131.277 78.2252 131.277 78.0732C131.277 77.9372 131.221 77.8252 131.109 77.7372C131.005 77.6492 130.865 77.5732 130.689 77.5092C130.521 77.4372 130.329 77.3612 130.113 77.2812C129.825 77.1772 129.561 77.0452 129.321 76.8852C129.081 76.7252 128.885 76.5332 128.733 76.3092C128.589 76.0852 128.517 75.8172 128.517 75.5052C128.517 74.9452 128.725 74.4972 129.141 74.1612C129.565 73.8172 130.117 73.6452 130.797 73.6452C131.229 73.6452 131.621 73.7172 131.973 73.8612C132.333 73.9972 132.641 74.1772 132.897 74.4012L132.141 75.3852C131.925 75.2332 131.709 75.1252 131.493 75.0612C131.277 74.9892 131.065 74.9532 130.857 74.9532C130.625 74.9532 130.453 74.9972 130.341 75.0852C130.229 75.1732 130.173 75.2852 130.173 75.4212C130.173 75.5332 130.213 75.6292 130.293 75.7092C130.373 75.7892 130.493 75.8652 130.653 75.9372C130.821 76.0012 131.029 76.0732 131.277 76.1532C131.581 76.2572 131.857 76.3892 132.105 76.5492C132.361 76.7012 132.561 76.8932 132.705 77.1252C132.849 77.3572 132.921 77.6372 132.921 77.9652C132.921 78.3252 132.825 78.6492 132.633 78.9372C132.449 79.2252 132.177 79.4572 131.817 79.6332C131.457 79.8012 131.009 79.8852 130.473 79.8852ZM135.829 79.8852C135.181 79.8852 134.709 79.6732 134.413 79.2492C134.125 78.8172 133.981 78.2292 133.981 77.4852V73.7892H135.745V77.2572C135.745 77.6892 135.805 77.9852 135.925 78.1452C136.045 78.3052 136.233 78.3852 136.489 78.3852C136.705 78.3852 136.893 78.3332 137.053 78.2292C137.213 78.1252 137.377 77.9572 137.545 77.7252V73.7892H139.309V79.7412H137.869L137.737 78.9132H137.701C137.453 79.2092 137.181 79.4452 136.885 79.6212C136.589 79.7972 136.237 79.8852 135.829 79.8852Z" fill="#91CAFF"/>
<path d="M155.236 0.444911L7.77964 1.21533C3.48307 1.23778 0.0242752 5.90218 0.0542202 11.6336L0.367599 71.6134C0.397544 77.3448 3.90489 81.9728 8.20146 81.9503L155.658 81.1799C159.955 81.1575 163.414 76.4931 163.384 70.7617L163.07 10.7818C163.04 5.05046 159.533 0.422463 155.236 0.444911Z" fill="white"/>
<path d="M50.3788 55.3507C46.6504 55.3516 43.0055 54.2453 39.9052 52.1718C36.8049 50.0982 34.3885 47.1505 32.9617 43.7017C31.5349 40.2528 31.1619 36.4577 31.8897 32.7965C32.6175 29.1353 34.4136 25.7725 37.0506 23.1335C39.6876 20.4946 43.0472 18.698 46.7042 17.9711C50.3612 17.2442 54.1514 17.6196 57.5953 19.0499C61.0391 20.4801 63.9819 22.901 66.0514 26.0062C68.1208 29.1114 69.2239 32.7613 69.2212 36.4943C69.2212 38.9723 68.7337 41.426 67.7865 43.7154C66.8393 46.0047 65.451 48.0848 63.7008 49.8369C61.9507 51.589 59.873 52.9788 57.5864 53.9269C55.2998 54.8749 52.8491 55.3627 50.3741 55.3624L50.3788 55.3507ZM74.9053 30.1182C74.3157 27.836 73.4095 25.6479 72.2132 23.6177L74.9545 19.4913L71.1518 15.6839L67.3468 11.8741L63.2254 14.6188C61.1979 13.4206 59.0125 12.5133 56.733 11.9234L55.756 7.06738H44.9993L44.0246 11.9234C41.745 12.5128 39.5595 13.4202 37.5322 14.6188L33.4085 11.8741L29.6058 15.6839L25.8008 19.4913L28.5421 23.6177C27.3467 25.6484 26.4406 27.8364 25.85 30.1182L21 31.0964V41.8665L25.85 42.8447C26.4406 45.1265 27.3467 47.3145 28.5421 49.3452L25.8008 53.4716L29.6058 57.2814L33.4085 61.0888L37.5322 58.3441C39.5595 59.5427 41.745 60.4501 44.0246 61.0395L44.9993 65.8955H55.756L56.733 61.0395C59.0125 60.4496 61.1979 59.5423 63.2254 58.3441L67.3468 61.0888L71.1518 57.2814L74.9545 53.4716L72.2132 49.3452C73.4095 47.315 74.3157 45.1268 74.9053 42.8447L79.7553 41.8665V31.0988L74.9053 30.1205" fill="#FFA800"/>
<path d="M87.4582 68.2033C85.7492 68.2033 84.0785 67.6959 82.6575 66.7452C81.2365 65.7946 80.129 64.4434 79.475 62.8625C78.821 61.2816 78.6499 59.542 78.9833 57.8637C79.3167 56.1855 80.1397 54.6439 81.3481 53.4339C82.5566 52.224 84.0962 51.4 85.7724 51.0662C87.4486 50.7323 89.186 50.9037 90.7649 51.5585C92.3439 52.2133 93.6934 53.3222 94.6429 54.745C95.5924 56.1678 96.0991 57.8405 96.0991 59.5516C96.0991 61.8462 95.1888 64.0468 93.5683 65.6693C91.9478 67.2918 89.7499 68.2033 87.4582 68.2033ZM98.7046 56.6357C98.4326 55.5891 98.0162 54.5855 97.4675 53.654L98.7256 51.7632L96.9825 50.0155L95.2393 48.2702L93.3485 49.5299C92.418 48.9813 91.4157 48.5652 90.3705 48.2936L89.923 46.0674H85.0028L84.5552 48.2936C83.5098 48.5647 82.5075 48.9808 81.5773 49.5299L79.6888 48.2702L77.9433 50.0155L76.2001 51.7632L77.4583 53.654C76.9103 54.5856 76.4947 55.5892 76.2235 56.6357L74 57.0837V62.0101L76.2235 62.4582C76.4937 63.5043 76.9093 64.5072 77.4583 65.4375L76.2001 67.3306L77.9433 69.0759L79.6888 70.8213L81.5773 69.5639C82.5071 70.1132 83.5096 70.5286 84.5552 70.7979L85.0028 73.0241H89.923L90.3705 70.7979C91.416 70.5282 92.4184 70.1128 93.3485 69.5639L95.2393 70.8213L96.9825 69.0759L98.7256 67.3306L97.4675 65.4375C98.0162 64.5068 98.4326 63.504 98.7046 62.4582L100.926 62.0101V57.0837L98.7046 56.6357Z" fill="#8600C7"/>
<path d="M87.4582 68.2033C85.7492 68.2033 84.0785 67.6959 82.6575 66.7452C81.2365 65.7946 80.129 64.4434 79.475 62.8625C78.821 61.2816 78.6499 59.542 78.9833 57.8637C79.3167 56.1855 80.1397 54.6439 81.3481 53.4339C82.5566 52.224 84.0962 51.4 85.7724 51.0662C87.4486 50.7323 89.186 50.9037 90.7649 51.5585C92.3439 52.2133 93.6934 53.3222 94.6429 54.745C95.5924 56.1678 96.0991 57.8405 96.0991 59.5516C96.0991 61.8462 95.1888 64.0468 93.5683 65.6693C91.9478 67.2918 89.7499 68.2033 87.4582 68.2033ZM98.7046 56.6357C98.4326 55.5891 98.0162 54.5855 97.4675 53.654L98.7256 51.7632L96.9825 50.0155L95.2393 48.2702L93.3485 49.5299C92.418 48.9813 91.4157 48.5652 90.3705 48.2936L89.923 46.0674H85.0028L84.5552 48.2936C83.5098 48.5647 82.5075 48.9808 81.5773 49.5299L79.6888 48.2702L77.9433 50.0155L76.2001 51.7632L77.4583 53.654C76.9103 54.5856 76.4947 55.5892 76.2235 56.6357L74 57.0837V62.0101L76.2235 62.4582C76.4937 63.5043 76.9093 64.5072 77.4583 65.4375L76.2001 67.3306L77.9433 69.0759L79.6888 70.8213L81.5773 69.5639C82.5071 70.1132 83.5096 70.5286 84.5552 70.7979L85.0028 73.0241H89.923L90.3705 70.7979C91.416 70.5282 92.4184 70.1128 93.3485 69.5639L95.2393 70.8213L96.9825 69.0759L98.7256 67.3306L97.4675 65.4375C98.0162 64.5068 98.4326 63.504 98.7046 62.4582L100.926 62.0101V57.0837L98.7046 56.6357Z" fill="#8600C7"/>
<path d="M174.5 118.55H172.74V64.2183H174.5V118.55Z" fill="#6C6473"/>
<path d="M150.61 61.117H155.9V45.0295H150.61V61.117Z" fill="#4667A8"/>
<path d="M107 64.2241H184.403V61.1367H107V64.2241Z" fill="#6C6473"/>
<path d="M185.925 113.593C185.925 113.593 184.719 115.043 183.549 115.675C182.378 116.308 180.55 116.555 179.861 117.212C179.362 117.682 178.047 119.714 182.891 119.673C187.736 119.631 190.073 119.96 190.591 119.181C191.11 118.402 189.841 113.43 189.841 113.43C189.841 113.43 188.692 113.845 185.923 113.593" fill="#8600C7"/>
<path d="M161.526 113.615C161.526 113.615 160.32 115.064 159.15 115.695C157.979 116.326 153.689 116.847 153 117.499C152.503 117.973 151.675 119.879 158.492 119.695C163.334 119.57 165.671 119.982 166.192 119.203C166.713 118.423 165.44 113.452 165.44 113.452C165.44 113.452 164.36 113.892 161.522 113.615" fill="#8600C7"/>
<path d="M197.844 69.594C197.844 69.594 184.004 71.9398 180.877 72.4316C177.75 72.9233 160.805 77.145 158.686 78.4319C156.997 79.4551 159.569 104.055 160.17 113.438H166.846L167.331 85.2809C175.342 85.4792 181.058 83.405 186.89 84.2894C192.722 85.1738 197.585 86.4389 201.294 81.4598C201.294 81.4598 201.433 70.6747 197.844 69.5861" fill="#8600C7"/>
<path d="M184.202 113.454L190.708 113.058L191.342 85.2848C194.79 85.3721 195.972 85.152 198.765 84.8129L204.017 72.5902C199.412 73.5123 184.664 77.2362 182.697 78.4299C181.01 79.4551 183.602 104.075 184.202 113.46" fill="#8600C7"/>
<path d="M191.471 17.6414C191.471 17.6414 186.397 16.2375 184.462 20.1795C182.527 24.1216 183.404 31.5992 185.961 32.3031C188.518 33.007 192.196 32.196 193.255 29.7412C194.315 27.2863 195.164 23.7924 194.911 21.5418C194.657 19.2911 192.817 18.1807 191.471 17.6414Z" fill="white"/>
<path d="M187.29 31.5218C187.29 31.5218 187.343 34.52 187.015 35.1605C186.686 35.801 194.079 35.6384 194.079 35.6384C194.079 35.6384 192.915 32.0374 193.574 28.9698C194.234 25.9022 187.29 31.5218 187.29 31.5218Z" fill="white"/>
<path d="M193.972 27.8336C193.972 27.8336 193.576 28.6387 191.663 28.5078C189.75 28.3769 187.225 26.0668 186.413 25.8606C185.601 25.6544 185.551 25.1904 185.551 25.1904L185.121 25.9558L184.29 26.0827C184.29 26.0827 184.854 23.7666 183.622 22.9497C182.39 22.1327 184.177 15.5613 190.417 17.1477C190.417 17.1477 195.18 18.0202 195.246 20.6852C195.311 23.3502 194.897 26.4237 193.972 27.8336Z" fill="#FFA800"/>
<path d="M185.104 24.6452C185.246 23.6438 186.383 22.4937 187.033 24.0503C187.682 25.6069 186.593 27.8813 185.864 27.7603C185.135 27.6394 184.911 26.0015 185.104 24.6432" fill="white"/>
<path d="M206.736 116.748L206.275 118.045L186.832 112.013L187.763 109.389L206.736 116.748Z" fill="#918783"/>
<path d="M186.165 111.088H188.375V89.9248H186.165V111.088Z" fill="#918783"/>
<path d="M180.752 90.0478H193.786V88.8005H180.752V90.0478Z" fill="#5E5854"/>
<path d="M167.634 116.748L168.095 118.045L187.538 112.013L186.684 109.223L167.634 116.758" fill="#918783"/>
<path d="M181.333 117.906V119.413L187.538 112.013L186.684 109.223L181.337 117.906" fill="#918783"/>
<path d="M181.172 118.55C181.172 118.91 181.278 119.263 181.478 119.562C181.677 119.862 181.961 120.095 182.293 120.234C182.625 120.372 182.991 120.408 183.344 120.338C183.697 120.268 184.021 120.095 184.275 119.84C184.53 119.586 184.703 119.261 184.773 118.908C184.844 118.555 184.808 118.189 184.67 117.856C184.533 117.523 184.3 117.239 184.001 117.039C183.702 116.839 183.35 116.732 182.99 116.732C182.509 116.732 182.046 116.923 181.706 117.264C181.365 117.605 181.173 118.068 181.172 118.55Z" fill="#BFB2AC"/>
<path d="M204.918 118.55C204.918 118.91 205.024 119.263 205.224 119.562C205.423 119.862 205.707 120.095 206.039 120.234C206.371 120.372 206.737 120.408 207.09 120.338C207.442 120.268 207.767 120.095 208.021 119.84C208.276 119.586 208.449 119.261 208.519 118.908C208.589 118.555 208.554 118.189 208.416 117.856C208.279 117.523 208.045 117.239 207.746 117.039C207.447 116.839 207.096 116.732 206.736 116.732C206.254 116.732 205.792 116.923 205.451 117.264C205.11 117.605 204.919 118.068 204.918 118.55Z" fill="#BFB2AC"/>
<path d="M116.902 118.55H118.663V64.2183H116.902V118.55Z" fill="#6C6473"/>
<path d="M132.738 52.7768H173.773C174.389 52.7768 174.98 52.532 175.415 52.0962C175.851 51.6605 176.096 51.0694 176.096 50.4528V22.8387C176.096 22.2218 175.852 21.6301 175.416 21.1939C174.98 20.7577 174.389 20.5127 173.773 20.5127H132.738C132.122 20.5127 131.531 20.7577 131.095 21.1939C130.66 21.6301 130.415 22.2218 130.415 22.8387V50.4528C130.416 51.0694 130.661 51.6605 131.096 52.0962C131.532 52.532 132.122 52.7768 132.738 52.7768Z" fill="#5F8BE3"/>
<path d="M132.203 47.7205H174.306V22.2557H132.203V47.7205Z" fill="#F5F7FF"/>
<path d="M132.203 24.2823H174.306V22.2557H132.203V24.2823Z" fill="#CECFD6"/>
<path d="M135.198 46.1539H137.404C137.593 46.1539 137.78 46.1166 137.954 46.0443C138.129 45.972 138.287 45.8659 138.421 45.7322C138.554 45.5986 138.66 45.4399 138.732 45.2652C138.805 45.0906 138.842 44.9034 138.842 44.7143V27.2467C138.842 27.0577 138.805 26.8705 138.732 26.6958C138.66 26.5212 138.554 26.3625 138.421 26.2288C138.287 26.0951 138.129 25.9891 137.954 25.9167C137.78 25.8444 137.593 25.8071 137.404 25.8071H135.204C134.822 25.8071 134.457 25.9588 134.187 26.2288C133.917 26.4988 133.766 26.8649 133.766 27.2467V44.7143C133.766 45.0961 133.917 45.4623 134.187 45.7322C134.457 46.0022 134.822 46.1539 135.204 46.1539" fill="#00FFD1"/>
<path d="M164.634 27.6909H172.339C172.441 27.6912 172.542 27.6713 172.636 27.6325C172.731 27.5936 172.816 27.5366 172.888 27.4645C172.96 27.3925 173.018 27.307 173.057 27.2128C173.096 27.1186 173.116 27.0176 173.116 26.9156V26.5845C173.116 26.3783 173.034 26.1806 172.888 26.0348C172.743 25.889 172.545 25.8071 172.339 25.8071H164.634C164.428 25.8071 164.23 25.889 164.085 26.0348C163.939 26.1806 163.857 26.3783 163.857 26.5845V26.9156C163.857 27.0176 163.877 27.1186 163.916 27.2128C163.955 27.307 164.013 27.3925 164.085 27.4645C164.157 27.5366 164.242 27.5936 164.337 27.6325C164.431 27.6713 164.532 27.6912 164.634 27.6909Z" fill="#CECFD6"/>
<path d="M165.459 46.6733H171.512C171.937 46.6733 172.345 46.5041 172.646 46.2029C172.947 45.9017 173.116 45.4932 173.116 45.0672V30.5601C173.116 30.1341 172.947 29.7256 172.646 29.4244C172.345 29.1232 171.937 28.954 171.512 28.954H165.459C165.034 28.9545 164.627 29.124 164.326 29.4251C164.026 29.7263 163.857 30.1345 163.857 30.5601V45.0672C163.857 45.4928 164.026 45.901 164.326 46.2022C164.627 46.5033 165.034 46.6728 165.459 46.6733Z" fill="#00FFD1"/>
<path d="M151.782 50.1614C151.783 50.4531 151.869 50.7381 152.032 50.9804C152.194 51.2228 152.424 51.4116 152.693 51.5229C152.962 51.6343 153.259 51.6633 153.544 51.6061C153.83 51.549 154.092 51.4083 154.298 51.2019C154.504 50.9955 154.644 50.7326 154.701 50.4465C154.758 50.1603 154.728 49.8638 154.617 49.5944C154.505 49.3249 154.316 49.0946 154.074 48.9326C153.832 48.7706 153.547 48.6841 153.256 48.6841C153.062 48.6841 152.87 48.7223 152.691 48.7965C152.512 48.8708 152.35 48.9797 152.213 49.1169C152.076 49.2541 151.968 49.4169 151.894 49.5962C151.82 49.7754 151.782 49.9675 151.782 50.1614Z" fill="#59524F"/>
<path d="M143.799 61.1764V60.6033C143.799 60.6033 144.605 57.0341 150.307 57.0341C156.009 57.0341 155.896 61.1784 155.896 61.1784H143.799" fill="#314875"/>
<path d="M155.963 57.5636C155.963 57.5636 154.725 57.4664 154.27 57.1927C153.814 56.9191 151.101 55.0889 150.463 55.3823C149.826 55.6758 145.581 56.9687 145.728 57.5992C145.875 58.2298 146.269 58.1604 146.568 58.0494C146.867 57.9383 149.95 57.2919 150.222 57.4009C150.222 57.4009 147.196 58.5074 147.182 59.3144C147.168 60.1215 147.815 60.3178 148.103 60.6212C148.39 60.9246 148.734 61.686 149.515 61.7435C150.295 61.801 154.101 60.4764 154.886 60.415C155.67 60.3535 157.12 60.4626 157.219 60.3357C157.318 60.2088 155.963 57.5596 155.963 57.5596" fill="white"/>
<path d="M178.517 36.7746C182.468 36.0806 186.625 35.0831 186.625 35.0831L193.982 34.7817C193.982 34.7817 200.733 36.2709 203.393 37.4726C203.645 37.5876 203.647 43.5046 204.338 45.0553L202.134 49.7112C202.134 49.7112 200.86 58.9357 200.597 63.0384C200.474 64.9221 200.939 81.2396 200.939 81.2396C200.939 81.2396 200.278 81.5668 195.257 82.12C190.237 82.6732 177.693 81.9217 177.613 81.3268C177.534 80.732 180.042 59.2173 180.152 58.1029C180.323 56.3936 179.661 48.4917 179.661 48.4917C178.715 49.7647 176.294 55.5092 173.789 58.2437C172.31 59.8518 164.988 60.8373 163.608 60.8829C160.605 60.9841 155.123 61.5829 154.963 61.2795C154.836 61.105 154.486 56.4095 154.83 56.2944C155.131 56.1953 165.307 55.6064 167.915 54.2223C168.868 53.7147 171.72 47.4804 171.72 47.4804C171.72 47.4804 176.338 37.7363 178.517 36.7547" fill="#8600C7"/>
<path d="M193.016 80.7677H205.366C206.552 80.7677 207.689 80.296 208.528 79.4563C209.366 78.6166 209.838 77.4777 209.838 76.2902V55.7134C209.838 54.5258 209.367 53.3867 208.528 52.5467C207.689 51.7067 206.552 51.2345 205.366 51.234H193.016C191.829 51.2345 190.692 51.7067 189.853 52.5467C189.015 53.3867 188.544 54.5258 188.544 55.7134V76.2863C188.544 77.4737 189.015 78.6126 189.853 79.4523C190.692 80.292 191.83 80.7637 193.016 80.7637" fill="#E2D2CA"/>
<path d="M192.316 87.6246C195.456 87.6246 198.002 86.5678 199.886 84.4877C204.142 79.7803 203.377 71.5095 203.342 71.1585C203.339 70.9939 203.303 70.8317 203.234 70.682C203.166 70.5324 203.067 70.3985 202.944 70.289C202.822 70.1794 202.678 70.0966 202.521 70.0456C202.365 69.9947 202.2 69.9767 202.036 69.993C201.873 70.0092 201.714 70.0593 201.571 70.14C201.428 70.2207 201.303 70.3302 201.204 70.4618C201.105 70.5933 201.035 70.7439 200.997 70.9041C200.959 71.0643 200.955 71.2306 200.985 71.3925C200.985 71.4877 201.672 78.9851 198.125 82.8934C196.689 84.4798 194.79 85.2471 192.316 85.2471C192.001 85.2471 191.699 85.3725 191.476 85.5956C191.253 85.8187 191.128 86.1213 191.128 86.4369C191.128 86.7524 191.253 87.055 191.476 87.2782C191.699 87.5013 192.001 87.6266 192.316 87.6266" fill="#E2D2CA"/>
<path d="M153.866 32.664C153.866 33.8405 153.517 34.9906 152.864 35.9689C152.212 36.9472 151.284 37.7097 150.198 38.1599C149.112 38.6102 147.918 38.728 146.765 38.4984C145.613 38.2689 144.554 37.7023 143.723 36.8704C142.892 36.0384 142.326 34.9785 142.097 33.8245C141.868 32.6706 141.985 31.4745 142.435 30.3875C142.885 29.3005 143.646 28.3714 144.623 27.7178C145.6 27.0641 146.749 26.7152 147.924 26.7152C149.5 26.7152 151.011 27.342 152.125 28.4576C153.24 29.5732 153.866 31.0863 153.866 32.664Z" fill="#EEF0F7"/>
<path d="M151.792 35.9497L151.354 37.5361C150.554 38.1051 149.624 38.4656 148.649 38.5851C148.472 38.6073 148.293 38.6205 148.114 38.6247C148.049 38.6247 147.986 38.6247 147.916 38.6247C147.726 38.6256 147.536 38.6163 147.346 38.5969C147.138 38.5778 146.931 38.5473 146.726 38.5057C145.842 38.3268 145.011 37.9469 144.296 37.3953C144.211 36.8738 144.12 36.2987 144.041 35.7574C144.478 35.5948 145.871 35.1208 146.748 34.8254L146.784 34.8115L146.841 34.7937L146.99 34.7421L147.126 34.6965L147.479 34.5775H147.495H147.506L148.695 34.6668L148.893 34.6806H148.954H148.98C149.051 34.6985 149.259 34.752 149.532 34.8373C150.232 35.0514 151.364 35.458 151.792 35.9497Z" fill="#D9C7C1"/>
<path d="M148.229 29.7075C148.229 29.7075 149.643 29.9474 149.404 32.1663C149.164 34.3852 147.914 34.1909 147.831 34.1869C147.748 34.1829 146.574 34.2147 146.512 31.5C146.512 31.5 146.494 29.4953 148.229 29.7154" fill="white"/>
<path d="M149.525 31.3512C149.475 31.6546 149.43 31.8807 149.43 31.8807L149.231 32.1504C149.24 31.9202 149.233 31.6897 149.212 31.4603C149.2 31.4246 149.186 31.3612 149.172 31.2938C149.148 31.1827 149.123 31.0558 149.107 31.0122C149.091 30.9686 147.893 30.5978 146.837 31.0856C146.837 31.0856 146.837 31.1768 146.837 31.2839C146.837 31.3909 146.823 31.5357 146.77 31.5555C146.667 31.5932 146.71 32.2515 146.71 32.2515L146.544 32.0631C146.544 32.0631 146.496 31.7181 146.449 31.3215C146.439 31.2283 146.429 31.1332 146.417 31.038C146.395 30.6414 146.433 29.9157 146.952 29.4893C147.302 29.3406 147.861 29.2137 148.792 29.4993C148.887 29.5024 148.98 29.5267 149.065 29.5706C149.645 30.2091 149.525 31.3552 149.525 31.3552" fill="#23172D"/>
<path d="M146.845 34.7876C146.964 34.9816 147.124 35.1468 147.314 35.2716C147.504 35.3963 147.719 35.4776 147.944 35.5094C148.402 35.5491 148.798 34.9701 148.982 34.6865C148.637 34.5598 148.27 34.5035 147.903 34.5209C147.536 34.5383 147.176 34.629 146.845 34.7876Z" fill="white"/>
<path d="M152.172 35.8565C152.172 35.8677 152.172 35.879 152.172 35.8902C152.135 36.0191 151.996 36.5128 151.816 37.1692C151.749 37.2287 151.677 37.2862 151.608 37.3417C151.539 37.3973 151.446 37.4666 151.362 37.5261C150.562 38.0951 149.632 38.4556 148.657 38.5751C148.746 36.5129 148.99 34.6865 148.99 34.6865C149.188 34.7361 149.366 34.7877 149.538 34.8372C150.415 35.0642 151.265 35.3853 152.073 35.795L152.172 35.8545" fill="#AC00FF"/>
<path d="M146.73 38.4997C145.846 38.3208 145.014 37.9409 144.3 37.3893C144.09 37.2271 143.891 37.0501 143.706 36.8599L143.597 36.7469L143.419 35.9973C143.419 35.9973 144.155 35.5115 146.758 34.8076C146.758 34.8651 146.758 36.5386 146.736 38.4878" fill="#AC00FF"/>
<path d="M148.132 35.8189C148.109 36.3602 148.107 37.4052 148.114 38.6148C148.049 38.6148 147.986 38.6148 147.916 38.6148C147.726 38.6157 147.536 38.6064 147.346 38.587C147.407 37.6528 147.539 36.7247 147.742 35.8109C147.772 35.69 147.79 35.6305 147.79 35.6305L148.138 35.688C148.138 35.7257 148.138 35.7673 148.138 35.8129" fill="#5073AB"/>
<path d="M143.7 36.8599L143.591 36.7469C143.458 36.606 143.331 36.4584 143.213 36.3047C143.25 36.1861 143.318 36.0797 143.411 35.9973L143.698 36.8599" fill="#AC00FF"/>
</svg>
