<svg width="199" height="129" viewBox="0 0 199 129" fill="none" xmlns="http://www.w3.org/2000/svg">
<path d="M189.341 0.23584H9.48877C4.24827 0.23584 0 4.49445 0 9.74771V64.724C0 69.9772 4.24827 74.2358 9.48877 74.2358H189.341C194.581 74.2358 198.829 69.9772 198.829 64.724V9.74771C198.829 4.49445 194.581 0.23584 189.341 0.23584Z" fill="white"/>
<path d="M181.873 21.4788H157.574V23.9219H181.873V21.4788Z" fill="#AC00FF"/>
<path d="M185.502 29.0442H157.574V31.4873H185.502V29.0442Z" fill="#00FFD1"/>
<path d="M171.982 36.5671H157.531V39.0103H171.982V36.5671Z" fill="#AC00FF"/>
<path d="M179.793 44.0918H157.531V46.5349H179.793V44.0918Z" fill="#AC00FF"/>
<path d="M47.6043 67.438H25.9459V70.1132H47.6043V67.438Z" fill="#00FFD1"/>
<path d="M52.8585 62.6738H20.6917V65.3491H52.8585V62.6738Z" fill="#00FFD1"/>
<path d="M42.4111 25.9577C42.4111 27.4446 41.8221 28.8706 40.7737 29.9224C39.7252 30.9742 38.3031 31.5656 36.8198 31.5667C35.3369 31.5667 33.9147 30.9762 32.8661 29.925C31.8175 28.8739 31.2285 27.4483 31.2285 25.9618C31.2282 25.2255 31.3726 24.4963 31.6534 23.8159C31.9343 23.1356 32.3461 22.5173 32.8653 21.9965C33.3845 21.4756 34.0009 21.0624 34.6795 20.7804C35.358 20.4983 36.0852 20.3531 36.8198 20.3528C38.3025 20.3528 39.7246 20.943 40.7734 21.9936C41.8222 23.0442 42.412 24.4693 42.4131 25.9557L42.4111 25.9577Z" fill="#FFA800"/>
<path d="M46.9117 44.2282V54.8925C43.7269 56.338 40.2711 57.0858 36.7751 57.0858C33.279 57.0858 29.8232 56.338 26.6384 54.8925V44.2282C26.6384 41.5333 27.7064 38.9487 29.6074 37.0431C31.5084 35.1375 34.0867 34.0669 36.7751 34.0669C39.4635 34.0669 42.0418 35.1375 43.9428 37.0431C45.8438 38.9487 46.9117 41.5333 46.9117 44.2282Z" fill="#FFA800"/>
<path d="M76.8038 27.4114H75.4735V59.742H76.8038V27.4114Z" fill="#AC00FF"/>
<path d="M82.913 27.4114H81.5827V59.742H82.913V27.4114Z" fill="#AC00FF"/>
<path d="M89.0243 27.4114H87.6939V59.742H89.0243V27.4114Z" fill="#AC00FF"/>
<path d="M95.1375 27.4114H93.8072V59.742H95.1375V27.4114Z" fill="#AC00FF"/>
<path d="M101.249 27.4114H99.9185V59.742H101.249V27.4114Z" fill="#AC00FF"/>
<path d="M107.36 27.4114H106.03V59.742H107.36V27.4114Z" fill="#AC00FF"/>
<path d="M113.471 27.4114H112.141V59.742H113.471V27.4114Z" fill="#AC00FF"/>
<path d="M119.58 27.4114H118.25V59.742H119.58V27.4114Z" fill="#AC00FF"/>
<path d="M125.694 27.4114H124.363V59.742H125.694V27.4114Z" fill="#AC00FF"/>
<path d="M131.805 27.4114H130.475V59.742H131.805V27.4114Z" fill="#AC00FF"/>
<path d="M137.916 27.4114H136.586V59.742H137.916V27.4114Z" fill="#AC00FF"/>
<path d="M144.027 27.4114H142.697V59.742H144.027V27.4114Z" fill="#AC00FF"/>
<path d="M76.8038 37.0781H75.4735V59.7421H76.8038V37.0781Z" fill="#FFA800"/>
<path d="M89.0243 32.0779H87.6939V59.7421H89.0243V32.0779Z" fill="#FFA800"/>
<path d="M142.066 54.7493L133.053 59.7165L124 45.4372L134.949 41.6255L142.066 54.7493Z" fill="#23172D"/>
<path d="M141.495 54.321L133.064 58.9662L124.6 45.6121L134.839 42.0466L141.495 54.321Z" fill="#CECBD0"/>
<path d="M132.614 57.9259C132.614 57.9259 131.295 56.7355 130.657 56.2386C130.019 55.7418 128.823 54.2774 128.647 54.1987C128.471 54.12 126.185 49.4108 125.813 49.2228C125.44 49.0348 126.164 48.401 126.952 49.539C127.74 50.677 129.132 52.1384 129.654 52.032C130.176 51.9257 129.727 50.4977 130.073 50.1918C130.419 49.8858 130.4 50.1014 130.567 50.2646C130.734 50.4278 130.532 52.1996 131.021 52.7416C131.509 53.2837 131.602 54.3838 131.962 54.8005C132.323 55.2172 134.096 57.2484 134.096 57.2484L132.614 57.9259Z" fill="white"/>
<path d="M161.285 123.513C161.285 123.513 160.292 124.708 159.331 125.229C158.37 125.751 156.86 125.958 156.292 126.496C155.882 126.885 154.798 128.562 158.789 128.527C162.78 128.492 164.705 128.764 165.132 128.122C165.559 127.479 164.513 123.379 164.513 123.379C164.513 123.379 163.568 123.72 161.285 123.513Z" fill="#00FFD1"/>
<path d="M138.816 123.513C138.816 123.513 137.823 124.708 136.861 125.229C135.899 125.751 132.365 126.178 131.795 126.717C131.385 127.108 130.704 128.674 136.319 128.527C140.31 128.423 142.235 128.764 142.662 128.122C143.089 127.479 142.043 123.379 142.043 123.379C142.043 123.379 141.153 123.743 138.816 123.513Z" fill="#00FFD1"/>
<path d="M158.401 70.5076C158.401 70.5076 161.349 75.1993 161.128 79.4423C160.907 83.6853 162.196 88.3159 162.639 92.7469C163.132 97.6878 165.152 109.382 165.225 112.025C165.298 114.668 164.913 123.099 164.913 123.099L160.87 123.192C160.87 123.192 157.475 102.755 156.596 100.669C155.716 98.5824 151.35 83.7086 151.204 82.0403C151.059 80.3719 158.401 70.5076 158.401 70.5076Z" fill="#AC00FF"/>
<path d="M142.89 71.1457C142.89 71.1457 140.669 82.7717 140.377 85.3682C140.085 87.9647 139.889 97.934 139.74 99.5572C139.592 101.18 138.764 120.791 137.982 123.203H143.15C143.15 123.203 147.117 108.945 147.117 102.199C147.117 95.4526 150.183 87.5349 152.161 83.0835C154.139 78.6322 158.667 78.5272 159.885 70.27C159.885 70.27 144.536 68.5259 142.89 71.1457Z" fill="#AC00FF"/>
<path d="M154.767 39.3801C154.767 39.3801 154.393 39.995 152.877 39.7561C151.361 39.5171 149.502 37.4903 148.869 37.2674C148.235 37.0445 148.228 36.6714 148.228 36.6714L147.829 37.2543L147.156 37.298C147.156 37.298 147.771 35.4839 146.844 34.7437C145.916 34.0036 147.806 28.8732 152.681 30.5824C152.681 30.5824 156.425 31.6169 156.29 33.7515C156.155 35.8861 155.604 38.3165 154.767 39.3801Z" fill="#23172D"/>
<path d="M148.053 44.0661C148.053 44.0661 148.07 43.0592 148.525 42.9631C148.98 42.8669 153.555 42.4254 154.113 42.6454V43.8198C154.113 43.8198 153.036 44.4843 148.053 44.0661Z" fill="#CECBD0"/>
<path d="M148.323 35.895C148.409 35.5365 149.318 34.5137 149.665 35.6036C150.012 36.6934 149.139 38.1724 148.648 38.0471C148.156 37.9217 148.108 36.8027 148.323 35.895Z" fill="white"/>
<path d="M161.725 81.6893C161.725 81.6893 159.299 82.4061 155.164 82.8549C151.028 83.3037 140.694 82.6903 140.628 82.2007C140.563 81.7111 142.851 63.9611 142.721 63.046C142.592 62.131 142.521 58.8759 142.521 58.8759C142.47 59.7676 141.563 63.4132 140.469 65.4007C140.072 66.119 138.746 68.3687 138.107 67.8573C135.01 65.3803 130.217 56.0405 129.913 55.9632C130.167 55.851 132.183 54.92 132.467 54.8253C132.715 54.7437 134.948 57.1143 136.301 58.583C136.904 59.2387 137.333 59.7137 137.333 59.7137C137.724 58.8395 139.147 53.2808 139.591 51.3589C140.588 47.0241 140.434 46.842 140.434 46.842C143.46 45.924 148.053 44.056 148.053 44.056L154.113 43.8083C154.113 43.8083 159.676 45.0367 161.866 46.0275C162.074 46.1222 162.075 51.0019 162.645 52.2812L160.828 56.1221C160.828 56.1221 159.78 63.7469 159.562 67.1244C159.462 68.6776 161.725 81.6893 161.725 81.6893Z" fill="#FFA800"/>
<path d="M162.897 58.6282C162.738 59.1396 162.024 59.5724 161.552 59.7618C161.245 59.8869 160.908 59.9207 160.583 59.8594L160.346 59.8157L156.193 59.0434C156.193 59.0434 155.284 48.5525 161.862 46.0376C162.04 46.0944 164.35 53.9306 162.897 58.6282Z" fill="#FFA800"/>
<path d="M161.552 59.7617C161.245 59.8868 160.908 59.9207 160.583 59.8593L160.346 59.8156L160.755 54.4536L161.552 59.7617Z" fill="#762020"/>
<path d="M137.333 59.7252L136.826 61.8802C136.826 61.8802 136.275 59.7179 136.301 58.5945C136.904 59.2458 137.333 59.7252 137.333 59.7252Z" fill="#762020"/>
<path d="M154.611 31.41C154.611 31.41 159.793 30.7601 154.699 39.4384L154.611 31.41Z" fill="#23172D"/>
<path d="M128.167 44.6709L127.641 43.7646L131.791 42.3293L132.319 43.2313L128.167 44.6709Z" fill="#23172D"/>
</svg>
