<svg width="195" height="117" viewBox="0 0 195 117" fill="none" xmlns="http://www.w3.org/2000/svg">
<path d="M141.299 0.0475746L7.0812 0.74883C3.17036 0.769263 0.0205596 4.72088 0.0459212 9.57501L0.311334 60.3743C0.336696 65.2285 3.52762 69.1469 7.43845 69.1265L141.657 68.4252C145.568 68.4048 148.717 64.4532 148.692 59.5991L148.427 8.79976C148.401 3.94563 145.21 0.0271415 141.299 0.0475746Z" fill="#CECBD0"/>
<rect x="77" y="19" width="43" height="5" rx="2.5" fill="#BDAFAA"/>
<rect x="77" y="29" width="43" height="5" rx="2.5" fill="#BDAFAA"/>
<rect x="77" y="39" width="43" height="5" rx="2.5" fill="#BDAFAA"/>
<circle cx="31" cy="33" r="22" fill="#6C6473"/>
<path d="M48.346 111.335C48.346 111.335 47.8042 112.557 47.3465 113.042C46.8888 113.527 45.1341 114.392 45.1248 115.833C45.1154 117.391 48.0829 116.96 49.2397 116.902C50.3965 116.844 50.4852 116.012 50.9756 115.128C51.4661 114.244 51.9565 114.394 52.0484 113.681C52.1402 112.969 51.6747 111.374 51.6747 111.374L48.346 111.335Z" fill="#8600C7"/>
<path d="M48.2962 110.885L48.2106 111.624C48.2106 111.624 50.0353 112.236 51.7588 111.689L51.6638 110.677L48.2962 110.885Z" fill="#4F4946"/>
<path d="M69.7318 111.335C69.7318 111.335 70.2752 112.557 70.7313 113.042C71.1875 113.527 72.9437 114.392 72.9531 115.833C72.9624 117.391 69.9949 116.96 68.8381 116.902C67.6813 116.844 67.5926 116.012 67.1022 115.128C66.6117 114.244 66.1213 114.394 66.0295 113.681C65.9376 112.969 66.4031 111.374 66.4031 111.374L69.7318 111.335Z" fill="#8600C7"/>
<path d="M69.7816 110.885L69.8672 111.624C69.8672 111.624 68.0425 112.236 66.3175 111.689L66.414 110.677L69.7816 110.885Z" fill="#4F4946"/>
<path d="M68.8226 91.192C68.8226 93.1156 70.6177 110.678 70.6177 110.678C70.4106 111.318 66.0077 111.24 65.3242 110.921C64.6407 110.601 62.6416 93.1951 62.5139 91.2559C62.3863 89.3167 59.5215 72.4485 58.919 72.5124C58.3165 72.5763 55.4627 90.6527 54.9816 92.1273C54.5005 93.602 52.3208 111.088 52.3208 111.088C50.8106 111.92 47.2173 110.877 47.2173 110.877C47.2173 110.877 47.9708 92.927 48.0564 92.3845C48.1841 91.5817 48.0565 89.4227 48.4006 84.6215C48.7119 80.33 49.8422 70.9863 50.5584 65.9247C50.5833 65.7454 50.6082 65.5724 50.6316 65.4072C50.7717 64.422 50.8776 63.6924 50.929 63.351C50.9508 63.1952 50.9617 63.1219 50.9617 63.1219C51.1547 63.0393 51.3571 62.966 51.5673 62.8912C56.5977 61.2045 66.1711 61.3121 66.1711 61.3121C66.1711 61.3121 66.3035 63.0268 66.3143 63.1188C66.3252 63.2108 66.3486 63.3791 66.3735 63.5864C66.4296 64.0323 66.5137 64.6963 66.6086 65.468C66.6086 65.468 66.6086 65.4789 66.6086 65.4851L66.6179 65.5553C66.9558 68.3004 67.4338 72.3175 67.3964 72.7353C67.3263 73.376 68.8303 89.2684 68.8303 91.192" fill="#FFA800"/>
<path d="M69.5387 34.3004L67.0679 43.1858C66.9839 43.4742 66.8826 43.8281 66.7752 44.2396V44.2552C66.7745 44.2588 66.7745 44.2625 66.7752 44.2661C66.2022 46.451 65.8424 48.6865 65.701 50.9411C65.5982 52.7681 65.9361 60.1117 65.9361 60.1117C65.9361 60.1117 62.1995 61.5147 56.5946 61.1546C56.5946 61.1546 50.5756 61.0143 51.066 57.3199C52.3645 47.5397 51.0956 43.507 50.9243 42.5265C50.9243 42.5265 50.2144 38.0198 49.629 34.0401C51.3229 33.4166 58.452 30.7291 58.452 30.7291L62.1995 31.0097C62.1995 31.0097 67.8962 32.4127 69.5403 34.3082" fill="#D9C7C1"/>
<path d="M60.3312 18.1726C60.3312 18.1726 63.9884 18.7961 63.3687 24.5248C62.7491 30.2536 59.5184 29.7532 59.302 29.7454C59.0856 29.7376 56.0543 29.814 55.894 22.8023C55.894 22.8023 55.8488 17.6192 60.3312 18.1726" fill="white"/>
<path d="M61.927 28.0821C61.927 28.0821 61.8009 30.4422 62.0235 30.9567C62.2462 31.4711 59.0856 33.0954 57.1223 31.2435C57.1223 31.2435 57.5193 28.6652 57.3963 27.7532C57.2733 26.8413 61.927 28.0821 61.927 28.0821" fill="white"/>
<path d="M63.6769 22.4173C63.5508 23.1968 63.4309 23.7844 63.4309 23.7844L62.8985 24.4812C62.8985 24.4812 62.9296 22.9411 62.8486 22.6995C62.8175 22.6075 62.7817 22.4454 62.7443 22.2692C62.6836 21.9793 62.6213 21.6457 62.5777 21.5428C62.5092 21.3698 59.4421 20.4719 56.7113 21.7314C56.7113 21.7314 56.7346 21.9684 56.7331 22.2318C56.7331 22.5436 56.6973 22.8834 56.5572 22.9349C56.2956 23.0315 56.4015 24.7369 56.4015 24.7369L55.9749 24.2459C55.9749 24.2459 55.8519 23.3542 55.732 22.33C55.704 22.0915 55.676 21.8452 55.6495 21.6021C55.5888 20.5732 55.69 18.7026 57.0305 17.6036C57.935 17.2155 60.4043 16.8242 61.7837 17.6239C61.7837 17.6239 62.5217 18.0915 62.6774 18.2318C64.1751 19.8842 63.6754 22.4251 63.6754 22.4251" fill="#23172D"/>
<path d="M56.7565 31.2871C56.7565 31.2871 57.7358 33.0019 59.5963 33.1578C60.7764 33.2591 61.7884 31.7548 62.268 31.0237C61.3778 30.699 60.4321 30.5551 59.4858 30.6003C58.5395 30.6455 57.6117 30.879 56.7565 31.2871" fill="white"/>
<path d="M61.9379 30.4937C61.9379 30.4937 61.189 31.4742 59.6025 32.5202L60.5927 34.0494L62.2835 31.0191L61.9441 30.4906" fill="#EDDAD3"/>
<path d="M50.8604 61.8125C50.8604 61.8125 55.4502 63.5069 65.8302 61.9106L65.6931 60.0291C65.6931 60.0291 59.6757 61.8062 51.0426 60.2832L50.8604 61.8125Z" fill="#1A2833"/>
<path d="M62.2773 31.0222C62.2773 31.0222 61.2031 39.0611 61.351 45.9871C61.4989 52.913 63.7439 65.8935 63.7439 65.8935C63.7439 65.8935 67.7468 65.5022 68.7401 64.2489C68.7401 64.2489 66.4436 51.7516 66.509 49.9075C66.5744 48.0634 69.4532 34.1274 69.4532 34.1274C69.4532 34.1274 68.3275 32.6246 62.2773 31.0299" fill="#AC00FF"/>
<path d="M56.5323 31.443C56.5323 31.443 56.523 39.0611 56.3766 45.9855C56.2303 52.9099 55.3195 65.7999 55.3195 65.7999C55.3195 65.7999 50.6223 65.1312 49.629 63.8779C49.629 63.8779 51.2839 51.7516 51.2186 49.8997C51.1532 48.0478 49.0949 34.2489 49.0949 34.2489C49.0949 34.2489 49.8065 33.2325 56.5323 31.443Z" fill="#AC00FF"/>
<path d="M59.9404 62.7072H57.1193V60.6075H59.9404V62.7072Z" fill="#3E5E78"/>
<path d="M59.1977 33.4898C59.1977 33.4898 57.9382 37.7953 57.8276 46.344C57.7171 54.8927 57.9833 57.3448 57.9833 57.3448L58.9673 59.2933L60.2782 57.2668C60.2782 57.2668 59.8578 37.5942 60.1007 33.6457L59.1993 33.4898" fill="#5073AB"/>
<path d="M64.4569 45.521C64.4569 45.521 66.3252 44.5857 66.579 44.4173C66.8328 44.249 69.9513 43.7938 70.3436 43.8032C70.736 43.8125 70.7531 44.129 70.6426 44.2397C70.532 44.3503 67.4197 44.8632 67.3652 44.938C67.3108 45.0128 67.6284 44.9832 67.6284 44.9832C67.6284 44.9832 70.9835 44.9333 71.2186 45.1578C71.4537 45.3823 71.1844 45.5958 71.0474 45.6519C71.0474 45.6519 71.3587 46.0027 70.9991 46.1477C70.73 46.2495 70.453 46.3287 70.1708 46.3846C70.1708 46.3846 70.613 46.6137 70.3265 46.8179C70.04 47.0221 66.4794 48.1242 66.4794 48.1242C66.4794 48.1242 65.1576 45.5927 64.4554 45.521" fill="white"/>
<path d="M70.8621 51.9559C68.4395 52.5342 62.8377 51.5942 60.7048 51.1234C60.2533 51.0237 59.7411 50.9192 59.2164 50.8116C58.343 50.6386 57.4322 50.4718 56.6926 50.344C55.7818 50.1803 55.1357 50.0712 55.1357 50.0712C55.1357 50.0712 66.8888 47.4212 67.3232 47.4212C67.7576 47.4212 66.2334 40.542 66.2334 40.542C66.2334 40.542 64.7185 34.7743 65.5047 32.5155C65.5047 32.5155 68.4878 33.4212 69.4531 34.1118C69.9902 34.4968 70.3872 36.9956 70.7531 38.6948C71.2202 40.8475 72.2991 45.7532 72.4221 46.7883C72.5342 47.7314 73.2862 51.3682 70.8652 51.9481" fill="#AC00FF"/>
<path d="M52.8767 32.5514C52.8767 32.5514 49.2677 33.786 49.0949 34.2552C48.3647 36.2412 48.0253 38.4126 47.7887 39.2825C47.5006 40.3456 46.8467 43.5241 46.6786 44.5607C46.4653 45.8826 46.0558 50.5654 46.2333 51.2887C46.459 52.2006 48.6061 52.1336 49.7628 51.9527C50.9196 51.7719 67.001 47.8545 67.001 47.8545C67.001 47.8545 66.0839 44.8585 66.0388 44.5934C66.0388 44.5934 53.6411 46.012 52.0624 46.3487C51.6946 46.4181 51.3308 46.5071 50.9725 46.6153C50.9725 46.6153 53.708 35.3807 52.8844 32.5514" fill="#AC00FF"/>
<path d="M55.0128 45.9605C55.0128 45.9605 53.3936 44.6417 53.1772 44.4235C52.9607 44.2053 50.0197 43.0845 49.6336 43.0128C49.578 42.9931 49.5181 42.989 49.4604 43.0008C49.4026 43.0126 49.3491 43.0398 49.3056 43.0797C49.2621 43.1195 49.2303 43.1705 49.2134 43.2271C49.1966 43.2836 49.1955 43.3437 49.2101 43.4009C49.2615 43.6706 52.2617 44.6776 52.2975 44.7618C52.3333 44.8459 52.0313 44.7509 52.0313 44.7509C52.0313 44.7509 48.7617 43.9714 48.4877 44.146C48.2137 44.3206 48.427 44.5809 48.5485 44.6651C48.5485 44.6651 48.1748 44.9426 48.4877 45.1608C48.7296 45.3177 48.9837 45.4548 49.2475 45.5708C49.2475 45.5708 48.7649 45.6986 49.0062 45.9605C49.2475 46.2224 50.9648 46.6152 50.9648 46.6152C50.9648 46.6152 54.3168 45.8794 55.0128 45.9605" fill="white"/>
<path d="M187.048 113.575H185.424V39.6982H187.048V113.575Z" fill="#6C6473"/>
<path d="M149.633 114.5H148.009V40.623H149.633V114.5Z" fill="#6C6473"/>
<path d="M189.329 101.382H145.662C144.37 101.382 143.131 100.868 142.217 99.9526C141.303 99.0375 140.789 97.7965 140.789 96.5025V13.7138C140.789 12.4198 141.303 11.1787 142.217 10.2637C143.131 9.3487 144.37 8.83466 145.662 8.83466H189.329C190.622 8.83466 191.861 9.3487 192.775 10.2637C193.689 11.1787 194.202 12.4198 194.202 13.7138V96.5025C194.202 97.7965 193.689 99.0375 192.775 99.9526C191.861 100.868 190.622 101.382 189.329 101.382" fill="#BDAFAA"/>
<path d="M187.923 97.765H147.064C145.787 97.765 144.563 97.2572 143.66 96.3533C142.757 95.4494 142.25 94.2234 142.25 92.9451V15.1448C142.25 13.8665 142.757 12.6405 143.66 11.7366C144.563 10.8327 145.787 10.3249 147.064 10.3249H187.917C189.194 10.3253 190.418 10.8333 191.32 11.7372C192.223 12.641 192.73 13.8668 192.73 15.1448V92.9451C192.73 93.578 192.605 94.2047 192.364 94.7895C192.122 95.3743 191.767 95.9056 191.321 96.3532C190.874 96.8008 190.343 97.1559 189.759 97.3981C189.175 97.6404 188.549 97.765 187.917 97.765" fill="white"/>
<path d="M175.454 11.7326H159.538V8.13324H175.454V11.7326Z" fill="#6C6473"/>
<path d="M150.707 66.9547C149.611 66.9559 148.559 67.3925 147.784 68.1687C147.009 68.9449 146.573 69.9973 146.572 71.095V89.5127C146.573 90.6105 147.008 91.6631 147.784 92.4394C148.559 93.2157 149.61 93.6522 150.707 93.653H183.019C184.115 93.6518 185.166 93.2151 185.942 92.439C186.717 91.6628 187.153 90.6104 187.154 89.5127V71.0997C187.153 70.0021 186.716 68.95 185.941 68.1739C185.166 67.3978 184.115 66.961 183.019 66.9594L150.707 66.9547ZM183.019 94.2656H150.707C149.448 94.264 148.242 93.7627 147.352 92.8717C146.462 91.9807 145.961 90.7727 145.96 89.5127V71.0997C145.961 69.8396 146.462 68.6316 147.352 67.7406C148.242 66.8497 149.448 66.3484 150.707 66.3467H183.019C184.278 66.3484 185.484 66.8497 186.374 67.7406C187.264 68.6316 187.764 69.8396 187.766 71.0997V89.5174C187.764 90.7774 187.264 91.9854 186.374 92.8764C185.484 93.7674 184.278 94.2686 183.019 94.2703" fill="#FFA800"/>
<path d="M182.094 37.8042C181.174 37.8042 180.274 38.0774 179.509 38.5894C178.743 39.1014 178.147 39.8291 177.795 40.6805C177.443 41.5319 177.35 42.4687 177.53 43.3726C177.71 44.2764 178.153 45.1066 178.804 45.7582C179.454 46.4099 180.284 46.8536 181.186 47.0334C182.089 47.2132 183.025 47.1209 183.875 46.7683C184.725 46.4156 185.452 45.8184 185.963 45.0522C186.475 44.286 186.748 43.3851 186.748 42.4636C186.746 41.2283 186.255 40.0442 185.383 39.1707C184.511 38.2973 183.328 37.8058 182.094 37.8042ZM182.094 47.7356C181.053 47.7356 180.035 47.4264 179.169 46.8471C178.303 46.2678 177.628 45.4444 177.23 44.4811C176.831 43.5177 176.727 42.4577 176.93 41.435C177.133 40.4124 177.635 39.473 178.371 38.7357C179.107 37.9984 180.046 37.4963 181.067 37.2928C182.088 37.0894 183.147 37.1938 184.109 37.5928C185.071 37.9919 185.894 38.6676 186.472 39.5346C187.051 40.4016 187.36 41.4208 187.36 42.4636C187.358 43.8613 186.803 45.2013 185.816 46.1896C184.828 47.178 183.49 47.7339 182.094 47.7356Z" fill="#FFA800"/>
<path d="M182.094 49.9492C181.173 49.9488 180.273 50.2219 179.507 50.7339C178.742 51.2459 178.145 51.9737 177.792 52.8254C177.44 53.677 177.347 54.6142 177.527 55.5184C177.706 56.4227 178.149 57.2533 178.8 57.9053C179.451 58.5573 180.281 59.0014 181.184 59.1814C182.087 59.3613 183.023 59.2691 183.874 58.9164C184.724 58.5637 185.452 57.9663 185.963 57.1997C186.475 56.4332 186.748 55.532 186.748 54.6101C186.747 53.3746 186.256 52.19 185.383 51.3162C184.511 50.4424 183.328 49.9508 182.094 49.9492V49.9492ZM182.094 59.8806C181.053 59.8806 180.035 59.5713 179.169 58.992C178.303 58.4126 177.628 57.5891 177.229 56.6257C176.831 55.6623 176.727 54.6022 176.93 53.5795C177.133 52.5568 177.635 51.6174 178.371 50.8801C179.108 50.1429 180.046 49.6409 181.068 49.4377C182.089 49.2344 183.148 49.339 184.11 49.7383C185.072 50.1376 185.895 50.8135 186.473 51.6807C187.051 52.5479 187.36 53.5673 187.36 54.6101C187.358 56.0077 186.803 57.3475 185.816 58.3356C184.828 59.3237 183.49 59.8793 182.094 59.8806Z" fill="#FFA800"/>
<path d="M158.354 42.6959C157.92 42.6959 157.481 42.6741 157.047 42.6336C153.878 42.3293 150.916 40.9234 148.675 38.6601C148.586 38.5697 148.502 38.4839 148.426 38.4013C148.124 38.0896 147.833 37.7404 147.56 37.3881C145.706 35.0018 144.704 32.0622 144.714 29.0389C144.718 25.418 146.157 21.9465 148.714 19.3859C151.271 16.8254 154.738 15.3848 158.354 15.3803V15.9929C154.9 15.9971 151.588 17.3729 149.146 19.8187C146.704 22.2644 145.33 25.5803 145.326 29.0389C145.316 31.9263 146.274 34.7336 148.045 37.0124C148.304 37.3493 148.581 37.6729 148.873 37.982C148.946 38.0615 149.029 38.1379 149.109 38.2283C149.521 38.6446 149.961 39.0321 150.425 39.388C152.359 40.8796 154.675 41.793 157.106 42.0225C157.52 42.0615 157.94 42.0817 158.351 42.0817C158.507 42.0817 158.642 42.0817 158.779 42.0817C159.175 42.0693 159.569 42.0397 159.952 41.9913C162.086 41.728 164.122 40.9391 165.877 39.6951C166.061 39.5626 166.242 39.427 166.413 39.293C166.584 39.1589 166.717 39.0482 166.871 38.9142C168.287 37.6901 169.423 36.1751 170.202 34.4722C170.981 32.7692 171.385 30.9183 171.386 29.0451C171.385 28.404 171.338 27.7637 171.246 27.1293L171.851 27.042C171.949 27.7053 171.997 28.3748 171.998 29.0451C171.998 31.0058 171.576 32.9436 170.761 34.7265C169.947 36.5094 168.758 38.0956 167.276 39.3772C167.12 39.5175 166.952 39.6515 166.796 39.7731C166.64 39.8947 166.429 40.0568 166.237 40.194C164.399 41.4967 162.267 42.323 160.031 42.5993C159.631 42.6492 159.217 42.6804 158.804 42.6944C158.661 42.6944 158.515 42.7021 158.356 42.7021" fill="#FFA800"/>
<path d="M167.872 36.2688C167.831 36.2134 167.787 36.1613 167.738 36.1129C167.72 36.0886 167.696 36.0694 167.668 36.0568C167.668 36.0568 167.66 36.0568 167.655 36.049C165.113 34.6461 160.523 33.4925 160.523 33.4925C160.391 33.1808 160.402 32.1238 160.42 31.4894C160.897 30.936 161.328 30.0693 161.569 28.7209C161.647 28.7786 161.705 28.6461 161.705 28.6461C161.663 28.5712 162.349 26.8939 162.226 26.5151C162.222 26.4799 162.208 26.4466 162.186 26.4186C162.164 26.3907 162.135 26.369 162.102 26.356C162.069 26.343 162.033 26.339 161.998 26.3445C161.963 26.35 161.93 26.3648 161.903 26.3873C161.918 26.2907 161.935 26.1893 161.952 26.0755C161.952 26.0755 162.225 23.505 160.925 22.0724C160.791 21.943 160.311 21.9165 160.311 21.9165C158.224 21.2759 156.97 21.5627 156.187 21.8978C155.024 22.8518 154.942 24.4746 154.988 25.3694C155.012 25.5798 155.037 25.7934 155.06 25.9929C155.071 26.074 155.08 26.1488 155.09 26.2345C155.063 26.2105 155.031 26.194 154.996 26.1868C154.961 26.1796 154.925 26.1819 154.892 26.1936C154.858 26.2052 154.828 26.2257 154.805 26.253C154.782 26.2802 154.767 26.3132 154.761 26.3483C154.621 26.7209 155.128 28.3951 155.192 28.4995C155.192 28.4995 155.301 28.671 155.387 28.5931C155.628 30.0646 156.061 30.9703 156.514 31.5299C156.469 32.3546 156.321 33.3881 156.281 33.6609C155.214 33.9976 149.869 35.4224 148.25 36.4871C148.104 36.5759 147.954 36.8191 147.803 37.1792C148.07 37.5242 148.352 37.8547 148.65 38.1706C148.73 38.2548 148.806 38.3389 148.892 38.4216C150.745 40.2928 153.11 41.5724 155.689 42.0989C156.147 42.1935 156.61 42.2627 157.076 42.3062C157.497 42.3467 157.923 42.367 158.354 42.367C158.502 42.367 158.647 42.367 158.793 42.367C159.197 42.3545 159.598 42.3233 159.992 42.275C162.177 42.0079 164.261 41.2 166.056 39.9243C166.243 39.7902 166.426 39.6525 166.606 39.5112C166.762 39.3865 166.917 39.2571 167.073 39.1262C167.609 38.6615 168.107 38.1554 168.563 37.6125C168.385 37.1348 168.153 36.6792 167.87 36.2548" fill="#FFA800"/>
<path d="M147.187 49.2928H169.524C169.822 49.2924 170.109 49.1733 170.32 48.9617C170.531 48.7501 170.649 48.4633 170.649 48.1642V47.4783C170.649 47.1793 170.531 46.8924 170.32 46.6808C170.109 46.4692 169.822 46.3501 169.524 46.3497H147.187C146.888 46.3497 146.601 46.4686 146.39 46.6803C146.178 46.8919 146.059 47.179 146.059 47.4783V48.1642C146.059 48.4635 146.178 48.7506 146.39 48.9622C146.601 49.1739 146.888 49.2928 147.187 49.2928" fill="#FFA800"/>
<path d="M147.187 54.5992H169.524C169.822 54.5992 170.109 54.4804 170.32 54.2691C170.531 54.0577 170.649 53.7711 170.649 53.4722V52.7847C170.649 52.4858 170.531 52.1991 170.32 51.9878C170.109 51.7764 169.822 51.6577 169.524 51.6577H147.187C147.039 51.6575 146.892 51.6865 146.755 51.743C146.619 51.7996 146.494 51.8826 146.39 51.9873C146.285 52.0919 146.202 52.2162 146.145 52.3531C146.089 52.4899 146.059 52.6366 146.059 52.7847V53.4722C146.06 53.7712 146.179 54.0579 146.39 54.2692C146.602 54.4805 146.888 54.5992 147.187 54.5992" fill="#00FFD1"/>
<path d="M147.187 59.9055H169.524C169.822 59.9055 170.109 59.7867 170.32 59.5754C170.531 59.364 170.649 59.0774 170.649 58.7784V58.091C170.649 57.7921 170.531 57.5054 170.32 57.294C170.109 57.0827 169.822 56.9639 169.524 56.9639H147.187C146.888 56.9639 146.602 57.0826 146.39 57.294C146.179 57.5053 146.06 57.7919 146.059 58.091V58.7784C146.06 59.0775 146.179 59.3642 146.39 59.5755C146.602 59.7868 146.888 59.9055 147.187 59.9055" fill="#00FFD1"/>
<path d="M184.757 34.9983H179.421C178.865 34.9983 178.331 34.7771 177.938 34.3834C177.544 33.9896 177.323 33.4556 177.322 32.8985V16.392C177.323 15.8348 177.544 15.3005 177.937 14.9066C178.331 14.5126 178.864 14.2911 179.421 14.2906H184.757C185.313 14.2911 185.846 14.5126 186.24 14.9066C186.633 15.3007 186.854 15.8349 186.854 16.392V32.9048C186.852 33.4606 186.63 33.993 186.237 34.3855C185.844 34.7779 185.312 34.9983 184.757 34.9983" fill="#00FFD1"/>
<path d="M115.338 65.3264C115.338 65.3264 115.704 65.9266 115.749 66.4176C115.786 66.8057 116.112 67.3856 116.254 67.7052C116.395 68.0248 116.848 69.4761 116.864 69.8533C116.872 70.0092 116.528 70.9803 116.576 71.2906C116.624 71.6008 116.803 72.2259 116.524 72.2586C116.246 72.2914 115.928 71.791 115.928 71.791C115.935 71.8701 115.919 71.9496 115.882 72.0198C115.845 72.0901 115.789 72.1481 115.72 72.1869C115.252 72.4005 115.017 72.2134 115.017 72.2134C115.017 72.2134 114.848 72.5252 114.634 72.5704C114.167 72.6639 113.937 72.4753 113.937 72.4753C113.784 72.59 113.598 72.6503 113.408 72.6468C113.286 72.6424 113.167 72.606 113.064 72.5415C112.961 72.4769 112.876 72.3864 112.819 72.2789C112.819 72.2789 112.294 72.3865 112.142 72.1417C111.989 71.897 112.016 71.6351 111.953 71.4121C111.891 71.1892 111.938 69.1861 112.618 67.7426C113.299 66.2991 112.445 64.89 112.445 64.89L115.338 65.3233" fill="white"/>
<path d="M116.003 71.6069C116.003 71.6069 116.05 69.808 115.576 69.4246C115.103 69.0411 115.049 69.6911 115.049 69.6911C115.049 69.6911 115.114 69.0489 114.597 68.9632C114.08 68.8774 114.058 69.6381 114.058 69.6381C114.046 69.57 114.019 69.5052 113.981 69.4478C113.942 69.3904 113.892 69.3417 113.833 69.3048C113.775 69.2679 113.709 69.2435 113.641 69.2333C113.572 69.223 113.502 69.2271 113.436 69.2453C112.892 69.3466 113.021 69.978 113.021 69.978C113.021 69.978 112.503 69.3544 112.167 69.9546C111.6 70.9585 112.146 72.137 112.146 72.137C112.146 72.137 112.302 72.4082 112.824 72.2741C112.824 72.2741 113.169 72.9725 113.942 72.4706C113.942 72.4706 114.732 72.907 115.022 72.2087C115.022 72.2087 115.894 72.6233 116.008 71.5991" fill="#DB9C7C"/>
<path d="M121.433 39.4122C121.433 39.4122 118.357 49.6757 117.317 53.4621C116.991 54.6499 116.202 65.989 116.071 66.4457C115.941 66.9024 112.023 67.5275 112.023 67.5275C112.023 67.5275 112.49 53.3421 112.54 52.5626C112.59 51.7832 116.845 35.9469 118.083 35.3811C119.017 34.9586 119.501 35.3093 120.672 36.1792C122.313 37.3982 121.433 39.406 121.433 39.406" fill="#AC00FF"/>
<path d="M151.77 25.5588L151.427 25.035L158.468 20.4208L158.81 20.9446L151.77 25.5588Z" fill="#4DA8F2"/>
<path d="M159.561 23.074C159.53 23.2686 159.469 23.457 159.378 23.632C159.378 23.632 159.15 23.9064 158.997 24.1121C158.957 24.1618 158.92 24.2139 158.886 24.268C158.743 24.5995 158.546 24.9053 158.304 25.1737C157.969 25.5135 156.665 26.5969 156.665 26.5969L155.545 25.646L154.384 25.1238C154.384 25.1238 155.033 22.293 155.309 21.9407C155.337 21.9064 155.365 21.8721 155.393 21.844C155.656 21.5665 155.967 21.4715 156.121 21.3421C156.179 21.2953 156.777 20.8635 156.989 20.9196C157.109 20.9425 157.221 20.9957 157.315 21.0743C157.409 21.1529 157.482 21.2541 157.526 21.3686C157.526 21.3686 158.099 21.5447 158.321 21.8814C158.478 21.9283 158.622 22.0105 158.742 22.1219C158.862 22.2332 158.955 22.3707 159.014 22.5237C159.014 22.5237 159.537 22.7326 159.561 23.0662" fill="white"/>
<path d="M118.661 111.484C118.661 111.484 119.637 112.658 120.583 113.169C121.53 113.68 123.012 113.884 123.571 114.416C123.974 114.799 125.041 116.442 121.116 116.413C117.191 116.383 115.299 116.645 114.877 116.014C114.455 115.382 115.486 111.354 115.486 111.354C115.486 111.354 116.42 111.689 118.661 111.487" fill="#8600C7"/>
<path d="M140.75 111.484C140.75 111.484 141.728 112.658 142.673 113.169C143.618 113.68 147.096 114.104 147.655 114.631C148.058 115.014 148.729 116.553 143.205 116.41C139.282 116.307 137.389 116.642 136.968 116.011C136.548 115.379 137.577 111.351 137.577 111.351C137.577 111.351 138.452 111.71 140.75 111.484Z" fill="#8600C7"/>
<path d="M121.491 59.4184C121.491 59.4184 118.594 64.0279 118.808 68.1947C119.023 72.3615 117.759 76.9102 117.323 81.2625C116.837 86.1151 114.852 97.6023 114.779 100.199C114.706 102.796 115.091 111.083 115.091 111.083L119.067 111.174C119.067 111.174 122.405 91.091 123.271 89.038C124.136 86.985 128.422 72.3802 128.564 70.7403C128.706 69.1004 121.491 59.4153 121.491 59.4153" fill="#8600C7"/>
<path d="M136.744 60.0498C136.744 60.0498 138.924 71.4698 139.216 74.0185C139.509 76.5673 139.698 86.3615 139.839 87.9546C139.981 89.5478 141.186 108.764 141.569 111.181H136.487C136.487 111.181 132.586 97.1783 132.586 90.5516C132.586 83.925 129.571 76.1479 127.625 71.7754C125.679 67.4028 121.226 67.3015 120.031 59.1893C120.031 59.1893 135.123 57.4746 136.742 60.0513" fill="#8600C7"/>
<path d="M126.327 20.6702C126.327 20.6702 130.219 19.2158 132.009 22.1808C133.8 25.1457 133.629 31.0786 131.668 31.8081C129.708 32.5377 126.763 32.1573 125.752 30.3023C124.742 28.4473 123.842 25.7661 123.884 23.9734C123.926 22.1808 125.296 21.1877 126.317 20.6702" fill="white"/>
<path d="M131.247 31.9453C131.247 31.9453 131.091 32.996 131.352 33.5135C131.614 34.0311 126.313 34.0451 126.313 34.0451C126.313 34.0451 125.883 31.2282 125.067 28.8479C124.251 26.4675 131.248 31.9453 131.248 31.9453" fill="white"/>
<path d="M125.066 28.8479C125.066 28.8479 125.431 29.4528 126.934 29.2189C128.436 28.9851 130.253 26.9929 130.878 26.7731C131.502 26.5533 131.5 26.187 131.5 26.187L131.891 26.7591L132.554 26.8012C132.554 26.8012 131.949 25.0194 132.866 24.2945C133.783 23.5697 131.919 18.5268 127.125 20.2057C127.125 20.2057 123.442 21.2205 123.576 23.3234C123.71 25.4263 124.247 27.8082 125.07 28.8526" fill="#23172D"/>
<path d="M131.667 33.4511C131.667 33.4511 131.65 32.4628 131.2 32.3599C130.75 32.2571 126.254 31.833 125.704 32.0482V33.2002C125.704 33.2002 126.764 33.8534 131.664 33.4434" fill="#E2D2CA"/>
<path d="M131.401 25.4246C131.317 25.0739 130.425 24.0684 130.082 25.144C129.74 26.2196 130.599 27.6678 131.078 27.5431C131.558 27.4184 131.614 26.3163 131.401 25.4246" fill="white"/>
<path d="M139.104 34.9446C136.022 34.5361 131.667 33.4449 131.667 33.4449L125.707 33.2018C125.707 33.2018 120.238 34.4068 118.078 35.3842C117.874 35.4777 117.874 40.2711 117.312 41.5276L119.098 45.3C119.098 45.3 120.13 52.773 120.344 56.0965C120.442 57.6226 118.215 70.402 118.215 70.402C118.215 70.402 120.6 71.1051 124.667 71.554C128.734 72.003 138.899 71.3981 138.963 70.9117C139.026 70.4254 136.995 53.0007 136.904 52.0981C136.766 50.7123 137.381 43.3514 137.381 43.3514C138.315 42.6219 146.567 38.7902 148.815 36.7918C149.417 36.2571 151.958 33.7801 152.681 32.9259C155.239 29.897 157.336 27.3 157.59 26.7404C157.879 26.4286 154.81 24.7497 154.533 24.6578C154.289 24.5767 150.831 29.0615 149.501 30.505C148.908 31.1488 146.44 32.9446 146.44 32.9446C146.44 32.9446 141.027 35.0584 139.098 34.9477" fill="#AC00FF"/>
<path d="M158.81 20.9445L159.217 20.321L158.468 20.4192L158.81 20.9445Z" fill="#DFE1E8"/>
</svg>
