<svg width="70" height="70" viewBox="0 0 70 70" fill="none" xmlns="http://www.w3.org/2000/svg">
<g clip-path="url(#clip0_1122_4258)">
<g clip-path="url(#clip1_1122_4258)">
<path d="M12.9018 64C12.4574 64 12.0207 63.8098 11.7154 63.4409L2.35941 52.1774C2.0773 51.8357 1.95364 51.3892 2.01933 50.9504C2.08503 50.5117 2.33622 50.1234 2.70722 49.8788C3.18642 49.5682 14.4631 42.2106 19.1353 39.8616C24.1089 37.365 26.7097 37.7999 29.7704 39.4733C31.7993 40.5876 34.319 42.6338 35.374 43.519C37.1053 43.3909 42.048 42.9949 44.8729 42.4629C47.6554 41.9388 49.9973 44.1635 50.6813 46.6019C52.9111 44.9129 55.7593 42.7891 58.3794 40.9215C63.6081 37.2019 68.0716 40.4013 69.6986 42.6144C70.1971 43.2938 70.0657 44.249 69.401 44.7654L51.8059 58.444C50.8204 59.2088 49.6533 59.7485 48.4322 59.997L36.1894 62.4936C34.744 62.7887 33.2253 62.5712 31.923 61.8762L24.0046 57.6713C23.0732 57.1782 21.9409 57.2792 21.1139 57.9315L13.8563 63.6623C13.5742 63.8836 13.238 63.9923 12.9018 63.9923V64ZM5.85293 51.5367L13.126 60.296L19.2048 55.497C20.9902 54.0876 23.4403 53.8663 25.4499 54.9302L33.3683 59.1351C34.0446 59.4923 34.8291 59.6088 35.5749 59.4535L47.8177 56.9569C48.5751 56.8016 49.3017 56.4677 49.9123 55.994L66.1239 43.3909C64.9182 42.4668 62.8082 41.5777 60.1648 43.4608C56.0955 46.3572 51.4581 49.8982 49.5142 51.3969C49.2746 51.6299 49.0002 51.8434 48.6872 52.0337C48.6177 52.0881 48.579 52.1152 48.5751 52.1191C48.3858 52.2667 48.1694 52.3637 47.9491 52.4103C47.694 52.519 47.4235 52.6122 47.1337 52.6899C42.0634 54.0799 34.5006 54.0954 34.1798 54.0954C33.3258 54.0954 32.634 53.4004 32.634 52.5423C32.634 51.6843 33.3258 50.9893 34.1798 50.9893C34.2533 50.9893 41.6499 50.9737 46.3183 49.6925C46.4574 49.6536 46.6893 49.5915 46.925 49.4711C47.0603 49.3663 47.2458 49.2226 47.4776 49.044C47.7404 48.7257 47.8911 48.2597 47.7327 47.5609C47.4776 46.4388 46.4419 45.3245 45.441 45.5186C41.8084 46.2019 35.231 46.6484 34.9527 46.6679C34.5547 46.695 34.145 46.5591 33.8398 46.2912C33.8088 46.2641 30.5742 43.4569 28.2864 42.2028C26.2344 41.0768 24.6847 40.5449 20.5149 42.6415C16.9634 44.4237 9.11458 49.4323 5.85293 51.5367Z" fill="#AD00FF"/>
<path d="M44.073 30.1083C38.4385 30.1083 33.8552 25.5034 33.8552 19.8425C33.8552 14.1816 38.4385 9.57678 44.073 9.57678C49.7075 9.57678 54.2908 14.1816 54.2908 19.8425C54.2908 25.5034 49.7075 30.1083 44.073 30.1083ZM44.073 12.6868C40.1428 12.6868 36.9468 15.8977 36.9468 19.8464C36.9468 23.7951 40.1428 27.006 44.073 27.006C48.0032 27.006 51.1992 23.7951 51.1992 19.8464C51.1992 15.8977 48.0032 12.6868 44.073 12.6868Z" fill="#FFA800"/>
<path d="M58.2093 35.2877C57.8152 35.2877 57.4171 35.1363 57.1157 34.8335L52.6135 30.3102C52.0107 29.7045 52.0107 28.7222 52.6135 28.1126C53.2164 27.5069 54.1941 27.5069 54.8008 28.1126L59.303 32.6359C59.9059 33.2416 59.9059 34.2239 59.303 34.8335C59.0016 35.1363 58.6074 35.2877 58.2093 35.2877Z" fill="#00FFD1"/>
<path d="M35.1962 12.1626C34.802 12.1626 34.4039 12.0112 34.1025 11.7084L29.6003 7.18506C28.9975 6.57936 28.9975 5.59705 29.6003 4.98747C30.2032 4.38178 31.1848 4.38178 31.7877 4.98747L36.2898 9.51077C36.8927 10.1165 36.8927 11.0988 36.2898 11.7084C35.9884 12.0112 35.5942 12.1626 35.1962 12.1626Z" fill="#00FFD1"/>
<path d="M53.7072 12.1626C53.313 12.1626 52.915 12.0112 52.6135 11.7084C52.0107 11.1027 52.0107 10.1203 52.6135 9.51077L57.1157 4.98747C57.7186 4.38178 58.7001 4.38178 59.303 4.98747C59.9059 5.59317 59.9059 6.57548 59.303 7.18506L54.8008 11.7084C54.4994 12.0112 54.1052 12.1626 53.7072 12.1626Z" fill="#00FFD1"/>
<path d="M30.694 35.2877C30.2998 35.2877 29.9018 35.1363 29.6003 34.8335C28.9975 34.2278 28.9975 33.2455 29.6003 32.6359L34.1025 28.1126C34.7054 27.5069 35.687 27.5069 36.2898 28.1126C36.8927 28.7183 36.8927 29.7006 36.2898 30.3102L31.7877 34.8335C31.4862 35.1363 31.092 35.2877 30.694 35.2877Z" fill="#00FFD1"/>
<path d="M61.6487 21.4655H57.5446C56.6905 21.4655 55.9988 20.7705 55.9988 19.9124C55.9988 19.0544 56.6905 18.3594 57.5446 18.3594H61.6487C62.5028 18.3594 63.1945 19.0544 63.1945 19.9124C63.1945 20.7705 62.5028 21.4655 61.6487 21.4655Z" fill="#00FFD1"/>
<path d="M31.3587 21.4655H27.1541C26.3 21.4655 25.6083 20.7705 25.6083 19.9124C25.6083 19.0544 26.3 18.3594 27.1541 18.3594H31.3587C32.2127 18.3594 32.9045 19.0544 32.9045 19.9124C32.9045 20.7705 32.2127 21.4655 31.3587 21.4655Z" fill="#00FFD1"/>
<path d="M44.4517 8.31104C43.5976 8.31104 42.9059 7.61605 42.9059 6.75798V2.55306C42.9059 1.695 43.5976 1 44.4517 1C45.3057 1 45.9975 1.695 45.9975 2.55306V6.75798C45.9975 7.61605 45.3057 8.31104 44.4517 8.31104Z" fill="#00FFD1"/>
<path d="M44.4517 38.685C43.5976 38.685 42.9059 37.99 42.9059 37.132V33.063C42.9059 32.2049 43.5976 31.5099 44.4517 31.5099C45.3057 31.5099 45.9975 32.2049 45.9975 33.063V37.132C45.9975 37.99 45.3057 38.685 44.4517 38.685Z" fill="#00FFD1"/>
</g>
</g>
<defs>
<clipPath id="clip0_1122_4258">
<rect width="70" height="70" fill="white"/>
</clipPath>
<clipPath id="clip1_1122_4258">
<rect width="68" height="63" fill="white" transform="translate(2 1)"/>
</clipPath>
</defs>
</svg>
