<svg width="46" height="45" viewBox="0 0 46 45" fill="none" xmlns="http://www.w3.org/2000/svg">
<circle cx="22.75" cy="22.5" r="22" fill="#2E2B39" stroke="#AC00FF"/>
<path d="M32.75 12.916L30.9965 14.6788L29.2535 12.916L27.5 14.6788L25.7465 12.916L24.0035 14.6788L22.25 12.916L20.4965 14.6788L18.7535 12.916L17 14.6788L15.2465 12.916L13.5035 14.6788L11.75 12.916V29.8049C11.75 30.966 12.695 31.916 13.85 31.916H30.65C31.805 31.916 32.75 30.966 32.75 29.8049V12.916ZM21.2 29.8049H13.85V23.4716H21.2V29.8049ZM30.65 29.8049H23.3V27.6938H30.65V29.8049ZM30.65 25.5827H23.3V23.4716H30.65V25.5827ZM30.65 21.3605H13.85V18.1938H30.65V21.3605Z" fill="white"/>
</svg>
