<svg width="573" height="228" viewBox="0 0 573 228" fill="none" xmlns="http://www.w3.org/2000/svg">
<g clip-path="url(#clip0_230_401)">
<path d="M21 209.31C18.79 209.31 17 207.52 17 205.31V28C17 25.79 18.79 24 21 24C23.21 24 25 25.79 25 28V205.31C25 207.52 23.21 209.31 21 209.31Z" fill="#00FFD1"/>
<path d="M138.52 93.61H37.05C34.84 93.61 33.05 91.82 33.05 89.61V28C33.05 25.79 34.84 24 37.05 24H138.52C140.02 24 141.39 24.84 142.08 26.17C142.77 27.5 142.65 29.11 141.77 30.33L121.32 58.89L141.76 87.28C142.64 88.5 142.76 90.1 142.07 91.44C141.39 92.78 140.01 93.62 138.51 93.62L138.52 93.61ZM41.05 85.61H130.71L113.15 61.23C112.15 59.84 112.14 57.96 113.15 56.56L130.74 32H41.05V85.61Z" fill="#00FFD1"/>
<path d="M58.81 209.13C56.6 209.13 54.81 207.34 54.81 205.13V104.38C54.81 102.17 56.6 100.38 58.81 100.38C61.02 100.38 62.81 102.17 62.81 104.38V205.13C62.81 207.34 61.02 209.13 58.81 209.13Z" fill="#FFA800"/>
<path d="M175.85 123.69H74.38C72.17 123.69 70.38 121.9 70.38 119.69V104.93C70.38 102.72 72.17 100.93 74.38 100.93C76.59 100.93 78.38 102.72 78.38 104.93V115.69H168.05L150.49 91.3101C149.49 89.9201 149.48 88.0401 150.49 86.6401L168.08 62.0801H136.19C133.98 62.0801 132.19 60.2901 132.19 58.0801C132.19 55.8701 133.98 54.0801 136.19 54.0801H175.87C177.37 54.0801 178.74 54.9201 179.43 56.2501C180.12 57.5801 180 59.1901 179.12 60.4101L158.67 88.9701L179.11 117.36C179.99 118.58 180.11 120.18 179.42 121.52C178.74 122.86 177.36 123.7 175.86 123.7L175.85 123.69Z" fill="#FFA800"/>
<path d="M96.6 209.41C94.39 209.41 92.6 207.62 92.6 205.41V135.2C92.6 132.99 94.39 131.2 96.6 131.2C98.81 131.2 100.6 132.99 100.6 135.2V205.41C100.6 207.62 98.81 209.41 96.6 209.41Z" fill="#AC00FF"/>
<path d="M213.64 155.59H112.17C109.96 155.59 108.17 153.8 108.17 151.59V135.38C108.17 133.17 109.96 131.38 112.17 131.38C114.38 131.38 116.17 133.17 116.17 135.38V147.59H205.84L188.28 123.21C187.28 121.82 187.27 119.94 188.28 118.54L205.87 93.98H175.22C173.01 93.98 171.22 92.19 171.22 89.98C171.22 87.77 173.01 85.98 175.22 85.98H213.65C215.15 85.98 216.52 86.82 217.21 88.15C217.9 89.48 217.78 91.09 216.9 92.31L196.45 120.87L216.89 149.26C217.77 150.48 217.89 152.08 217.2 153.42C216.52 154.76 215.14 155.6 213.64 155.6V155.59Z" fill="#AC00FF"/>
</g>
<path d="M271.32 129V97.512H275.304V125.592H289.08V129H271.32ZM299.656 129.576C298.376 129.576 297.208 129.32 296.152 128.808C295.128 128.264 294.312 127.512 293.704 126.552C293.096 125.56 292.792 124.36 292.792 122.952C292.792 120.328 293.944 118.344 296.248 117C298.552 115.656 302.2 114.712 307.192 114.168C307.16 113.208 307 112.28 306.712 111.384C306.456 110.488 305.976 109.768 305.272 109.224C304.568 108.68 303.592 108.408 302.344 108.408C301 108.408 299.736 108.664 298.552 109.176C297.368 109.656 296.312 110.2 295.384 110.808L293.848 108.12C294.552 107.64 295.384 107.176 296.344 106.728C297.304 106.248 298.344 105.864 299.464 105.576C300.584 105.256 301.768 105.096 303.016 105.096C304.904 105.096 306.44 105.496 307.624 106.296C308.84 107.064 309.72 108.168 310.264 109.608C310.84 111.048 311.128 112.744 311.128 114.696V129H307.864L307.528 126.216H307.384C306.264 127.144 305.064 127.944 303.784 128.616C302.504 129.256 301.128 129.576 299.656 129.576ZM300.76 126.312C301.912 126.312 302.984 126.056 303.976 125.544C305 125.032 306.072 124.28 307.192 123.288V117C304.568 117.32 302.488 117.736 300.952 118.248C299.448 118.728 298.36 119.336 297.688 120.072C297.016 120.808 296.68 121.688 296.68 122.712C296.68 123.992 297.08 124.92 297.88 125.496C298.68 126.04 299.64 126.312 300.76 126.312ZM325.283 129.576C322.819 129.576 321.011 128.808 319.859 127.272C318.739 125.704 318.179 123.432 318.179 120.456V105.672H322.115V119.928C322.115 122.104 322.451 123.688 323.123 124.68C323.827 125.64 324.947 126.12 326.483 126.12C327.667 126.12 328.723 125.816 329.651 125.208C330.611 124.568 331.651 123.576 332.771 122.232V105.672H336.707V129H333.443L333.107 125.352H332.963C331.907 126.632 330.755 127.656 329.507 128.424C328.291 129.192 326.883 129.576 325.283 129.576ZM344.577 129V105.672H347.841L348.177 109.032H348.321C349.441 107.912 350.625 106.984 351.873 106.248C353.121 105.48 354.545 105.096 356.145 105.096C358.609 105.096 360.401 105.88 361.521 107.448C362.673 108.984 363.249 111.24 363.249 114.216V129H359.313V114.744C359.313 112.536 358.961 110.952 358.257 109.992C357.585 109 356.465 108.504 354.897 108.504C353.713 108.504 352.641 108.808 351.681 109.416C350.753 110.024 349.697 110.92 348.513 112.104V129H344.577ZM370.827 138.84V105.672H374.091L374.427 108.36H374.571C375.627 107.464 376.795 106.696 378.075 106.056C379.355 105.416 380.667 105.096 382.011 105.096C383.995 105.096 385.675 105.592 387.051 106.584C388.427 107.544 389.467 108.92 390.171 110.712C390.875 112.472 391.227 114.568 391.227 117C391.227 119.624 390.747 121.88 389.787 123.768C388.859 125.656 387.627 127.096 386.091 128.088C384.555 129.08 382.907 129.576 381.147 129.576C380.091 129.576 379.019 129.336 377.931 128.856C376.843 128.376 375.755 127.72 374.667 126.888L374.763 130.968V138.84H370.827ZM380.475 126.264C381.755 126.264 382.891 125.896 383.883 125.16C384.907 124.424 385.707 123.368 386.283 121.992C386.859 120.584 387.147 118.92 387.147 117C387.147 115.304 386.939 113.816 386.523 112.536C386.107 111.224 385.451 110.216 384.555 109.512C383.659 108.776 382.475 108.408 381.003 108.408C380.043 108.408 379.051 108.68 378.027 109.224C377.003 109.736 375.915 110.52 374.763 111.576V123.816C375.851 124.712 376.875 125.352 377.835 125.736C378.827 126.088 379.707 126.264 380.475 126.264ZM402.171 129.576C400.891 129.576 399.723 129.32 398.667 128.808C397.643 128.264 396.827 127.512 396.219 126.552C395.611 125.56 395.307 124.36 395.307 122.952C395.307 120.328 396.459 118.344 398.763 117C401.067 115.656 404.715 114.712 409.707 114.168C409.675 113.208 409.515 112.28 409.227 111.384C408.971 110.488 408.491 109.768 407.787 109.224C407.083 108.68 406.107 108.408 404.859 108.408C403.515 108.408 402.251 108.664 401.067 109.176C399.883 109.656 398.827 110.2 397.899 110.808L396.363 108.12C397.067 107.64 397.899 107.176 398.859 106.728C399.819 106.248 400.859 105.864 401.979 105.576C403.099 105.256 404.283 105.096 405.531 105.096C407.419 105.096 408.955 105.496 410.139 106.296C411.355 107.064 412.235 108.168 412.779 109.608C413.355 111.048 413.643 112.744 413.643 114.696V129H410.379L410.043 126.216H409.899C408.779 127.144 407.579 127.944 406.299 128.616C405.019 129.256 403.643 129.576 402.171 129.576ZM403.275 126.312C404.427 126.312 405.499 126.056 406.491 125.544C407.515 125.032 408.587 124.28 409.707 123.288V117C407.083 117.32 405.003 117.736 403.467 118.248C401.963 118.728 400.875 119.336 400.203 120.072C399.531 120.808 399.195 121.688 399.195 122.712C399.195 123.992 399.595 124.92 400.395 125.496C401.195 126.04 402.155 126.312 403.275 126.312ZM428.951 129.576C426.007 129.576 423.655 128.52 421.895 126.408C420.167 124.264 419.303 121.256 419.303 117.384C419.303 114.856 419.767 112.68 420.695 110.856C421.655 109 422.903 107.576 424.439 106.584C425.975 105.592 427.639 105.096 429.431 105.096C430.807 105.096 431.975 105.336 432.935 105.816C433.927 106.264 434.935 106.92 435.959 107.784L435.767 103.8V94.824H439.751V129H436.487L436.151 126.264H436.007C435.111 127.16 434.055 127.944 432.839 128.616C431.623 129.256 430.327 129.576 428.951 129.576ZM429.815 126.264C430.903 126.264 431.927 125.992 432.887 125.448C433.847 124.904 434.807 124.104 435.767 123.048V110.856C434.807 109.96 433.863 109.336 432.935 108.984C432.007 108.6 431.063 108.408 430.103 108.408C428.855 108.408 427.719 108.792 426.695 109.56C425.703 110.296 424.903 111.336 424.295 112.68C423.687 113.992 423.383 115.544 423.383 117.336C423.383 120.12 423.943 122.312 425.063 123.912C426.183 125.48 427.767 126.264 429.815 126.264ZM456.401 137.832V105.192H462.161L462.641 107.544H462.833C463.761 106.68 464.817 105.976 466.001 105.432C467.185 104.888 468.385 104.616 469.601 104.616C471.521 104.616 473.169 105.112 474.545 106.104C475.953 107.096 477.025 108.504 477.761 110.328C478.529 112.152 478.913 114.28 478.913 116.712C478.913 119.432 478.433 121.752 477.473 123.672C476.513 125.592 475.265 127.064 473.729 128.088C472.225 129.08 470.609 129.576 468.881 129.576C467.889 129.576 466.897 129.368 465.905 128.952C464.945 128.504 464.049 127.88 463.217 127.08L463.457 130.872V137.832H456.401ZM467.249 123.816C468.049 123.816 468.785 123.576 469.457 123.096C470.161 122.616 470.705 121.864 471.089 120.84C471.473 119.784 471.665 118.44 471.665 116.808C471.665 115.368 471.505 114.184 471.185 113.256C470.897 112.296 470.449 111.576 469.841 111.096C469.233 110.616 468.465 110.376 467.537 110.376C466.833 110.376 466.145 110.552 465.473 110.904C464.833 111.224 464.161 111.768 463.457 112.536V122.28C464.097 122.824 464.737 123.224 465.377 123.48C466.049 123.704 466.673 123.816 467.249 123.816ZM494.573 129.576C492.301 129.576 490.253 129.08 488.429 128.088C486.605 127.096 485.165 125.672 484.109 123.816C483.053 121.96 482.525 119.72 482.525 117.096C482.525 114.504 483.053 112.28 484.109 110.424C485.197 108.568 486.605 107.144 488.333 106.152C490.061 105.128 491.869 104.616 493.757 104.616C496.029 104.616 497.917 105.128 499.421 106.152C500.925 107.144 502.045 108.504 502.781 110.232C503.517 111.96 503.885 113.896 503.885 116.04C503.885 116.648 503.853 117.256 503.789 117.864C503.725 118.44 503.661 118.904 503.597 119.256H487.997L487.901 114.36H497.837C497.837 113.112 497.533 112.088 496.925 111.288C496.317 110.456 495.309 110.04 493.901 110.04C493.133 110.04 492.381 110.248 491.645 110.664C490.909 111.08 490.301 111.8 489.821 112.824C489.341 113.848 489.117 115.272 489.149 117.096C489.181 118.888 489.501 120.296 490.109 121.32C490.749 122.344 491.549 123.08 492.509 123.528C493.469 123.944 494.477 124.152 495.533 124.152C496.461 124.152 497.341 124.024 498.173 123.768C499.037 123.48 499.885 123.096 500.717 122.616L503.021 126.936C501.837 127.768 500.493 128.424 498.989 128.904C497.485 129.352 496.013 129.576 494.573 129.576ZM508.761 129V105.192H514.521L515.001 109.368H515.193C516.057 107.768 517.081 106.584 518.265 105.816C519.481 105.016 520.713 104.616 521.961 104.616C522.633 104.616 523.193 104.664 523.641 104.76C524.089 104.824 524.473 104.936 524.793 105.096L523.449 111.096C523.065 111 522.697 110.936 522.345 110.904C521.993 110.84 521.561 110.808 521.049 110.808C520.153 110.808 519.209 111.128 518.217 111.768C517.257 112.408 516.457 113.544 515.817 115.176V129H508.761ZM527.886 129V95.352H534.846V114.552H535.038L542.43 105.192H550.158L541.902 115.08L550.782 129H543.15L537.774 119.736L534.846 123.048V129H527.886ZM561.191 129.576C559.623 129.576 558.007 129.272 556.343 128.664C554.679 128.056 553.255 127.176 552.071 126.024L555.047 122.04C556.135 122.904 557.207 123.512 558.263 123.864C559.351 124.184 560.391 124.344 561.383 124.344C562.439 124.344 563.207 124.168 563.687 123.816C564.167 123.432 564.407 122.936 564.407 122.328C564.407 121.784 564.183 121.336 563.734 120.984C563.319 120.632 562.759 120.328 562.055 120.072C561.383 119.784 560.615 119.48 559.751 119.16C558.599 118.744 557.543 118.216 556.583 117.576C555.623 116.936 554.839 116.168 554.23 115.272C553.655 114.376 553.367 113.304 553.367 112.056C553.367 109.816 554.199 108.024 555.863 106.68C557.559 105.304 559.767 104.616 562.487 104.616C564.215 104.616 565.783 104.904 567.191 105.48C568.631 106.024 569.863 106.744 570.887 107.64L567.863 111.576C566.999 110.968 566.135 110.536 565.271 110.28C564.407 109.992 563.559 109.848 562.727 109.848C561.799 109.848 561.111 110.024 560.663 110.376C560.215 110.728 559.991 111.176 559.991 111.72C559.991 112.168 560.151 112.552 560.471 112.872C560.791 113.192 561.271 113.496 561.911 113.784C562.583 114.04 563.415 114.328 564.407 114.648C565.623 115.064 566.727 115.592 567.719 116.232C568.743 116.84 569.543 117.608 570.119 118.536C570.695 119.464 570.983 120.584 570.983 121.896C570.983 123.336 570.599 124.632 569.831 125.784C569.095 126.936 568.007 127.864 566.567 128.568C565.127 129.24 563.335 129.576 561.191 129.576Z" fill="white"/>
<defs>
<clipPath id="clip0_230_401">
<rect width="200.64" height="185.41" fill="white" transform="translate(17 24)"/>
</clipPath>
</defs>
</svg>
