<svg width="235" height="228" viewBox="0 0 235 228" fill="none" xmlns="http://www.w3.org/2000/svg">
<g clip-path="url(#clip0_230_317)">
<path d="M21 209.31C18.79 209.31 17 207.52 17 205.31V28C17 25.79 18.79 24 21 24C23.21 24 25 25.79 25 28V205.31C25 207.52 23.21 209.31 21 209.31Z" fill="#00FFD1"/>
<path d="M138.52 93.61H37.05C34.84 93.61 33.05 91.82 33.05 89.61V28C33.05 25.79 34.84 24 37.05 24H138.52C140.02 24 141.39 24.84 142.08 26.17C142.77 27.5 142.65 29.11 141.77 30.33L121.32 58.89L141.76 87.28C142.64 88.5 142.76 90.1 142.07 91.44C141.39 92.78 140.01 93.62 138.51 93.62L138.52 93.61ZM41.05 85.61H130.71L113.15 61.23C112.15 59.84 112.14 57.96 113.15 56.56L130.74 32H41.05V85.61Z" fill="#00FFD1"/>
<path d="M58.81 209.13C56.6 209.13 54.81 207.34 54.81 205.13V104.38C54.81 102.17 56.6 100.38 58.81 100.38C61.02 100.38 62.81 102.17 62.81 104.38V205.13C62.81 207.34 61.02 209.13 58.81 209.13Z" fill="#FFA800"/>
<path d="M175.85 123.69H74.38C72.17 123.69 70.38 121.9 70.38 119.69V104.93C70.38 102.72 72.17 100.93 74.38 100.93C76.59 100.93 78.38 102.72 78.38 104.93V115.69H168.05L150.49 91.3101C149.49 89.9201 149.48 88.0401 150.49 86.6401L168.08 62.0801H136.19C133.98 62.0801 132.19 60.2901 132.19 58.0801C132.19 55.8701 133.98 54.0801 136.19 54.0801H175.87C177.37 54.0801 178.74 54.9201 179.43 56.2501C180.12 57.5801 180 59.1901 179.12 60.4101L158.67 88.9701L179.11 117.36C179.99 118.58 180.11 120.18 179.42 121.52C178.74 122.86 177.36 123.7 175.86 123.7L175.85 123.69Z" fill="#FFA800"/>
<path d="M96.6 209.41C94.39 209.41 92.6 207.62 92.6 205.41V135.2C92.6 132.99 94.39 131.2 96.6 131.2C98.81 131.2 100.6 132.99 100.6 135.2V205.41C100.6 207.62 98.81 209.41 96.6 209.41Z" fill="#AC00FF"/>
<path d="M213.64 155.59H112.17C109.96 155.59 108.17 153.8 108.17 151.59V135.38C108.17 133.17 109.96 131.38 112.17 131.38C114.38 131.38 116.17 133.17 116.17 135.38V147.59H205.84L188.28 123.21C187.28 121.82 187.27 119.94 188.28 118.54L205.87 93.98H175.22C173.01 93.98 171.22 92.19 171.22 89.98C171.22 87.77 173.01 85.98 175.22 85.98H213.65C215.15 85.98 216.52 86.82 217.21 88.15C217.9 89.48 217.78 91.09 216.9 92.31L196.45 120.87L216.89 149.26C217.77 150.48 217.89 152.08 217.2 153.42C216.52 154.76 215.14 155.6 213.64 155.6V155.59Z" fill="#AC00FF"/>
</g>
<defs>
<clipPath id="clip0_230_317">
<rect width="200.64" height="185.41" fill="white" transform="translate(17 24)"/>
</clipPath>
</defs>
</svg>
