<svg width="21" height="27" viewBox="0 0 21 27" fill="none" xmlns="http://www.w3.org/2000/svg">
<path d="M1.4 0C1.7713 0 2.1274 0.154088 2.38995 0.428367C2.6525 0.702646 2.8 1.07465 2.8 1.46254V2.74957C4.284 2.10605 6.3 1.46254 8.4 1.46254C12.6 1.46254 12.6 4.38761 15.4 4.38761C19.6 4.38761 21 1.46254 21 1.46254V13.1628C21 13.1628 19.6 16.0879 15.4 16.0879C11.2 16.0879 11.2 13.1628 8.4 13.1628C4.2 13.1628 2.8 16.0879 2.8 16.0879V26.3257H0V1.46254C0 1.07465 0.1475 0.702646 0.410051 0.428367C0.672602 0.154088 1.0287 0 1.4 0ZM2.8 6.21579V12.4316C2.8 12.4316 5.6 10.2378 8.4 10.2378C11.2 10.2378 12.6 13.1628 15.4 13.1628C18.2 13.1628 18.2 11.7003 18.2 11.7003V6.58142C18.2 6.58142 16.8 7.31269 15.4 7.31269C12.6 7.31269 11.2 4.38761 8.4 4.38761C5.6 4.38761 2.8 6.21579 2.8 6.21579Z" fill="white"/>
</svg>
