<svg width="94" height="81" viewBox="0 0 94 81" fill="none" xmlns="http://www.w3.org/2000/svg">
<g clip-path="url(#clip0_33_706)">
<path d="M59.7384 19.086L56.9898 18.5367C56.6121 17.3319 56.1241 16.164 55.5318 15.0474L57.0894 12.7279C57.2883 12.4251 57.3767 12.0639 57.3397 11.7044C57.3027 11.3448 57.1427 11.0087 56.8862 10.7521L51.0823 4.98669C50.8222 4.72742 50.4796 4.56561 50.1128 4.52886C49.746 4.49211 49.3776 4.58269 49.0706 4.78516L46.7363 6.33023C45.6138 5.74208 44.439 5.25793 43.2268 4.88395L42.6731 2.1534C42.6012 1.79492 42.4064 1.47221 42.1217 1.24022C41.837 1.00822 41.48 0.881277 41.1116 0.880984H32.9056C32.5364 0.880363 32.1785 1.00689 31.893 1.23896C31.6075 1.47104 31.412 1.79425 31.3401 2.1534L30.7903 4.88395C29.5784 5.25864 28.4037 5.74277 27.2809 6.33023L24.9426 4.78516C24.6355 4.58269 24.2672 4.49211 23.9004 4.52886C23.5335 4.56561 23.1909 4.72742 22.9309 4.98669L17.1269 10.7481C16.8661 11.0066 16.7038 11.3467 16.6675 11.7106C16.6312 12.0744 16.7231 12.4395 16.9277 12.7437L18.4853 15.0633C17.893 16.1798 17.405 17.3477 17.0273 18.5525L14.2787 19.1018C13.9181 19.1739 13.5937 19.3675 13.3606 19.6499C13.1275 19.9322 13.0001 20.2859 13 20.6508V28.8029C13.0001 29.1679 13.1275 29.5215 13.3606 29.8039C13.5937 30.0862 13.9181 30.2799 14.2787 30.352L17.0273 30.9012C17.4047 32.1055 17.8913 33.2734 18.4813 34.3905L16.9277 36.714C16.7283 37.0164 16.6393 37.3773 16.6755 37.7368C16.7118 38.0963 16.8711 38.4327 17.1269 38.6898L22.9349 44.4552C23.1941 44.709 23.5331 44.867 23.8955 44.903C24.258 44.9389 24.6218 44.8506 24.9266 44.6528L27.2968 43.1156C28.4197 43.7018 29.5944 44.1846 30.8063 44.558L31.356 47.2885C31.428 47.6476 31.6234 47.9709 31.9089 48.2029C32.1945 48.435 32.5524 48.5615 32.9215 48.5609H41.1275C41.4954 48.5608 41.8519 48.4344 42.1365 48.2032C42.4212 47.972 42.6164 47.6502 42.689 47.2925L43.2428 44.558C44.4494 44.1844 45.6188 43.7016 46.7363 43.1156L49.0706 44.6567C49.3772 44.8597 49.7452 44.9509 50.1121 44.9149C50.4789 44.8789 50.8218 44.7178 51.0823 44.4592L56.8902 38.6898C57.146 38.4327 57.3053 38.0963 57.3416 37.7368C57.3778 37.3773 57.2888 37.0164 57.0894 36.714L55.5318 34.3905C56.1248 33.2743 56.6128 32.1063 56.9898 30.9012L59.7384 30.352C60.0991 30.2799 60.4234 30.0862 60.6565 29.8039C60.8896 29.5215 61.017 29.1679 61.0171 28.8029V20.639C61.0179 20.2733 60.8909 19.9187 60.6578 19.6356C60.4246 19.3524 60.0997 19.1582 59.7384 19.086ZM57.8303 27.495L55.4084 27.9771C55.1153 28.0358 54.8449 28.1752 54.6279 28.3793C54.4109 28.5833 54.2562 28.8438 54.1814 29.1309C53.7662 30.7104 53.1321 32.2252 52.2972 33.6318C52.1455 33.8871 52.0691 34.1795 52.0768 34.4758C52.0846 34.772 52.1761 35.0601 52.3411 35.3073L53.7114 37.3542L49.7518 41.286L47.6963 39.9543C47.4463 39.7892 47.1544 39.6975 46.8541 39.6898C46.5539 39.6821 46.2576 39.7587 45.9993 39.9109C44.5816 40.7425 43.0529 41.3717 41.4581 41.78C41.1681 41.8545 40.9052 42.0085 40.6995 42.2245C40.4937 42.4405 40.3535 42.7096 40.295 43.001L39.809 45.4075H34.2082L33.7222 43.001C33.6636 42.7096 33.5234 42.4405 33.3176 42.2245C33.1119 42.0085 32.849 41.8545 32.559 41.78C30.9644 41.3711 29.4357 40.742 28.0178 39.9109C27.76 39.7595 27.4645 39.6833 27.165 39.691C26.8656 39.6987 26.5744 39.79 26.3248 39.9543L24.2654 41.3137L20.3058 37.3819L21.6761 35.3349C21.8466 35.0848 21.9413 34.7915 21.9491 34.4897C21.9569 34.1879 21.8773 33.8902 21.7199 33.6318C20.8837 32.2202 20.2495 30.7001 19.8357 29.1151C19.7609 28.828 19.6062 28.5675 19.3892 28.3635C19.1723 28.1594 18.9018 28.02 18.6088 27.9613L16.1868 27.4792V21.9272L18.6088 21.4451C18.9018 21.3863 19.1723 21.2469 19.3892 21.0429C19.6062 20.8388 19.7609 20.5784 19.8357 20.2912C20.2495 18.7075 20.8837 17.1887 21.7199 15.7785C21.8725 15.5228 21.9493 15.2296 21.9415 14.9325C21.9338 14.6355 21.8418 14.3466 21.6761 14.0991L20.3058 12.0521L24.2654 8.12031L26.3248 9.47965C26.5744 9.64403 26.8656 9.73529 27.165 9.74298C27.4645 9.75067 27.76 9.67446 28.0178 9.52312C29.4357 8.69204 30.9644 8.06286 32.559 7.65402C32.849 7.57953 33.1119 7.42545 33.3176 7.20948C33.5234 6.99351 33.6636 6.72439 33.7222 6.43298L34.2082 4.02645H39.809L40.295 6.43692C40.3542 6.72761 40.4947 6.99591 40.7004 7.21113C40.9061 7.42635 41.1687 7.57983 41.4581 7.65402C43.0594 8.06335 44.5948 8.69386 46.0192 9.52707C46.2775 9.67922 46.5738 9.75586 46.8741 9.74817C47.1743 9.74048 47.4662 9.64877 47.7162 9.48361L49.7717 8.12426L53.7313 12.0561L52.361 14.103C52.1953 14.3506 52.1033 14.6394 52.0955 14.9365C52.0878 15.2335 52.1646 15.5267 52.3172 15.7824C53.1459 17.1781 53.776 18.6808 54.1894 20.2477C54.2598 20.5423 54.414 20.8106 54.6336 21.0207C54.8532 21.2309 55.129 21.374 55.4283 21.4332L57.8502 21.9193L57.8303 27.495Z" fill="#00FFD1"/>
<path d="M60.9653 80.8691H54.5917C54.2239 80.869 53.8673 80.7426 53.5827 80.5114C53.2981 80.2802 53.1029 79.9584 53.0302 79.6007L52.6318 77.6881C51.81 77.4237 51.0108 77.0947 50.2417 76.7042L48.6085 77.7829C48.3038 77.9808 47.9399 78.0691 47.5775 78.0331C47.2151 77.9972 46.876 77.8391 46.6168 77.5854L42.1194 73.1161C41.8636 72.8589 41.7043 72.5226 41.668 72.1631C41.6318 71.8036 41.7208 71.4426 41.9202 71.1403L43.0077 69.5162C42.6143 68.7532 42.2826 67.9604 42.0158 67.1453L40.0918 66.7501C39.7312 66.678 39.4068 66.4844 39.1737 66.202C38.9406 65.9197 38.8132 65.566 38.8131 65.2011V58.8785C38.8132 58.5136 38.9406 58.1599 39.1737 57.8776C39.4068 57.5952 39.7312 57.4016 40.0918 57.3295L42.0158 56.9343C42.2824 56.1191 42.6141 55.3263 43.0077 54.5634L41.9202 52.9353C41.7208 52.633 41.6318 52.272 41.668 51.9125C41.7043 51.553 41.8636 51.2167 42.1194 50.9595L46.6168 46.4942C46.8755 46.2398 47.2143 46.0811 47.5768 46.0444C47.9392 46.0077 48.3033 46.0954 48.6085 46.2927L50.2417 47.3715C51.0124 46.9843 51.8113 46.6554 52.6318 46.3875L53.0302 44.4789C53.1029 44.1212 53.2981 43.7994 53.5827 43.5682C53.8673 43.3369 54.2239 43.2106 54.5917 43.2104H60.9653C61.3332 43.2106 61.6897 43.3369 61.9744 43.5682C62.259 43.7994 62.4542 44.1212 62.5269 44.4789L62.9252 46.3875C63.7457 46.6554 64.5447 46.9843 65.3153 47.3715L66.9486 46.2927C67.2533 46.0948 67.6172 46.0066 67.9796 46.0425C68.342 46.0785 68.6811 46.2365 68.9403 46.4903L73.4377 50.9595C73.6935 51.2167 73.8528 51.553 73.8891 51.9125C73.9253 52.272 73.8363 52.633 73.6369 52.9353L72.5573 54.5752C72.9507 55.3383 73.2823 56.1311 73.5492 56.9462L75.4733 57.3414C75.8339 57.4134 76.1583 57.6071 76.3913 57.8894C76.6244 58.1718 76.7519 58.5254 76.752 58.8904V65.2129C76.7519 65.5779 76.6244 65.9315 76.3913 66.2139C76.1583 66.4962 75.8339 66.6899 75.4733 66.762L73.5492 67.1571C73.2808 67.9717 72.9492 68.7643 72.5573 69.5281L73.6448 71.1522C73.8442 71.4545 73.9333 71.8155 73.897 72.175C73.8608 72.5345 73.7015 72.8708 73.4456 73.128L68.9443 77.5972C68.6851 77.851 68.346 78.009 67.9836 78.045C67.6212 78.0809 67.2573 77.9926 66.9525 77.7948L65.3193 76.716C64.5502 77.1065 63.751 77.4355 62.9292 77.7L62.5309 79.6125C62.4556 79.9688 62.2588 80.2883 61.9736 80.5173C61.6884 80.7462 61.3322 80.8705 60.9653 80.8691ZM55.9103 77.7079H59.6587L59.9814 76.1272C60.0407 75.8365 60.1812 75.5683 60.3869 75.353C60.5926 75.1378 60.8551 74.9843 61.1446 74.9101C62.3465 74.5984 63.4993 74.1236 64.5704 73.4994C64.8282 73.3481 65.1238 73.2719 65.4232 73.2796C65.7227 73.2872 66.0139 73.3785 66.2634 73.5429L67.6138 74.4359L70.2708 71.7963L69.3705 70.4527C69.205 70.206 69.1128 69.9181 69.1043 69.6218C69.0959 69.3255 69.1715 69.0329 69.3227 68.7773C69.9554 67.7136 70.4341 66.5669 70.7448 65.371C70.8199 65.0833 70.9752 64.8225 71.193 64.6184C71.4107 64.4143 71.682 64.2752 71.9757 64.2171L73.5691 63.8971V60.1707L71.9757 59.8506C71.6758 59.7921 71.3991 59.6492 71.1787 59.439C70.9583 59.2288 70.8036 58.9602 70.7329 58.6651C70.4233 57.4844 69.9486 56.3525 69.3227 55.3023C69.1707 55.0463 69.0946 54.7529 69.1031 54.4558C69.1115 54.1587 69.2042 53.8701 69.3705 53.6229L70.2708 52.2794L67.6138 49.6437L66.2634 50.5367C66.0139 50.7011 65.7227 50.7924 65.4232 50.8C65.1238 50.8077 64.8282 50.7315 64.5704 50.5802C63.5009 49.9527 62.3476 49.4778 61.1446 49.1695C60.8546 49.095 60.5917 48.9409 60.3859 48.7249C60.1802 48.509 60.04 48.2398 59.9814 47.9484L59.6587 46.3678H55.9103L55.5876 47.9484C55.529 48.2398 55.3888 48.509 55.1831 48.7249C54.9774 48.9409 54.7144 49.095 54.4244 49.1695C53.2214 49.4778 52.0681 49.9527 50.9986 50.5802C50.7408 50.7315 50.4453 50.8077 50.1458 50.8C49.8464 50.7924 49.5552 50.7011 49.3056 50.5367L47.9552 49.6437L45.2982 52.2794L46.1985 53.6229C46.3634 53.87 46.4549 54.1581 46.4627 54.4544C46.4704 54.7507 46.3941 55.0431 46.2423 55.2984C45.613 56.3651 45.1344 57.5126 44.8202 58.7086C44.7454 58.9958 44.5907 59.2562 44.3737 59.4603C44.1568 59.6643 43.8863 59.8037 43.5933 59.8625L41.9999 60.1786V63.9089L43.5933 64.229C43.8863 64.2878 44.1568 64.4271 44.3737 64.6312C44.5907 64.8352 44.7454 65.0957 44.8202 65.3828C45.1337 66.5779 45.6123 67.7241 46.2423 68.7891C46.3941 69.0444 46.4704 69.3368 46.4627 69.6331C46.4549 69.9293 46.3634 70.2175 46.1985 70.4646L45.2982 71.8081L47.9512 74.4478L49.3056 73.5548C49.5552 73.3904 49.8464 73.2991 50.1458 73.2914C50.4453 73.2837 50.7408 73.3599 50.9986 73.5113C52.0689 74.1371 53.222 74.6119 54.4244 74.922C54.7139 74.9962 54.9765 75.1497 55.1822 75.3649C55.3879 75.5801 55.5284 75.8484 55.5876 76.1391L55.9103 77.7079ZM57.7825 70.6464H57.6511C55.7951 70.6202 53.9966 70.0044 52.5196 68.8892C51.0426 67.7741 49.9651 66.2185 49.4453 64.4509C48.9255 62.6833 48.9908 60.797 49.6317 59.069C50.2726 57.341 51.4553 55.8624 53.0059 54.8505C54.5566 53.8385 56.3935 53.3466 58.2468 53.4469C60.1002 53.5472 61.8723 54.2344 63.3027 55.4077C64.7332 56.581 65.7467 58.1784 66.1943 59.9653C66.6418 61.7522 66.4999 63.6344 65.7894 65.3354C65.3578 66.3813 64.7199 67.3312 63.9131 68.1292C62.2874 69.7427 60.0822 70.6495 57.7825 70.6503V70.6464ZM57.7825 67.4851H57.8861C58.569 67.4771 59.2444 67.3431 59.8778 67.0899C60.8797 66.6765 61.7358 65.9783 62.3383 65.0831C62.9409 64.1879 63.2629 63.1359 63.2638 62.0596C63.2669 60.9818 62.9471 59.9275 62.3449 59.0304C61.7428 58.1333 60.8854 57.434 59.8818 57.0213C59.1336 56.7129 58.3258 56.573 57.5166 56.6114C56.7073 56.6499 55.9167 56.8659 55.2017 57.2438C54.4866 57.6217 53.8649 58.1521 53.3813 58.7969C52.8977 59.4417 52.5642 60.1849 52.4048 60.9729C52.1918 62.03 52.3 63.1261 52.7155 64.1222C53.1311 65.1183 53.8354 65.9696 54.7391 66.5683C55.6391 67.1673 56.6987 67.4865 57.7825 67.4851Z" fill="#FFA800"/>
<path d="M60.9653 80.8691H54.5917C54.2239 80.869 53.8673 80.7426 53.5827 80.5114C53.2981 80.2802 53.1029 79.9584 53.0302 79.6007L52.6318 77.6881C51.81 77.4237 51.0108 77.0947 50.2417 76.7042L48.6085 77.7829C48.3038 77.9808 47.9399 78.0691 47.5775 78.0331C47.2151 77.9972 46.876 77.8391 46.6168 77.5854L42.1194 73.1161C41.8636 72.8589 41.7043 72.5226 41.668 72.1631C41.6318 71.8036 41.7208 71.4426 41.9202 71.1403L43.0077 69.5162C42.6143 68.7532 42.2826 67.9604 42.0158 67.1453L40.0918 66.7501C39.7312 66.678 39.4068 66.4844 39.1737 66.202C38.9406 65.9197 38.8132 65.566 38.8131 65.2011V58.8785C38.8132 58.5136 38.9406 58.1599 39.1737 57.8776C39.4068 57.5952 39.7312 57.4016 40.0918 57.3295L42.0158 56.9343C42.2824 56.1191 42.6141 55.3263 43.0077 54.5634L41.9202 52.9353C41.7208 52.633 41.6318 52.272 41.668 51.9125C41.7043 51.553 41.8636 51.2167 42.1194 50.9595L46.6168 46.4942C46.8755 46.2398 47.2143 46.0811 47.5768 46.0444C47.9392 46.0077 48.3033 46.0954 48.6085 46.2927L50.2417 47.3715C51.0124 46.9843 51.8113 46.6554 52.6318 46.3875L53.0302 44.4789C53.1029 44.1212 53.2981 43.7994 53.5827 43.5682C53.8673 43.3369 54.2239 43.2106 54.5917 43.2104H60.9653C61.3332 43.2106 61.6897 43.3369 61.9744 43.5682C62.259 43.7994 62.4542 44.1212 62.5269 44.4789L62.9252 46.3875C63.7457 46.6554 64.5447 46.9843 65.3153 47.3715L66.9486 46.2927C67.2533 46.0948 67.6172 46.0066 67.9796 46.0425C68.342 46.0785 68.6811 46.2365 68.9403 46.4903L73.4377 50.9595C73.6935 51.2167 73.8528 51.553 73.8891 51.9125C73.9253 52.272 73.8363 52.633 73.6369 52.9353L72.5573 54.5752C72.9507 55.3383 73.2823 56.1311 73.5492 56.9462L75.4733 57.3414C75.8339 57.4134 76.1583 57.6071 76.3913 57.8894C76.6244 58.1718 76.7519 58.5254 76.752 58.8904V65.2129C76.7519 65.5779 76.6244 65.9315 76.3913 66.2139C76.1583 66.4962 75.8339 66.6899 75.4733 66.762L73.5492 67.1571C73.2808 67.9717 72.9492 68.7643 72.5573 69.5281L73.6448 71.1522C73.8442 71.4545 73.9333 71.8155 73.897 72.175C73.8608 72.5345 73.7015 72.8708 73.4456 73.128L68.9443 77.5972C68.6851 77.851 68.346 78.009 67.9836 78.045C67.6212 78.0809 67.2573 77.9926 66.9525 77.7948L65.3193 76.716C64.5502 77.1065 63.751 77.4355 62.9292 77.7L62.5309 79.6125C62.4556 79.9688 62.2588 80.2883 61.9736 80.5173C61.6884 80.7462 61.3322 80.8705 60.9653 80.8691ZM55.9103 77.7079H59.6587L59.9814 76.1272C60.0407 75.8365 60.1812 75.5683 60.3869 75.353C60.5926 75.1378 60.8551 74.9843 61.1446 74.9101C62.3465 74.5984 63.4993 74.1236 64.5704 73.4994C64.8282 73.3481 65.1238 73.2719 65.4232 73.2796C65.7227 73.2872 66.0139 73.3785 66.2634 73.5429L67.6138 74.4359L70.2708 71.7963L69.3705 70.4527C69.205 70.206 69.1128 69.9181 69.1043 69.6218C69.0959 69.3255 69.1715 69.0329 69.3227 68.7773C69.9554 67.7136 70.4341 66.5669 70.7448 65.371C70.8199 65.0833 70.9752 64.8225 71.193 64.6184C71.4107 64.4143 71.682 64.2752 71.9757 64.2171L73.5691 63.8971V60.1707L71.9757 59.8506C71.6758 59.7921 71.3991 59.6492 71.1787 59.439C70.9583 59.2288 70.8036 58.9602 70.7329 58.6651C70.4233 57.4844 69.9486 56.3525 69.3227 55.3023C69.1707 55.0463 69.0946 54.7529 69.1031 54.4558C69.1115 54.1587 69.2042 53.8701 69.3705 53.6229L70.2708 52.2794L67.6138 49.6437L66.2634 50.5367C66.0139 50.7011 65.7227 50.7924 65.4232 50.8C65.1238 50.8077 64.8282 50.7315 64.5704 50.5802C63.5009 49.9527 62.3476 49.4778 61.1446 49.1695C60.8546 49.095 60.5917 48.9409 60.3859 48.7249C60.1802 48.509 60.04 48.2398 59.9814 47.9484L59.6587 46.3678H55.9103L55.5876 47.9484C55.529 48.2398 55.3888 48.509 55.1831 48.7249C54.9774 48.9409 54.7144 49.095 54.4244 49.1695C53.2214 49.4778 52.0681 49.9527 50.9986 50.5802C50.7408 50.7315 50.4453 50.8077 50.1458 50.8C49.8464 50.7924 49.5552 50.7011 49.3056 50.5367L47.9552 49.6437L45.2982 52.2794L46.1985 53.6229C46.3634 53.87 46.4549 54.1581 46.4627 54.4544C46.4704 54.7507 46.3941 55.0431 46.2423 55.2984C45.613 56.3651 45.1344 57.5126 44.8202 58.7086C44.7454 58.9958 44.5907 59.2562 44.3737 59.4603C44.1568 59.6643 43.8863 59.8037 43.5933 59.8625L41.9999 60.1786V63.9089L43.5933 64.229C43.8863 64.2878 44.1568 64.4271 44.3737 64.6312C44.5907 64.8352 44.7454 65.0957 44.8202 65.3828C45.1337 66.5779 45.6123 67.7241 46.2423 68.7891C46.3941 69.0444 46.4704 69.3368 46.4627 69.6331C46.4549 69.9293 46.3634 70.2175 46.1985 70.4646L45.2982 71.8081L47.9512 74.4478L49.3056 73.5548C49.5552 73.3904 49.8464 73.2991 50.1458 73.2914C50.4453 73.2837 50.7408 73.3599 50.9986 73.5113C52.0689 74.1371 53.222 74.6119 54.4244 74.922C54.7139 74.9962 54.9765 75.1497 55.1822 75.3649C55.3879 75.5801 55.5284 75.8484 55.5876 76.1391L55.9103 77.7079ZM57.7825 70.6464H57.6511C55.7951 70.6202 53.9966 70.0044 52.5196 68.8892C51.0426 67.7741 49.9651 66.2185 49.4453 64.4509C48.9255 62.6833 48.9908 60.797 49.6317 59.069C50.2726 57.341 51.4553 55.8624 53.0059 54.8505C54.5566 53.8385 56.3935 53.3466 58.2468 53.4469C60.1002 53.5472 61.8723 54.2344 63.3027 55.4077C64.7332 56.581 65.7467 58.1784 66.1943 59.9653C66.6418 61.7522 66.4999 63.6344 65.7894 65.3354C65.3578 66.3813 64.7199 67.3312 63.9131 68.1292C62.2874 69.7427 60.0822 70.6495 57.7825 70.6503V70.6464ZM57.7825 67.4851H57.8861C58.569 67.4771 59.2444 67.3431 59.8778 67.0899C60.8797 66.6765 61.7358 65.9783 62.3383 65.0831C62.9409 64.1879 63.2629 63.1359 63.2638 62.0596C63.2669 60.9818 62.9471 59.9275 62.3449 59.0304C61.7428 58.1333 60.8854 57.434 59.8818 57.0213C59.1336 56.7129 58.3258 56.573 57.5166 56.6114C56.7073 56.6499 55.9167 56.8659 55.2017 57.2438C54.4866 57.6217 53.8649 58.1521 53.3813 58.7969C52.8977 59.4417 52.5642 60.1849 52.4048 60.9729C52.1918 62.03 52.3 63.1261 52.7155 64.1222C53.1311 65.1183 53.8354 65.9696 54.7391 66.5683C55.6391 67.1673 56.6987 67.4865 57.7825 67.4851Z" fill="#FFA800"/>
<path d="M27.853 55.5157C27.7188 55.5159 27.5851 55.5 27.4547 55.4683C19.1409 53.3926 11.997 48.1296 7.59073 40.8345C3.18444 33.5394 1.8758 24.8081 3.95204 16.557C4.05505 16.1503 4.31668 15.8009 4.67937 15.5856C5.04207 15.3704 5.47613 15.3068 5.88604 15.409C6.29596 15.5112 6.64817 15.7707 6.86519 16.1305C7.08221 16.4903 7.14625 16.9209 7.04324 17.3275C6.11156 21.0096 5.92018 24.8377 6.47999 28.5931C7.03981 32.3486 8.33985 35.9579 10.3059 39.2149C12.272 42.4719 14.8656 45.3128 17.9385 47.5755C21.0115 49.8381 24.5036 51.4781 28.2156 52.4019C28.5936 52.4958 28.9239 52.724 29.1438 53.0432C29.3638 53.3624 29.4581 53.7505 29.4091 54.1341C29.36 54.5177 29.1709 54.8701 28.8776 55.1247C28.5842 55.3793 28.207 55.5184 27.8172 55.5157H27.853Z" fill="#AD00FF"/>
<path d="M84.5294 68.7904C84.3952 68.7906 84.2614 68.7747 84.131 68.7429C83.928 68.6922 83.7371 68.6022 83.5691 68.4782C83.4011 68.3542 83.2595 68.1985 83.1522 68.0202C83.0449 67.8418 82.9741 67.6442 82.9439 67.4387C82.9136 67.2332 82.9244 67.0238 82.9758 66.8224C84.4645 60.9331 83.534 54.6983 80.3889 49.4895C77.2439 44.2806 72.142 40.5243 66.2053 39.0467C65.7954 38.9445 65.4431 38.685 65.2261 38.3252C65.0091 37.9654 64.945 37.5348 65.0481 37.1282C65.1511 36.7216 65.4127 36.3722 65.7754 36.1569C66.1381 35.9416 66.5721 35.8781 66.982 35.9803C73.7381 37.663 79.5438 41.9386 83.1228 47.8668C86.7017 53.7949 87.7607 60.8904 86.067 67.593C85.9812 67.9337 85.7835 68.2363 85.505 68.4531C85.2266 68.6699 84.8833 68.7885 84.5294 68.7904Z" fill="#AD00FF"/>
<path d="M37.0307 33.428H36.8902C35.0755 33.4001 33.3173 32.7921 31.873 31.6931C30.426 30.5919 29.3704 29.0559 28.8612 27.3106C28.3519 25.5653 28.4159 23.7028 29.0438 21.9966C29.6716 20.2904 30.8302 18.8304 32.3494 17.8312C33.8686 16.832 35.6683 16.3462 37.4841 16.4452C39.2999 16.5443 41.036 17.2229 42.4375 18.3814C43.8389 19.54 44.8318 21.1173 45.2702 22.8817C45.7087 24.646 45.5697 26.5045 44.8736 28.184L44.8711 28.19C44.4494 29.2201 43.8261 30.1556 43.0377 30.9415L43.0359 30.9433C41.5086 32.4711 39.4593 33.3572 37.3068 33.428H37.0307Z" stroke="#00FFD1" stroke-width="3"/>
</g>
<defs>
<clipPath id="clip0_33_706">
<rect width="94" height="80" fill="white" transform="translate(0 0.932587)"/>
</clipPath>
</defs>
</svg>
