<svg width="46" height="46" viewBox="0 0 46 46" fill="none" xmlns="http://www.w3.org/2000/svg">
<circle cx="22.75" cy="22.5822" r="22" fill="#2E2B39" stroke="#AC00FF"/>
<path d="M15.9502 26.2979C15.0786 26.2979 14.2911 26.6719 13.7241 27.2659C12.485 28.564 11.75 33.9982 11.75 33.9982C11.75 33.9982 16.9372 33.2281 18.1763 31.9301C18.6183 31.4694 18.9197 30.8815 19.0422 30.241C19.1647 29.6005 19.1027 28.9363 18.8642 28.3328C18.6256 27.7292 18.2213 27.2136 17.7024 26.8513C17.1836 26.4889 16.5737 26.2963 15.9502 26.2979ZM16.6957 30.379C16.4017 30.687 14.4171 31.2151 14.4171 31.2151C14.4171 31.2151 14.9106 29.147 15.2151 28.828C15.3936 28.619 15.6562 28.4979 15.9502 28.4979C16.1581 28.4983 16.3612 28.563 16.534 28.6841C16.7069 28.8051 16.8416 28.9771 16.9213 29.1782C17.001 29.3793 17.0222 29.6007 16.982 29.8144C16.9419 30.0281 16.8422 30.2245 16.6957 30.379ZM27.9416 24.8128C34.6199 17.8165 32.3938 12.3713 32.3938 12.3713C32.3938 12.3713 27.1961 10.0392 20.5178 17.0355L17.9032 16.4855C17.5634 16.4171 17.2127 16.4365 16.8816 16.5419C16.5504 16.6473 16.2488 16.8356 16.0027 17.0905L11.75 21.5567L17.0002 23.9108L21.3789 28.4979L23.626 33.9982L27.8786 29.543C28.3722 29.026 28.5927 28.2779 28.4562 27.5519L27.9416 24.8128ZM17.4307 21.7107L15.4251 20.8086L17.4937 18.6416L19.0058 18.9606C18.4073 19.8736 17.8717 20.8306 17.4307 21.7107ZM24.34 30.148L23.479 28.0469C24.319 27.5849 25.2325 27.0239 26.0936 26.3969L26.3981 27.9809L24.34 30.148ZM26.4506 23.2617C25.0645 24.7138 22.9014 25.9018 22.2084 26.2649L19.1318 23.0417C19.4678 22.3267 20.6019 20.0606 21.9984 18.5976C26.9126 13.4493 30.6403 14.2084 30.6403 14.2084C30.6403 14.2084 31.3648 18.1135 26.4506 23.2617ZM25.4005 21.8977C26.5556 21.8977 27.5006 20.9076 27.5006 19.6976C27.5006 18.4875 26.5556 17.4975 25.4005 17.4975C24.2455 17.4975 23.3005 18.4875 23.3005 19.6976C23.3005 20.9076 24.2455 21.8977 25.4005 21.8977Z" fill="white"/>
</svg>
