<svg width="46" height="46" viewBox="0 0 46 46" fill="none" xmlns="http://www.w3.org/2000/svg">
<circle cx="22.75" cy="22.5822" r="22" fill="#2E2B39" stroke="#AC00FF"/>
<path d="M27.7586 25.2057H26.81L26.4738 24.8815C27.6912 23.4696 28.3602 21.6669 28.3589 19.8026C28.3589 18.2591 27.9012 16.7501 27.0436 15.4667C26.1861 14.1833 24.9672 13.183 23.5411 12.5923C22.115 12.0016 20.5458 11.847 19.0319 12.1481C17.518 12.4493 16.1273 13.1926 15.0359 14.284C13.9444 15.3755 13.2011 16.7661 12.9 18.2801C12.5988 19.794 12.7534 21.3632 13.3441 22.7893C13.9348 24.2153 14.9351 25.4342 16.2185 26.2918C17.502 27.1494 19.0109 27.6071 20.5545 27.6071C22.4876 27.6071 24.2646 26.8987 25.6334 25.722L25.9575 26.0582V27.0067L31.961 32.9982L33.75 31.2091L27.7586 25.2057ZM20.5545 25.2057C17.5648 25.2057 15.1514 22.7923 15.1514 19.8026C15.1514 16.8129 17.5648 14.3995 20.5545 14.3995C23.5442 14.3995 25.9575 16.8129 25.9575 19.8026C25.9575 22.7923 23.5442 25.2057 20.5545 25.2057ZM17.949 23.4047L20.5184 21.5676L23.0879 23.4047L22.0913 20.451L24.6728 18.65H21.527L20.5184 15.6002L19.5099 18.65H16.3521L18.9215 20.439L17.949 23.4047Z" fill="white"/>
</svg>
