<svg width="46" height="46" viewBox="0 0 46 46" fill="none" xmlns="http://www.w3.org/2000/svg">
<circle cx="22.75" cy="22.5822" r="22" fill="#2E2B39" stroke="#AC00FF"/>
<path d="M22.25 21.2696C22.5758 21.2696 22.8883 21.3991 23.1187 21.6295C23.3491 21.8599 23.4785 22.1723 23.4785 22.4982C23.4785 22.824 23.3491 23.1365 23.1187 23.3669C22.8883 23.5973 22.5758 23.7267 22.25 23.7267C21.9242 23.7267 21.6117 23.5973 21.3813 23.3669C21.1509 23.1365 21.0215 22.824 21.0215 22.4982C21.0215 22.1723 21.1509 21.8599 21.3813 21.6295C21.6117 21.3991 21.9242 21.2696 22.25 21.2696ZM12.692 12.9401C14.4488 11.1833 18.2572 11.9696 22.25 14.5864C26.2428 11.9696 30.0512 11.1833 31.808 12.9401C33.5648 14.6969 32.7786 18.5054 30.1618 22.4982C32.7786 26.4909 33.5648 30.2994 31.808 32.0562C30.0512 33.813 26.2428 33.0268 22.25 30.41C18.2572 33.0268 14.4488 33.813 12.692 32.0562C10.9351 30.2994 11.7214 26.4909 14.3382 22.4982C11.7214 18.5054 10.9351 14.6969 12.692 12.9401ZM26.599 18.1491C27.3484 18.9108 28.0364 19.6848 28.6753 20.4588C30.3706 17.842 30.9849 15.5938 30.0635 14.6847C29.1544 13.7633 26.9062 14.3775 24.2894 16.0729C25.0634 16.7117 25.8373 17.3997 26.599 18.1491ZM17.901 26.8472C17.1516 26.0855 16.4636 25.3115 15.8247 24.5375C14.1294 27.1543 13.5151 29.4026 14.4365 30.3117C15.3456 31.2331 17.5938 30.6188 20.2106 28.9234C19.4366 28.2846 18.6627 27.5966 17.901 26.8472ZM14.4365 14.6847C13.5151 15.5938 14.1294 17.842 15.8247 20.4588C16.4636 19.6848 17.1516 18.9108 17.901 18.1491C18.6627 17.3997 19.4366 16.7117 20.2106 16.0729C17.5938 14.3775 15.3456 13.7633 14.4365 14.6847ZM19.6455 25.1027C20.5055 25.9627 21.39 26.7489 22.25 27.4492C23.11 26.7489 23.9945 25.9627 24.8545 25.1027C25.7145 24.2427 26.5007 23.3581 27.201 22.4982C26.5007 21.6382 25.7145 20.7536 24.8545 19.8937C23.9945 19.0337 23.11 18.2474 22.25 17.5472C21.39 18.2474 20.5055 19.0337 19.6455 19.8937C18.7855 20.7536 17.9993 21.6382 17.299 22.4982C17.9993 23.3581 18.7855 24.2427 19.6455 25.1027ZM30.0635 30.3117C30.9849 29.4026 30.3706 27.1543 28.6753 24.5375C28.0364 25.3115 27.3484 26.0855 26.599 26.8472C25.8373 27.5966 25.0634 28.2846 24.2894 28.9234C26.9062 30.6188 29.1544 31.2331 30.0635 30.3117Z" fill="white"/>
</svg>
