<svg width="209" height="100" viewBox="0 0 209 100" fill="none" xmlns="http://www.w3.org/2000/svg">
<path d="M53.4656 77.6534C53.3754 78.1107 53.3909 78.5815 53.5112 79.0323C53.6314 79.4831 53.8534 79.9026 54.1612 80.2609C54.4689 80.6192 54.855 80.9073 55.2916 81.1048C55.7281 81.3023 56.2045 81.4042 56.6866 81.4032H174.458C175.22 81.406 175.958 81.1518 176.547 80.6846C177.135 80.2173 177.535 79.5663 177.679 78.8441L179.409 70.1405H54.9655L53.4656 77.6534Z" fill="#B6B2B9"/>
<path d="M188.812 0.47588H70.8606C70.0979 0.473796 69.3583 0.739126 68.7693 1.22614C68.1803 1.71316 67.7789 2.39136 67.6341 3.14389L54.8157 70.1405H179.437L192.02 4.36671C192.112 3.88954 192.097 3.39784 191.978 2.92694C191.858 2.45604 191.636 2.01769 191.327 1.6434C191.019 1.26911 190.631 0.968177 190.193 0.762296C189.755 0.556415 189.277 0.450704 188.793 0.452726" fill="white"/>
<path d="M108.3 81.4033C109.836 77.1476 110.791 74.1013 110.791 74.1013C110.791 74.1013 114.316 55.6217 98.5979 60.3584C98.5979 60.3584 93.1437 64.4538 90.5788 73.1347C89.7788 75.8283 88.8279 78.7097 87.8998 81.3804H108.3" fill="#544B5C"/>
<path d="M141.388 81.4033C141.097 72.4068 140.523 65.1878 139.537 63.2429C136.617 58.0096 124.683 53.2466 124.683 53.2466L108.367 55.6258C108.367 55.6258 101.551 57.5346 99.3579 62.293C98.6222 63.8942 96.8407 71.674 94.9389 81.4033H141.397" fill="#E1E5F5"/>
<path d="M110.884 41.8996C110.884 41.8996 109.864 49.2629 107.618 54.6372C107.618 54.6372 107.005 58.8161 115.987 57.0232C124.969 55.2302 123.743 50.8551 123.743 50.8551V33.537L110.884 41.8996Z" fill="white"/>
<path d="M99.1762 23.8641C99.1762 23.8641 99.2725 40.1584 103.912 48.003C107.081 51.3062 117.878 46.1227 122.421 39.119C126.965 32.1152 126.878 21.5634 123.284 15.71C119.689 9.85667 107.846 11.6076 104.375 13.6311C100.905 15.6546 98.9791 21.2585 99.1762 23.8641Z" fill="white"/>
<path d="M120.936 33.5202C120.936 33.5202 124.109 28.8041 126.232 31.6153C128.356 34.4266 120.983 40.1642 120.44 37.9787C119.896 35.7931 120.917 33.5202 120.917 33.5202" fill="#E1E5F5"/>
<path d="M99.2688 24.1697C99.2688 24.1697 93.569 19.2223 100.444 12.8289C102.936 10.9828 104.637 11.1647 106.6 11.3511C107.883 11.5177 109.185 11.4932 110.461 11.2783C114.585 10.5008 122.049 11.2784 124.8 15.5436C127.551 19.8089 126.565 29.69 125.777 30.6586C124.989 31.6271 122.639 32.2092 122.639 33.9553C122.639 35.7014 122.243 37.0565 121.653 37.0565C121.063 37.0565 121.068 34.1508 121.068 32.0182C121.068 29.8855 120.671 25.8158 119.685 22.9237C118.699 20.0317 114.188 20.1954 112.419 20.6001C110.65 21.0048 109.484 25.452 99.264 24.1879" fill="#23172D"/>
<path d="M106.643 46.0894C102.96 45.2929 103.448 42.4165 107.205 41.2195C107.205 41.2195 111.208 39.3989 112.568 42.1798C113.143 44.0322 110.34 46.8905 106.643 46.0894ZM120.656 28.9399C120.692 29.254 121.71 38.5478 118.013 41.1375C114.17 43.6954 114.01 40.423 110.97 39.9405C107.93 39.4581 105.443 39.6219 104.083 41.62C102.882 43.6135 103.119 44.4919 102.001 43.9366C101.759 44.5738 103.444 48.488 106.004 49.5257C108.565 50.5634 114.649 47.3683 117.374 44.9743C120.099 42.5803 121.779 41.0647 122.258 38.9893C122.737 36.9139 122.495 32.9223 123.061 30.1278C123.376 28.016 121.441 28.6213 120.656 28.9444" fill="#23172D"/>
<path d="M123.404 49.7271C123.404 49.7271 118.646 55.5826 110.837 56.3003C109.251 55.7007 108.397 52.8297 108.397 52.8297L107.178 54.6468C107.178 54.6468 106.565 58.2356 107.178 59.6438C107.906 59.7665 110.591 57.9721 110.591 57.9721C110.591 57.9721 112.446 60.4842 113.768 60.9612C115.089 61.4382 123.65 55.8188 124.503 53.0705C124.445 51.8804 124.066 50.7267 123.404 49.7271Z" fill="#23172D"/>
<path d="M142.805 81.4033C142.373 72.5334 141.818 65.7532 141.291 64.3555C139.293 59.9138 131.8 54.201 124.392 53.2466C124.392 53.2466 121.61 65.4908 118.872 81.4033H142.805Z" fill="#544B5C"/>
<path d="M100.839 81.4033C104.658 65.5 107.609 56.0623 107.609 56.0623C105.42 56.2979 101.532 57.9697 98.8583 60.5931C97.4082 63.4385 95.1638 71.6167 92.8271 81.4033H100.839Z" fill="#544B5C"/>
<path d="M110.605 58.174C109.164 63.7323 107.982 69.3499 106.906 74.9767L107.434 75.068C108.51 69.4458 109.697 63.8419 111.129 58.2927L110.605 58.174Z" fill="#91B9E6"/>
<path d="M208.231 24.2851C204.891 37.6968 191.334 48.5703 177.946 48.5703C164.558 48.5703 156.412 37.6968 159.747 24.2851C163.083 10.8735 176.644 0 190.032 0C203.42 0 211.567 10.8735 208.231 24.2851Z" fill="#00FFD1"/>
<path d="M177.614 36.602C177.245 36.616 176.878 36.5452 176.543 36.3955C176.207 36.2458 175.913 36.0214 175.686 35.7408L169.303 27.5308C168.411 26.3856 168.892 24.5281 170.377 23.3829C171.862 22.2378 173.781 22.2378 174.668 23.3829L179.44 29.5236L196.491 16.3451C197.976 15.1999 199.895 15.1999 200.787 16.3451C201.679 17.4903 201.198 19.3478 199.713 20.493L179.981 35.7408C179.317 36.2795 178.482 36.5833 177.614 36.602Z" fill="#23172D"/>
<path d="M22.9314 99.3082H20.5013V77.5947H22.9348V99.3082" fill="#E7E5E8"/>
<path d="M6.64632 35.6643C6.64632 35.6643 4.64944 36.6623 3.77628 39.5332C2.90312 42.4041 7.64434 50.1402 7.64434 49.7657C7.64434 49.3911 12.3873 47.2702 12.3873 47.2702L10.0158 38.5344L6.64632 35.6643Z" fill="#8600C7"/>
<path d="M32.6025 45.2249H70.0787L70.7335 41.7101H33.2582" fill="#E7E5E8"/>
<path d="M36.575 23.9208L33.2582 41.7144H70.7335L73.9739 24.337C74.0041 24.1749 73.9982 24.0081 73.9567 23.8485C73.9151 23.6888 73.839 23.5403 73.7336 23.4134C73.6282 23.2866 73.4962 23.1845 73.3469 23.1143C73.1976 23.0442 73.0346 23.0078 72.8697 23.0078H37.6783C37.4161 23.0077 37.1622 23.0994 36.9605 23.2669C36.7588 23.4345 36.6221 23.6673 36.5742 23.9251" fill="#CECBD0"/>
<path d="M55.0345 48.2997L64.956 40.9101L55.2222 40.3486L46.0489 47.4613L55.0336 48.3039" fill="#23172D"/>
<path d="M52.2579 45.8976L54.7542 44.5241C54.7542 44.5241 57.1639 43.5261 57.2344 43.5261C57.3049 43.5261 57.5147 43.7597 57.2573 44.2515C57 44.7433 56.323 44.8597 56.323 44.8597L55.8788 46.0997L58.1874 45.7727L58.7174 45.6479C58.7174 45.6479 58.3437 46.5822 58.1874 46.8022C58.0311 47.0222 57.1579 47.5819 57.1579 47.5819C57.1579 47.5819 55.5042 48.9545 54.9113 49.1108C54.3185 49.2671 52.2596 49.3605 52.2596 49.3605L50.9498 49.3291L49.7327 49.5788C49.3238 48.713 49.1411 47.7577 49.2018 46.8022L52.2596 45.8976" fill="white"/>
<path d="M67.0472 51.6377L74.2856 98.8087H76.0328L71.2907 51.3879L67.0438 51.6377" fill="#E7E5E8"/>
<path d="M81.7712 51.6377L89.0096 98.8087H90.7567L86.0138 51.3879L81.7712 51.6377Z" fill="#E7E5E8"/>
<path d="M39.3422 51.6377L32.1039 98.8087H30.3541L35.0962 51.3879L39.3431 51.6377" fill="#CECBD0"/>
<path d="M24.6166 51.6377L17.3782 98.8087H15.631L20.374 51.3879L24.6166 51.6377Z" fill="#CECBD0"/>
<path d="M87.0127 53.385H21.8714V51.1426H87.0127V53.3892" fill="#857E8A"/>
<path d="M88.2604 52.1371H23.8674C23.542 52.1286 23.2328 51.9934 23.0057 51.7603C22.7785 51.5271 22.6514 51.2145 22.6514 50.889C22.6514 50.5635 22.7785 50.2508 23.0057 50.0177C23.2328 49.7845 23.542 49.6493 23.8674 49.6408H88.2604C88.5858 49.6493 88.895 49.7845 89.1222 50.0177C89.3493 50.2508 89.4764 50.5635 89.4764 50.889C89.4764 51.2145 89.3493 51.5271 89.1222 51.7603C88.895 51.9934 88.5858 52.1286 88.2604 52.1371Z" fill="#FBC23D"/>
<path d="M26.0223 94.0674C26.0223 94.0674 26.4317 93.0652 28.1458 93.2436C29.8598 93.4219 30.0696 93.7387 30.3074 94.5788C30.5453 95.4188 31.1772 96.3038 31.5815 96.4805C31.9858 96.6572 33.468 97.5669 34.6537 97.7053C35.8394 97.8438 36.0042 98.5547 35.7579 98.8944C35.5116 99.2342 31.0863 99.7115 30.0976 99.6291C30.0976 99.6291 26.7621 99.7268 25.9654 99.5034C25.1687 99.28 25.9782 94.3953 26.0274 94.0674" fill="#00FFD1"/>
<path d="M26.4784 86.8809L25.9645 94.7037C25.9645 94.7037 27.1843 95.0961 28.1118 95.7764C29.4835 96.7812 30.6064 95.5641 30.6064 95.5641L30.9156 90.6428L26.4784 86.8809Z" fill="white"/>
<path d="M36.4093 73.1023L31.3555 94.8158C31.3555 94.8158 28.7344 95.1903 25.5526 93.6929C25.5526 93.6929 28.3606 73.2892 28.5475 71.9786C28.7344 70.668 36.0348 71.9786 36.4093 73.1023Z" fill="#8600C7"/>
<path d="M15.9215 16.9245C15.9215 16.9245 17.9965 17.311 19.3606 20.367C20.7247 23.4231 20.396 30.1349 19.6775 30.9647C18.9589 31.7946 16.5985 31.6553 13.2825 30.7999C9.77796 29.8954 8.38245 26.4078 7.61376 24.0967C6.14094 19.6723 9.7491 14.7781 15.9215 16.9245Z" fill="white"/>
<path d="M10.1619 34.809L11.351 29.0927C11.351 29.0927 14.4224 27.9707 16.5195 29.9294L17.2329 30.7991L17.475 34.4514C17.475 34.4514 14.2559 35.3212 10.1577 34.8065" fill="white"/>
<path d="M44.5565 94.0674C44.5565 94.0674 44.9659 93.0652 46.68 93.2436C48.394 93.4219 48.603 93.7387 48.8408 94.5788C49.0786 95.4188 49.7106 96.3038 50.1149 96.4805C50.5192 96.6572 52.0013 97.5669 53.1871 97.7053C54.3728 97.8438 54.5376 98.5547 54.2913 98.8944C54.0449 99.2342 49.6197 99.7115 48.6293 99.6291C48.6293 99.6291 45.2947 99.7268 44.4979 99.5034C43.7012 99.28 44.5107 94.3953 44.5599 94.0674" fill="#00FFD1"/>
<path d="M42.5852 87.4525L44.4581 95.0655C44.4581 95.0655 45.9547 94.6909 46.8287 95.44C47.7027 96.1892 49.3241 95.6889 49.3241 95.6889L47.9516 89.6991L42.5852 87.4525Z" fill="white"/>
<path d="M27.112 61.995C27.4866 61.995 40.2154 66.2419 42.7117 68.1105C45.2071 70.1074 49.2 92.3517 49.4497 92.8503C49.6995 93.3489 45.8314 94.7189 43.3342 94.3477C43.2094 93.8492 37.3444 75.0983 37.3444 73.8506C37.3444 73.8506 27.3609 73.3512 23.1182 72.6029C18.8756 71.8546 16.0047 71.7288 14.2575 67.1116C12.5104 62.4944 22.7436 62.1207 22.7436 62.1207L27.1111 61.995" fill="#8600C7"/>
<path d="M48.8884 45.585C48.8884 45.585 51.3219 45.523 51.5087 45.7727C51.6956 46.0224 52.5696 48.2682 51.7584 49.2042L51.0721 49.7036H48.9487L48.8859 45.585" fill="#E7E5E8"/>
<path d="M9.73462 33.98L10.3937 32.2948C10.3937 32.2948 14.3247 31.0785 17.6941 32.5759C18.5367 33.4177 19.0039 34.7283 19.0039 34.7283L9.73798 33.98" fill="#E7E5E8"/>
<path d="M8.89298 34.1669C8.89298 34.1669 9.39158 33.2937 10.2656 33.168C11.1396 33.0423 15.1325 32.5445 17.7528 33.2937C18.7509 33.6674 19.2503 34.1669 19.2503 34.1669C19.2503 34.1669 22.9943 35.4146 24.2421 36.1637C25.4898 36.9129 25.8644 42.653 26.1107 44.5242C26.357 46.3953 25.6113 48.3931 25.6113 48.3931C25.6113 48.3931 28.6062 60.6241 28.6062 62.3696C28.6062 64.115 27.6081 66.1136 24.1138 67.3613C20.6195 68.6091 11.1353 68.1105 7.89069 66.1136C6.89267 64.1167 5.39524 40.4064 5.14552 38.1598C4.8958 35.9132 8.88958 34.1677 8.88958 34.1677" fill="#8600C7"/>
<path d="M22.1831 35.6643C22.1831 35.6643 23.1174 35.1028 25.3649 36.5986C27.6123 38.0943 33.789 43.7113 34.5382 44.0859C35.2873 44.4604 49.7004 45.2087 49.7004 45.2087C49.7004 45.2087 51.7593 47.8299 49.5135 49.8888C49.5135 49.8888 35.599 50.4502 32.9787 50.2634C30.3584 50.0765 21.6226 45.0219 21.6226 45.0219C21.6226 45.0219 18.0654 39.7804 22.184 35.6626" fill="#8600C7"/>
<path d="M18.9071 20.9701C18.9071 20.9701 19.2817 22.6545 17.7842 23.7773L17.8776 25.646C17.8776 25.646 18.4391 27.3303 18.0645 27.5146C17.6899 27.6989 17.5974 27.4212 17.5974 27.4212C17.5974 27.4212 16.3802 25.4557 16.0056 25.3623C15.631 25.2688 16.8482 27.9826 16.8482 27.9826C16.8482 27.9826 15.6311 29.8512 13.3853 30.1358L13.8533 29.4801C13.8533 29.4801 12.8239 30.1358 11.2321 30.0415C9.6404 29.9472 8.42491 27.5146 8.42491 27.5146C8.42491 27.5146 8.70521 28.1703 8.42491 28.4489C8.14462 28.7275 6.55631 26.2966 6.45948 23.2083L5.99146 24.1426C6.10227 22.5796 6.41635 21.0377 6.92577 19.5559C7.7675 17.1225 11.5124 15.3439 13.5705 15.3439C15.6285 15.3439 17.6891 15.5316 18.2505 15.3439C18.812 15.1562 18.5317 16.7479 18.5317 16.7479C18.6965 16.3559 18.8217 15.9485 18.9054 15.5316C19.28 15.2504 19.8397 17.497 19.6545 18.3396L19.4668 19.1814C19.4668 19.1814 20.1226 18.3396 20.216 17.8716C20.5897 17.7773 20.4963 19.8362 18.9054 20.96" fill="#FFA800"/>
<path d="M55.567 47.4986L58.3037 46.9516L58.8702 45.7183L58.5619 45.5765L58.0675 46.6526L55.5007 47.1623L55.567 47.4952" fill="#E74D4D"/>
<path d="M57.9827 46.7343L57.7712 46.9109C57.5784 47.0706 57.2853 47.3127 57.0229 47.5225C56.8921 47.6278 56.768 47.7246 56.6712 47.7994C56.6228 47.8359 56.5803 47.8673 56.5472 47.8902C56.528 47.9046 56.5078 47.9176 56.4869 47.9293C56.4171 47.9601 56.3453 47.9862 56.272 48.0074C56.1183 48.0567 55.9221 48.1128 55.7624 48.1552C55.6027 48.1977 55.4889 48.2291 55.4889 48.2291L55.5738 48.557C55.5738 48.557 55.7862 48.5026 56.0223 48.4355C56.1404 48.4016 56.2644 48.365 56.3722 48.3311C56.4624 48.3043 56.5507 48.2714 56.6364 48.2325C56.6864 48.2047 56.7343 48.1735 56.78 48.1391C56.9779 47.9947 57.3295 47.7144 57.6353 47.4596C57.941 47.2048 58.1975 46.9942 58.1984 46.9942L57.9801 46.7343" fill="#E74D4D"/>
<path d="M16.9663 28.7537C16.9444 28.8397 16.9341 28.9283 16.9357 29.017C16.9415 29.3692 17.0654 29.7093 17.2874 29.9828C17.5761 30.3557 18.0824 30.7328 18.947 31.0207L19.054 30.6988C18.2344 30.4253 17.7936 30.083 17.5557 29.7755C17.3793 29.5616 17.2802 29.2943 17.2746 29.017C17.2743 28.9727 17.2777 28.9283 17.2848 28.8845L17.2908 28.8523V28.8463L17.1964 28.82L17.2899 28.8472L17.1956 28.8208L17.2891 28.848L16.9637 28.7546" fill="#B6B2B9"/>
<path d="M68.2932 38.6567H48.3269L50.8241 25.6807H70.7912L68.2932 38.6567Z" fill="#23172D"/>
<path d="M19.0616 26.6627C19.0616 27.5894 18.5222 28.3402 17.858 28.3402C17.1938 28.3402 16.6545 27.5894 16.6545 26.6627C16.6545 25.736 17.193 24.9852 17.858 24.9852C18.5231 24.9852 19.0616 25.736 19.0616 26.6627Z" fill="#3B3144"/>
<path d="M17.932 26.9064L18.0755 27.0669C18.3958 27.4253 19.1976 28.3325 19.9178 29.2116C20.278 29.6507 20.6177 30.083 20.8649 30.4347C20.9696 30.5802 21.0669 30.7311 21.1562 30.8866C21.1842 30.9364 21.2089 30.9881 21.2301 31.0411C21.2393 31.0638 21.2458 31.0875 21.2497 31.1116C21.2507 31.144 21.2449 31.1763 21.2326 31.2063C21.2203 31.2363 21.2018 31.2634 21.1783 31.2858C21.0757 31.3703 20.9516 31.4247 20.8199 31.4429C20.6865 31.4676 20.5512 31.4799 20.4156 31.4794H20.3374H20.3111L20.2916 31.7699C20.2916 31.7699 20.3409 31.7699 20.4156 31.7699C20.6324 31.7744 20.8487 31.7458 21.0569 31.685C21.1792 31.6477 21.2914 31.5829 21.3847 31.4956C21.4352 31.446 21.4751 31.3867 21.5019 31.3213C21.5288 31.2559 21.5421 31.1857 21.541 31.115C21.5377 31.0458 21.5212 30.9777 21.4926 30.9146C21.3864 30.6598 21.1316 30.2945 20.8004 29.8571C19.8083 28.5542 18.1503 26.7144 18.1486 26.7144L17.932 26.9098" fill="#3B3144"/>
<path d="M37.3453 64.6161L35.0987 74.9743H33.7261L34.9739 64.8667L37.3453 64.617" fill="#857E8A"/>
<path d="M41.4631 65.4893H21.3558V62.9938H39.4671C39.9965 62.9938 40.5042 63.2041 40.8785 63.5785C41.2528 63.9528 41.4631 64.4605 41.4631 64.9899V65.4893Z" fill="#857E8A"/>
<path d="M4.89916 73.8506L0.0313727 50.4451C-0.0139381 50.2273 -0.0101239 50.0021 0.0425291 49.7859C0.0951822 49.5697 0.195338 49.3679 0.335747 49.1953C0.476155 49.0227 0.653265 48.8835 0.854207 48.788C1.05515 48.6924 1.27486 48.6428 1.49738 48.6428H17.6007C18.0312 48.6421 18.4487 48.7901 18.7827 49.0617C19.1167 49.3333 19.3466 49.7118 19.4337 50.1334L24.3652 73.8506" fill="#857E8A"/>
<path d="M37.9714 76.4183H7.38953C6.88708 76.4183 6.3982 76.2552 5.99631 75.9537C5.59442 75.6521 5.30124 75.2283 5.16078 74.7459L4.89917 73.8506H37.9714V76.4183Z" fill="#857E8A"/>
<path d="M22.8567 96.0746H20.8547L11.7324 99.6964H31.979L22.8567 96.0746Z" fill="#E7E5E8"/>
</svg>
