<svg width="417" height="326" viewBox="0 0 417 326" fill="none" xmlns="http://www.w3.org/2000/svg">
<g clip-path="url(#clip0_1111_3652)">
<path d="M271.51 309.579C235.674 310.147 207.382 288.981 200.938 262.403C194.365 235.297 176.607 222.423 145.807 217.644C115.006 212.865 59.0898 172.506 67.8939 118.837C67.8939 118.837 69.2516 61.8562 122.108 23.2009C143.157 7.8072 169.166 4.31812 186.88 4.03741C199.104 3.84371 207.382 5.17511 207.382 5.17511C251.854 6.85917 273.56 33.6292 282.778 63.2083L218.488 64.2271C218.055 64.2327 217.638 64.3892 217.308 64.6695C216.978 64.9499 216.756 65.3365 216.681 65.7627L213.121 85.9996L195.839 86.2735C195.032 86.2861 194.254 86.5808 193.641 87.1067C193.028 87.6325 192.618 88.3562 192.483 89.1524L183.147 144.112L280.666 142.566L281.065 167.759L308.531 167.324C326.252 181.059 348.294 196.986 353.085 227.536C361.872 283.561 310.484 308.069 273.649 309.532C272.935 309.559 272.224 309.581 271.515 309.592L271.51 309.579ZM287.43 84.8351L283.86 84.8917L285.696 74.4571C286.418 77.9255 286.994 81.3989 287.43 84.8351Z" fill="#AC00FF"/>
<path d="M156.742 140.459C156.742 140.459 154.07 112.15 162.107 93.1215C165.371 88.6219 167.621 90.2529 167.621 90.2529C167.621 90.2529 168.918 101.907 166.313 113.068C163.709 124.229 162.386 145.93 162.386 145.93L156.74 140.459" fill="#00D8AE"/>
<path d="M155.038 138.262C155.038 138.262 154.272 124.931 140.192 113.482C126.112 102.033 123.332 102.075 123.332 102.075C123.332 102.075 134.44 101.341 142.301 106.222C150.162 111.102 153.16 124.951 153.75 127.165C154.34 129.38 157.819 138.218 157.819 138.218L155.038 138.262Z" fill="#00D8AE"/>
<path d="M164.085 140.165C164.085 140.165 166.493 127.029 181.861 117.382C197.228 107.735 199.992 108.131 199.992 108.131C199.992 108.131 189.059 106.041 180.659 109.918C172.259 113.795 167.589 127.174 166.725 129.299C165.861 131.424 161.334 139.771 161.334 139.771L164.085 140.157" fill="#00D8AE"/>
<path d="M157.819 138.218C157.819 138.218 142.609 90.6492 129.65 79.7374C130.181 78.0597 145.267 82.8259 149.907 94.9815C154.548 107.137 155.947 125.461 157.696 130.441C158.845 133.652 160.194 136.786 161.735 139.828" fill="#00FFD1"/>
<path d="M156.742 140.459C156.742 140.459 161.887 114.25 176.195 105.127C177.36 108.445 161.673 135.933 163.533 148.135C165.393 160.338 156.739 140.459 156.739 140.459" fill="#00FFD1"/>
<path d="M149.272 170.028L170.649 169.689C171.815 160.754 172.8 152.722 172.947 149.653C173.269 143.332 171.054 138.014 169.962 135.804L148.869 136.139C147.858 138.381 145.803 143.775 146.324 150.075C146.577 153.137 147.808 161.134 149.257 170.028" fill="#857E8A"/>
<path d="M304.701 167.371L343.901 166.75L343.06 113.715L303.86 114.337L304.701 167.371Z" fill="#00FFD1"/>
<path d="M300.667 167.435L339.864 166.814L339.024 113.779L299.827 114.401L300.667 167.435Z" fill="#00FFD1"/>
<path d="M290.866 167.591L330.066 166.969L329.14 108.554L289.94 109.175L290.866 167.591Z" fill="#FFA800"/>
<path d="M281.065 167.746L326.03 167.033L325.104 108.618L280.139 109.331L281.065 167.746Z" fill="#FFA800"/>
<path d="M318.345 167.155L326.03 167.033L325.104 108.618L317.419 108.74L318.345 167.155Z" fill="#FFA800"/>
<path d="M100.898 126.778C100.898 126.778 94.7968 129.949 92.2479 138.833C89.699 147.717 104.678 171.31 104.659 170.157C104.641 169.003 119.144 162.24 119.144 162.24L111.415 135.453L100.898 126.778Z" fill="#3B3144"/>
<path d="M255.227 170.994L246.778 149.673L226.48 149.995L234.929 171.316" fill="#3B3144"/>
<path d="M181.299 154.955L296.712 153.126L298.557 142.27L183.147 144.099" fill="#E7E5E8"/>
<path d="M192.494 89.1523L183.147 144.112L298.557 142.283L307.689 88.6088C307.774 88.108 307.747 87.5946 307.612 87.1051C307.476 86.6155 307.234 86.1619 306.903 85.7763C306.573 85.3907 306.161 85.0827 305.698 84.874C305.235 84.6654 304.731 84.5613 304.223 84.5691L195.847 86.2865C195.039 86.2991 194.262 86.5938 193.649 87.1197C193.036 87.6455 192.626 88.3692 192.491 89.1654" fill="#CECBD0"/>
<path d="M250.532 163.329L280.726 140.088L250.722 138.834L222.819 161.186L250.53 163.342" fill="#23172D"/>
<path d="M241.864 156.067L249.484 151.716C249.484 151.716 256.857 148.525 257.074 148.521C257.291 148.518 257.948 149.227 257.18 150.754C256.411 152.281 254.332 152.672 254.332 152.672L253.024 156.513L260.118 155.393L261.744 154.983C261.744 154.983 260.639 157.879 260.168 158.564C259.698 159.249 257.036 161.015 257.036 161.015C257.036 161.015 252.01 165.323 250.192 165.833C248.374 166.343 242.038 166.732 242.038 166.732L238.003 166.699L234.267 167.527C232.965 164.881 232.356 161.948 232.496 159.002L241.869 156.067" fill="white"/>
<path d="M287.69 173.023L312.283 317.939L317.664 317.853L300.746 172.047L287.679 173.023" fill="#E7E5E8"/>
<path d="M333.034 172.304L357.627 317.22L363.008 317.135L346.087 171.328L333.034 172.304Z" fill="#E7E5E8"/>
<path d="M202.368 174.375L182.379 319.997L176.991 320.083L189.28 173.813L202.371 174.375" fill="#CECBD0"/>
<path d="M157.019 175.093L137.029 320.716L131.649 320.801L143.941 174.531L157.019 175.093Z" fill="#CECBD0"/>
<path d="M349.261 177.429L148.65 180.608L148.541 173.703L349.152 170.524L349.261 177.442" fill="#857E8A"/>
<path d="M353.043 173.526L154.736 176.668C153.734 176.658 152.775 176.257 152.064 175.55C151.353 174.843 150.946 173.886 150.931 172.884C150.915 171.881 151.291 170.912 151.979 170.183C152.667 169.454 153.613 169.022 154.614 168.98L352.921 165.838C353.923 165.848 354.882 166.25 355.593 166.956C356.304 167.663 356.711 168.62 356.727 169.622C356.743 170.625 356.366 171.594 355.678 172.323C354.99 173.052 354.044 173.484 353.043 173.526Z" fill="#FBC23D"/>
<path d="M163.418 305.693C163.418 305.693 164.63 302.586 169.918 303.052C175.205 303.518 175.867 304.483 176.64 307.058C177.413 309.634 179.403 312.329 180.656 312.853C181.91 313.377 186.519 316.106 190.177 316.475C193.836 316.843 194.378 319.025 193.636 320.083C192.894 321.141 179.289 322.827 176.24 322.622C176.24 322.622 165.973 323.085 163.509 322.436C161.044 321.787 163.298 306.705 163.434 305.693" fill="#23172D"/>
<path d="M164.473 283.539L163.272 307.655C163.272 307.655 167.047 308.804 169.937 310.854C174.21 313.881 177.609 310.078 177.609 310.078L178.321 294.907L164.473 283.539Z" fill="white"/>
<path d="M194.384 240.621L179.88 307.737C179.88 307.737 171.826 309.019 161.954 304.562C161.954 304.562 169.606 241.589 170.118 237.544C170.629 233.499 193.176 237.179 194.384 240.621Z" fill="#3B3144"/>
<path d="M128.547 68.6141C128.547 68.6141 134.956 69.703 139.306 79.048C143.656 88.3929 142.972 109.079 140.799 111.669C138.627 114.26 131.351 113.946 121.097 111.474C110.26 108.859 105.792 98.1871 103.312 91.1071C98.5606 77.5534 109.434 62.3053 128.547 68.6141Z" fill="white"/>
<path d="M111.683 123.973L115.066 106.311C115.066 106.311 124.47 102.705 131.023 108.635L133.263 111.279L134.187 122.515C134.187 122.515 124.316 125.35 111.669 123.965" fill="white"/>
<path d="M113.192 232.245C113.192 232.245 133.884 237.935 158.297 236.724C182.71 235.513 185.833 228.527 186.492 221.913C187.151 215.299 168.081 211.582 159.781 209.542C151.481 207.502 123.094 199.825 115.581 208.189C108.069 216.552 106.456 226.716 113.192 232.245Z" fill="#23172D"/>
<path d="M220.497 304.788C220.497 304.788 221.709 301.682 226.997 302.147C232.284 302.613 232.943 303.579 233.716 306.154C234.49 308.729 236.479 311.424 237.733 311.948C238.986 312.473 243.595 315.202 247.254 315.57C250.912 315.939 251.454 318.12 250.712 319.179C249.97 320.237 236.366 321.923 233.312 321.718C233.312 321.718 223.047 322.181 220.582 321.532C218.118 320.883 220.372 305.8 220.508 304.788" fill="#23172D"/>
<path d="M214.104 284.513L220.243 307.867C220.243 307.867 224.833 306.64 227.562 308.904C230.29 311.169 235.259 309.549 235.259 309.549L230.74 291.17L214.104 284.513Z" fill="white"/>
<path d="M165.21 206.868C166.363 206.85 205.77 219.308 213.549 224.941C221.332 230.968 234.714 299.278 235.507 300.801C236.301 302.324 224.455 306.732 216.747 305.711C216.338 304.182 197.361 246.722 197.3 242.88C197.3 242.88 166.53 241.829 153.428 239.732C140.326 237.634 131.478 237.387 125.872 223.253C120.266 209.119 151.763 207.469 151.763 207.469L165.207 206.868" fill="#3B3144"/>
<path d="M231.472 155.269C231.472 155.269 238.963 154.959 239.551 155.719C240.138 156.479 242.94 163.353 240.487 166.275L238.398 167.846L231.859 167.95L231.464 155.269" fill="#E7E5E8"/>
<path d="M110.327 121.441L112.274 116.219C112.274 116.219 124.321 112.281 134.77 116.728C137.406 119.28 138.909 123.293 138.909 123.293L110.337 121.441" fill="#E7E5E8"/>
<path d="M107.743 122.057C107.743 122.057 109.236 119.344 111.922 118.914C114.607 118.484 126.879 116.757 134.986 118.936C138.077 120.038 139.64 121.552 139.64 121.552C139.64 121.552 151.231 125.212 155.11 127.458C158.989 129.704 160.423 147.363 161.273 153.114C162.123 158.864 159.924 165.053 159.924 165.053C159.924 165.053 169.744 202.574 169.829 207.949C169.914 213.324 166.938 219.528 156.238 223.541C145.537 227.554 116.305 226.482 106.216 220.49C103.045 214.389 97.276 141.443 96.3973 134.537C95.5186 127.63 107.733 122.06 107.733 122.06" fill="#3B3144"/>
<path d="M148.745 126.02C148.745 126.02 151.595 124.246 158.59 128.742C165.584 133.239 184.88 150.236 187.205 151.353C189.531 152.47 233.954 154.071 233.954 154.071C233.954 154.071 240.423 162.042 233.607 168.493C233.607 168.493 190.783 170.901 182.704 170.453C174.625 170.006 147.476 154.865 147.476 154.865C147.476 154.865 136.265 138.897 148.748 126.015" fill="#3B3144"/>
<path d="M139.757 151.903C139.757 151.903 148.82 156.469 158.407 161.121C163.2 163.444 168.125 165.781 172.115 167.573C174.112 168.47 175.874 169.23 177.275 169.786C178.676 170.342 179.699 170.689 180.3 170.769C181.744 170.95 184.437 170.965 187.419 170.917C193.372 170.823 200.425 170.45 200.425 170.45L200.391 169.775C200.391 169.775 199.949 169.8 199.196 169.836C196.938 169.948 191.86 170.177 187.408 170.248C184.444 170.295 181.744 170.269 180.386 170.097C179.935 170.042 178.901 169.702 177.524 169.156C172.672 167.234 163.294 162.767 155.144 158.784C151.067 156.789 147.293 154.918 144.543 153.546L141.267 151.905C140.489 151.517 140.057 151.299 140.057 151.296L139.752 151.898" fill="#1D2243"/>
<path d="M188.171 155.691C188.171 155.691 188.172 155.738 188.195 155.834C188.295 156.484 188.349 157.14 188.356 157.797C188.392 160.02 187.963 163.499 185.44 165.912L185.905 166.399C188.639 163.771 189.065 160.093 189.031 157.786C189.026 157.04 188.959 156.295 188.831 155.56L188.171 155.691Z" fill="#1D2243"/>
<path d="M190.886 153.971L190.982 154.124C191.423 154.839 193.205 157.971 193.245 161C193.272 161.859 193.125 162.714 192.811 163.514L193.432 163.766C193.78 162.882 193.943 161.936 193.912 160.987C193.852 157.247 191.44 153.627 191.44 153.601L190.875 153.968" fill="#1D2243"/>
<path d="M139.813 144.014L139.812 143.956C139.539 142.868 139.397 141.751 139.39 140.629C139.333 137.03 140.412 131.322 146.904 126.905L146.526 126.348C139.817 130.903 138.648 136.91 138.715 140.645C138.719 141.849 138.875 143.048 139.18 144.212L139.826 144.019" fill="#1D2243"/>
<path d="M100.366 134.817C100.366 134.817 98.5677 153.422 98.7059 162.14L99.3782 162.129C99.3098 157.813 99.725 150.991 100.158 145.262C100.374 142.396 100.594 139.8 100.761 137.927C100.927 136.053 101.04 134.89 101.04 134.887L100.369 134.822" fill="#1D2243"/>
<path d="M111.331 122.749C111.331 122.749 111.71 122.709 112.397 122.648C114.461 122.466 119.29 122.091 124.869 122.003C128.723 121.919 132.579 122.033 136.421 122.343L136.484 121.672C132.617 121.36 128.737 121.247 124.859 121.333C117.388 121.452 111.265 122.072 111.265 122.072L111.331 122.749Z" fill="#1D2243"/>
<path d="M203.453 241.982C203.487 241.981 205.171 241.4 207.135 239.529C209.099 237.659 211.333 234.492 212.468 229.314L211.809 229.17C210.703 234.216 208.535 237.257 206.672 239.042C205.94 239.748 205.124 240.36 204.242 240.865C204.001 241.003 203.753 241.128 203.499 241.241L203.302 241.322L203.252 241.339L203.466 241.976" fill="#1D2243"/>
<path d="M207.948 242.811C208.777 242.491 209.543 242.027 210.211 241.441C211.437 240.414 212.875 238.688 213.75 235.913L213.108 235.711C212.271 238.357 210.917 239.967 209.789 240.927C209.34 241.306 208.851 241.635 208.331 241.91C208.145 242.007 207.996 242.073 207.895 242.113L207.781 242.16L207.749 242.16L207.958 242.801" fill="#1D2243"/>
<path d="M183.745 254.489L174.643 304.06L175.307 304.183L184.407 254.609" fill="#1D2243"/>
<path d="M137.939 80.9274C137.939 80.9274 139.175 86.0961 134.618 89.6273L134.997 95.3774C134.997 95.3774 136.808 100.537 135.664 101.123C134.519 101.709 134.221 100.858 134.221 100.858C134.221 100.858 130.376 94.8645 129.218 94.5951C128.06 94.3256 131.941 102.624 131.941 102.624C131.941 102.624 128.284 108.438 121.382 109.424L122.791 107.381C122.791 107.381 119.653 109.451 114.746 109.238C109.839 109.026 105.978 101.593 105.978 101.593C105.978 101.593 106.873 103.599 106.023 104.471C105.174 105.342 100.163 97.9336 99.7146 88.4274L98.3188 91.3276C98.5838 86.5087 99.4758 81.745 100.972 77.1568C103.446 69.6216 114.892 63.9614 121.23 63.861C127.568 63.7606 133.923 64.2381 135.643 63.6326C137.363 63.0271 136.577 67.9427 136.577 67.9427C137.066 66.7276 137.431 65.4667 137.669 64.1787C138.809 63.2946 140.642 70.186 140.113 72.7899L139.576 75.3913C139.576 75.3913 141.554 72.767 141.819 71.3212C142.965 71.0126 142.778 77.3578 137.934 80.8961" fill="#23172D"/>
<path d="M133.984 95.3541C133.984 95.3541 132.759 91.5117 129.595 93.5922C126.43 95.6727 131.115 104.685 133.776 103.861C136.437 103.036 134.711 96.8104 133.984 95.3541Z" fill="white"/>
<path d="M252.133 160.836L260.535 159.018L262.219 155.193L261.263 154.771L259.793 158.109L251.913 159.804L252.133 160.826" fill="#E74D4D"/>
<path d="M259.536 158.364L258.893 158.919C258.307 159.42 257.416 160.18 256.618 160.839C256.22 161.17 255.843 161.474 255.548 161.709C255.401 161.824 255.272 161.923 255.171 161.995C255.112 162.04 255.051 162.081 254.987 162.118C254.774 162.216 254.554 162.3 254.329 162.369C253.858 162.528 253.256 162.711 252.767 162.849C252.277 162.988 251.928 163.09 251.928 163.09L252.206 164.096C252.206 164.096 252.857 163.918 253.581 163.7C253.943 163.589 254.323 163.471 254.654 163.361C254.93 163.274 255.2 163.169 255.462 163.045C255.615 162.957 255.761 162.858 255.9 162.75C256.502 162.296 257.572 161.415 258.501 160.615C259.43 159.816 260.21 159.154 260.213 159.154L259.528 158.364" fill="#E74D4D"/>
<path d="M132.342 104.993C132.279 105.259 132.251 105.532 132.26 105.805C132.296 106.89 132.694 107.931 133.391 108.763C134.298 109.897 135.876 111.034 138.553 111.878L138.867 110.882C136.329 110.079 134.955 109.047 134.207 108.111C133.653 107.461 133.335 106.643 133.304 105.789C133.301 105.652 133.309 105.515 133.329 105.38L133.346 105.281L133.346 105.262L133.054 105.186L133.343 105.265L133.051 105.188L133.34 105.268L132.334 104.996" fill="#B6B2B9"/>
<path d="M290.893 132.985L229.405 133.96L236.462 93.8768L297.953 92.9024L290.893 132.985Z" fill="#23172D"/>
<path d="M209.231 108.149C209.184 108.419 209.198 108.696 209.27 108.96C209.343 109.225 209.473 109.47 209.651 109.678C209.829 109.886 210.052 110.052 210.302 110.165C210.552 110.277 210.823 110.333 211.097 110.328L278.045 109.267C278.478 109.262 278.896 109.105 279.226 108.825C279.556 108.545 279.777 108.158 279.852 107.731L280.755 102.591L210.014 103.712L209.231 108.149Z" fill="#B6B2B9"/>
<path d="M285.425 63.1663L218.488 64.2271C218.055 64.2328 217.638 64.3892 217.308 64.6696C216.978 64.9499 216.756 65.3365 216.681 65.7628L210.006 103.712L280.728 102.592L287.281 65.3347C287.329 65.0644 287.316 64.7869 287.244 64.522C287.172 64.2572 287.042 64.0116 286.863 63.803C286.685 63.5944 286.462 63.428 286.212 63.3157C285.961 63.2033 285.689 63.1479 285.415 63.1534" fill="white"/>
<path d="M240.394 109.892C241.234 107.448 241.753 105.7 241.753 105.7C241.753 105.7 243.603 95.1163 234.653 97.9635C234.653 97.9635 231.569 100.351 230.18 105.332C229.747 106.877 229.229 108.531 228.722 110.064L240.394 109.879" fill="#544B5C"/>
<path d="M259.021 109.597C258.774 104.397 258.383 100.227 257.808 99.1114C256.11 96.1112 249.32 93.4637 249.32 93.4637L240.119 94.9857C240.119 94.9857 236.283 96.1506 235.087 98.922C234.686 99.8546 233.75 104.37 232.764 110.013L259.026 109.597" fill="#E1E5F5"/>
<path d="M241.568 87.3412C241.568 87.3412 241.076 91.4751 239.897 94.5052C239.897 94.5052 239.599 96.8516 244.49 95.7694C249.382 94.6872 248.673 92.2469 248.673 92.2469L248.519 82.545L241.568 87.3412Z" fill="white"/>
<path d="M234.518 77.2488C234.518 77.2488 234.719 86.4737 237.437 90.8733C239.274 92.715 245.388 89.6825 247.917 85.6759C250.446 81.6693 250.302 75.6957 248.199 72.414C246.096 69.1323 239.355 70.2308 237.393 71.4079C235.431 72.585 234.382 75.7753 234.518 77.2488Z" fill="white"/>
<path d="M247.05 82.2621C247.05 82.2621 248.747 79.5533 249.936 81.1331C251.125 82.7129 247.136 86.0388 246.818 84.8011C246.5 83.5633 247.039 82.2622 247.039 82.2622" fill="#F7978A"/>
<path d="M234.519 77.2488C234.519 77.2488 231.238 74.4541 235.082 70.7145C236.481 69.6301 237.448 69.7194 238.564 69.809C239.294 69.8933 240.032 69.8675 240.755 69.7324C243.089 69.248 247.334 69.6282 248.934 72.057C250.535 74.4858 250.065 80.1788 249.626 80.743C249.188 81.3073 247.859 81.6632 247.875 82.6677C247.891 83.6721 247.678 84.4552 247.344 84.4605C247.009 84.4658 246.985 82.7943 246.965 81.5675C246.946 80.3407 246.684 78.0031 246.098 76.3484C245.512 74.6936 242.952 74.8284 241.952 75.0771C240.951 75.3258 240.33 77.8945 234.516 77.2593" fill="#23172D"/>
<path d="M246.705 79.8255L246.819 79.7671L246.704 79.8229" fill="#9E6771"/>
<path d="M246.832 79.7698L246.895 79.7372L246.832 79.7645" fill="#58405B"/>
<path d="M239.012 89.7259C236.894 89.3016 237.148 87.644 239.29 86.9219C239.29 86.9219 241.567 85.8393 242.372 87.4252C242.718 88.4846 241.138 90.1527 239.012 89.7259ZM246.887 79.7425C246.91 79.9226 247.578 85.2548 245.483 86.7767C243.304 88.2817 243.183 86.4024 241.436 86.1527C239.69 85.9031 238.265 86.0198 237.504 87.1805C236.834 88.3371 236.978 88.8398 236.332 88.5308C236.2 88.8992 237.201 91.1335 238.677 91.7066C240.154 92.2797 243.612 90.3882 245.152 88.9876C246.692 87.587 247.64 86.7007 247.896 85.5035C248.152 84.3064 247.977 82.0146 248.276 80.4033C248.437 79.1868 247.334 79.5522 246.887 79.7451" fill="#23172D"/>
<path d="M248.665 91.5484C248.665 91.5484 246.035 94.963 241.636 95.4462C240.736 95.115 240.228 93.4693 240.228 93.4693L239.557 94.5267C239.557 94.5267 239.244 96.5988 239.602 97.4043C240.014 97.4684 241.512 96.4111 241.512 96.4111C241.512 96.4111 242.582 97.8412 243.332 98.104C244.082 98.3669 248.86 95.0543 249.316 93.464C249.272 92.7792 249.048 92.1182 248.665 91.5484Z" fill="#23172D"/>
<path d="M259.735 109.586C259.416 104.46 259.048 100.544 258.744 99.7402C257.602 97.189 253.42 93.9507 249.328 93.4635C249.328 93.4635 247.907 100.569 246.544 109.795L259.735 109.586Z" fill="#544B5C"/>
<path d="M235.966 109.962C237.983 100.747 239.568 95.2717 239.568 95.2717C238.331 95.4274 236.144 96.4275 234.653 97.9661C233.858 99.6218 232.661 104.363 231.427 110.034L235.966 109.962Z" fill="#544B5C"/>
<path d="M258.898 109.599C258.969 104.687 258.623 100.15 257.803 99.1115C255.152 96.9505 252.403 97.1327 251.066 99.6317C250.334 100.999 249.41 105.741 248.723 109.76L258.898 109.599Z" fill="#544B5C"/>
<path d="M241.371 96.3787C240.636 99.5749 240.044 102.803 239.509 106.035L239.797 106.083C240.332 102.853 240.928 99.633 241.657 96.4422L241.371 96.3787Z" fill="#91B9E6"/>
<path d="M297.243 61.1109C295.457 68.7844 287.815 75.1038 280.172 75.225C272.529 75.3461 267.78 69.223 269.563 61.5496C271.346 53.8761 278.99 47.5567 286.634 47.4356C294.277 47.3144 299.026 53.4375 297.243 61.1109Z" fill="#E7E5E8"/>
<path d="M300.28 75.9349C299.79 78.036 297.701 79.7647 295.608 79.7979C293.515 79.8311 292.217 78.156 292.704 76.055C293.192 73.9539 295.287 72.2251 297.377 72.192C299.467 72.1588 300.768 73.8365 300.28 75.9349Z" fill="#E7E5E8"/>
<path d="M279.946 68.4206C279.739 68.432 279.533 68.3942 279.344 68.3103C279.155 68.2264 278.988 68.0989 278.858 67.9381L275.206 63.2315C274.696 62.575 274.949 61.493 275.77 60.8154C276.591 60.1378 277.666 60.1208 278.174 60.7773L280.904 64.2976L290.335 56.5004C291.156 55.8228 292.232 55.8058 292.742 56.4623C293.252 57.1187 292.999 58.2007 292.178 58.8783L281.264 67.9C280.897 68.2184 280.432 68.4021 279.946 68.4206Z" fill="#23172D"/>
<path d="M181.342 39.8743L176.816 39.946C175.681 39.964 174.97 39.0542 175.24 37.9116L176.296 33.368C176.444 32.7954 176.77 32.2841 177.225 31.9071C177.681 31.5301 178.245 31.3066 178.835 31.2685L183.361 31.1968C184.499 31.1787 185.206 32.0886 184.939 33.2311L183.881 37.7747C183.733 38.3474 183.407 38.8586 182.951 39.2356C182.496 39.6126 181.932 39.8361 181.342 39.8743Z" fill="white"/>
<path d="M178.256 53.1954L178.251 52.892L173.723 52.9637C173.549 52.9734 173.375 52.9482 173.211 52.8897C173.047 52.8312 172.897 52.7405 172.768 52.623C172.65 52.5066 172.557 52.3677 172.494 52.2146C172.431 52.0614 172.399 51.8971 172.401 51.7314C172.4 51.5876 172.416 51.4441 172.449 51.3042L173.507 46.7584C173.638 46.2448 173.932 45.7875 174.345 45.4552C174.739 45.1211 175.235 44.9291 175.752 44.9096L180.277 44.8379C180.451 44.8275 180.625 44.8521 180.79 44.9102C180.954 44.9682 181.106 45.0586 181.235 45.1759C181.352 45.2924 181.445 45.4314 181.508 45.5846C181.57 45.7378 181.602 45.9021 181.599 46.0676C181.602 46.2115 181.585 46.3551 181.551 46.4948L180.495 51.0406C180.363 51.5539 180.068 52.0109 179.655 52.3438C179.261 52.6764 178.767 52.8683 178.251 52.8893L178.261 53.4988C178.917 53.4746 179.546 53.2285 180.045 52.8007C180.563 52.3841 180.93 51.8095 181.091 51.1646L182.147 46.6188C182.192 46.4309 182.214 46.2381 182.211 46.0448C182.213 45.7991 182.166 45.5556 182.072 45.3284C181.979 45.1012 181.841 44.8949 181.667 44.7217C181.288 44.377 180.789 44.1967 180.278 44.2204L175.752 44.2921C175.095 44.3164 174.465 44.5624 173.966 44.9902C173.45 45.408 173.083 45.9822 172.922 46.6263L171.863 51.1721C171.819 51.3603 171.798 51.553 171.799 51.7462C171.797 51.9918 171.845 52.2354 171.938 52.4626C172.031 52.6898 172.169 52.896 172.344 53.0693C172.722 53.414 173.222 53.5943 173.733 53.5706L178.261 53.4988L178.256 53.1928" fill="#857E8A"/>
<path d="M192.643 52.9683L188.114 53.04C186.979 53.058 186.269 52.1482 186.538 51.0083L187.594 46.4621C187.744 45.8903 188.069 45.3801 188.525 45.0037C188.981 44.6273 189.543 44.4039 190.133 44.3652L194.662 44.2934C195.797 44.2754 196.507 45.1852 196.238 46.3251L195.179 50.8714C195.03 51.4432 194.705 51.9536 194.25 52.33C193.795 52.7064 193.232 52.9298 192.643 52.9683Z" fill="#00FFD1"/>
<path d="M207.051 52.7399L202.522 52.8116C201.387 52.8296 200.676 51.9198 200.946 50.7799L202.004 46.2337C202.153 45.6619 202.478 45.1515 202.934 44.7751C203.389 44.3986 203.951 44.1753 204.541 44.1368L209.069 44.065C210.204 44.047 210.915 44.9568 210.645 46.0967L209.589 50.6429C209.44 51.2149 209.115 51.7254 208.659 52.1018C208.203 52.4783 207.64 52.7015 207.051 52.7399Z" fill="#23172D"/>
<path d="M175.071 66.8311L170.545 66.9029C169.407 66.9209 168.699 66.011 168.966 64.8686L170.025 60.3249C170.172 59.7525 170.497 59.2413 170.953 58.8643C171.408 58.4873 171.971 58.2637 172.561 58.2254L177.089 58.1536C178.227 58.1356 178.935 59.0455 178.665 60.188L177.61 64.7316C177.461 65.3043 177.136 65.8155 176.68 66.1925C176.224 66.5695 175.661 66.793 175.071 66.8311Z" fill="#00FFD1"/>
<path d="M171.689 81.3929L167.16 81.4646C166.025 81.4826 165.315 80.5728 165.584 79.4329L166.64 74.8867C166.789 74.3145 167.114 73.8038 167.57 73.4273C168.026 73.0508 168.589 72.8277 169.179 72.7897L173.705 72.718C174.843 72.7 175.551 73.6098 175.284 74.7497L174.223 79.296C174.074 79.8678 173.749 80.3781 173.293 80.7546C172.838 81.131 172.276 81.3544 171.686 81.3929" fill="#23172D"/>
<path d="M189.476 66.6029L184.95 66.6746C183.812 66.6926 183.104 65.7828 183.372 64.6403L184.43 60.0966C184.578 59.524 184.904 59.0127 185.36 58.6357C185.815 58.2588 186.379 58.0353 186.969 57.9971L191.495 57.9254C192.633 57.9073 193.341 58.8172 193.073 59.9597L192.015 64.5033C191.867 65.076 191.541 65.5872 191.085 65.9642C190.63 66.3412 190.066 66.5647 189.476 66.6029Z" fill="#F2F7FC"/>
<path d="M183.58 92.0094L183.575 91.7033L179.05 91.7751C178.876 91.7851 178.701 91.7601 178.537 91.7016C178.372 91.6431 178.221 91.5522 178.092 91.4344C177.974 91.3182 177.881 91.1792 177.819 91.026C177.756 90.8727 177.725 90.7083 177.728 90.5428C177.725 90.3997 177.741 90.257 177.776 90.1181L178.831 85.5724C178.964 85.059 179.259 84.6021 179.671 84.2692C180.065 83.9313 180.56 83.7347 181.078 83.7105L185.603 83.6388C185.777 83.6292 185.951 83.6543 186.115 83.7128C186.279 83.7713 186.43 83.862 186.559 83.9795C186.676 84.0962 186.769 84.2352 186.832 84.3883C186.895 84.5414 186.927 84.7055 186.926 84.8711C186.927 85.0149 186.911 85.1584 186.878 85.2984L185.819 89.8415C185.69 90.3557 185.396 90.8134 184.982 91.1447C184.59 91.4847 184.094 91.6816 183.575 91.7033L183.585 92.3154C184.242 92.2912 184.872 92.0451 185.371 91.6173C185.887 91.1988 186.253 90.6249 186.416 89.9812L187.474 85.4354C187.517 85.2472 187.538 85.0545 187.535 84.8615C187.538 84.6157 187.491 84.3718 187.398 84.1445C187.304 83.9172 187.166 83.711 186.991 83.5383C186.613 83.1937 186.113 83.0134 185.602 83.037L181.076 83.1088C180.419 83.1326 179.789 83.3787 179.29 83.8069C178.772 84.2235 178.404 84.7981 178.243 85.443L177.188 89.9862C177.142 90.1741 177.121 90.3669 177.123 90.5602C177.122 90.8062 177.169 91.0501 177.262 91.2777C177.356 91.5053 177.494 91.7121 177.668 91.8859C178.047 92.2296 178.546 92.4097 179.057 92.3872L183.585 92.3154L183.58 92.0094Z" fill="#857E8A"/>
<path d="M319.465 72.2681L317.804 72.2944C317.711 72.3002 317.618 72.2831 317.534 72.2446C317.449 72.2062 317.375 72.1475 317.318 72.0739C317.261 72.0002 317.223 71.9137 317.207 71.822C317.191 71.7302 317.198 71.636 317.227 71.5475L317.614 69.8801C317.669 69.6698 317.788 69.482 317.955 69.3435C318.123 69.2051 318.33 69.1231 318.546 69.1093L320.207 69.083C320.3 69.0774 320.393 69.0946 320.478 69.1331C320.563 69.1715 320.637 69.2301 320.694 69.3036C320.751 69.3772 320.789 69.4636 320.805 69.5552C320.822 69.6469 320.815 69.7412 320.787 69.8299L320.397 71.4973C320.343 71.7078 320.224 71.8958 320.057 72.0343C319.889 72.1728 319.682 72.2547 319.465 72.2681Z" fill="white"/>
<path d="M318.329 77.1579L316.668 77.1842C316.575 77.1902 316.482 77.1734 316.397 77.1353C316.312 77.0972 316.238 77.0389 316.181 76.9655C316.124 76.8921 316.086 76.8058 316.069 76.7142C316.053 76.6226 316.06 76.5285 316.088 76.4399L316.478 74.7699C316.532 74.5596 316.651 74.3718 316.819 74.2334C316.986 74.0949 317.193 74.0129 317.41 73.9991L319.071 73.9728C319.164 73.967 319.257 73.9841 319.341 74.0226C319.426 74.061 319.5 74.1197 319.557 74.1934C319.614 74.267 319.652 74.3535 319.668 74.4453C319.684 74.537 319.677 74.6312 319.648 74.7197L319.261 76.3897C319.206 76.5995 319.086 76.7868 318.919 76.9247C318.752 77.0626 318.545 77.1442 318.329 77.1579Z" fill="white"/>
<path d="M323.618 77.0741L321.954 77.1004C321.862 77.1066 321.769 77.09 321.684 77.0518C321.599 77.0137 321.525 76.9553 321.468 76.8818C321.411 76.8083 321.373 76.7219 321.357 76.6303C321.341 76.5386 321.348 76.4445 321.377 76.3561L321.764 74.6861C321.821 74.477 321.941 74.2904 322.108 74.1524C322.275 74.0143 322.48 73.9315 322.696 73.9153L324.357 73.889C324.45 73.8834 324.543 73.9006 324.628 73.9391C324.713 73.9775 324.787 74.0361 324.844 74.1097C324.901 74.1832 324.939 74.2696 324.956 74.3613C324.972 74.453 324.965 74.5472 324.937 74.6359L324.55 76.3059C324.493 76.5146 324.373 76.7005 324.206 76.8381C324.039 76.9757 323.833 77.0581 323.618 77.0741Z" fill="white"/>
<path d="M328.904 76.9903L327.246 77.0166C327.153 77.0226 327.06 77.0058 326.975 76.9677C326.89 76.9296 326.816 76.8713 326.759 76.7979C326.702 76.7245 326.664 76.6382 326.648 76.5466C326.631 76.455 326.638 76.3609 326.666 76.2724L327.053 74.6024C327.11 74.3932 327.23 74.2067 327.397 74.0686C327.564 73.9305 327.769 73.8477 327.986 73.8315L329.646 73.8052C329.74 73.799 329.833 73.8158 329.918 73.854C330.003 73.8923 330.077 73.9509 330.135 74.0246C330.192 74.0984 330.23 74.185 330.246 74.277C330.262 74.3689 330.255 74.4634 330.226 74.5521L329.839 76.2221C329.784 76.4319 329.665 76.6192 329.497 76.7571C329.33 76.895 329.123 76.9766 328.907 76.9903" fill="white"/>
<path d="M317.165 82.1633L315.504 82.1896C315.411 82.1958 315.318 82.179 315.233 82.1408C315.148 82.1025 315.073 82.044 315.016 81.9702C314.959 81.8965 314.92 81.8098 314.905 81.7179C314.889 81.6259 314.896 81.5314 314.925 81.4427L315.312 79.7753C315.368 79.5661 315.488 79.3796 315.655 79.2415C315.822 79.1035 316.028 79.0206 316.244 79.0045L317.905 78.9782C317.998 78.972 318.091 78.9888 318.176 79.027C318.261 79.0653 318.336 79.1238 318.393 79.1976C318.45 79.2713 318.488 79.358 318.504 79.4499C318.52 79.5419 318.513 79.6364 318.484 79.725L318.097 81.3925C318.043 81.6028 317.924 81.7906 317.756 81.929C317.589 82.0675 317.382 82.1495 317.165 82.1633Z" fill="white"/>
<path d="M315.921 87.51L314.26 87.5364C314.167 87.5419 314.074 87.5247 313.989 87.4863C313.904 87.4478 313.83 87.3893 313.773 87.3157C313.716 87.2421 313.678 87.1558 313.662 87.0641C313.646 86.9724 313.652 86.8781 313.68 86.7895L314.07 85.122C314.124 84.9115 314.243 84.7235 314.411 84.585C314.578 84.4465 314.785 84.3646 315.002 84.3512L316.663 84.3249C316.756 84.3193 316.849 84.3365 316.934 84.375C317.018 84.4134 317.092 84.472 317.15 84.5455C317.207 84.6191 317.245 84.7055 317.261 84.7972C317.277 84.8889 317.271 84.9831 317.242 85.0718L316.853 86.7392C316.799 86.9495 316.679 87.1373 316.512 87.2758C316.344 87.4142 316.137 87.4962 315.921 87.51Z" fill="white"/>
<path d="M322.452 82.0795L320.785 82.1059C320.692 82.112 320.599 82.0953 320.514 82.057C320.429 82.0187 320.354 81.9602 320.297 81.8865C320.24 81.8127 320.202 81.7261 320.186 81.6341C320.17 81.5421 320.177 81.4477 320.206 81.359L320.595 79.6915C320.652 79.4827 320.771 79.2965 320.938 79.1585C321.104 79.0205 321.309 78.9374 321.525 78.9207L323.188 78.8944C323.281 78.8886 323.374 78.9058 323.459 78.9442C323.544 78.9827 323.618 79.0413 323.675 79.115C323.732 79.1886 323.77 79.2751 323.786 79.3669C323.801 79.4586 323.794 79.5528 323.765 79.6413L323.379 81.3087C323.324 81.519 323.205 81.7068 323.037 81.8453C322.87 81.9837 322.663 82.0657 322.446 82.0795" fill="white"/>
<path d="M320.284 91.4073L318.621 91.4337C318.528 91.4391 318.436 91.4219 318.352 91.3838C318.268 91.3456 318.194 91.2875 318.137 91.2145C318.081 91.1415 318.042 91.0558 318.026 90.9648C318.01 90.8738 318.016 90.7801 318.044 90.692L318.431 89.0246C318.487 88.8154 318.607 88.6289 318.774 88.4908C318.941 88.3528 319.147 88.2699 319.363 88.2538L321.024 88.2275C321.117 88.2213 321.21 88.238 321.295 88.2763C321.381 88.3146 321.455 88.3731 321.512 88.4469C321.569 88.5206 321.608 88.6072 321.624 88.6992C321.64 88.7912 321.633 88.8857 321.603 88.9743L321.216 90.6417C321.16 90.8509 321.04 91.0374 320.873 91.1755C320.706 91.3136 320.5 91.3964 320.284 91.4126" fill="white"/>
<path d="M325.225 116.267L325.188 113.952C325.34 114.051 325.458 114.194 325.525 114.363C325.592 114.531 325.605 114.717 325.562 114.893L325.225 116.267Z" fill="#C6C9EA"/>
<path d="M317.84 135.274L299.699 135.562L303.342 114.146L317.501 113.922L317.84 135.274Z" fill="#CBCCEB"/>
<path d="M319.932 135.241L317.839 135.274L317.501 113.922L324.689 113.808C324.865 113.805 325.037 113.855 325.183 113.952L325.22 116.267L320.766 134.571C320.72 134.76 320.612 134.928 320.46 135.049C320.309 135.17 320.121 135.237 319.927 135.241" fill="#C7CAEB"/>
<path d="M299.699 135.562L265.297 136.107C265.163 136.109 265.03 136.08 264.909 136.023C264.788 135.966 264.681 135.881 264.598 135.777C264.514 135.672 264.456 135.549 264.427 135.418C264.398 135.287 264.4 135.152 264.432 135.022L264.822 133.398L290.891 132.985L294.182 114.283L303.337 114.138L299.694 135.554" fill="white"/>
<path d="M290.894 132.985L264.822 133.398L269.219 115.336C269.265 115.147 269.372 114.979 269.524 114.858C269.675 114.736 269.863 114.669 270.057 114.666L294.182 114.283L290.894 132.985Z" fill="white"/>
<path d="M272.526 119.265L291.542 118.964C291.603 118.968 291.663 118.959 291.72 118.938C291.777 118.917 291.829 118.885 291.873 118.843C291.917 118.801 291.951 118.751 291.975 118.695C291.998 118.639 292.01 118.579 292.009 118.518C292.008 118.458 291.994 118.398 291.969 118.343C291.944 118.288 291.908 118.239 291.863 118.198C291.818 118.158 291.765 118.127 291.707 118.108C291.65 118.089 291.589 118.082 291.528 118.088L272.512 118.389C272.451 118.385 272.391 118.394 272.334 118.415C272.277 118.436 272.225 118.468 272.181 118.51C272.138 118.552 272.103 118.602 272.079 118.658C272.056 118.714 272.045 118.774 272.046 118.835C272.046 118.895 272.06 118.955 272.085 119.01C272.11 119.065 272.146 119.115 272.192 119.155C272.237 119.196 272.29 119.226 272.347 119.245C272.405 119.264 272.465 119.271 272.526 119.265Z" fill="#857E8A"/>
<path d="M271.202 128.064L290.214 127.763C290.33 127.761 290.441 127.713 290.523 127.63C290.604 127.546 290.648 127.433 290.646 127.317C290.644 127.2 290.596 127.089 290.513 127.008C290.429 126.927 290.316 126.882 290.2 126.884L271.189 127.186C271.072 127.187 270.961 127.235 270.88 127.319C270.799 127.403 270.754 127.515 270.756 127.632C270.758 127.748 270.806 127.86 270.89 127.941C270.973 128.022 271.086 128.066 271.202 128.064Z" fill="#857E8A"/>
<path d="M279.144 124.624L298.168 124.322C298.285 124.32 298.396 124.272 298.477 124.188C298.558 124.105 298.603 123.992 298.601 123.876C298.599 123.759 298.551 123.648 298.467 123.567C298.383 123.486 298.271 123.441 298.154 123.443L279.143 123.745C279.026 123.746 278.915 123.794 278.834 123.878C278.753 123.962 278.709 124.074 278.711 124.191C278.712 124.307 278.76 124.419 278.844 124.5C278.928 124.581 279.04 124.625 279.157 124.623" fill="#857E8A"/>
<path d="M272.085 122.2L277.788 122.11C277.904 122.108 278.015 122.06 278.096 121.976C278.177 121.892 278.222 121.78 278.22 121.663C278.218 121.547 278.17 121.436 278.086 121.355C278.003 121.274 277.89 121.229 277.774 121.231L272.071 121.321C271.955 121.323 271.844 121.371 271.763 121.455C271.682 121.539 271.637 121.651 271.639 121.768C271.641 121.884 271.689 121.995 271.772 122.076C271.856 122.157 271.969 122.202 272.085 122.2Z" fill="#857E8A"/>
<path d="M271.346 124.747L277.049 124.657C277.165 124.655 277.276 124.607 277.358 124.523C277.439 124.439 277.483 124.327 277.481 124.21C277.479 124.094 277.431 123.983 277.348 123.902C277.264 123.821 277.151 123.776 277.035 123.778L271.333 123.868C271.216 123.87 271.105 123.918 271.024 124.002C270.943 124.086 270.898 124.198 270.9 124.315C270.902 124.431 270.95 124.542 271.034 124.623C271.117 124.704 271.23 124.749 271.346 124.747Z" fill="#857E8A"/>
<path d="M294.559 118.916L301.337 118.809C301.447 118.799 301.549 118.747 301.623 118.665C301.697 118.582 301.737 118.475 301.736 118.364C301.734 118.254 301.69 118.148 301.614 118.068C301.537 117.988 301.433 117.939 301.323 117.933L294.545 118.04C294.434 118.05 294.332 118.102 294.258 118.184C294.184 118.267 294.144 118.374 294.146 118.485C294.148 118.595 294.191 118.701 294.268 118.781C294.344 118.861 294.448 118.91 294.559 118.916Z" fill="#857E8A"/>
<path d="M298.075 131.317L298.073 131.171L288.028 131.33L287.997 131.289L287.883 131.379L288.025 131.414L288.437 129.717L288.473 129.688L288.383 129.574L288.385 129.72L298.43 129.561L298.462 129.603L298.575 129.509L298.433 129.475L298.021 131.174L297.985 131.204L298.075 131.317L298.169 131.431L298.241 131.372L298.282 131.34L298.737 129.475L298.614 129.323L298.569 129.266L288.328 129.428L288.214 129.519L288.176 129.551L287.724 131.416L287.844 131.568L287.889 131.625L298.127 131.463L298.169 131.431L298.075 131.317Z" fill="#857E8A"/>
<path d="M285.501 131.517L285.499 131.37L275.452 131.529L275.419 131.488L275.306 131.579L275.448 131.616L275.86 129.916L275.896 129.887L275.806 129.773L275.808 129.92L285.853 129.761L285.885 129.802L286.001 129.709L285.856 129.674L285.444 131.374L285.408 131.403L285.501 131.517L285.592 131.63L285.667 131.572L285.705 131.54L286.16 129.675L286.037 129.522L285.992 129.465L275.751 129.628L275.635 129.719L275.596 129.751L275.144 131.615L275.264 131.768L275.31 131.825L285.548 131.662L285.589 131.63L285.498 131.517" fill="#857E8A"/>
<path d="M315.82 128.514C315.285 127.832 313.185 127.36 312.585 126.679C312.282 126.33 312.271 125.674 312.336 125.113C312.512 125.004 312.672 124.87 312.811 124.715C313.015 124.39 313.199 124.052 313.362 123.705C313.394 123.737 313.432 123.762 313.475 123.778C313.517 123.795 313.562 123.802 313.607 123.8C313.882 123.796 314.911 122.34 314.625 122.013C314.466 121.827 314.22 121.996 314.034 122.174C314.304 121.531 314.492 121.039 314.492 121.039C314.517 120.96 314.539 120.879 314.559 120.794C314.948 119.114 313.91 117.775 312.235 117.801C310.561 117.828 308.89 119.21 308.498 120.891C308.479 120.975 308.464 121.056 308.453 121.135C308.453 121.135 308.413 121.624 308.382 122.263C308.282 122.09 308.115 121.927 307.856 122.12C307.424 122.459 307.784 123.885 308.057 123.888C308.162 123.884 308.264 123.847 308.348 123.784C308.348 124.119 308.377 124.454 308.434 124.785C308.523 124.972 308.658 125.134 308.827 125.255C308.648 125.827 308.321 126.342 307.88 126.748C306.962 127.453 304.616 127.995 303.766 128.7C302.991 129.332 302.335 131.158 302.209 131.519L316.073 131.299C316.114 130.94 316.3 129.121 315.822 128.509" fill="#544B5C"/>
<path d="M245.74 129.426L200.911 130.136C196.974 130.198 194.53 127.045 195.449 123.093C196.367 119.141 200.306 115.889 204.23 115.827L249.069 115.116C253.006 115.054 255.45 118.207 254.531 122.157C253.613 126.106 249.674 129.363 245.751 129.425" fill="#23172D"/>
<path d="M205.583 124.795L203.675 125.717C203.496 125.807 203.339 125.673 203.41 125.491L204.164 123.588L204.148 123.394L203.081 122.072C202.982 121.948 203.104 121.723 203.287 121.697L205.252 121.388L205.444 121.265L206.698 119.524C206.813 119.36 207.046 119.356 207.088 119.517L207.536 121.232L207.672 121.35L209.507 121.598C209.68 121.619 209.699 121.841 209.542 121.969L207.852 123.336L207.745 123.531L207.629 125.425C207.616 125.605 207.399 125.745 207.259 125.661L205.766 124.792L205.565 124.795" fill="#FFA800"/>
<path d="M215.047 124.645L213.139 125.567C212.96 125.657 212.806 125.523 212.874 125.341L213.642 123.438L213.623 123.244L212.555 121.922C212.457 121.798 212.579 121.573 212.764 121.547L214.729 121.238L214.921 121.115L216.173 119.373C216.291 119.209 216.521 119.206 216.562 119.367L217.008 121.074L217.146 121.192L218.981 121.44C219.157 121.461 219.176 121.683 219.016 121.811L217.329 123.178L217.223 123.373L217.103 125.267C217.103 125.31 217.092 125.353 217.071 125.391C217.05 125.43 217.019 125.462 216.982 125.485C216.946 125.509 216.903 125.523 216.86 125.526C216.816 125.529 216.773 125.521 216.733 125.503L215.244 124.634L215.039 124.637" fill="#FFA800"/>
<path d="M224.514 124.495L222.605 125.418C222.426 125.507 222.27 125.373 222.34 125.191L223.095 123.288L223.079 123.095L222.011 121.772C221.91 121.648 222.034 121.423 222.22 121.397L224.182 121.089L224.377 120.965L225.626 119.224C225.743 119.06 225.976 119.056 226.018 119.217L226.467 120.932L226.602 121.05L228.437 121.298C228.61 121.319 228.632 121.541 228.472 121.669L226.783 123.036L226.676 123.231L226.559 125.125C226.559 125.168 226.548 125.211 226.526 125.249C226.505 125.288 226.475 125.32 226.438 125.343C226.401 125.367 226.359 125.381 226.316 125.384C226.272 125.387 226.229 125.379 226.189 125.361L224.697 124.492L224.495 124.495" fill="#FFA800"/>
<path d="M233.978 124.345L232.069 125.268C231.89 125.357 231.736 125.223 231.804 125.042L232.572 123.138L232.553 122.944L231.486 121.622C231.387 121.498 231.509 121.273 231.694 121.247L233.659 120.938C233.737 120.924 233.806 120.879 233.851 120.815L235.103 119.074C235.221 118.909 235.451 118.906 235.493 119.067L235.941 120.782L236.079 120.9L237.914 121.148C238.087 121.169 238.107 121.391 237.947 121.519L236.26 122.886L236.153 123.081L236.034 124.974C236.033 125.018 236.022 125.06 236.001 125.098C235.98 125.136 235.95 125.168 235.913 125.192C235.877 125.215 235.835 125.229 235.792 125.232C235.749 125.236 235.706 125.228 235.666 125.211L234.174 124.342L233.97 124.345" fill="#FFA800"/>
<path d="M243.444 124.195L241.535 125.117C241.356 125.207 241.2 125.073 241.27 124.891L242.025 122.988L242.009 122.794L240.941 121.472C240.84 121.348 240.964 121.123 241.15 121.097L243.112 120.788C243.151 120.782 243.188 120.768 243.221 120.746C243.254 120.725 243.282 120.698 243.304 120.665L244.556 118.924C244.674 118.76 244.906 118.756 244.948 118.917L245.397 120.632L245.532 120.75L247.367 120.998C247.54 121.019 247.562 121.241 247.402 121.369L245.713 122.736L245.606 122.931L245.489 124.825C245.489 124.868 245.478 124.911 245.457 124.949C245.436 124.988 245.405 125.02 245.368 125.043C245.332 125.067 245.289 125.081 245.246 125.084C245.202 125.087 245.159 125.079 245.119 125.061L243.63 124.192L243.425 124.195" fill="#C4D8DA"/>
<path d="M138.693 98.4506C138.738 101.304 137.114 103.643 135.068 103.676C133.023 103.708 131.325 101.422 131.28 98.5681C131.235 95.7143 132.857 93.3757 134.905 93.3432C136.953 93.3108 138.648 95.5968 138.693 98.4506Z" fill="#3B3144"/>
<path d="M135.226 99.2566L135.676 99.7439C136.68 100.832 139.193 103.587 141.454 106.259C142.585 107.594 143.652 108.908 144.431 109.979C144.76 110.422 145.067 110.882 145.35 111.357C145.438 111.509 145.517 111.667 145.585 111.829C145.614 111.899 145.636 111.971 145.649 112.045C145.653 112.145 145.637 112.245 145.601 112.338C145.564 112.431 145.509 112.515 145.437 112.585C145.125 112.85 144.746 113.024 144.341 113.086C143.932 113.169 143.516 113.213 143.098 113.219L142.857 113.222L142.776 113.224L142.73 114.119C142.73 114.119 142.882 114.117 143.112 114.113C143.78 114.116 144.445 114.018 145.083 113.82C145.458 113.7 145.8 113.495 146.083 113.221C146.236 113.066 146.356 112.882 146.436 112.679C146.515 112.476 146.553 112.259 146.546 112.042C146.532 111.828 146.478 111.62 146.387 111.427C146.048 110.647 145.245 109.535 144.204 108.204C141.085 104.24 135.889 98.6548 135.884 98.6548L135.226 99.267" fill="#3B3144"/>
<path d="M143.539 113.651C143.543 113.917 143.468 114.179 143.323 114.403C143.179 114.627 142.971 114.803 142.727 114.909C142.482 115.014 142.212 115.045 141.95 114.998C141.688 114.95 141.446 114.825 141.254 114.64C141.063 114.454 140.931 114.216 140.875 113.956C140.818 113.696 140.841 113.424 140.939 113.177C141.037 112.929 141.206 112.716 141.425 112.564C141.645 112.413 141.904 112.33 142.17 112.325C142.527 112.32 142.872 112.456 143.129 112.705C143.386 112.953 143.533 113.294 143.539 113.651Z" fill="#3B3144"/>
<path d="M119.542 248.149C123.305 254.421 134.887 258.861 148.539 258.645C162.191 258.428 173.622 253.624 177.191 247.236L119.542 248.149Z" fill="#3B3144"/>
<path d="M196.852 214.441L190.439 246.45L186.212 246.517L189.561 215.329L196.852 214.444" fill="#857E8A"/>
<path d="M209.576 216.929L147.653 217.911L147.531 210.225L203.307 209.342C204.937 209.316 206.511 209.939 207.682 211.073C208.853 212.208 209.526 213.761 209.552 215.391L209.576 216.929Z" fill="#8600C7"/>
<path d="M97.3808 244.463L81.2476 172.621C81.0974 171.952 81.0981 171.258 81.2497 170.59C81.4013 169.922 81.6999 169.295 82.1239 168.757C82.5479 168.218 83.0866 167.781 83.7007 167.477C84.3149 167.173 84.9891 167.009 85.6744 166.999L135.267 166.213C136.592 166.19 137.885 166.625 138.927 167.445C139.969 168.265 140.696 169.42 140.984 170.714L157.329 243.513" fill="#857E8A"/>
<path d="M199.356 250.757L105.176 252.249C103.628 252.274 102.115 251.795 100.862 250.886C99.6099 249.977 98.6863 248.686 98.2302 247.207L97.3809 244.463L199.231 242.849L199.356 250.757Z" fill="#857E8A"/>
<path d="M154.156 321.983L146.672 322.102L145.612 255.232L153.106 255.114L154.166 321.983" fill="#E7E5E8"/>
<path d="M153.292 267.507L145.905 273.692L145.612 255.245L153.106 255.126L153.303 267.52" fill="#3B3144"/>
<path d="M153.768 312.028L147.602 312.126L119.686 323.725L182.038 322.737L153.768 312.028Z" fill="#E7E5E8"/>
<path d="M87.8542 172.309L132.432 171.603L132.419 170.787L87.8413 171.493L87.8542 172.309Z" fill="#3B3144"/>
<path d="M136.731 176.365L144.95 214.573L145.748 214.401L137.528 176.195" fill="#3B3144"/>
<path d="M146.412 221.326L148.218 232.446L149.025 232.316L147.216 221.196" fill="#3B3144"/>
<path d="M352.813 103.26L316.917 103.829C316.482 103.836 316.05 103.748 315.651 103.572C315.253 103.396 314.897 103.136 314.609 102.809C314.321 102.482 314.107 102.097 313.982 101.68C313.857 101.263 313.824 100.823 313.885 100.392L314.12 98.6664C314.22 97.9561 314.571 97.3048 315.108 96.8301C315.646 96.3553 316.336 96.0882 317.054 96.0768L352.95 95.508C353.385 95.5006 353.817 95.5878 354.215 95.7636C354.614 95.9393 354.97 96.1994 355.258 96.5259C355.546 96.8523 355.76 97.2375 355.885 97.6547C356.01 98.0719 356.043 98.5112 355.982 98.9424L355.747 100.668C355.647 101.378 355.296 102.03 354.759 102.505C354.221 102.98 353.531 103.248 352.813 103.26Z" fill="white"/>
<path d="M318.372 100.813L349.36 100.322L349.335 98.6919L318.346 99.183L318.372 100.813Z" fill="#23172D"/>
<path d="M221.355 60.7515L211.57 60.9066C206.916 60.9804 202.401 64.8274 201.486 69.4939C200.571 74.1604 203.6 77.8905 208.256 77.8167L210.38 77.7831C212.841 83.3668 218.438 82.5507 218.438 82.5507C217.345 80.4539 217.091 78.7652 217.082 77.6769L218.041 77.6617C222.695 77.5879 227.21 73.7435 228.125 69.0718C229.04 64.4 226.009 60.6778 221.355 60.7515Z" fill="#FFA800"/>
<path d="M207.542 68.5843L216.784 68.4378L216.759 66.8054L207.516 66.9519L207.542 68.5843Z" fill="#23172D"/>
<path d="M206.815 72.2665L221.833 72.0286L221.807 70.3963L206.79 70.6343L206.815 72.2665Z" fill="#23172D"/>
</g>
<defs>
<clipPath id="clip0_1111_3652">
<rect width="411.822" height="318.575" fill="white" transform="translate(0 6.9989) rotate(-0.907876)"/>
</clipPath>
</defs>
</svg>
