<?xml version="1.0" encoding="UTF-8" standalone="no"?>
<svg
   xmlns:dc="http://purl.org/dc/elements/1.1/"
   xmlns:cc="http://creativecommons.org/ns#"
   xmlns:rdf="http://www.w3.org/1999/02/22-rdf-syntax-ns#"
   xmlns:svg="http://www.w3.org/2000/svg"
   xmlns="http://www.w3.org/2000/svg"
   viewBox="0 0 666.66669 666.66669"
   height="666.66669"
   width="666.66669"
   xml:space="preserve"
   id="svg2"
   version="1.1"><metadata
     id="metadata8"><rdf:RDF><cc:Work
         rdf:about=""><dc:format>image/svg+xml</dc:format><dc:type
           rdf:resource="http://purl.org/dc/dcmitype/StillImage" /></cc:Work></rdf:RDF></metadata><defs
     id="defs6" /><g
     transform="matrix(1.3333333,0,0,-1.3333333,0,666.66667)"
     id="g10"><g
       transform="scale(0.1)"
       id="g12"><path
         id="path14"
         style="fill:#2e2e34;fill-opacity:1;fill-rule:nonzero;stroke:none"
         d="M 0,0 H 5000 V 5000 H 0 Z" /><path
         id="path16"
         style="fill:#f8f8fd;fill-opacity:1;fill-rule:nonzero;stroke:none"
         d="m 3075.2,615.809 c -439.39,0 -782.21,264.98 -856.06,592.051 -75.32,333.52 -290.5,494.9 -667.05,559.45 -376.56,64.56 -1054.367,570.23 -936.024,1226.52 0,0 27.715,698.31 683.204,1161.95 261.05,184.64 580.54,222.34 797.84,222.34 149.89,0 251.13,-17.92 251.13,-17.92 544.87,-29.3 805.79,-361.69 913.06,-726.14 h -788.47 c -10.92,0 -20.3,-7.75 -22.36,-18.47 l -47.58,-247.4 h -211.92 c -20.42,0 -37.95,-14.57 -41.69,-34.65 l -125.25,-671.81 h 1195.88 v -308.94 h 336.72 c 214.58,-171.85 481.74,-371.39 534.54,-746.86 96.83,-688.559 -537.94,-979.051 -989.81,-989.809 -8.74,-0.211 -17.49,-0.312 -26.16,-0.312 m 238.78,2752.381 h -43.8 l 24.53,127.57 c 8.2,-42.68 14.56,-85.37 19.27,-127.57" /><path
         id="path18"
         style="fill:#5ca675;fill-opacity:1;fill-rule:nonzero;stroke:none"
         d="m 1701.01,2711.46 c 0,0 -27.26,347.6 74.97,579.34 40.9,54.52 68.16,34.07 68.16,34.07 0,0 13.63,-143.13 -20.45,-279.44 -34.08,-136.31 -54.52,-402.12 -54.52,-402.12 l -68.16,68.15" /><path
         id="path20"
         style="fill:#518c6b;fill-opacity:1;fill-rule:nonzero;stroke:none"
         d="m 1680.56,2738.73 c 0,0 -6.81,163.57 -177.21,306.7 -170.39,143.13 -204.47,143.13 -204.47,143.13 0,0 136.32,6.82 231.74,-54.52 95.42,-61.34 129.49,-231.74 136.31,-259 6.82,-27.26 47.71,-136.31 47.71,-136.31 h -34.08" /><path
         id="path22"
         style="fill:#518c6b;fill-opacity:1;fill-rule:nonzero;stroke:none"
         d="m 1791.1,2713.66 c 0,0 31.93,160.58 222.34,275.75 190.41,115.17 224.09,109.92 224.09,109.92 0,0 -133.64,27.73 -237.37,-18.18 -103.74,-45.9 -163.66,-209.01 -174.59,-234.9 -10.93,-25.89 -68.14,-127.34 -68.14,-127.34 l 33.67,-5.25" /><path
         id="path24"
         style="fill:#78cd6b;fill-opacity:1;fill-rule:nonzero;stroke:none"
         d="m 1714.64,2738.73 c 0,0 -177.21,586.14 -333.97,722.46 6.82,20.45 190.84,-40.9 245.37,-190.84 54.52,-149.94 68.15,-374.86 88.6,-436.2 20.45,-61.35 47.71,-115.87 47.71,-115.87" /><path
         id="path26"
         style="fill:#78cd6b;fill-opacity:1;fill-rule:nonzero;stroke:none"
         d="m 1701.01,2711.46 c 0,0 68.16,320.34 245.36,429.39 13.64,-40.89 -184.02,-374.86 -163.57,-524.81 20.44,-149.94 -81.79,95.42 -81.79,95.42" /><path
         id="path28"
         style="fill:#ada0d7;fill-opacity:1;fill-rule:nonzero;stroke:none"
         d="m 1603.7,2350.42 h 262.11 c 16.13,109.31 29.68,207.61 32.18,245.18 5.17,77.44 -20.93,143.08 -33.9,170.39 h -258.67 c -12.98,-27.31 -39.08,-92.95 -33.91,-170.39 2.51,-37.57 16.05,-135.87 32.19,-245.18" /><path
         id="path30"
         style="fill:#45b2b1;fill-opacity:1;fill-rule:nonzero;stroke:none"
         d="m 3509.74,2352.79 h 480.711 v 650.371 H 3509.74 Z" /><path
         id="path32"
         style="fill:#58c8d6;fill-opacity:1;fill-rule:nonzero;stroke:none"
         d="m 3460.26,2352.79 h 480.699 v 650.371 H 3460.26 Z" /><path
         id="path34"
         style="fill:#e24034;fill-opacity:1;fill-rule:nonzero;stroke:none"
         d="m 3340.08,2352.79 h 480.707 v 716.352 H 3340.08 Z" /><path
         id="path36"
         style="fill:#f14946;fill-opacity:1;fill-rule:nonzero;stroke:none"
         d="m 3219.91,2352.79 h 551.391 v 716.352 H 3219.91 Z" /><path
         id="path38"
         style="fill:#ec4144;fill-opacity:1;fill-rule:nonzero;stroke:none"
         d="m 3677.05,2352.79 h 94.25 v 716.352 h -94.25 z" /><path
         id="path40"
         style="fill:#2a347b;fill-opacity:1;fill-rule:nonzero;stroke:none"
         d="m 1019.03,2890.05 c 0,0 -75.405,-37.7 -108.393,-146.1 -32.992,-108.39 146.093,-400.58 146.093,-386.44 0,14.13 179.09,94.24 179.09,94.24 l -89.54,329.91 -127.25,108.39" /><path
         id="path42"
         style="fill:#4b4ea5;fill-opacity:1;fill-rule:nonzero;stroke:none"
         d="m 2902.49,2317.99 -99.56,263.14 H 2554 l 99.57,-263.14" /><path
         id="path44"
         style="fill:#e7e8f6;fill-opacity:1;fill-rule:nonzero;stroke:none"
         d="m 1999.27,2528.98 h 1415.28 l 24.75,132.75 H 2024.02" /><path
         id="path46"
         style="fill:#31419f;fill-opacity:1;fill-rule:nonzero;stroke:none"
         d="M 2149.28,3333.54 2024.03,2661.73 H 3439.3 L 3561.66,3318 c 4.86,26.08 -15.16,50.19 -41.7,50.19 H 2190.97 c -20.42,0 -37.95,-14.57 -41.69,-34.65" /><path
         id="path48"
         style="fill:#2e2e34;fill-opacity:1;fill-rule:nonzero;stroke:none"
         d="m 2846.42,2412.88 374.67,279.23 -367.6,21.21 -346.39,-268.63 339.32,-31.81" /><path
         id="path50"
         style="fill:#f5775b;fill-opacity:1;fill-rule:nonzero;stroke:none"
         d="m 2741.56,2503.6 94.26,51.84 c 0,0 91.01,37.7 93.66,37.7 2.66,0 10.6,-8.83 0.89,-27.39 -9.72,-18.56 -35.35,-22.97 -35.35,-22.97 l -16.79,-46.84 87.19,12.37 20.03,4.71 c 0,0 -14.14,-35.34 -20.03,-43.59 -5.89,-8.24 -38.88,-29.45 -38.88,-29.45 0,0 -62.45,-51.85 -84.83,-57.74 -22.39,-5.89 -100.15,-9.42 -100.15,-9.42 l -49.48,1.18 -45.95,-9.43 c 0,0 -23.56,43.6 -20.04,104.86 l 115.47,34.17" /><path
         id="path52"
         style="fill:#e7e8f6;fill-opacity:1;fill-rule:nonzero;stroke:none"
         d="M 3300.03,2286.81 3573.37,505.371 h 65.98 l -179.09,1790.869 -160.23,-9.43" /><path
         id="path54"
         style="fill:#e7e8f6;fill-opacity:1;fill-rule:nonzero;stroke:none"
         d="M 3856.14,2286.81 4129.48,505.371 h 65.98 l -179.09,1790.869 -160.23,-9.43" /><path
         id="path56"
         style="fill:#c7d5ee;fill-opacity:1;fill-rule:nonzero;stroke:none"
         d="M 2253.79,2286.81 1980.44,505.371 h -65.98 l 179.09,1790.869 160.24,-9.43" /><path
         id="path58"
         style="fill:#c7d5ee;fill-opacity:1;fill-rule:nonzero;stroke:none"
         d="M 1697.67,2286.81 1424.33,505.371 h -65.98 l 179.09,1790.869 160.23,-9.43" /><path
         id="path60"
         style="fill:#ada0d7;fill-opacity:1;fill-rule:nonzero;stroke:none"
         d="M 4054.08,2220.84 H 1593.99 v 84.82 h 2460.09 v -84.82" /><path
         id="path62"
         style="fill:#fbc23d;fill-opacity:1;fill-rule:nonzero;stroke:none"
         d="M 4101.21,2267.96 H 1669.4 c -26.03,0 -47.13,21.1 -47.13,47.12 0,26.04 21.1,47.13 47.13,47.13 h 2431.81 c 26.02,0 47.12,-21.09 47.12,-47.13 0,-26.02 -21.1,-47.12 -47.12,-47.12" /><path
         id="path64"
         style="fill:#232559;fill-opacity:1;fill-rule:nonzero;stroke:none"
         d="m 1750.86,684.449 c 0,0 15.45,37.852 80.08,31.11 64.63,-6.727 72.64,-18.707 81.61,-50.418 8.97,-31.711 32.86,-65.161 48.02,-71.84 15.16,-6.672 71.25,-41.031 116.02,-46.262 44.77,-5.238 51.03,-32.129 41.76,-44.949 -9.26,-12.82 -176.54,-30.879 -213.79,-27.758 0,0 -125.95,-3.684 -156.03,4.738 -30.09,8.43 0.46,192.922 2.33,205.379" /><path
         id="path66"
         style="fill:#f5775b;fill-opacity:1;fill-rule:nonzero;stroke:none"
         d="m 1767.98,955.832 -19.39,-295.41 c 0,0 46.05,-14.832 81.09,-40.512 51.79,-37.961 94.21,8 94.21,8 l 11.68,185.871 -167.59,142.051" /><path
         id="path68"
         style="fill:#2a347b;fill-opacity:1;fill-rule:nonzero;stroke:none"
         d="M 2143.03,1476.21 1952.16,656.18 c 0,0 -98.97,-14.141 -219.14,42.422 0,0 106.04,770.538 113.1,820.018 7.07,49.49 282.77,0 296.91,-42.41" /><path
         id="path70"
         style="fill:#f5775b;fill-opacity:1;fill-rule:nonzero;stroke:none"
         d="m 1369.32,3597.76 c 0,0 78.36,-14.6 129.86,-130 51.5,-115.41 39.11,-368.73 11.97,-400.24 -27.13,-31.51 -116.27,-26.08 -241.51,6.23 -132.34,34.15 -185.04,165.87 -214.09,253.14 -55.616,167.11 80.64,351.93 313.77,270.87" /><path
         id="path72"
         style="fill:#f5775b;fill-opacity:1;fill-rule:nonzero;stroke:none"
         d="m 1151.78,2922.35 45.07,215.88 c 0,0 116.01,42.37 195.19,-31.59 l 26.94,-32.87 9.17,-138.02 c 0,0 -121.6,-32.83 -276.37,-13.4" /><path
         id="path74"
         style="fill:#232559;fill-opacity:1;fill-rule:nonzero;stroke:none"
         d="m 1149.26,1594.67 c 0,0 252.56,-73.89 552.1,-63.7 299.56,10.21 339.19,95.14 348.54,176.12 9.34,80.97 -223.68,130.23 -325.04,156.85 -101.36,26.61 -447.91,126.27 -541.62,25.19 -93.72,-101.08 -115.52,-225.37 -33.98,-294.46" /><path
         id="path76"
         style="fill:#232559;fill-opacity:1;fill-rule:nonzero;stroke:none"
         d="m 2450.7,684.449 c 0,0 15.47,37.852 80.1,31.11 64.63,-6.727 72.62,-18.707 81.6,-50.418 8.96,-31.711 32.86,-65.161 48.02,-71.84 15.16,-6.672 71.25,-41.031 116.02,-46.262 44.77,-5.238 51.03,-32.129 41.77,-44.949 -9.27,-12.82 -176.55,-30.879 -213.8,-27.758 0,0 -125.95,-3.684 -156.03,4.738 -30.09,8.43 0.46,192.922 2.32,205.379" /><path
         id="path78"
         style="fill:#f5775b;fill-opacity:1;fill-rule:nonzero;stroke:none"
         d="m 2376.31,934.242 70.7,-287.492 c 0,0 56.55,14.148 89.54,-14.141 32.99,-28.269 94.26,-9.418 94.26,-9.418 l -51.84,226.207 -202.66,84.844" /><path
         id="path80"
         style="fill:#2a347b;fill-opacity:1;fill-rule:nonzero;stroke:none"
         d="m 1791.93,1895.65 c 14.14,0 494.84,-160.23 589.1,-230.93 94.25,-75.41 245.06,-915.47 254.49,-934.31 9.43,-18.851 -136.67,-70.699 -230.92,-56.558 -4.72,18.847 -226.22,726.958 -226.22,774.088 0,0 -377.03,18.84 -537.26,47.12 -160.23,28.28 -268.63,32.99 -334.61,207.36 -65.98,174.37 320.47,188.51 320.47,188.51 l 164.95,4.72" /><path
         id="path82"
         style="fill:#e7e8f6;fill-opacity:1;fill-rule:nonzero;stroke:none"
         d="m 2614.31,2515.38 c 0,0 91.91,2.36 98.97,-7.07 7.07,-9.42 40.06,-94.25 9.43,-129.6 -25.93,-18.85 -25.93,-18.85 -25.93,-18.85 h -80.11 l -2.36,155.52" /><path
         id="path84"
         style="fill:#e7e8f6;fill-opacity:1;fill-rule:nonzero;stroke:none"
         d="m 1135.67,2953.67 24.74,63.63 c 0,0 148.46,45.94 275.7,-10.61 31.82,-31.81 49.49,-81.29 49.49,-81.29 l -349.93,28.27" /><path
         id="path86"
         style="fill:#2a347b;fill-opacity:1;fill-rule:nonzero;stroke:none"
         d="m 1103.86,2946.6 c 0,0 18.85,32.99 51.84,37.71 32.99,4.71 183.8,23.56 282.77,-4.72 37.7,-14.13 56.55,-32.99 56.55,-32.99 0,0 141.39,-47.13 188.51,-75.4 47.13,-28.28 61.27,-245.07 70.7,-315.76 9.42,-70.69 -18.85,-146.1 -18.85,-146.1 0,0 113.1,-461.85 113.1,-527.83 0,-65.98 -37.7,-141.39 -169.66,-188.52 -131.96,-47.12 -490.13,-28.27 -612.66,47.13 -37.71,75.41 -94.258,970.84 -103.683,1055.67 -9.43,84.83 141.383,150.81 141.383,150.81" /><path
         id="path88"
         style="fill:#2a347b;fill-opacity:1;fill-rule:nonzero;stroke:none"
         d="m 1605.77,2890.05 c 0,0 35.35,21.21 120.18,-35.35 84.83,-56.55 318.11,-268.62 346.39,-282.76 28.28,-14.15 572.61,-42.42 572.61,-42.42 0,0 77.76,-98.97 -7.07,-176.73 0,0 -525.48,-21.21 -624.45,-14.14 -98.97,7.07 -428.86,197.94 -428.86,197.94 0,0 -134.32,197.94 21.2,353.46" /><path
         id="path90"
         style="fill:#1d2243;fill-opacity:1;fill-rule:nonzero;stroke:none"
         d="m 1490.56,2574.46 c 0.01,0 110.2,-57.85 226.84,-116.63 58.32,-29.39 118.25,-59.01 166.86,-81.76 24.31,-11.38 45.78,-21.04 62.85,-28.11 17.14,-7.07 29.55,-11.55 36.9,-12.64 17.66,-2.51 50.68,-3.3 87.23,-3.3 73.02,0 159.54,3.26 159.57,3.26 l -0.31,8.26 c -0.01,0 -5.4,-0.2 -14.64,-0.51 -27.72,-0.92 -90.03,-2.75 -144.62,-2.75 -36.35,-0.01 -69.44,0.83 -86.06,3.22 -5.51,0.75 -18.11,5.11 -34.91,12.09 -59.12,24.49 -173.21,81.08 -272.36,131.49 -49.59,25.22 -95.47,48.89 -128.95,66.26 -16.74,8.69 -30.38,15.8 -39.84,20.74 -9.46,4.93 -14.71,7.69 -14.72,7.7 l -3.84,-7.32" /><path
         id="path92"
         style="fill:#1d2243;fill-opacity:1;fill-rule:nonzero;stroke:none"
         d="m 2083.36,2518.62 c 0,0 0.11,-0.57 0.28,-1.77 0.53,-3.59 1.6,-12.39 1.6,-24.06 0.02,-27.29 -5.93,-69.84 -37.35,-98.94 l 5.62,-6.05 c 34.02,31.68 39.97,76.67 39.99,104.99 0,16.23 -1.98,27.13 -2.01,27.31 l -8.13,-1.48" /><path
         id="path94"
         style="fill:#1d2243;fill-opacity:1;fill-rule:nonzero;stroke:none"
         d="m 2116.99,2539.19 c 0,0 0.39,-0.63 1.14,-1.9 5.28,-8.83 26.5,-47.58 26.42,-84.74 0,-10.61 -1.69,-21.06 -5.83,-30.72 l 7.59,-3.26 c 4.67,10.91 6.51,22.5 6.51,33.98 -0.12,45.88 -28.73,90.73 -28.85,91.05 l -6.98,-4.41" /><path
         id="path96"
         style="fill:#1d2243;fill-opacity:1;fill-rule:nonzero;stroke:none"
         d="m 1492.78,2671.07 -0.18,0.68 c -0.87,3.35 -4.52,18.86 -4.52,40.88 0.09,44.13 14.35,113.92 94.81,166.86 l -4.54,6.91 c -83.14,-54.56 -98.62,-127.97 -98.53,-173.77 0,-26.21 4.94,-43.56 5.01,-43.83 l 7.95,2.27" /><path
         id="path98"
         style="fill:#1d2243;fill-opacity:1;fill-rule:nonzero;stroke:none"
         d="m 1010.94,2791.59 c 0,-0.08 -25.721,-227.66 -25.733,-334.66 h 8.262 c -0.004,52.95 6.414,136.49 12.841,206.66 3.21,35.1 6.42,66.87 8.83,89.87 2.41,22.99 4.01,37.17 4.01,37.21 l -8.21,0.92" /><path
         id="path100"
         style="fill:#1d2243;fill-opacity:1;fill-rule:nonzero;stroke:none"
         d="m 1147.62,2937.59 c 0.01,0 4.65,0.4 13.09,1.02 25.34,1.83 84.63,5.49 153.04,5.49 45.6,0 95.26,-1.63 141.57,-6.5 l 0.87,8.21 c -46.73,4.92 -96.64,6.55 -142.44,6.56 -91.6,-0.01 -166.78,-6.54 -166.85,-6.55 l 0.72,-8.23" /><path
         id="path102"
         style="fill:#1d2243;fill-opacity:1;fill-rule:nonzero;stroke:none"
         d="m 2253.94,1457.74 c 0.42,0.13 21.19,6.81 45.62,29.36 24.44,22.54 52.47,61 67.33,124.21 l -8.04,1.89 c -14.53,-61.67 -41.59,-98.5 -64.89,-120.03 -11.66,-10.76 -22.39,-17.68 -30.16,-21.89 -3.88,-2.11 -7.02,-3.55 -9.17,-4.44 -1.07,-0.45 -1.9,-0.77 -2.44,-0.96 l -0.6,-0.22 -0.15,-0.05 2.5,-7.87" /><path
         id="path104"
         style="fill:#1d2243;fill-opacity:1;fill-rule:nonzero;stroke:none"
         d="m 2308.99,1446.71 c 0.37,0.12 12.8,3.99 28.02,16.35 15.22,12.35 33.2,33.26 44.46,67.09 l -7.83,2.61 c -10.78,-32.28 -27.68,-51.77 -41.84,-63.29 -7.08,-5.75 -13.48,-9.49 -18.06,-11.79 -2.3,-1.14 -4.14,-1.92 -5.38,-2.41 l -1.4,-0.53 -0.4,-0.13 2.43,-7.9" /><path
         id="path106"
         style="fill:#1d2243;fill-opacity:1;fill-rule:nonzero;stroke:none"
         d="m 2009.92,1308.24 -121.19,-605.97 8.1,-1.622 121.2,605.972" /><path
         id="path108"
         style="fill:#232559;fill-opacity:1;fill-rule:nonzero;stroke:none"
         d="m 1482.06,3444.98 c 0,0 14.14,-63.62 -42.42,-106.03 l 3.54,-70.7 c 0,0 21.21,-63.62 7.07,-70.69 -14.14,-7.07 -17.67,3.54 -17.67,3.54 0,0 -45.95,74.22 -60.09,77.75 -14.14,3.54 31.81,-98.97 31.81,-98.97 0,0 -45.95,-70.68 -130.78,-81.29 l 17.67,24.74 c 0,0 -38.88,-24.74 -98.97,-21.2 -60.08,3.53 -106.03,95.43 -106.03,95.43 0,0 10.6,-24.74 0,-35.35 -10.61,-10.6 -70.7,81.3 -74.23,197.94 l -17.671,-35.34 c 0,0 3.531,81.29 35.351,173.19 31.8,91.9 173.19,159.06 250.95,159.06 77.76,0 155.52,-7.07 176.73,0 21.21,7.07 10.61,-53.02 10.61,-53.02 0,0 10.6,24.74 14.13,45.95 14.14,10.6 35.35,-74.23 28.28,-106.04 -7.07,-31.81 -7.07,-31.81 -7.07,-31.81 0,0 24.74,31.81 28.28,49.48 14.13,3.54 10.6,-74.22 -49.49,-116.64" /><path
         id="path110"
         style="fill:#f14946;fill-opacity:1;fill-rule:nonzero;stroke:none"
         d="m 1430.77,3268.88 c 0,0 -14.28,47.33 -53.47,22.45 -39.2,-24.89 16.48,-136.3 49.26,-126.7 32.78,9.61 12.84,86.26 4.21,104.25" /><path
         id="path112"
         style="fill:#e74d4d;fill-opacity:1;fill-rule:nonzero;stroke:none"
         d="m 2866.53,2443.12 103.34,20.67 21.39,46.56 -11.63,5.35 -18.67,-40.63 -96.95,-19.39 2.52,-12.56" /><path
         id="path114"
         style="fill:#e74d4d;fill-opacity:1;fill-rule:nonzero;stroke:none"
         d="m 2957.77,2471.99 c -0.01,-0.01 -3.15,-2.64 -8,-6.67 -7.28,-6.03 -18.36,-15.17 -28.25,-23.1 -4.95,-3.97 -9.6,-7.64 -13.29,-10.44 -1.84,-1.4 -3.45,-2.58 -4.7,-3.46 -1.21,-0.86 -2.21,-1.46 -2.25,-1.46 -1.02,-0.54 -4.31,-1.76 -8.14,-2.96 -5.8,-1.86 -13.21,-3.96 -19.13,-5.59 -5.92,-1.62 -10.34,-2.77 -10.35,-2.77 l 3.22,-12.39 c 0.02,0 8.01,2.07 16.93,4.6 4.46,1.27 9.15,2.64 13.23,3.95 4.13,1.33 7.47,2.47 9.97,3.7 1.68,0.87 3.2,1.95 5.41,3.54 7.49,5.45 20.77,16.17 32.32,25.64 11.53,9.45 21.24,17.58 21.25,17.59 l -8.22,9.82" /><path
         id="path116"
         style="fill:#e74d4d;fill-opacity:1;fill-rule:nonzero;stroke:none"
         d="m 1408.75,3151.01 c -0.13,-0.44 -1.13,-4.1 -1.13,-9.93 -0.03,-8.7 2.35,-22.41 13.27,-36.47 10.9,-14.08 30.02,-28.31 62.68,-39.19 l 4.05,12.15 c -30.96,10.33 -47.62,23.27 -56.61,34.88 -8.96,11.61 -10.56,22.1 -10.59,28.63 0,2.17 0.19,3.88 0.37,5 l 0.22,1.21 0.06,0.24 v 0.01 l -3.56,0.97 3.55,-1.01 0.01,0.04 -3.56,0.97 3.55,-1.01 -12.31,3.51" /><path
         id="path118"
         style="fill:#405ab1;fill-opacity:1;fill-rule:nonzero;stroke:none"
         d="M 3347.15,2776.94 H 2593.1 l 94.26,490.13 h 754.05 l -94.26,-490.13" /><path
         id="path120"
         style="fill:#5ecbf5;fill-opacity:1;fill-rule:nonzero;stroke:none"
         d="m 2350.81,3097.4 c -2.7,-14.04 8.07,-27.08 22.37,-27.08 h 820.91 c 10.92,0 20.3,7.75 22.36,18.48 l 12.08,62.82 h -867.29 l -10.43,-54.22" /><path
         id="path122"
         style="fill:#d1e8f8;fill-opacity:1;fill-rule:nonzero;stroke:none"
         d="m 3293.74,3634.06 h -820.91 c -10.92,0 -20.3,-7.75 -22.36,-18.47 l -89.23,-463.97 h 867.29 l 87.57,455.36 c 2.7,14.05 -8.06,27.08 -22.36,27.08" /><path
         id="path124"
         style="fill:#4377bd;fill-opacity:1;fill-rule:nonzero;stroke:none"
         d="m 2732.5,3069.97 c 10.8,29.81 17.48,51.12 17.48,51.12 0,0 24.75,129.42 -85.53,96.22 0,0 -38.26,-28.69 -56.27,-89.47 -5.6,-18.86 -12.27,-39.03 -18.81,-57.87 h 143.13" /><path
         id="path126"
         style="fill:#e1e5f5;fill-opacity:1;fill-rule:nonzero;stroke:none"
         d="m 2960.92,3069.97 c -2.02,63.81 -5.98,114.98 -12.88,128.77 -20.25,37.14 -102.97,70.9 -102.97,70.9 l -113.1,-16.88 c 0,0 -47.27,-13.51 -62.46,-47.27 -5.1,-11.34 -17.45,-66.54 -30.64,-135.52 h 322.05" /><path
         id="path128"
         style="fill:#f5775b;fill-opacity:1;fill-rule:nonzero;stroke:none"
         d="m 2751.29,3346.22 c 0,0 -6.84,-50.59 -21.89,-87.5 0,0 -4.1,-28.72 56.07,-16.41 60.15,12.31 51.95,42.38 51.95,42.38 v 118.96 l -86.13,-57.43" /><path
         id="path130"
         style="fill:#f5775b;fill-opacity:1;fill-rule:nonzero;stroke:none"
         d="m 2666.82,3471.31 c 0,0 0.68,-113.12 33.14,-167.61 22.16,-22.91 97.7,13.08 129.5,61.71 31.8,48.63 31.17,121.79 6.01,162.52 -25.15,40.73 -108.01,28.48 -132.29,14.42 -24.28,-14.07 -37.73,-52.96 -36.36,-71.04" /><path
         id="path132"
         style="fill:#f7978a;fill-opacity:1;fill-rule:nonzero;stroke:none"
         d="m 2819.46,3407.41 c 0,0 21.34,32.87 35.61,13.3 14.26,-19.58 -35.15,-59.6 -38.93,-44.38 -3.78,15.24 3.32,31.08 3.32,31.08" /><path
         id="path134"
         style="fill:#6c2931;fill-opacity:1;fill-rule:nonzero;stroke:none"
         d="m 2666.82,3471.31 c 0,0 -39.68,34.89 8.18,80.01 17.34,13 29.18,11.72 42.85,10.43 7.88,-0.75 16.38,-1.49 26.88,0.51 28.71,5.47 80.67,0 99.81,-30.09 19.14,-30.07 12.3,-99.8 6.83,-106.64 -5.46,-6.84 -21.87,-10.94 -21.87,-23.25 0,-12.3 -2.74,-21.87 -6.84,-21.87 -4.1,0 -4.1,20.51 -4.1,35.54 0,15.05 -2.73,43.76 -9.57,64.27 -6.84,20.51 -38.28,19.14 -50.59,16.41 -12.3,-2.74 -20.45,-34.24 -91.58,-25.32" /><path
         id="path136"
         style="fill:#9e6771;fill-opacity:1;fill-rule:nonzero;stroke:none"
         d="m 2815.82,3437.33 c 0,0 0.01,0 0.04,0.02 l -0.04,-0.02 m 0.04,0.02 1.42,0.71 c 0,-0.02 0,-0.04 0,-0.05 -0.77,-0.34 -1.28,-0.59 -1.42,-0.66" /><path
         id="path138"
         style="fill:#58405b;fill-opacity:1;fill-rule:nonzero;stroke:none"
         d="m 2817.28,3438.01 c 0,0.01 0,0.03 0,0.05 l 0.78,0.39 0.01,-0.11 c -0.28,-0.12 -0.55,-0.23 -0.79,-0.33" /><path
         id="path140"
         style="fill:#6c2931;fill-opacity:1;fill-rule:nonzero;stroke:none"
         d="m 2719.59,3317.47 c -25.88,5.63 -22.5,25.89 3.94,34.32 0,0 28.14,12.95 37.7,-6.75 3.94,-12.94 -15.75,-33.2 -41.64,-27.57 z m 98.48,120.87 c 0.26,-2.23 7.41,-67.73 -18.58,-85.98 -27,-18.01 -28.14,5.06 -49.51,8.44 -21.39,3.37 -38.83,2.25 -48.39,-11.82 -8.45,-14.07 -6.76,-20.26 -14.64,-16.32 -1.68,-4.5 10.14,-32.07 28.14,-39.39 18,-7.31 60.77,15.19 79.9,32.08 19.14,16.88 30.95,27.57 34.32,42.2 3.38,14.63 1.69,42.76 5.64,62.46 2.24,14.87 -11.36,10.62 -16.88,8.33" /><path
         id="path142"
         style="fill:#2e2e34;fill-opacity:1;fill-rule:nonzero;stroke:none"
         d="m 2837.48,3293.27 c 0,0 -32.92,-41.35 -86.94,-46.42 -10.97,4.22 -16.88,24.48 -16.88,24.48 l -8.44,-12.66 c 0,0 -4.22,-25.32 0,-35.45 5.06,-0.85 23.63,11.82 23.63,11.82 0,0 12.66,-17.73 21.95,-21.1 9.28,-3.38 68.37,36.29 74.27,55.7 0,0 -0.42,13.93 -7.59,23.63" /><path
         id="path144"
         style="fill:#4377bd;fill-opacity:1;fill-rule:nonzero;stroke:none"
         d="m 2969.54,3069.97 c -2.93,62.89 -6.7,110.97 -10.25,120.9 -13.49,31.5 -64.14,72.02 -114.22,78.77 0,0 -18.8,-86.83 -37.32,-199.67 h 161.79" /><path
         id="path146"
         style="fill:#4377bd;fill-opacity:1;fill-rule:nonzero;stroke:none"
         d="m 2678.21,3069.97 c 26.53,112.58 47.01,179.41 47.01,179.41 -15.19,-1.68 -42.21,-13.5 -60.77,-32.07 -10.09,-20.16 -25.74,-78.06 -41.91,-147.34 h 55.67" /><path
         id="path148"
         style="fill:#4377bd;fill-opacity:1;fill-rule:nonzero;stroke:none"
         d="m 2959.42,3069.97 c 1.84,60.22 -1.53,115.9 -11.38,128.77 -32.07,27.01 -65.83,25.32 -82.71,-5.06 -9.23,-16.61 -21.48,-74.56 -30.69,-123.71 h 124.78" /><path
         id="path150"
         style="fill:#91b9e6;fill-opacity:1;fill-rule:nonzero;stroke:none"
         d="m 2747.11,3235.46 c -9.58,-39.04 -17.53,-78.5 -24.7,-118.02 l 3.53,-0.64 c 7.17,39.47 15.1,78.86 24.66,117.81 l -3.49,0.85" /><path
         id="path152"
         style="fill:#6c7ac5;fill-opacity:1;fill-rule:nonzero;stroke:none"
         d="m 3438.94,3656.96 c -23.37,-93.73 -118.3,-169.71 -212.03,-169.71 -93.73,0 -150.77,75.98 -127.4,169.71 23.37,93.74 118.3,169.72 212.03,169.72 93.73,0 150.77,-75.98 127.4,-169.72" /><path
         id="path154"
         style="fill:#6c7ac5;fill-opacity:1;fill-rule:nonzero;stroke:none"
         d="m 3473.42,3474.65 c -6.39,-25.66 -32.37,-46.45 -58.02,-46.45 -25.66,0 -41.26,20.79 -34.87,46.45 6.4,25.64 32.38,46.44 58.03,46.44 25.66,0 41.26,-20.8 34.86,-46.44" /><path
         id="path156"
         style="fill:#2e2e34;fill-opacity:1;fill-rule:nonzero;stroke:none"
         d="m 3225.47,3570.71 c -5.35,0 -10.17,2.04 -13.24,6.12 l -43.85,58.42 c -6.12,8.15 -2.83,21.36 7.36,29.51 10.17,8.15 23.38,8.15 29.5,0 l 32.78,-43.67 117.13,93.75 c 10.19,8.15 23.39,8.15 29.51,0 6.12,-8.15 2.83,-21.36 -7.36,-29.51 l -135.56,-108.5 c -5.08,-4.08 -10.93,-6.12 -16.27,-6.12" /><path
         id="path158"
         style="fill:#c7dbf3;fill-opacity:1;fill-rule:nonzero;stroke:none"
         d="m 2022.15,3939.87 h -55.5 c -13.94,0 -22.42,11.29 -18.94,25.23 l 13.83,55.51 c 3.48,13.93 17.59,25.23 31.53,25.23 h 55.51 c 13.93,0 22.41,-11.3 18.94,-25.23 l -13.84,-55.51 c -3.48,-13.94 -17.59,-25.23 -31.53,-25.23" /><path
         id="path160"
         style="fill:#ada0d7;fill-opacity:1;fill-rule:nonzero;stroke:none"
         d="m 1981.58,3777.12 v 3.75 h -55.51 c -5.06,0.01 -8.95,1.7 -11.66,4.36 -2.7,2.67 -4.3,6.4 -4.31,10.99 0,1.64 0.21,3.39 0.67,5.22 l 13.84,55.52 c 1.49,6.03 5.41,11.72 10.54,15.82 5.13,4.11 11.4,6.58 17.34,6.56 H 2008 c 5.06,-0.01 8.95,-1.69 11.66,-4.35 2.7,-2.68 4.3,-6.41 4.31,-11 0,-1.64 -0.21,-3.39 -0.67,-5.22 l -13.84,-55.51 c -1.49,-6.04 -5.41,-11.72 -10.54,-15.82 -5.13,-4.11 -11.4,-6.58 -17.34,-6.57 v -3.75 -3.75 c 7.99,0.01 15.74,3.19 22.03,8.21 6.27,5.03 11.15,11.96 13.13,19.86 l 13.84,55.52 c 0.6,2.39 0.89,4.75 0.89,7.03 0.01,6.38 -2.34,12.2 -6.54,16.34 -4.2,4.14 -10.17,6.53 -16.93,6.51 h -55.51 c -7.99,-0.01 -15.74,-3.19 -22.03,-8.21 -6.27,-5.03 -11.15,-11.96 -13.13,-19.86 l -13.84,-55.51 c -0.6,-2.4 -0.89,-4.75 -0.89,-7.04 -0.01,-6.38 2.34,-12.2 6.54,-16.33 4.2,-4.15 10.17,-6.53 16.93,-6.52 h 55.51 v 3.75" /><path
         id="path162"
         style="fill:#58c8d6;fill-opacity:1;fill-rule:nonzero;stroke:none"
         d="m 2158.2,3777.12 h -55.51 c -13.93,0 -22.42,11.29 -18.94,25.23 l 13.84,55.51 c 3.48,13.94 17.59,25.23 31.52,25.23 h 55.52 c 13.93,0 22.41,-11.29 18.94,-25.23 l -13.85,-55.51 c -3.47,-13.94 -17.58,-25.23 -31.52,-25.23" /><path
         id="path164"
         style="fill:#2e2e34;fill-opacity:1;fill-rule:nonzero;stroke:none"
         d="m 2334.82,3777.12 h -55.51 c -13.93,0 -22.41,11.29 -18.94,25.23 l 13.85,55.51 c 3.47,13.94 17.58,25.23 31.51,25.23 h 55.52 c 13.93,0 22.41,-11.29 18.94,-25.23 l -13.85,-55.51 c -3.47,-13.94 -17.58,-25.23 -31.52,-25.23" /><path
         id="path166"
         style="fill:#58c8d6;fill-opacity:1;fill-rule:nonzero;stroke:none"
         d="m 1940.06,3610.59 h -55.51 c -13.94,0 -22.41,11.3 -18.94,25.23 l 13.84,55.51 c 3.47,13.94 17.59,25.23 31.52,25.23 h 55.51 c 13.94,0 22.42,-11.29 18.94,-25.23 l -13.84,-55.51 c -3.47,-13.93 -17.58,-25.23 -31.52,-25.23" /><path
         id="path168"
         style="fill:#2e2e34;fill-opacity:1;fill-rule:nonzero;stroke:none"
         d="m 1895.71,3432.71 h -55.51 c -13.94,0 -22.42,11.29 -18.94,25.23 l 13.84,55.51 c 3.47,13.93 17.58,25.23 31.52,25.23 h 55.51 c 13.93,0 22.41,-11.3 18.94,-25.23 l -13.84,-55.51 c -3.47,-13.94 -17.59,-25.23 -31.52,-25.23" /><path
         id="path170"
         style="fill:#f2f7fc;fill-opacity:1;fill-rule:nonzero;stroke:none"
         d="m 2116.68,3610.59 h -55.51 c -13.94,0 -22.41,11.3 -18.94,25.23 l 13.84,55.51 c 3.47,13.94 17.59,25.23 31.52,25.23 h 55.51 c 13.94,0 22.42,-11.29 18.94,-25.23 l -13.84,-55.51 c -3.47,-13.93 -17.58,-25.23 -31.52,-25.23" /><path
         id="path172"
         style="fill:#ada0d7;fill-opacity:1;fill-rule:nonzero;stroke:none"
         d="m 2039.3,3300.24 v 3.75 h -55.51 c -5.06,0.01 -8.95,1.7 -11.66,4.36 -2.7,2.67 -4.3,6.4 -4.31,11 0,1.64 0.21,3.38 0.67,5.21 l 13.84,55.52 c 1.49,6.03 5.41,11.71 10.54,15.81 5.13,4.12 11.4,6.59 17.35,6.57 h 55.5 c 5.06,-0.01 8.95,-1.69 11.66,-4.35 2.7,-2.68 4.3,-6.41 4.31,-11 0,-1.64 -0.21,-3.39 -0.66,-5.22 l -13.85,-55.51 c -1.49,-6.04 -5.4,-11.72 -10.54,-15.82 -5.12,-4.11 -11.39,-6.58 -17.34,-6.57 v -3.75 -3.75 c 7.99,0.01 15.75,3.19 22.03,8.21 6.27,5.03 11.15,11.97 13.13,19.86 l 13.84,55.52 c 0.6,2.39 0.89,4.75 0.89,7.03 0.02,6.38 -2.33,12.2 -6.54,16.34 -4.19,4.14 -10.16,6.53 -16.93,6.51 h -55.5 c -8,-0.01 -15.75,-3.19 -22.03,-8.21 -6.28,-5.03 -11.16,-11.96 -13.14,-19.86 l -13.84,-55.51 c -0.6,-2.39 -0.89,-4.75 -0.89,-7.03 -0.01,-6.38 2.34,-12.21 6.54,-16.34 4.2,-4.15 10.16,-6.53 16.93,-6.52 h 55.51 v 3.75" /><path
         id="path174"
         style="fill:#d1e8f8;fill-opacity:1;fill-rule:nonzero;stroke:none"
         d="m 3709.23,3515.88 h -20.37 c -5.11,0 -8.23,4.14 -6.95,9.26 l 5.08,20.37 c 1.28,5.12 6.45,9.27 11.57,9.27 h 20.38 c 5.11,0 8.22,-4.15 6.95,-9.27 l -5.08,-20.37 c -1.27,-5.12 -6.46,-9.26 -11.58,-9.26" /><path
         id="path176"
         style="fill:#d1e8f8;fill-opacity:1;fill-rule:nonzero;stroke:none"
         d="m 3694.34,3456.13 h -20.38 c -5.11,0 -8.22,4.15 -6.95,9.26 l 5.09,20.38 c 1.27,5.12 6.45,9.27 11.57,9.27 h 20.37 c 5.12,0 8.23,-4.15 6.95,-9.27 l -5.08,-20.38 c -1.27,-5.11 -6.45,-9.26 -11.57,-9.26" /><path
         id="path178"
         style="fill:#d1e8f8;fill-opacity:1;fill-rule:nonzero;stroke:none"
         d="m 3759.19,3456.13 h -20.39 c -5.11,0 -8.23,4.15 -6.95,9.26 l 5.08,20.38 c 1.28,5.12 6.46,9.27 11.57,9.27 h 20.38 c 5.12,0 8.23,-4.15 6.96,-9.27 l -5.08,-20.38 c -1.28,-5.11 -6.47,-9.26 -11.57,-9.26" /><path
         id="path180"
         style="fill:#d1e8f8;fill-opacity:1;fill-rule:nonzero;stroke:none"
         d="m 3824.02,3456.13 h -20.38 c -5.12,0 -8.22,4.15 -6.95,9.26 l 5.08,20.38 c 1.27,5.12 6.46,9.27 11.58,9.27 h 20.37 c 5.11,0 8.23,-4.15 6.95,-9.27 l -5.08,-20.38 c -1.28,-5.11 -6.45,-9.26 -11.57,-9.26" /><path
         id="path182"
         style="fill:#d1e8f8;fill-opacity:1;fill-rule:nonzero;stroke:none"
         d="m 3679.1,3395 h -20.37 c -5.12,0 -8.24,4.15 -6.96,9.26 l 5.08,20.38 c 1.27,5.11 6.46,9.26 11.57,9.26 h 20.38 c 5.11,0 8.23,-4.15 6.95,-9.26 l -5.08,-20.38 c -1.27,-5.11 -6.45,-9.26 -11.57,-9.26" /><path
         id="path184"
         style="fill:#d1e8f8;fill-opacity:1;fill-rule:nonzero;stroke:none"
         d="m 3662.82,3329.69 h -20.38 c -5.12,0 -8.22,4.15 -6.96,9.27 l 5.09,20.38 c 1.27,5.11 6.46,9.26 11.57,9.26 h 20.38 c 5.11,0 8.23,-4.15 6.95,-9.26 l -5.08,-20.38 c -1.28,-5.12 -6.45,-9.27 -11.57,-9.27" /><path
         id="path186"
         style="fill:#d1e8f8;fill-opacity:1;fill-rule:nonzero;stroke:none"
         d="m 3743.94,3395 h -20.38 c -5.12,0 -8.23,4.15 -6.95,9.26 l 5.08,20.38 c 1.28,5.11 6.45,9.26 11.57,9.26 h 20.38 c 5.12,0 8.23,-4.15 6.95,-9.26 l -5.08,-20.38 c -1.28,-5.11 -6.45,-9.26 -11.57,-9.26" /><path
         id="path188"
         style="fill:#d1e8f8;fill-opacity:1;fill-rule:nonzero;stroke:none"
         d="m 3715.53,3281.07 h -20.38 c -5.11,0 -8.22,4.15 -6.95,9.26 l 5.09,20.38 c 1.27,5.11 6.45,9.26 11.56,9.26 h 20.38 c 5.12,0 8.23,-4.15 6.95,-9.26 l -5.07,-20.38 c -1.28,-5.11 -6.46,-9.26 -11.58,-9.26" /><path
         id="path190"
         style="fill:#c6c9ea;fill-opacity:1;fill-rule:nonzero;stroke:none"
         d="m 3771.3,2975.35 v 28.38 c 3.6,-2.45 5.57,-6.99 4.37,-11.61 l -4.37,-16.77" /><path
         id="path192"
         style="fill:#cbcceb;fill-opacity:1;fill-rule:nonzero;stroke:none"
         d="M 3677.05,2743.76 H 3454.6 l 48.81,261.82 h 173.64 v -261.82" /><path
         id="path194"
         style="fill:#c7caeb;fill-opacity:1;fill-rule:nonzero;stroke:none"
         d="m 3702.71,2743.76 h -25.66 v 261.82 h 88.2 c 2.27,0 4.35,-0.69 6.05,-1.85 v -28.38 l -58.18,-223.54 c -1.23,-4.74 -5.52,-8.05 -10.41,-8.05" /><path
         id="path196"
         style="fill:#b6c8eb;fill-opacity:1;fill-rule:nonzero;stroke:none"
         d="m 3454.6,2743.76 h -421.87 c -7.04,0 -12.19,6.66 -10.41,13.47 l 5.13,19.71 h 319.7 l 43.97,228.64 h 112.29 l -48.81,-261.82" /><path
         id="path198"
         style="fill:#b7cded;fill-opacity:1;fill-rule:nonzero;stroke:none"
         d="m 3347.15,2776.94 h -319.7 l 57.41,220.6 c 1.23,4.74 5.52,8.04 10.41,8.04 h 295.85 l -43.97,-228.64" /><path
         id="path200"
         style="fill:#b2bfe7;fill-opacity:1;fill-rule:nonzero;stroke:none"
         d="m 3124.62,2948.8 h 233.13 c 2.97,0 5.38,2.41 5.38,5.38 0,2.97 -2.41,5.38 -5.38,5.38 h -233.13 c -2.98,0 -5.38,-2.41 -5.38,-5.38 0,-2.97 2.4,-5.38 5.38,-5.38" /><path
         id="path202"
         style="fill:#b2bfe7;fill-opacity:1;fill-rule:nonzero;stroke:none"
         d="m 3106.69,2841.2 h 233.12 c 2.97,0 5.38,2.41 5.38,5.38 0,2.97 -2.41,5.38 -5.38,5.38 h -233.12 c -2.98,0 -5.38,-2.41 -5.38,-5.38 0,-2.97 2.4,-5.38 5.38,-5.38" /><path
         id="path204"
         style="fill:#b2bfe7;fill-opacity:1;fill-rule:nonzero;stroke:none"
         d="m 3204.71,2881.85 h 233.14 c 2.97,0 5.38,2.41 5.38,5.38 0,2.97 -2.41,5.38 -5.38,5.38 h -233.14 c -2.97,0 -5.38,-2.41 -5.38,-5.38 0,-2.97 2.41,-5.38 5.38,-5.38" /><path
         id="path206"
         style="fill:#b2bfe7;fill-opacity:1;fill-rule:nonzero;stroke:none"
         d="m 3118.64,2912.93 h 69.94 c 2.97,0 5.38,2.41 5.38,5.38 0,2.97 -2.41,5.38 -5.38,5.38 h -69.94 c -2.97,0 -5.38,-2.41 -5.38,-5.38 0,-2.97 2.41,-5.38 5.38,-5.38" /><path
         id="path208"
         style="fill:#b2bfe7;fill-opacity:1;fill-rule:nonzero;stroke:none"
         d="m 3109.08,2881.85 h 69.93 c 2.97,0 5.38,2.41 5.38,5.38 0,2.97 -2.41,5.38 -5.38,5.38 h -69.93 c -2.97,0 -5.38,-2.41 -5.38,-5.38 0,-2.97 2.41,-5.38 5.38,-5.38" /><path
         id="path210"
         style="fill:#b2bfe7;fill-opacity:1;fill-rule:nonzero;stroke:none"
         d="m 3394.81,2948.8 h 83.09 c 2.97,0 5.38,2.41 5.38,5.38 0,2.97 -2.41,5.38 -5.38,5.38 h -83.09 c -2.97,0 -5.38,-2.41 -5.38,-5.38 0,-2.97 2.41,-5.38 5.38,-5.38" /><path
         id="path212"
         style="fill:#8cade0;fill-opacity:1;fill-rule:nonzero;stroke:none"
         d="m 3435.52,2796.1 v 1.79 h -123.19 l -0.39,0.51 -1.42,-1.1 1.74,-0.45 5.39,20.74 0.45,0.34 -1.1,1.42 v -1.8 h 123.19 l 0.39,-0.5 1.42,1.1 -1.74,0.45 -5.39,-20.74 -0.44,-0.34 1.09,-1.42 v 1.79 -1.79 l 1.1,-1.42 0.92,0.71 0.49,0.38 5.93,22.78 -1.47,1.9 -0.54,0.69 h -125.56 l -1.42,-1.09 -0.48,-0.38 -5.92,-22.78 1.46,-1.89 0.54,-0.69 h 125.56 l 0.49,0.37 -1.1,1.42" /><path
         id="path214"
         style="fill:#8cade0;fill-opacity:1;fill-rule:nonzero;stroke:none"
         d="m 3281.3,2796.1 v 1.79 h -123.2 l -0.39,0.51 -1.41,-1.1 1.73,-0.46 5.4,20.75 0.45,0.34 -1.1,1.42 v -1.8 h 123.19 l 0.39,-0.5 1.42,1.1 -1.74,0.45 -5.4,-20.74 -0.44,-0.34 1.1,-1.42 v 1.79 -1.79 l 1.09,-1.42 0.93,0.71 0.48,0.38 5.94,22.78 -1.47,1.9 -0.54,0.69 h -125.56 l -1.42,-1.09 -0.48,-0.38 -5.93,-22.77 1.47,-1.9 0.53,-0.69 h 125.56 l 0.49,0.37 -1.09,1.42" /><path
         id="path216"
         style="fill:#4377bd;fill-opacity:1;fill-rule:nonzero;stroke:none"
         d="m 3653.6,2827.03 c -6.36,8.47 -32.17,14.64 -39.3,23.11 -3.64,4.32 -3.64,12.37 -2.77,19.2 2.54,1.62 4.65,3.24 5.91,4.75 2.14,3.13 4.56,7.51 6.97,12.3 0.73,-0.71 1.71,-1.27 2.97,-1.23 3.39,0.1 16.29,17.65 12.96,21.72 -1.9,2.33 -4.97,0.31 -7.26,-1.84 3.42,7.81 5.82,13.8 5.82,13.8 h -0.13 c 0.33,0.99 0.62,1.98 0.87,2.99 5.12,20.52 -7.37,37.16 -27.89,37.16 -20.52,0 -41.3,-16.64 -46.42,-37.16 -0.26,-1.01 -0.45,-2 -0.62,-2.99 h -0.12 c 0,0 -0.59,-5.99 -1.08,-13.8 -1.2,2.15 -3.27,4.17 -6.33,1.84 -5.36,-4.07 -1.21,-21.62 2.12,-21.72 1.25,-0.04 2.5,0.52 3.59,1.23 0.03,-4.79 0.26,-9.17 0.85,-12.3 0.61,-1.84 2.41,-3.86 4.74,-5.83 -2.55,-6.58 -6.43,-14.02 -11.93,-18.12 -11.36,-8.47 -40.23,-14.64 -50.81,-23.11 -9.52,-7.61 -18.02,-29.87 -19.63,-34.26 h 170.02 c 0.59,4.39 3.18,26.65 -2.53,34.26" /><path
         id="path218"
         style="fill:#2e2e34;fill-opacity:1;fill-rule:nonzero;stroke:none"
         d="m 2794.27,2829.46 h -549.75 c -48.26,0 -77.63,39.13 -65.6,87.39 12.03,48.26 60.91,87.39 109.18,87.39 h 549.75 c 48.27,0 77.63,-39.13 65.6,-87.39 -12.03,-48.26 -60.91,-87.39 -109.18,-87.39" /><path
         id="path220"
         style="fill:#f8990f;fill-opacity:1;fill-rule:nonzero;stroke:none"
         d="m 2302.83,2894.04 -23.57,-10.96 c -2.22,-1.04 -4.1,0.63 -3.18,2.82 l 9.77,23.2 -0.18,2.37 -12.76,16.44 c -1.2,1.54 0.34,4.24 2.61,4.55 l 24.15,3.39 2.38,1.47 15.69,21.11 c 1.47,1.99 4.3,1.99 4.79,0 l 5.16,-21.11 1.65,-1.47 22.45,-3.39 c 2.11,-0.31 2.32,-3.01 0.35,-4.55 l -20.96,-16.44 -1.36,-2.37 -1.81,-23.2 c -0.17,-2.19 -2.88,-3.86 -4.58,-2.82 l -18.11,10.96 h -2.49" /><path
         id="path222"
         style="fill:#f8990f;fill-opacity:1;fill-rule:nonzero;stroke:none"
         d="m 2418.9,2894.04 -23.57,-10.96 c -2.22,-1.04 -4.1,0.63 -3.18,2.82 l 9.77,23.2 -0.18,2.37 -12.76,16.44 c -1.21,1.54 0.34,4.24 2.62,4.55 l 24.14,3.39 2.38,1.47 15.69,21.11 c 1.47,1.99 4.31,1.99 4.79,0 l 5.16,-21.11 1.65,-1.47 22.45,-3.39 c 2.12,-0.31 2.32,-3.01 0.34,-4.55 l -20.95,-16.44 -1.36,-2.37 -1.81,-23.2 c -0.17,-2.19 -2.88,-3.86 -4.58,-2.82 l -18.11,10.96 h -2.49" /><path
         id="path224"
         style="fill:#f8990f;fill-opacity:1;fill-rule:nonzero;stroke:none"
         d="m 2534.98,2894.04 -23.58,-10.96 c -2.22,-1.04 -4.09,0.63 -3.18,2.82 l 9.77,23.2 -0.18,2.37 -12.76,16.44 c -1.21,1.54 0.34,4.24 2.62,4.55 l 24.14,3.39 2.39,1.47 15.68,21.11 c 1.47,1.99 4.31,1.99 4.79,0 l 5.16,-21.11 1.65,-1.47 22.45,-3.39 c 2.12,-0.31 2.33,-3.01 0.35,-4.55 l -20.96,-16.44 -1.36,-2.37 -1.81,-23.2 c -0.16,-2.19 -2.88,-3.86 -4.58,-2.82 l -18.11,10.96 h -2.48" /><path
         id="path226"
         style="fill:#f8990f;fill-opacity:1;fill-rule:nonzero;stroke:none"
         d="m 2651.04,2894.04 -23.57,-10.96 c -2.22,-1.04 -4.09,0.63 -3.18,2.82 l 9.77,23.2 -0.18,2.37 -12.76,16.44 c -1.2,1.54 0.34,4.24 2.62,4.55 l 24.14,3.39 c 0.91,0.13 1.79,0.68 2.38,1.47 l 15.68,21.11 c 1.48,1.99 4.32,1.99 4.8,0 l 5.16,-21.11 1.65,-1.47 22.46,-3.39 c 2.11,-0.31 2.31,-3.01 0.34,-4.55 l -20.96,-16.44 -1.36,-2.37 -1.8,-23.2 c -0.18,-2.19 -2.88,-3.86 -4.58,-2.82 l -18.12,10.96 h -2.49" /><path
         id="path228"
         style="fill:#c4d8da;fill-opacity:1;fill-rule:nonzero;stroke:none"
         d="m 2767.12,2894.04 -23.58,-10.96 c -2.22,-1.04 -4.09,0.63 -3.17,2.82 l 9.76,23.2 -0.17,2.37 -12.77,16.44 c -1.2,1.54 0.35,4.24 2.62,4.55 l 24.14,3.39 c 0.91,0.13 1.8,0.68 2.38,1.47 l 15.69,21.11 c 1.47,1.99 4.3,1.99 4.79,0 l 5.16,-21.11 1.65,-1.47 22.46,-3.39 c 2.11,-0.31 2.32,-3.01 0.34,-4.55 l -20.96,-16.44 -1.36,-2.37 -1.81,-23.2 c -0.16,-2.19 -2.87,-3.86 -4.58,-2.82 l -18.1,10.96 h -2.49" /><path
         id="path230"
         style="fill:#2a347b;fill-opacity:1;fill-rule:nonzero;stroke:none"
         d="m 1487.89,3230 c 0,-34.99 -20.35,-63.35 -45.45,-63.35 -25.1,0 -45.45,28.36 -45.45,63.35 0,34.99 20.35,63.35 45.45,63.35 25.1,0 45.45,-28.36 45.45,-63.35" /><path
         id="path232"
         style="fill:#2a347b;fill-opacity:1;fill-rule:nonzero;stroke:none"
         d="m 1445.23,3220.8 c 0.01,-0.01 1.97,-2.18 5.43,-6.06 12.09,-13.56 42.38,-47.81 69.57,-81 13.59,-16.59 26.42,-32.93 35.76,-46.18 4.66,-6.62 8.46,-12.48 11,-17.09 1.26,-2.31 2.21,-4.3 2.8,-5.82 0.59,-1.51 0.75,-2.61 0.73,-2.67 -0.05,-3.01 -0.94,-4.74 -2.68,-6.57 -2.61,-2.7 -7.87,-4.84 -13.54,-5.93 -5.65,-1.13 -11.55,-1.38 -15.28,-1.38 -1.25,0 -2.26,0.03 -2.95,0.05 l -1,0.05 -0.73,-10.99 c 0.1,-0.01 1.87,-0.13 4.68,-0.13 5.61,0.02 15.25,0.41 24.21,3.37 4.48,1.5 8.87,3.66 12.4,7.17 3.54,3.46 5.96,8.56 5.91,14.36 -0.04,2.67 -0.8,4.96 -1.85,7.56 -3.99,9.51 -13.64,23.44 -26.15,39.94 -37.44,49.21 -100.08,118.64 -100.13,118.7 l -8.18,-7.38" /><path
         id="path234"
         style="fill:#2a347b;fill-opacity:1;fill-rule:nonzero;stroke:none"
         d="m 1544.35,3042.7 c 0,-9.13 -7.4,-16.53 -16.53,-16.53 -9.12,0 -16.52,7.4 -16.52,16.53 0,9.13 7.4,16.53 16.52,16.53 9.13,0 16.53,-7.4 16.53,-16.53" /><path
         id="path236"
         style="fill:#4b4ea5;fill-opacity:1;fill-rule:nonzero;stroke:none"
         d="m 1224.03,1398.44 c 45,-77.62 186.17,-134.31 353.47,-134.31 167.29,0 308.46,56.69 353.46,134.31 h -706.93" /><path
         id="path238"
         style="fill:#ada0d7;fill-opacity:1;fill-rule:nonzero;stroke:none"
         d="m 2178.38,1796.68 -84.83,-391.17 h -51.84 l 47.12,381.74 89.55,9.43" /><path
         id="path240"
         style="fill:#7b7ac5;fill-opacity:1;fill-rule:nonzero;stroke:none"
         d="m 2333.9,1763.69 h -759.38 v 94.26 h 683.98 c 41.64,0 75.4,-33.76 75.4,-75.4 v -18.86" /><path
         id="path242"
         style="fill:#ada0d7;fill-opacity:1;fill-rule:nonzero;stroke:none"
         d="m 953.047,1447.94 -183.781,883.91 c -7.301,35.12 19.504,68.07 55.371,68.07 H 1432.8 c 33.5,0 62.4,-23.51 69.22,-56.3 l 186.23,-895.68" /><path
         id="path244"
         style="fill:#ada0d7;fill-opacity:1;fill-rule:nonzero;stroke:none"
         d="M 2202.02,1350.97 H 1047.1 c -38.98,0 -73.276,25.73 -84.19,63.14 l -9.863,33.83 H 2202.02 v -96.97" /><path
         id="path246"
         style="fill:#e7e8f6;fill-opacity:1;fill-rule:nonzero;stroke:none"
         d="m 1634.05,486.52 h -91.9 v 820.03 h 91.9 V 486.52" /><path
         id="path248"
         style="fill:#4b4ea5;fill-opacity:1;fill-rule:nonzero;stroke:none"
         d="m 1634.05,1154.56 -91.9,-74.23 v 226.22 h 91.9 v -151.99" /><path
         id="path250"
         style="fill:#e7e8f6;fill-opacity:1;fill-rule:nonzero;stroke:none"
         d="m 1631.23,608.73 h -75.62 L 1211.1,471.961 h 764.63 l -344.5,136.769" /><path
         id="path252"
         style="fill:#4b4ea5;fill-opacity:1;fill-rule:nonzero;stroke:none"
         d="m 850.266,2334.45 h 546.664 v 10 H 850.266 Z" /><path
         id="path254"
         style="fill:#4b4ea5;fill-opacity:1;fill-rule:nonzero;stroke:none"
         d="m 1448.7,2275.15 93.33,-470 9.81,1.94 -93.34,470" /><path
         id="path256"
         style="fill:#4b4ea5;fill-opacity:1;fill-rule:nonzero;stroke:none"
         d="m 1558.65,1722.06 20,-136.66 9.9,1.44 -20,136.66" /><path
         id="path258"
         style="fill:#d1e8f8;fill-opacity:1;fill-rule:nonzero;stroke:none"
         d="m 4112.03,3129.45 h -440.19 c -22.7,0 -40.04,20.28 -36.49,42.71 l 3.33,21.1 c 2.83,17.96 18.31,31.19 36.49,31.19 h 440.19 c 22.7,0 40.04,-20.28 36.49,-42.71 l -3.33,-21.1 c -2.83,-17.96 -18.31,-31.19 -36.49,-31.19" /><path
         id="path260"
         style="fill:#2e2e34;fill-opacity:1;fill-rule:nonzero;stroke:none"
         d="m 3690.27,3166.12 h 380 v 20 h -380 z" /><path
         id="path262"
         style="fill:#f14946;fill-opacity:1;fill-rule:nonzero;stroke:none"
         d="m 2508.65,3676.12 h -120 c -57.07,0 -113.17,-46.27 -125.3,-103.33 -12.13,-57.08 24.3,-103.34 81.37,-103.34 h 26.05 c 29.11,-68.92 97.86,-60 97.86,-60 -12.99,25.91 -15.77,46.65 -15.68,60 h 11.77 c 57.07,0 113.17,46.26 125.3,103.34 12.13,57.06 -24.3,103.33 -81.37,103.33" /><path
         id="path264"
         style="fill:#2e2e34;fill-opacity:1;fill-rule:nonzero;stroke:none"
         d="m 2337.6,3582.79 h 113.328 v 20 H 2337.6 Z" /><path
         id="path266"
         style="fill:#2e2e34;fill-opacity:1;fill-rule:nonzero;stroke:none"
         d="m 2328.04,3537.79 h 184.16 v 20 h -184.16 z" /></g></g></svg>
