<svg width="437" height="352" viewBox="0 0 437 352" fill="none" xmlns="http://www.w3.org/2000/svg">
<path d="M65.1814 288.639H402.054V43.4543H65.1814V288.639Z" fill="white"/>
<path d="M65.1807 73.068H402.053V43.4543H65.1807V73.068Z" fill="#EFF0F3"/>
<path d="M123.282 63.8586H83.2663C82.2012 63.8576 81.1803 63.4333 80.4276 62.6789C79.6748 61.9246 79.252 60.9019 79.252 59.8355V56.6869C79.2529 55.6212 79.6762 54.5995 80.4288 53.8459C81.1815 53.0924 82.2019 52.6686 83.2663 52.6676H123.282C124.346 52.6686 125.367 53.0924 126.119 53.8459C126.872 54.5995 127.295 55.6212 127.296 56.6869V59.8355C127.296 60.9019 126.873 61.9246 126.121 62.6789C125.368 63.4333 124.347 63.8576 123.282 63.8586Z" fill="#FFA800"/>
<path d="M421.045 263.847C421.045 278.646 416.662 293.112 408.451 305.416C400.239 317.721 388.568 327.311 374.913 332.973C361.257 338.636 346.232 340.117 331.736 337.23C317.24 334.342 303.924 327.215 293.474 316.751C283.023 306.286 275.907 292.953 273.024 278.439C270.142 263.925 271.623 248.881 277.28 235.209C282.937 221.537 292.516 209.852 304.806 201.632C317.096 193.411 331.545 189.025 346.325 189.026C366.143 189.028 385.148 196.912 399.161 210.943C413.173 224.975 421.045 244.005 421.045 263.847Z" fill="#AC00FF"/>
<path d="M394.996 305.134L389.499 324.932C379.436 332.075 367.756 336.6 355.512 338.101C353.305 338.377 351.059 338.55 348.79 338.62C348.005 338.62 347.156 338.66 346.34 338.66C343.921 338.66 341.526 338.542 339.17 338.322C325.228 336.999 311.943 331.757 300.848 323.202C299.795 316.66 298.657 309.411 297.659 302.641C303.156 300.589 320.629 294.637 331.663 290.902L332.126 290.753L332.841 290.509L334.709 289.872C335.314 289.668 335.895 289.479 336.429 289.29L340.85 287.804L341.078 287.726H341.204L356.038 288.842L358.527 289.031L359.313 289.086L359.658 289.172C360.546 289.4 363.145 290.084 366.592 291.138C375.38 293.827 389.625 298.946 395.004 305.134" fill="#D9C7C1"/>
<path d="M350.211 226.696C350.211 226.696 368.006 229.7 364.982 257.588C361.959 285.477 346.261 283.016 345.209 282.977C344.156 282.937 329.416 283.315 328.639 249.215C328.639 249.215 328.411 224.007 350.211 226.696Z" fill="white"/>
<path d="M358.011 274.855C358.011 274.855 357.39 286.334 358.474 288.835C359.557 291.335 344.189 299.237 334.64 290.234C334.64 290.234 336.572 277.654 335.975 273.259C335.379 268.863 358.011 274.831 358.011 274.831" fill="white"/>
<path d="M365.345 249.694C365.345 249.694 367.316 247.626 368.015 249.749C368.713 251.872 364.874 261.268 365.101 261.701C365.101 261.701 364.732 262.487 364.269 262.054C363.806 261.622 365.345 249.694 365.345 249.694Z" fill="white"/>
<path d="M328.844 248.955C328.844 248.955 326.952 246.809 326.175 248.892C325.397 250.976 328.24 260.372 328.593 260.953C328.593 260.953 329.206 261.921 329.693 261.48C330.179 261.04 328.844 248.955 328.844 248.955Z" fill="white"/>
<path d="M366.483 247.336C365.87 251.149 365.289 253.987 365.289 253.987L362.698 257.368C362.698 257.368 362.855 249.883 362.462 248.72C362.255 248.032 362.085 247.334 361.952 246.628C361.653 245.213 361.347 243.625 361.167 243.09C360.829 242.249 345.916 237.885 332.629 244.01C332.629 244.01 332.747 245.158 332.739 246.447C332.739 247.941 332.566 249.592 331.883 249.867C330.611 250.331 331.145 258.626 331.145 258.626L329.072 256.268C329.072 256.268 328.475 251.943 327.886 246.958C327.752 245.795 327.611 244.6 327.485 243.412C327.187 238.404 327.69 229.307 334.2 223.968C338.597 222.081 345.618 220.477 357.319 224.062C357.319 224.062 359.996 224.243 360.75 224.967C368.038 233.002 366.514 247.414 366.514 247.414" fill="#C78D71"/>
<path d="M337.192 279.25C337.192 279.25 340.026 283.182 346.615 283.048C353.204 282.914 356.039 279.455 356.039 279.455C356.039 279.455 352.897 285.996 346.544 285.926C340.191 285.855 337.121 279.25 337.121 279.25" fill="#C78D71"/>
<path d="M332.834 290.509C332.834 290.509 337.6 298.812 346.647 299.598C352.387 300.094 357.358 292.813 359.683 289.235C355.347 287.652 350.74 286.95 346.13 287.168C341.521 287.387 337 288.523 332.834 290.509Z" fill="white"/>
<path d="M358.026 286.649C358.026 286.649 354.39 291.422 346.639 296.524L351.461 303.955L359.675 289.275L358.026 286.649Z" fill="#EDDAD3"/>
<path d="M335.001 287.718C338.181 291.47 342.157 294.465 346.639 296.485L341.354 304.143L332.111 290.777L335.001 287.749" fill="#EDDAD3"/>
<path d="M346.638 296.485L350.769 302.775C350.769 302.775 346.434 305.236 342.398 302.626L346.638 296.485Z" fill="#5073AB"/>
<path d="M399.763 303.946C399.056 306.502 397.988 310.237 395.185 320.458C394.329 321.244 393.449 321.928 392.562 322.628C391.675 323.328 390.528 324.201 389.484 324.94C379.42 332.083 367.741 336.608 355.496 338.11C356.604 312.21 359.674 289.243 359.674 289.243C362.093 289.878 364.391 290.512 366.569 291.146C385.526 296.595 395.146 301.367 398.428 303.192H398.499C399.355 303.671 399.747 303.931 399.747 303.931" fill="#00D8AE"/>
<path d="M331.381 337.166C316.934 334.198 303.683 327.03 293.286 316.558C292.831 316.095 292.375 315.623 291.935 315.151C290.624 309.584 289.752 305.96 289.698 305.716C289.698 305.716 298.94 299.63 331.648 290.895C331.648 291.681 331.648 312.651 331.381 337.159" fill="#00D8AE"/>
<path d="M349.002 303.467C348.703 310.291 348.672 323.524 348.774 338.62C347.989 338.62 347.141 338.66 346.324 338.66C343.905 338.66 341.51 338.542 339.154 338.322C340.591 319.703 343.01 308.058 344.117 303.451C344.479 301.941 344.699 301.186 344.699 301.186L349.088 301.91C349.088 302.389 349.033 302.908 349.002 303.482" fill="#5073AB"/>
<path d="M403.509 311.975C400.962 315.018 398.178 317.855 395.185 320.458C394.329 321.245 393.449 321.929 392.562 322.628L399.763 303.97C401.522 305.449 402.904 310.528 403.532 311.982" fill="#00D8AE"/>
<path d="M293.287 316.527C292.831 316.063 292.376 315.591 291.936 315.119C290.256 313.342 288.672 311.489 287.185 309.561C288.033 307.54 288.874 306.18 289.698 305.676L293.287 316.511" fill="#00D8AE"/>
<path d="M366.805 104.153C366.805 112.72 364.268 121.095 359.514 128.218C354.76 135.342 348.003 140.894 340.097 144.172C332.192 147.451 323.493 148.308 315.101 146.636C306.709 144.965 299 140.839 292.95 134.78C286.899 128.722 282.779 121.003 281.111 112.6C279.442 104.198 280.299 95.4879 283.574 87.5729C286.85 79.6579 292.395 72.8931 299.51 68.1339C306.626 63.3748 314.99 60.8351 323.547 60.836C335.02 60.8372 346.023 65.4014 354.136 73.5247C362.248 81.648 366.805 92.6651 366.805 104.153Z" fill="#5F8BE3"/>
<path d="M351.725 128.055L348.543 139.517C342.717 143.652 335.955 146.272 328.866 147.141C327.589 147.3 326.288 147.401 324.975 147.442C324.52 147.442 324.029 147.464 323.556 147.464C322.156 147.464 320.769 147.396 319.405 147.269C311.334 146.503 303.643 143.468 297.219 138.515C296.61 134.728 295.951 130.531 295.373 126.612C298.556 125.424 308.671 121.978 315.059 119.816L315.327 119.729L315.741 119.588L316.823 119.219C317.173 119.101 317.509 118.992 317.819 118.883L320.378 118.022L320.51 117.977H320.583L329.171 118.623L330.612 118.732L331.067 118.764L331.267 118.814C331.78 118.946 333.285 119.342 335.281 119.952C340.368 121.509 348.615 124.472 351.73 128.055" fill="#D9C7C1"/>
<path d="M325.796 82.6445C325.796 82.6445 336.098 84.3834 334.348 100.529C332.598 116.675 323.51 115.25 322.9 115.227C322.291 115.205 313.758 115.423 313.308 95.6814C313.308 95.6814 313.176 81.0878 325.796 82.6445Z" fill="white"/>
<path d="M330.312 110.525C330.312 110.525 329.953 117.171 330.58 118.619C331.207 120.066 322.31 124.641 316.782 119.429C316.782 119.429 317.9 112.146 317.555 109.601C317.209 107.057 330.312 110.512 330.312 110.512" fill="white"/>
<path d="M334.558 95.9589C334.558 95.9589 335.699 94.7617 336.104 95.9908C336.508 97.2198 334.285 102.659 334.417 102.91C334.417 102.91 334.203 103.365 333.935 103.115C333.667 102.864 334.558 95.9589 334.558 95.9589Z" fill="white"/>
<path d="M313.426 95.5311C313.426 95.5311 312.331 94.2883 311.881 95.4946C311.431 96.7009 313.077 102.14 313.281 102.477C313.281 102.477 313.636 103.037 313.918 102.782C314.199 102.527 313.426 95.5311 313.426 95.5311Z" fill="white"/>
<path d="M335.218 94.5936C334.863 96.8013 334.527 98.4445 334.527 98.4445L333.026 100.402C333.026 100.402 333.117 96.0684 332.89 95.3947C332.77 94.9966 332.672 94.5924 332.594 94.1839C332.422 93.3645 332.244 92.445 332.14 92.1355C331.944 91.6484 323.311 89.1221 315.618 92.6681C315.618 92.6681 315.687 93.3327 315.682 94.0792C315.682 94.9441 315.582 95.9 315.186 96.0593C314.45 96.3279 314.759 101.13 314.759 101.13L313.559 99.7646C313.559 99.7646 313.213 97.261 312.872 94.3751C312.795 93.7014 312.713 93.0095 312.641 92.3222C312.468 89.4226 312.759 84.1559 316.528 81.0652C319.074 79.9727 323.138 79.0441 329.912 81.1198C329.912 81.1198 331.462 81.2245 331.899 81.6433C336.118 86.2954 335.236 94.6391 335.236 94.6391" fill="#FFA800"/>
<path d="M318.26 113.07C318.26 113.07 319.901 115.346 323.715 115.268C327.53 115.191 329.171 113.188 329.171 113.188C329.171 113.188 327.352 116.975 323.674 116.935C319.996 116.894 318.219 113.07 318.219 113.07" fill="#C78D71"/>
<path d="M315.736 119.588C315.736 119.588 318.496 124.395 323.733 124.85C327.056 125.137 329.934 120.922 331.28 118.851C328.77 117.934 326.103 117.528 323.434 117.654C320.765 117.781 318.148 118.438 315.736 119.588Z" fill="white"/>
<path d="M330.321 117.353C330.321 117.353 328.216 120.116 323.729 123.071L326.52 127.372L331.276 118.874L330.321 117.353Z" fill="#EDDAD3"/>
<path d="M316.991 117.972C318.832 120.145 321.134 121.879 323.729 123.048L320.669 127.481L315.318 119.743L316.991 117.991" fill="#EDDAD3"/>
<path d="M323.729 123.048L326.12 126.689C326.12 126.689 323.611 128.114 321.274 126.603L323.729 123.048Z" fill="#5073AB"/>
<path d="M354.485 127.368C354.076 128.847 353.457 131.009 351.834 136.927C351.339 137.382 350.83 137.778 350.316 138.183C349.802 138.588 349.138 139.093 348.534 139.521C342.707 143.657 335.946 146.277 328.857 147.146C329.498 132.152 331.276 118.855 331.276 118.855C332.676 119.223 334.007 119.59 335.267 119.957C346.242 123.111 351.812 125.874 353.712 126.931H353.753C354.248 127.208 354.476 127.358 354.476 127.358" fill="#FFA800"/>
<path d="M314.896 146.6C306.532 144.881 298.861 140.731 292.841 134.669C292.578 134.401 292.314 134.127 292.059 133.854C291.3 130.631 290.795 128.533 290.764 128.392C290.764 128.392 296.115 124.869 315.05 119.811C315.05 120.267 315.05 132.407 314.896 146.595" fill="#FFA800"/>
<path d="M325.097 127.09C324.925 131.041 324.906 138.702 324.966 147.442C324.511 147.442 324.02 147.464 323.547 147.464C322.147 147.464 320.76 147.396 319.396 147.269C320.228 136.49 321.629 129.748 322.27 127.081C322.479 126.207 322.606 125.77 322.606 125.77L325.147 126.189C325.147 126.466 325.116 126.767 325.097 127.099" fill="#5073AB"/>
<path d="M356.653 132.015C355.179 133.777 353.567 135.419 351.834 136.927C351.339 137.382 350.83 137.778 350.316 138.183L354.485 127.381C355.503 128.237 356.303 131.178 356.667 132.02" fill="#FFA800"/>
<path d="M292.842 134.651C292.578 134.382 292.314 134.109 292.06 133.836C291.087 132.807 290.17 131.734 289.309 130.618C289.8 129.448 290.287 128.66 290.764 128.369L292.842 134.642" fill="#FFA800"/>
<path d="M134.295 224.738C134.295 235.669 131.058 246.355 124.992 255.443C118.927 264.532 110.306 271.616 100.219 275.798C90.1329 279.981 79.0342 281.075 68.3267 278.942C57.6192 276.809 47.7838 271.545 40.0645 263.816C32.3452 256.086 27.0885 246.238 24.9593 235.517C22.8301 224.796 23.9242 213.683 28.1029 203.585C32.2816 193.486 39.3573 184.855 48.4354 178.783C57.5134 172.711 68.1858 169.471 79.1031 169.472C93.7415 169.473 107.78 175.297 118.13 185.661C128.481 196.025 134.295 210.082 134.295 224.738Z" fill="#00D8AE"/>
<path d="M115.055 255.235L110.994 269.858C103.561 275.135 94.9337 278.477 85.8894 279.586C84.2595 279.79 82.6006 279.917 80.9242 279.97C80.3442 279.97 79.7177 279.999 79.1144 279.999C77.3278 279.999 75.5587 279.912 73.8186 279.749C63.5203 278.772 53.7075 274.9 45.5118 268.581C44.7345 263.749 43.8934 258.394 43.1567 253.394C47.2171 251.878 60.1234 247.481 68.2732 244.723L68.6155 244.612L69.1433 244.432L70.5237 243.962C70.9704 243.811 71.3997 243.671 71.7942 243.532L75.0598 242.434L75.2281 242.376H75.3208L86.2782 243.201L88.1169 243.34L88.6969 243.381L88.9521 243.445C89.6076 243.613 91.5276 244.119 94.0741 244.897C100.565 246.883 111.087 250.664 115.06 255.235" fill="#D9C7C1"/>
<path d="M81.9734 197.297C81.9734 197.297 95.1175 199.515 92.8843 220.115C90.6511 240.715 79.0558 238.898 78.2786 238.868C77.5013 238.839 66.6136 239.118 66.0394 213.93C66.0394 213.93 65.8711 195.311 81.9734 197.297Z" fill="white"/>
<path d="M87.734 232.869C87.734 232.869 87.2757 241.348 88.0762 243.195C88.8767 245.042 77.5251 250.879 70.4717 244.229C70.4717 244.229 71.8986 234.937 71.4577 231.69C71.0169 228.444 87.734 232.852 87.734 232.852" fill="white"/>
<path d="M93.1508 214.284C93.1508 214.284 94.6067 212.757 95.1229 214.325C95.6391 215.893 92.8029 222.833 92.9711 223.153C92.9711 223.153 92.6984 223.734 92.3562 223.414C92.014 223.095 93.1508 214.284 93.1508 214.284Z" fill="white"/>
<path d="M66.1902 213.738C66.1902 213.738 64.7924 212.153 64.2181 213.692C63.6439 215.231 65.7437 222.171 66.0047 222.601C66.0047 222.601 66.4571 223.315 66.8167 222.99C67.1763 222.665 66.1902 213.738 66.1902 213.738Z" fill="white"/>
<path d="M93.9927 212.542C93.5402 215.359 93.111 217.456 93.111 217.456L91.1968 219.953C91.1968 219.953 91.3128 214.424 91.0227 213.564C90.87 213.056 90.7442 212.541 90.6458 212.02C90.4253 210.974 90.1991 209.801 90.0657 209.406C89.8163 208.785 78.801 205.561 68.9865 210.086C68.9865 210.086 69.0735 210.933 69.0677 211.886C69.0677 212.989 68.9402 214.209 68.4355 214.412C67.4958 214.755 67.8903 220.882 67.8903 220.882L66.3589 219.14C66.3589 219.14 65.918 215.946 65.483 212.263C65.3844 211.404 65.28 210.521 65.1872 209.644C64.9667 205.945 65.338 199.225 70.1466 195.282C73.3949 193.888 78.5806 192.703 87.2234 195.351C87.2234 195.351 89.2014 195.485 89.7583 196.019C95.1411 201.955 94.0157 212.6 94.0157 212.6" fill="#23172D"/>
<path d="M72.3569 236.116C72.3569 236.116 74.4509 239.02 79.3176 238.921C84.1842 238.822 86.2782 236.267 86.2782 236.267C86.2782 236.267 83.958 241.099 79.2653 241.047C74.5727 240.994 72.3047 236.116 72.3047 236.116" fill="#C78D71"/>
<path d="M69.1372 244.432C69.1372 244.432 72.6582 250.565 79.3403 251.146C83.5805 251.512 87.2522 246.134 88.9691 243.491C85.7666 242.322 82.3637 241.803 78.9587 241.965C75.5537 242.126 72.2149 242.965 69.1372 244.432Z" fill="white"/>
<path d="M87.7453 241.581C87.7453 241.581 85.0596 245.106 79.3345 248.875L82.896 254.364L88.9633 243.521L87.7453 241.581Z" fill="#EDDAD3"/>
<path d="M70.7381 242.37C73.0869 245.142 76.0237 247.354 79.3345 248.846L75.4308 254.503L68.6035 244.63L70.7381 242.394" fill="#EDDAD3"/>
<path d="M79.335 248.846L82.3861 253.492C82.3861 253.492 79.1841 255.31 76.2026 253.382L79.335 248.846Z" fill="#5073AB"/>
<path d="M118.576 254.358C118.054 256.245 117.265 259.004 115.194 266.554C114.562 267.135 113.912 267.64 113.257 268.157C112.601 268.674 111.754 269.318 110.983 269.864C103.549 275.14 94.9224 278.483 85.8782 279.592C86.6961 260.461 88.964 243.497 88.964 243.497C90.7505 243.966 92.4482 244.434 94.0569 244.902C108.059 248.927 115.165 252.453 117.59 253.8H117.642C118.274 254.154 118.564 254.346 118.564 254.346" fill="#5073AB"/>
<path d="M68.0644 278.896C57.3936 276.703 47.6058 271.408 39.9259 263.674C39.5895 263.331 39.253 262.982 38.9282 262.634C37.9595 258.522 37.3158 255.845 37.2751 255.665C37.2751 255.665 44.1023 251.169 68.2616 244.717C68.2616 245.298 68.2616 260.787 68.0644 278.89" fill="#5073AB"/>
<path d="M81.0811 254.003C80.8606 259.044 80.8374 268.819 80.9128 279.97C80.3328 279.97 79.7062 279.999 79.103 279.999C77.3164 279.999 75.5473 279.912 73.8071 279.749C74.8686 265.996 76.6552 257.395 77.4731 253.992C77.74 252.877 77.9024 252.319 77.9024 252.319L81.1448 252.853C81.1448 253.208 81.1043 253.591 81.0811 254.015" fill="#5073AB"/>
<path d="M121.343 260.287C119.461 262.535 117.405 264.631 115.194 266.554C114.562 267.135 113.912 267.64 113.257 268.157L118.576 254.375C119.875 255.467 120.896 259.219 121.36 260.293" fill="#5073AB"/>
<path d="M39.9265 263.65C39.59 263.308 39.2536 262.959 38.9288 262.611C37.6875 261.298 36.5179 259.929 35.4197 258.505C36.0461 257.012 36.6667 256.007 37.2758 255.635L39.9265 263.639" fill="#5073AB"/>
<path d="M187.604 334.698C187.604 334.698 186.016 338.28 184.675 339.701C183.333 341.122 178.19 343.658 178.163 347.879C178.136 352.448 186.833 351.183 190.224 351.014C193.614 350.844 193.874 348.405 195.312 345.814C196.749 343.223 198.187 343.662 198.456 341.574C198.725 339.486 197.361 334.812 197.361 334.812L187.604 334.698Z" fill="#8600C7"/>
<path d="M187.458 333.377L187.207 335.543C187.207 335.543 192.555 337.339 197.607 335.735L197.328 332.77L187.458 333.377Z" fill="#4F4946"/>
<path d="M250.286 334.698C250.286 334.698 251.879 338.28 253.216 339.701C254.553 341.122 259.701 343.658 259.728 347.879C259.755 352.448 251.058 351.183 247.667 351.014C244.276 350.844 244.016 348.405 242.579 345.814C241.141 343.223 239.704 343.662 239.435 341.574C239.166 339.486 240.53 334.812 240.53 334.812L250.286 334.698Z" fill="#8600C7"/>
<path d="M250.431 333.377L250.682 335.543C250.682 335.543 245.333 337.339 240.277 335.735L240.56 332.77L250.431 333.377Z" fill="#4F4946"/>
<path d="M247.62 275.658C247.62 281.296 252.882 332.77 252.882 332.77C252.275 334.648 239.37 334.419 237.366 333.483C235.363 332.546 229.504 281.529 229.13 275.845C228.755 270.161 220.359 220.72 218.593 220.907C216.827 221.095 208.462 274.077 207.052 278.399C205.642 282.721 199.253 333.971 199.253 333.971C194.827 336.411 184.295 333.355 184.295 333.355C184.295 333.355 186.504 280.743 186.755 279.153C187.129 276.8 186.755 270.472 187.763 256.399C188.676 243.821 191.989 216.434 194.088 201.599C194.161 201.073 194.234 200.566 194.302 200.082C194.713 197.194 195.023 195.056 195.174 194.056C195.238 193.599 195.27 193.384 195.27 193.384C195.836 193.142 196.429 192.927 197.045 192.708C211.789 187.764 239.849 188.079 239.849 188.079C239.849 188.079 240.237 193.105 240.269 193.375C240.301 193.644 240.369 194.138 240.442 194.745C240.606 196.052 240.853 197.999 241.131 200.26C241.131 200.26 241.131 200.292 241.131 200.31L241.158 200.516C242.149 208.562 243.55 220.336 243.44 221.561C243.235 223.439 247.643 270.019 247.643 275.658" fill="#8600C7"/>
<path d="M249.72 108.908L242.479 134.951C242.232 135.797 241.935 136.834 241.621 138.04V138.086C241.619 138.096 241.619 138.107 241.621 138.118C239.941 144.522 238.886 151.074 238.472 157.682C238.171 163.037 239.161 184.561 239.161 184.561C239.161 184.561 228.209 188.673 211.781 187.618C211.781 187.618 194.139 187.207 195.577 176.378C199.382 147.712 195.663 135.892 195.161 133.019C195.161 133.019 193.081 119.81 191.365 108.145C196.33 106.317 217.225 98.4405 217.225 98.4405L228.209 99.2629C228.209 99.2629 244.906 103.375 249.725 108.931" fill="#D9C7C1"/>
<path d="M222.733 61.6374C222.733 61.6374 233.453 63.4649 231.636 80.2559C229.82 97.0468 220.351 95.5802 219.717 95.5573C219.083 95.5345 210.198 95.7583 209.728 75.2071C209.728 75.2071 209.595 60.0154 222.733 61.6374Z" fill="white"/>
<path d="M227.409 90.6821C227.409 90.6821 227.039 97.5996 227.692 99.1073C228.344 100.615 219.081 105.376 213.326 99.948C213.326 99.948 214.49 92.3909 214.13 89.718C213.769 87.0452 227.409 90.6821 227.409 90.6821Z" fill="white"/>
<path d="M232.538 74.0785C232.168 76.363 231.817 78.0855 231.817 78.0855L230.256 80.1279C230.256 80.1279 230.348 75.6137 230.11 74.9055C230.019 74.636 229.914 74.1608 229.805 73.6445C229.627 72.7947 229.444 71.8169 229.316 71.5153C229.116 71.0082 220.126 68.3764 212.122 72.0682C212.122 72.0682 212.19 72.7627 212.186 73.5348C212.186 74.4486 212.081 75.4447 211.67 75.5955C210.903 75.8787 211.214 80.8772 211.214 80.8772L209.963 79.4379C209.963 79.4379 209.603 76.8245 209.251 73.8227C209.169 73.1236 209.087 72.4017 209.01 71.689C208.832 68.6734 209.128 63.1906 213.057 59.9695C215.709 58.8318 222.946 57.685 226.989 60.0289C226.989 60.0289 229.152 61.3996 229.608 61.8108C233.998 66.6539 232.534 74.1014 232.534 74.1014" fill="#23172D"/>
<path d="M214.883 93.3095C214.883 93.3095 216.594 95.6899 220.568 95.594C224.543 95.498 226.273 93.4283 226.273 93.4283C226.273 93.4283 224.388 97.3713 220.55 97.3302C216.712 97.289 214.883 93.305 214.883 93.305" fill="#C78D71"/>
<path d="M227.441 97.7504C227.441 97.7504 225.246 100.624 220.596 103.69L223.499 108.172L228.454 99.2901L227.46 97.7412" fill="#EDDAD3"/>
<path d="M213.565 98.4175C215.482 100.678 217.878 102.482 220.579 103.699L217.384 108.314L211.844 100.432L213.555 98.4175" fill="#EDDAD3"/>
<path d="M220.565 103.699L223.052 107.491C223.052 107.491 220.441 108.972 218.009 107.4L220.565 103.699Z" fill="#5073AB"/>
<path d="M194.973 189.546C194.973 189.546 208.425 194.512 238.849 189.834L238.447 184.319C238.447 184.319 220.81 189.528 195.507 185.064L194.973 189.546Z" fill="#1A2833"/>
<path d="M228.436 99.2993C228.436 99.2993 225.287 122.862 225.72 143.162C226.154 163.462 232.734 201.507 232.734 201.507C232.734 201.507 244.467 200.361 247.378 196.687C247.378 196.687 240.647 160.058 240.839 154.652C241.03 149.247 249.468 108.401 249.468 108.401C249.468 108.401 246.169 103.996 228.436 99.3221" fill="#AC00FF"/>
<path d="M211.598 100.533C211.598 100.533 211.57 122.862 211.141 143.157C210.713 163.453 208.043 201.234 208.043 201.234C208.043 201.234 194.275 199.274 191.364 195.6C191.364 195.6 196.215 160.058 196.023 154.63C195.831 149.202 189.799 108.757 189.799 108.757C189.799 108.757 191.884 105.778 211.598 100.533Z" fill="#AC00FF"/>
<path d="M221.587 192.169H213.318V186.014H221.587V192.169Z" fill="#3E5E78"/>
<path d="M219.411 106.532C219.411 106.532 215.719 119.151 215.395 144.208C215.071 169.264 215.851 176.451 215.851 176.451L218.736 182.162L222.578 176.223C222.578 176.223 221.346 118.562 222.058 106.989L219.415 106.532" fill="#5073AB"/>
<path d="M234.826 141.796C234.826 141.796 240.302 139.054 241.045 138.561C241.789 138.067 250.93 136.733 252.08 136.761C253.23 136.788 253.28 137.716 252.956 138.04C252.632 138.364 243.51 139.868 243.35 140.087C243.19 140.306 244.121 140.219 244.121 140.219C244.121 140.219 253.955 140.073 254.644 140.731C255.333 141.389 254.544 142.015 254.142 142.179C254.142 142.179 255.055 143.207 254.001 143.632C253.212 143.931 252.4 144.163 251.573 144.327C251.573 144.327 252.869 144.998 252.029 145.597C251.19 146.195 240.753 149.426 240.753 149.426C240.753 149.426 236.879 142.006 234.821 141.796" fill="white"/>
<path d="M253.599 160.657C246.498 162.352 230.08 159.596 223.828 158.217C222.505 157.924 221.003 157.618 219.465 157.303C216.905 156.796 214.236 156.307 212.068 155.932C209.399 155.452 207.505 155.133 207.505 155.133C207.505 155.133 241.953 147.365 243.227 147.365C244.5 147.365 240.032 127.202 240.032 127.202C240.032 127.202 235.592 110.297 237.897 103.677C237.897 103.677 246.64 106.331 249.469 108.355C251.044 109.484 252.207 116.808 253.28 121.788C254.649 128.098 257.811 142.476 258.171 145.51C258.5 148.275 260.704 158.934 253.608 160.634" fill="#AC00FF"/>
<path d="M200.884 103.782C200.884 103.782 190.307 107.4 189.8 108.775C187.66 114.596 186.665 120.961 185.971 123.51C185.127 126.626 183.211 135.943 182.718 138.981C182.093 142.855 180.892 156.581 181.413 158.701C182.074 161.373 188.367 161.177 191.758 160.647C195.148 160.117 242.283 148.635 242.283 148.635C242.283 148.635 239.595 139.854 239.463 139.077C239.463 139.077 203.125 143.235 198.498 144.222C197.42 144.425 196.353 144.686 195.303 145.003C195.303 145.003 203.321 112.074 200.907 103.782" fill="#AC00FF"/>
<path d="M207.144 143.084C207.144 143.084 202.399 139.218 201.764 138.579C201.13 137.939 192.51 134.654 191.378 134.444C191.215 134.386 191.04 134.374 190.87 134.409C190.701 134.443 190.544 134.523 190.417 134.64C190.289 134.757 190.196 134.906 190.147 135.072C190.097 135.238 190.094 135.414 190.137 135.582C190.287 136.372 199.081 139.323 199.186 139.57C199.291 139.817 198.406 139.538 198.406 139.538C198.406 139.538 188.823 137.254 188.019 137.765C187.216 138.277 187.842 139.04 188.197 139.287C188.197 139.287 187.102 140.1 188.019 140.74C188.728 141.2 189.473 141.601 190.246 141.941C190.246 141.941 188.832 142.316 189.539 143.084C190.246 143.851 195.28 145.003 195.28 145.003C195.28 145.003 205.105 142.846 207.144 143.084Z" fill="white"/>
<path d="M235.445 150.294L219.474 157.316C216.914 156.809 214.244 156.32 212.076 155.946L235.454 150.303" fill="#263947"/>
<path d="M427.846 174.143H402.41C401.208 174.144 400.018 173.907 398.908 173.447C397.797 172.987 396.789 172.313 395.939 171.462C395.089 170.611 394.416 169.601 393.956 168.49C393.497 167.378 393.261 166.186 393.261 164.983V139.529C393.261 138.325 393.497 137.134 393.956 136.022C394.415 134.91 395.089 133.899 395.939 133.048C396.788 132.197 397.797 131.522 398.907 131.061C400.018 130.6 401.208 130.363 402.41 130.363H427.846C430.273 130.363 432.602 131.329 434.319 133.047C436.035 134.766 437 137.098 437 139.529V164.983C437 166.187 436.763 167.378 436.303 168.49C435.843 169.602 435.169 170.612 434.318 171.462C433.468 172.313 432.459 172.988 431.348 173.447C430.238 173.907 429.047 174.144 427.846 174.143Z" fill="#FFA800"/>
<path d="M413.738 161.9L402.684 152.25C402.453 152.066 402.261 151.838 402.121 151.578C401.98 151.319 401.894 151.033 401.867 150.739C401.84 150.445 401.873 150.148 401.964 149.867C402.054 149.586 402.201 149.327 402.395 149.104C402.589 148.882 402.825 148.701 403.091 148.573C403.357 148.444 403.646 148.371 403.94 148.358C404.235 148.345 404.529 148.392 404.805 148.495C405.081 148.599 405.333 148.758 405.546 148.963L413.362 155.786L424.512 143.339C424.897 142.909 425.438 142.65 426.014 142.619C426.59 142.588 427.155 142.787 427.585 143.173C428.014 143.559 428.273 144.1 428.304 144.677C428.335 145.254 428.136 145.82 427.75 146.25L413.725 161.9" fill="#F3F3F3"/>
<path d="M427.846 113.307H402.41C401.208 113.308 400.018 113.071 398.908 112.611C397.797 112.151 396.789 111.477 395.939 110.626C395.089 109.775 394.416 108.765 393.956 107.654C393.497 106.542 393.261 105.35 393.261 104.147V78.6926C393.261 77.4892 393.497 76.2975 393.956 75.1855C394.415 74.0735 395.089 73.063 395.939 72.2118C396.788 71.3606 397.797 70.6854 398.907 70.2247C400.018 69.764 401.208 69.5269 402.41 69.5269H427.846C430.273 69.5269 432.602 70.4925 434.319 72.2114C436.035 73.9303 437 76.2617 437 78.6926V104.147C437 105.351 436.763 106.542 436.303 107.654C435.843 108.766 435.169 109.776 434.318 110.626C433.468 111.477 432.459 112.151 431.348 112.611C430.238 113.071 429.047 113.308 427.846 113.307Z" fill="#FFA800"/>
<path d="M413.738 101.064L402.684 91.4136C402.453 91.2302 402.261 91.0018 402.121 90.7422C401.98 90.4825 401.894 90.197 401.867 89.9029C401.84 89.6089 401.873 89.3124 401.964 89.0314C402.054 88.7504 402.201 88.4908 402.395 88.2682C402.589 88.0456 402.825 87.8648 403.091 87.7365C403.357 87.6083 403.646 87.5353 403.94 87.522C404.235 87.5088 404.529 87.5556 404.805 87.6595C405.081 87.7634 405.333 87.9222 405.546 88.1265L413.362 94.9497L424.512 82.5033C424.897 82.0733 425.438 81.8142 426.014 81.7831C426.59 81.752 427.155 81.9513 427.585 82.3373C428.014 82.7233 428.273 83.2642 428.304 83.8412C428.335 84.4181 428.136 84.9838 427.75 85.4138L413.725 101.064" fill="#F3F3F3"/>
<path d="M427.846 52.4708H402.41C401.208 52.4716 400.018 52.2353 398.908 51.7753C397.797 51.3153 396.789 50.6407 395.939 49.79C395.089 48.9393 394.416 47.9292 393.956 46.8176C393.497 45.7059 393.261 44.5144 393.261 43.3114V17.8566C393.261 16.6533 393.497 15.4616 393.956 14.3496C394.415 13.2376 395.089 12.2271 395.939 11.3759C396.788 10.5247 397.797 9.84948 398.907 9.38878C400.018 8.92808 401.208 8.69089 402.41 8.69089H427.846C430.273 8.69089 432.602 9.65655 434.319 11.3755C436.035 13.0944 437 15.4257 437 17.8566V43.3114C437 44.5147 436.763 45.7064 436.303 46.818C435.843 47.9297 435.169 48.9397 434.318 49.7903C433.468 50.6409 432.459 51.3155 431.348 51.7754C430.238 52.2353 429.047 52.4716 427.846 52.4708Z" fill="#FFA800"/>
<path d="M413.738 40.2285L402.684 30.5777C402.453 30.3943 402.261 30.1659 402.121 29.9062C401.98 29.6465 401.894 29.361 401.867 29.067C401.84 28.7729 401.873 28.4764 401.964 28.1954C402.054 27.9144 402.201 27.6548 402.395 27.4322C402.589 27.2097 402.825 27.0288 403.091 26.9005C403.357 26.7723 403.646 26.6993 403.94 26.686C404.235 26.6728 404.529 26.7196 404.805 26.8235C405.081 26.9274 405.333 27.0862 405.546 27.2905L413.362 34.1138L424.512 21.6673C424.897 21.2373 425.438 20.9783 426.014 20.9471C426.59 20.916 427.155 21.1154 427.585 21.5013C428.014 21.8873 428.273 22.4282 428.304 23.0052C428.335 23.5821 428.136 24.1478 427.75 24.5778L413.725 40.2285" fill="#F3F3F3"/>
<path d="M138.919 69.5401C138.918 84.1493 134.323 98.3874 125.787 110.235C117.25 122.083 105.205 130.94 91.359 135.549L90.1053 135.948C76.1351 140.302 61.1483 140.129 47.2826 135.451C33.4169 130.774 21.3805 121.832 12.8902 109.901C4.39988 97.9703 -0.110547 83.6595 0.00205825 69.0103C0.114664 54.3611 4.84464 40.1216 13.5174 28.3229C22.1901 16.5242 34.3624 7.76897 48.2984 3.30594C62.2344 -1.1571 77.222 -1.09996 91.1236 3.46925C105.025 8.03846 117.131 16.8863 125.714 28.7508C134.296 40.6153 138.918 54.8905 138.919 69.5401Z" fill="#00FFD1"/>
<path d="M52.888 62.1901C52.888 62.1901 48.1396 31.468 73.553 32.0385C98.9664 32.609 98.6339 47.7941 98.1781 62.8747C97.7222 77.9552 87.9881 76.8237 98.9759 97.7995C109.964 118.775 89.4791 118.775 89.4791 118.775L73.572 96.9058L52.907 62.2091" fill="#23172D"/>
<path d="M70.7812 34.9667C70.7812 34.9667 53.5634 37.6861 52.8891 62.1706C52.2148 86.6551 57.5235 91.8848 72.595 86.7788C87.6664 81.6727 92.4053 56.0471 92.7472 52.0821C93.0891 48.117 93.9914 32.019 70.7812 34.9667Z" fill="white"/>
<path d="M101.008 120.163C101.055 127.504 97.133 132.41 91.3589 135.548L90.1053 135.947C73.0463 141.231 54.6126 139.761 38.6042 131.84C36.5054 127.656 39.5539 121.723 45.6983 112.613C49.9339 106.347 54.0745 99.9576 61.1781 96.8483C71.6246 95.1748 82.7265 95.0797 90.5328 99.4917C96.7532 103.019 100.903 109.409 100.979 120.163" fill="#FFA800"/>
<path d="M104.53 129.577C100.359 132.022 95.9446 134.023 91.3581 135.549L90.1044 135.948C88.3475 131.412 86.8282 127.485 86.4958 126.439C86.4009 126.145 86.1728 125.593 85.8689 124.852C84.4444 121.381 81.244 113.66 81.2061 107.622C81.2061 103.723 82.4596 100.528 86.3818 99.6252C87.7394 99.2871 89.1521 99.2321 90.532 99.4635C94.9005 100.262 97.4549 104.218 98.8794 107.679L98.9365 107.85C99.6582 109.639 100.184 111.501 100.504 113.403L100.693 114.173C100.94 115.124 101.415 117.026 102.023 119.403C102.716 122.18 103.6 125.707 104.53 129.549" fill="white"/>
<path d="M82.2686 75.7682C80.7776 78.6207 79.2012 96.0974 79.2012 96.0974C79.2012 96.0974 58.1477 104.066 60.3034 99.5585C61.2118 97.3437 61.6484 94.9632 61.5852 92.5697C61.5978 91.1495 61.5217 89.73 61.3573 88.3194C61.3004 87.863 61.253 87.5967 61.253 87.5967C61.253 87.5967 83.7595 72.9441 82.2686 75.7682Z" fill="white"/>
<path d="M63.7626 52.5573C63.7626 52.5573 72.5946 66.9532 80.6289 72.6202C88.6631 78.2873 84.5892 82.8324 84.5892 82.8324C84.5892 82.8324 105.567 38.6083 85.6242 35.5465C65.681 32.4848 53.4492 32.2566 52.8889 62.1704C52.8889 62.1704 61.9488 52.31 63.7626 52.5382" fill="#23172D"/>
<path d="M73.3632 86.5127C70.1248 91.267 61.587 92.5696 61.587 92.5696C61.5996 91.1495 61.5235 89.73 61.3591 88.3193C66.8388 89.3748 73.3632 86.5127 73.3632 86.5127Z" fill="#A77860"/>
<path d="M43.4381 112.528C43.4381 112.528 42.9822 113.479 42.6023 117.282L45.7077 112.604C45.7077 112.604 51.2444 104.646 53.1438 102.582C54.5519 101.13 56.1083 99.8297 57.7876 98.7028C57.7876 98.7028 46.7525 103.942 43.4476 112.519" fill="#BD4444"/>
<path d="M85.328 124.348C85.328 124.348 98.8326 119.042 102.84 118.738C102.84 118.738 100.115 97.0106 86.8381 99.3117C73.5616 101.613 85.328 124.348 85.328 124.348Z" fill="#FFA800"/>
</svg>
