<svg width="447" height="371" viewBox="0 0 447 371" fill="none" xmlns="http://www.w3.org/2000/svg">
<path d="M288.62 260.766C308.72 260.771 328.37 254.807 345.083 243.629C361.797 232.45 374.823 216.56 382.515 197.967C390.207 179.374 392.218 158.915 388.294 139.178C384.37 119.441 374.688 101.312 360.472 87.0854C346.256 72.8588 328.145 63.1736 308.43 59.2548C288.715 55.3361 268.283 57.36 249.717 65.0706C231.151 72.7811 215.287 85.8318 204.131 102.572C192.974 119.312 187.027 138.988 187.042 159.113C187.042 172.472 189.671 185.699 194.777 198.041C199.883 210.383 207.367 221.596 216.802 231.042C226.237 240.487 237.438 247.98 249.765 253.091C262.092 258.202 275.304 260.831 288.646 260.83L288.62 260.766ZM156.4 124.739C159.578 112.436 164.463 100.64 170.913 89.6955L156.135 67.4501L176.635 46.9247L197.147 26.3866L219.365 41.1831C230.295 34.7235 242.077 29.8321 254.365 26.6521L259.632 0.473694H317.621L322.876 26.6521C335.165 29.8299 346.947 34.7214 357.876 41.1831L380.107 26.3866L400.607 46.9247L421.119 67.4501L406.341 89.6955C412.785 100.643 417.67 112.438 420.854 124.739L447 130.013V188.074L420.854 193.347C417.67 205.648 412.785 217.444 406.341 228.391L421.119 250.636L400.607 271.174L380.107 291.7L357.876 276.903C346.947 283.365 335.165 288.257 322.876 291.434L317.621 317.613H259.632L254.365 291.434C242.077 288.254 230.295 283.363 219.365 276.903L197.147 291.7L176.635 271.174L156.135 250.636L170.913 228.391C164.463 217.446 159.578 205.65 156.4 193.347L130.254 188.074V130.026L156.4 124.739Z" fill="#8600C7"/>
<path d="M288.62 260.766C308.72 260.771 328.37 254.807 345.083 243.629C361.797 232.45 374.823 216.56 382.515 197.967C390.207 179.374 392.218 158.915 388.294 139.178C384.37 119.441 374.688 101.312 360.472 87.0854C346.256 72.8588 328.145 63.1736 308.43 59.2548C288.715 55.3361 268.283 57.36 249.717 65.0706C231.151 72.7811 215.287 85.8318 204.131 102.572C192.974 119.312 187.027 138.988 187.042 159.113C187.042 172.472 189.671 185.699 194.777 198.041C199.883 210.383 207.367 221.596 216.802 231.042C226.237 240.487 237.438 247.98 249.765 253.091C262.092 258.202 275.304 260.831 288.646 260.83L288.62 260.766ZM156.4 124.739C159.578 112.436 164.463 100.64 170.913 89.6955L156.135 67.4501L176.635 46.9247L197.147 26.3866L219.365 41.1831C230.295 34.7235 242.077 29.8321 254.365 26.6521L259.632 0.473694H317.621L322.876 26.6521C335.165 29.8299 346.947 34.7214 357.876 41.1831L380.107 26.3866L400.607 46.9247L421.119 67.4501L406.341 89.6955C412.785 100.643 417.67 112.438 420.854 124.739L447 130.013V188.074L420.854 193.347C417.67 205.648 412.785 217.444 406.341 228.391L421.119 250.636L400.607 271.174L380.107 291.7L357.876 276.903C346.947 283.365 335.165 288.257 322.876 291.434L317.621 317.613H259.632L254.365 291.434C242.077 288.254 230.295 283.363 219.365 276.903L197.147 291.7L176.635 271.174L156.135 250.636L170.913 228.391C164.463 217.446 159.578 205.65 156.4 193.347L130.254 188.074V130.026L156.4 124.752" fill="#8600C7"/>
<path d="M154.649 214.045H292.988C297.839 214.045 301.772 217.751 301.772 222.323V340.316C301.772 344.888 297.839 348.594 292.988 348.594H154.649C149.797 348.594 145.865 344.888 145.865 340.316V222.323C145.865 217.751 149.797 214.045 154.649 214.045Z" fill="white"/>
<path d="M245.577 256.205C243.749 251.1 243.926 245.489 246.074 240.51C248.222 235.532 252.179 231.559 257.142 229.399C257.575 229.211 258.022 229.033 258.473 228.872C262.445 227.449 266.748 227.238 270.84 228.266C274.932 229.294 278.627 231.515 281.459 234.649C284.292 237.782 286.133 241.688 286.752 245.87C287.37 250.053 286.737 254.326 284.933 258.148C283.129 261.97 280.234 265.17 276.616 267.344C272.998 269.517 268.818 270.566 264.605 270.358C260.392 270.15 256.335 268.694 252.947 266.175C249.559 263.656 246.992 260.186 245.572 256.205H245.577ZM271.046 264.111C275.035 262.676 278.294 259.713 280.105 255.871C281.915 252.029 282.131 247.624 280.703 243.623C279.276 239.623 276.322 236.354 272.492 234.535C268.661 232.716 264.267 232.496 260.274 233.923C259.937 234.044 259.604 234.17 259.289 234.318C255.485 235.978 252.474 239.054 250.891 242.898C249.307 246.741 249.276 251.051 250.803 254.917C252.33 258.784 255.296 261.904 259.075 263.619C262.854 265.335 267.149 265.511 271.056 264.111H271.046Z" fill="#AC00FF"/>
<path d="M270.437 233.703L272.026 228.6C276.26 229.929 279.976 232.546 282.659 236.088C285.341 239.63 286.857 243.922 286.995 248.367L281.659 248.527C281.555 245.194 280.419 241.976 278.408 239.32C276.397 236.663 273.611 234.7 270.437 233.703Z" fill="#FFA800"/>
<path d="M259.278 234.306L257.146 229.399C257.58 229.211 258.026 229.033 258.477 228.872C262.839 227.3 267.594 227.202 272.017 228.593L270.437 233.703C267.12 232.659 263.555 232.732 260.284 233.91C259.936 234.036 259.591 234.165 259.278 234.306Z" fill="#00FFD1"/>
<path d="M279.45 293.158C283.585 296.665 286.237 301.613 286.866 306.998C287.495 312.383 286.055 317.802 282.837 322.155C282.555 322.535 282.258 322.912 281.948 323.276C279.22 326.495 275.598 328.83 271.541 329.985C267.483 331.141 263.172 331.065 259.152 329.767C255.133 328.469 251.585 326.008 248.958 322.695C246.332 319.382 244.743 315.365 244.395 311.153C244.046 306.941 244.952 302.722 246.999 299.031C249.046 295.339 252.142 292.341 255.894 290.415C259.647 288.488 263.888 287.72 268.082 288.208C272.275 288.696 276.233 290.418 279.454 293.156L279.45 293.158ZM253.44 299.045C250.702 302.282 249.362 306.478 249.715 310.711C250.067 314.943 252.083 318.866 255.32 321.617C258.556 324.368 262.749 325.722 266.976 325.382C271.203 325.042 275.118 323.036 277.862 319.803C278.094 319.53 278.319 319.254 278.518 318.968C280.982 315.629 282.052 311.459 281.501 307.339C280.951 303.219 278.823 299.471 275.567 296.886C272.312 294.301 268.183 293.082 264.053 293.486C259.922 293.889 256.114 295.885 253.431 299.05L253.44 299.045Z" fill="#AC00FF"/>
<path d="M269.172 325.075L270.346 330.288C266.015 331.255 261.489 330.846 257.394 329.12C253.3 327.393 249.842 324.435 247.5 320.654L252.041 317.847C253.797 320.682 256.39 322.901 259.46 324.196C262.53 325.491 265.924 325.798 269.172 325.075Z" fill="#FFA800"/>
<path d="M278.533 318.974L282.833 322.157C282.551 322.537 282.254 322.914 281.943 323.278C278.952 326.821 274.883 329.283 270.358 330.29L269.171 325.075C272.564 324.32 275.616 322.474 277.86 319.819C278.098 319.536 278.332 319.252 278.533 318.974Z" fill="#00FFD1"/>
<path d="M177.686 299.612H185.088V325.029H177.686V299.612Z" fill="#AC00FF"/>
<path d="M188.691 306.74H196.093V325.029H188.691V306.74Z" fill="#AC00FF"/>
<path d="M167.011 287.833H174.412V325.029H167.011V287.833Z" fill="#AC00FF"/>
<path d="M168.203 269.25L168.334 268.447L187.87 271.654L194.202 285.185L215.264 286.618L222.086 296.706L238.189 296.306L238.209 297.119L221.665 297.531L214.815 287.403L193.67 285.965L187.315 272.388L168.203 269.25Z" fill="#AC00FF"/>
<path d="M192.07 235.38H171.018C170.38 235.38 169.768 235.126 169.317 234.674C168.866 234.222 168.612 233.608 168.612 232.969C168.612 232.329 168.866 231.716 169.317 231.264C169.768 230.811 170.38 230.557 171.018 230.557H192.07C192.708 230.557 193.32 230.811 193.771 231.264C194.222 231.716 194.476 232.329 194.476 232.969C194.476 233.608 194.222 234.222 193.771 234.674C193.32 235.126 192.708 235.38 192.07 235.38Z" fill="#FFA800"/>
<path d="M192.07 243.799H171.018C170.38 243.797 169.768 243.542 169.317 243.09C168.866 242.637 168.613 242.024 168.612 241.385C168.612 240.745 168.866 240.132 169.317 239.679C169.768 239.227 170.38 238.973 171.018 238.973H192.07C192.708 238.973 193.32 239.227 193.771 239.679C194.222 240.132 194.476 240.745 194.476 241.385C194.475 242.024 194.221 242.637 193.77 243.09C193.32 243.542 192.708 243.797 192.07 243.799Z" fill="#AC00FF"/>
<path d="M231.023 314.975H209.971C209.333 314.975 208.721 314.721 208.27 314.268C207.819 313.816 207.566 313.203 207.566 312.563C207.566 311.924 207.819 311.31 208.27 310.858C208.721 310.406 209.333 310.152 209.971 310.152H231.023C231.661 310.152 232.273 310.406 232.724 310.858C233.176 311.31 233.429 311.924 233.429 312.563C233.429 313.203 233.176 313.816 232.724 314.268C232.273 314.721 231.661 314.975 231.023 314.975Z" fill="#FFA800"/>
<path d="M231.023 323.393H209.971C209.333 323.392 208.722 323.137 208.271 322.684C207.82 322.232 207.566 321.619 207.566 320.979C207.566 320.339 207.819 319.726 208.27 319.274C208.721 318.821 209.333 318.567 209.971 318.567H231.023C231.661 318.567 232.273 318.821 232.724 319.274C233.176 319.726 233.429 320.339 233.429 320.979C233.428 321.619 233.175 322.232 232.724 322.684C232.273 323.137 231.661 323.392 231.023 323.393Z" fill="#AC00FF"/>
<path d="M192.07 252.221H171.018C170.38 252.221 169.768 251.967 169.317 251.515C168.866 251.063 168.612 250.449 168.612 249.81C168.612 249.17 168.866 248.557 169.317 248.105C169.768 247.652 170.38 247.398 171.018 247.398H192.07C192.708 247.398 193.32 247.652 193.771 248.105C194.222 248.557 194.476 249.17 194.476 249.81C194.476 250.127 194.414 250.44 194.293 250.733C194.173 251.026 193.996 251.292 193.773 251.516C193.55 251.74 193.285 251.918 192.993 252.039C192.701 252.161 192.388 252.224 192.072 252.224L192.07 252.221Z" fill="#AC00FF"/>
<path d="M230.181 239.553H242.222V239.089H230.374L224.034 232.736H216.27V233.198H223.844L230.181 239.553Z" fill="#AC00FF"/>
<path d="M218.771 260.637H234.265L239.286 255.604L238.961 255.275L234.076 260.173H218.771V260.637Z" fill="#AC00FF"/>
<path d="M206.827 235.803H222.887V237.779H206.827V235.803Z" fill="#00FFD1"/>
<path d="M214.86 255.947H227.788V257.921H214.86V255.947Z" fill="#00FFD1"/>
<path d="M11.3817 214.045H124.442C129.196 214.045 133.051 217.472 133.051 221.7V340.939C133.051 345.167 129.196 348.594 124.442 348.594H11.3817C6.62691 348.594 2.77245 345.167 2.77245 340.939V221.7C2.77245 217.472 6.62691 214.045 11.3817 214.045Z" fill="white"/>
<path d="M46.4132 269.431C48.8412 262.054 54.0002 255.978 60.7553 252.54C67.5103 249.101 75.308 248.582 82.4331 251.095C89.5582 253.609 95.4269 258.95 98.7482 265.944C102.07 272.937 102.571 281.01 100.143 288.387C100.05 288.664 99.9542 288.941 99.8524 289.215C99.6399 289.836 99.4042 290.447 99.1539 291.047C96.2052 298.019 90.7586 303.534 83.961 306.431C77.1633 309.329 69.545 309.382 62.7099 306.581C55.8747 303.78 50.3561 298.342 47.3159 291.413C44.2756 284.483 43.9509 276.603 46.4102 269.431H46.4132ZM65.9683 300.061C71.0492 301.952 76.6348 301.768 81.5898 299.548C86.5448 297.328 90.4974 293.238 92.6443 288.11C92.8305 287.664 93.0081 287.206 93.1681 286.736C94.5851 282.633 94.7952 278.188 93.7719 273.962C92.7486 269.735 90.5378 265.918 87.419 262.993C84.3003 260.068 80.4137 258.166 76.2508 257.527C72.0878 256.889 67.8355 257.542 64.0315 259.406C60.2275 261.27 57.0428 264.259 54.8799 267.997C52.7171 271.734 51.6733 276.052 51.8806 280.403C52.0879 284.755 53.537 288.945 56.0446 292.444C58.5522 295.943 62.0057 298.594 65.9683 300.061Z" fill="#AC00FF"/>
<path d="M93.4441 272.766L100.224 270.572C98.4598 264.739 94.9847 259.62 90.2814 255.925C85.5782 252.23 79.8803 250.143 73.9791 249.953L73.7695 257.304C78.1937 257.447 82.4652 259.013 85.9908 261.783C89.5165 264.554 92.1215 268.393 93.4441 272.766Z" fill="#00D8AE"/>
<path d="M92.6446 288.131L99.1571 291.068C99.4073 290.466 99.6431 289.863 99.8555 289.237C101.944 283.227 102.074 276.675 100.225 270.582L93.4448 272.775C94.8306 277.342 94.7335 282.253 93.1684 286.757C93.0084 287.209 92.8308 287.67 92.6446 288.131Z" fill="#00FFD1"/>
<path d="M94.7578 298.374C96.5653 296.175 98.048 293.711 99.1577 291.062L92.6452 288.125C91.8123 290.111 90.7014 291.96 89.3481 293.611L94.7578 298.374Z" fill="#FFA800"/>
<path d="M21.8005 287.381C24.6148 286.002 27.8428 285.837 30.7744 286.922C33.7061 288.008 36.1013 290.254 37.433 293.168C38.7647 296.082 38.9239 299.424 37.8755 302.459C36.8272 305.494 34.6572 307.974 31.8429 309.352C31.6072 309.47 31.3627 309.578 31.1211 309.678C28.2904 310.816 25.1439 310.774 22.3423 309.561C19.5408 308.348 17.3022 306.058 16.0969 303.172C14.8916 300.287 14.8133 297.03 15.8785 294.086C16.9436 291.142 19.0693 288.739 21.8091 287.384L21.8005 287.381ZM18.8671 302.263C19.632 303.937 20.8708 305.329 22.4188 306.256C23.9669 307.183 25.7507 307.6 27.5331 307.451C28.3956 307.381 29.243 307.178 30.0474 306.849C30.2278 306.774 30.4082 306.693 30.5887 306.605C32.1624 305.834 33.48 304.597 34.3748 303.051C35.2696 301.504 35.7013 299.718 35.6154 297.918C35.5296 296.117 34.93 294.384 33.8925 292.936C32.855 291.489 31.4262 290.392 29.7867 289.785C28.1472 289.179 26.3708 289.089 24.682 289.527C22.9933 289.966 21.468 290.913 20.2991 292.249C19.1303 293.585 18.3704 295.25 18.1155 297.033C17.8606 298.816 18.1222 300.637 18.8671 302.266V302.263Z" fill="#AC00FF"/>
<path d="M34.6189 302.592L37.2378 304.002C38.3705 301.761 38.8006 299.211 38.4684 296.705C38.1362 294.2 37.0582 291.864 35.3842 290.023L33.2483 292.11C34.5018 293.492 35.3086 295.244 35.5568 297.122C35.8051 299 35.4823 300.912 34.6334 302.592H34.6189Z" fill="#385988"/>
<path d="M30.048 306.846L31.1218 309.678C31.3633 309.578 31.6078 309.47 31.8435 309.352C34.1531 308.228 36.0431 306.35 37.2241 304.008L34.6051 302.598C33.7203 304.352 32.3046 305.759 30.5747 306.602C30.406 306.689 30.2284 306.77 30.048 306.846Z" fill="#4772B0"/>
<path d="M16.2114 266.554C15.5321 265.12 15.1322 263.563 15.0344 261.97C14.9366 260.376 15.1429 258.779 15.6414 257.268C16.14 255.757 16.9211 254.363 17.9401 253.165C18.9591 251.967 20.1961 250.988 21.5804 250.285C22.9647 249.582 24.4692 249.168 26.0081 249.066C27.547 248.965 29.0901 249.179 30.5493 249.695C32.0085 250.211 33.3551 251.02 34.5124 252.075C35.6697 253.13 36.6151 254.41 37.2943 255.843C37.3438 255.949 37.3904 256.051 37.4369 256.145C37.5475 256.392 37.6551 256.642 37.7482 256.892C38.8475 259.822 38.8071 263.08 37.6355 265.981C36.4638 268.881 34.2521 271.199 31.4648 272.446C28.6776 273.694 25.5317 273.775 22.688 272.672C19.8442 271.57 17.5239 269.369 16.2143 266.532L16.2114 266.554ZM30.5897 269.59C32.6105 268.602 34.1924 266.854 35.0149 264.703C35.8373 262.551 35.8387 260.156 35.0187 258.003C34.9459 257.817 34.8674 257.63 34.783 257.446C33.7858 255.262 31.9913 253.577 29.7942 252.762C27.5971 251.947 25.1774 252.07 23.0674 253.102C20.987 254.154 19.391 256.013 18.6251 258.276C17.8593 260.538 17.9853 263.022 18.9759 265.189C19.9665 267.355 21.7419 269.031 23.9174 269.852C26.0929 270.673 28.4933 270.574 30.5984 269.575L30.5897 269.59Z" fill="#AC00FF"/>
<path d="M35.0154 258.003L37.7478 256.892C37.6547 256.642 37.5471 256.392 37.4365 256.145C36.3509 253.754 34.5373 251.798 32.2742 250.577L30.9093 253.27C32.6066 254.185 33.9664 255.653 34.7796 257.446C34.864 257.642 34.9426 257.829 35.0154 258.003Z" fill="#4772B0"/>
<path d="M38.5276 260.375C38.4348 259.184 38.1719 258.015 37.7477 256.904L35.0152 258.016C35.3316 258.85 35.5277 259.728 35.5972 260.622L38.5276 260.375Z" fill="#FFA800"/>
<path d="M80.6052 313.35H100.224V316.056H80.6052V313.35Z" fill="#AC00FF"/>
<path d="M40.8144 313.35H52.3525V316.056H40.8144V313.35Z" fill="#AC00FF"/>
<path d="M95.2813 225.505H104.669V227.584H95.2813V225.505Z" fill="#AC00FF"/>
<path d="M50.9589 233.326H65.5264V235.405H50.9589V233.326Z" fill="#AC00FF"/>
<path d="M75.4701 233.326H84.363V235.405H75.4701V233.326Z" fill="#AC00FF"/>
<path d="M87.0519 233.326H104.669V235.405H87.0519V233.326Z" fill="#AC00FF"/>
<path d="M78.5104 225.505H92.4231V227.584H78.5104V225.505Z" fill="#AC00FF"/>
<path d="M68.8657 233.326H72.6865V235.405H68.8657V233.326Z" fill="#AC00FF"/>
<path d="M50.9598 225.623H61.3542V227.702H50.9598V225.623Z" fill="#AC00FF"/>
<path d="M38.3881 233.326H47.252V235.405H38.3881V233.326Z" fill="#AC00FF"/>
<path d="M64.0709 225.623H75.0881V227.702H64.0709V225.623Z" fill="#AC00FF"/>
<path d="M14.5033 90.1736H289.404C297.414 90.1736 303.907 96.6828 303.907 104.712V188.743C303.907 196.772 297.414 203.281 289.404 203.281H14.5033C6.49323 203.281 -0.000183105 196.772 -0.000183105 188.743V104.712C-0.000183105 96.6828 6.49323 90.1736 14.5033 90.1736Z" fill="white"/>
<path d="M25.918 122.643H63.0581V126.377H25.918V122.643Z" fill="#AC00FF"/>
<path d="M20.3705 134.207H63.0581V137.941H20.3705V134.207Z" fill="#AC00FF"/>
<path d="M41.0355 145.705H63.1228V149.439H41.0355V145.705Z" fill="#AC00FF"/>
<path d="M29.0963 157.207H63.1228V160.941H29.0963V157.207Z" fill="#AC00FF"/>
<path d="M231.145 192.891H264.25V196.98H231.145V192.891Z" fill="#AC00FF"/>
<path d="M223.114 185.609H272.281V189.698H223.114V185.609Z" fill="#AC00FF"/>
<path d="M239.083 129.489C239.083 131.762 239.983 133.942 241.586 135.549C243.188 137.157 245.362 138.061 247.629 138.062C249.896 138.062 252.069 137.16 253.672 135.553C255.275 133.947 256.175 131.767 256.175 129.495C256.176 128.37 255.955 127.255 255.526 126.215C255.096 125.176 254.467 124.231 253.673 123.434C252.88 122.638 251.938 122.007 250.901 121.576C249.863 121.145 248.752 120.923 247.629 120.922C245.363 120.922 243.189 121.824 241.586 123.43C239.983 125.036 239.081 127.214 239.08 129.486L239.083 129.489Z" fill="#FFA800"/>
<path d="M232.203 157.415V173.715C237.071 175.925 242.353 177.068 247.696 177.068C253.04 177.068 258.322 175.925 263.19 173.715V157.415C263.19 153.296 261.558 149.345 258.652 146.433C255.747 143.52 251.806 141.884 247.696 141.884C243.587 141.884 239.646 143.52 236.741 146.433C233.835 149.345 232.203 153.296 232.203 157.415Z" fill="#FFA800"/>
<path d="M247.696 178.084C253.183 178.102 258.61 176.934 263.606 174.661C268.211 172.566 272.358 169.582 275.812 165.88C279.266 162.178 281.959 157.829 283.736 153.084C285.513 148.338 286.339 143.288 286.169 138.222C285.998 133.155 284.833 128.173 282.741 123.558C278.52 114.24 270.78 106.984 261.222 103.386C251.665 99.7892 241.073 100.145 231.777 104.376C222.482 108.607 215.244 116.367 211.655 125.947C208.067 135.528 208.422 146.146 212.642 155.464C216.495 163.969 223.293 170.784 231.777 174.646C236.775 176.927 242.205 178.1 247.696 178.084ZM247.696 102.923C257.371 102.925 266.649 106.78 273.489 113.64C280.329 120.499 284.171 129.801 284.169 139.5C284.169 146.524 282.151 153.4 278.355 159.305C274.56 165.21 269.149 169.894 262.768 172.797C258.032 174.943 252.894 176.053 247.696 176.053C242.499 176.053 237.361 174.943 232.625 172.797C228.262 170.813 224.333 167.987 221.06 164.481C217.787 160.974 215.235 156.855 213.55 152.36C211.865 147.865 211.08 143.081 211.24 138.282C211.399 133.482 212.5 128.761 214.48 124.389C217.373 117.989 222.045 112.56 227.936 108.752C233.826 104.944 240.687 102.918 247.696 102.917V102.923Z" fill="#AC00FF"/>
<path d="M186.513 131.711H188.547V181.128H186.513V131.711Z" fill="#AC00FF"/>
<path d="M177.176 131.711H179.209V181.128H177.176V131.711Z" fill="#AC00FF"/>
<path d="M167.835 131.711H169.868V181.128H167.835V131.711Z" fill="#AC00FF"/>
<path d="M158.491 131.711H160.524V181.128H158.491V131.711Z" fill="#AC00FF"/>
<path d="M149.15 131.711H151.183V181.128H149.15V131.711Z" fill="#AC00FF"/>
<path d="M139.809 131.711H141.843V181.128H139.809V131.711Z" fill="#AC00FF"/>
<path d="M130.469 131.711H132.502V181.128H130.469V131.711Z" fill="#AC00FF"/>
<path d="M121.13 131.711H123.164V181.128H121.13V131.711Z" fill="#AC00FF"/>
<path d="M111.786 131.711H113.82V181.128H111.786V131.711Z" fill="#AC00FF"/>
<path d="M102.446 131.711H104.479V181.128H102.446V131.711Z" fill="#AC00FF"/>
<path d="M93.1041 131.711H95.1375V181.128H93.1041V131.711Z" fill="#AC00FF"/>
<path d="M83.7638 131.711H85.7971V181.128H83.7638V131.711Z" fill="#AC00FF"/>
<path d="M186.513 146.486H188.547V181.128H186.513V146.486Z" fill="#FFA800"/>
<path d="M177.176 158.458H179.209V181.128H177.176V158.458Z" fill="#FFA800"/>
<path d="M167.835 138.843H169.868V181.128H167.835V138.843Z" fill="#FFA800"/>
<path d="M158.491 168.814H160.524V181.125H158.491V168.814Z" fill="#FFA800"/>
<path d="M149.15 156.42H151.183V181.128H149.15V156.42Z" fill="#FFA800"/>
<path d="M139.809 147.165H141.843V181.128H139.809V147.165Z" fill="#FFA800"/>
<path d="M130.469 159.22H132.502V181.125H130.469V159.22Z" fill="#FFA800"/>
<path d="M121.13 144.021H123.164V181.125H121.13V144.021Z" fill="#FFA800"/>
<path d="M111.786 160.748H113.82V181.125H111.786V160.748Z" fill="#FFA800"/>
<path d="M102.446 148.521H104.479V181.125H102.446V148.521Z" fill="#FFA800"/>
<path d="M93.1041 164.825H95.1375V181.128H93.1041V164.825Z" fill="#FFA800"/>
<path d="M83.7638 148.521H85.7971V181.125H83.7638V148.521Z" fill="#FFA800"/>
<path d="M352.668 213.006L333.418 223.614L314.084 193.118L337.469 184.977L352.668 213.006Z" fill="#23172D"/>
<path d="M351.448 212.091L333.442 222.012L315.366 193.491L337.233 185.876L351.448 212.091Z" fill="#CECBD0"/>
<path d="M358.042 206.757C358.042 206.757 354.689 205.151 353.221 204.311C351.752 203.471 347.971 202.319 347.661 202.036C347.35 201.753 336.448 201.103 335.787 200.515C335.126 199.926 334.48 201.856 337.308 202.478C340.136 203.101 344.069 204.616 344.283 205.724C344.498 206.832 341.381 207.093 341.064 208.008C340.747 208.923 341.154 208.714 341.601 208.91C342.048 209.106 345.308 207.295 346.745 207.809C348.182 208.322 350.374 207.61 351.473 207.986C352.572 208.363 357.921 210.164 357.921 210.164L358.042 206.757Z" fill="white"/>
<path d="M332.48 219.79C332.48 219.79 329.665 217.247 328.302 216.186C326.939 215.125 324.384 211.998 324.009 211.829C323.633 211.661 318.75 201.604 317.955 201.202C317.16 200.801 318.706 199.447 320.389 201.878C322.071 204.308 325.045 207.429 326.16 207.202C327.274 206.975 326.315 203.925 327.054 203.272C327.793 202.618 327.752 203.079 328.109 203.427C328.466 203.776 328.035 207.56 329.078 208.718C330.121 209.875 330.32 212.225 331.089 213.115C331.859 214.005 335.647 218.343 335.647 218.343L332.48 219.79Z" fill="white"/>
<path d="M393.101 355.53C393.101 355.53 393.722 359.766 393.787 360.404C393.853 361.041 400.561 360.03 400.561 360.03L401.104 354.986C401.104 354.986 393.939 354.933 393.101 355.53Z" fill="#454971"/>
<path d="M393.714 359.865C393.714 359.865 391.593 362.417 389.541 363.531C387.489 364.645 384.264 365.087 383.05 366.235C382.175 367.066 379.859 370.648 388.384 370.573C396.908 370.498 401.018 371.08 401.931 369.708C402.843 368.336 400.608 359.579 400.608 359.579C400.608 359.579 398.59 360.307 393.714 359.865Z" fill="#AC00FF"/>
<path d="M345.111 355.53C345.111 355.53 345.732 359.766 345.797 360.404C345.863 361.041 352.571 360.03 352.571 360.03L353.114 354.986C353.114 354.986 345.949 354.933 345.111 355.53Z" fill="#454971"/>
<path d="M345.727 359.865C345.727 359.865 343.606 362.417 341.551 363.531C339.496 364.645 331.95 365.557 330.733 366.708C329.857 367.542 328.401 370.887 340.393 370.573C348.918 370.352 353.028 371.08 353.941 369.708C354.853 368.336 352.618 359.579 352.618 359.579C352.618 359.579 350.718 360.357 345.727 359.865Z" fill="#AC00FF"/>
<path d="M387.554 246.661C387.554 246.661 393.85 256.681 393.378 265.743C392.906 274.805 395.659 284.694 396.606 294.158C397.659 304.71 401.974 329.686 402.129 335.331C402.284 340.976 401.461 358.981 401.461 358.981L392.828 359.18C392.828 359.18 385.577 315.533 383.698 311.077C381.82 306.621 372.495 274.855 372.184 271.291C371.874 267.728 387.554 246.661 387.554 246.661Z" fill="#00D8AE"/>
<path d="M354.428 248.024C354.428 248.024 349.684 272.854 349.061 278.399C348.437 283.944 348.017 305.236 347.701 308.703C347.384 312.169 345.615 354.052 343.945 359.202H354.984C354.984 359.202 363.455 328.752 363.455 314.344C363.455 299.936 370.002 283.026 374.227 273.52C378.452 264.013 388.122 263.789 390.724 246.154C390.724 246.154 357.942 242.429 354.428 248.024Z" fill="#00D8AE"/>
<path d="M377.055 162.4C377.055 162.4 368.608 159.236 364.713 165.683C360.817 172.131 361.192 185.033 365.451 186.617C369.711 188.201 376.105 187.376 378.285 183.343C380.464 179.31 382.432 173.479 382.339 169.583C382.246 165.687 379.272 163.524 377.055 162.4Z" fill="white"/>
<path d="M379.793 180.182C379.793 180.182 378.995 181.495 375.757 180.984C372.519 180.474 368.549 176.145 367.195 175.669C365.842 175.193 365.827 174.397 365.827 174.397L364.976 175.641L363.539 175.735C363.539 175.735 364.852 171.86 362.871 170.28C360.891 168.699 364.926 157.742 375.338 161.392C375.338 161.392 383.335 163.601 383.046 168.16C382.757 172.719 381.581 177.91 379.793 180.182Z" fill="#6C6473"/>
<path d="M365.455 190.189C365.455 190.189 365.492 188.039 366.464 187.833C367.436 187.628 377.205 186.685 378.397 187.155V189.663C378.397 189.663 376.097 191.082 365.455 190.189Z" fill="#CECBD0"/>
<path d="M366.032 172.738C366.215 171.973 368.155 169.788 368.897 172.116C369.639 174.443 367.774 177.602 366.724 177.334C365.675 177.067 365.573 174.677 366.032 172.738Z" fill="white"/>
<path d="M394.654 270.541C394.654 270.541 389.473 272.073 380.642 273.031C371.81 273.989 349.738 272.679 349.598 271.634C349.459 270.588 354.345 232.679 354.068 230.725C353.792 228.771 353.64 221.819 353.64 221.819C353.531 223.723 351.594 231.509 349.257 235.754C348.409 237.288 345.578 242.093 344.212 241C337.6 235.71 327.362 215.763 326.713 215.598C327.256 215.358 331.562 213.37 332.167 213.168C332.698 212.993 337.467 218.056 340.357 221.193C341.645 222.594 342.561 223.608 342.561 223.608C343.396 221.741 346.435 209.869 347.382 205.765C349.511 196.507 349.182 196.118 349.182 196.118C355.645 194.157 365.455 190.168 365.455 190.168L378.397 189.639C378.397 189.639 390.277 192.262 394.956 194.378C395.399 194.58 395.403 205.002 396.619 207.734L392.739 215.937C392.739 215.937 390.501 232.222 390.035 239.435C389.821 242.752 394.654 270.541 394.654 270.541Z" fill="#FFA800"/>
<path d="M342.56 223.633L341.477 228.235C341.477 228.235 340.3 223.617 340.356 221.218C341.644 222.609 342.56 223.633 342.56 223.633Z" fill="#762020"/>
<path d="M322.984 191.481L321.861 189.545L330.723 186.48L331.85 188.406L322.984 191.481Z" fill="#23172D"/>
</svg>
