<svg width="421" height="401" viewBox="0 0 421 401" fill="none" xmlns="http://www.w3.org/2000/svg">
<path d="M421 312.466H45.3538V85.2664H421V312.466Z" fill="#F5F7FF"/>
<path d="M421 103.348H45.3538V85.2664H421V103.348Z" fill="#CECFD6"/>
<path d="M394.279 298.489H374.595C372.911 298.489 371.242 298.157 369.686 297.511C368.13 296.866 366.716 295.92 365.524 294.727C364.333 293.534 363.388 292.119 362.744 290.56C362.099 289.002 361.767 287.332 361.767 285.645V129.797C361.767 128.11 362.099 126.44 362.744 124.881C363.388 123.323 364.333 121.907 365.524 120.715C366.716 119.522 368.13 118.576 369.686 117.93C371.242 117.285 372.911 116.952 374.595 116.952H394.227C397.629 116.952 400.892 118.306 403.298 120.715C405.704 123.123 407.055 126.39 407.055 129.797V285.645C407.055 289.051 405.704 292.318 403.298 294.727C400.892 297.136 397.629 298.489 394.227 298.489" fill="#CECFD6"/>
<path d="M131.652 133.76H62.8982C61.9894 133.762 61.0888 133.585 60.2486 133.238C59.4083 132.892 58.6449 132.383 58.0014 131.74C57.358 131.097 56.8472 130.334 56.4989 129.494C56.1506 128.653 55.9713 127.752 55.9713 126.842V123.888C55.9713 122.049 56.7011 120.284 58.0001 118.984C59.2991 117.683 61.0612 116.952 62.8982 116.952H131.652C133.489 116.952 135.251 117.683 136.55 118.984C137.849 120.284 138.579 122.049 138.579 123.888V126.842C138.579 127.752 138.399 128.653 138.051 129.494C137.703 130.334 137.192 131.097 136.549 131.74C135.905 132.383 135.142 132.892 134.301 133.238C133.461 133.585 132.561 133.762 131.652 133.76" fill="#CECFD6"/>
<path d="M124.284 303.123H70.2842C66.4882 303.123 62.8477 301.614 60.1636 298.926C57.4794 296.239 55.9713 292.594 55.9713 288.793V159.359C55.9713 155.558 57.4794 151.913 60.1636 149.226C62.8477 146.538 66.4882 145.029 70.2842 145.029H124.284C128.077 145.033 131.712 146.545 134.393 149.232C137.073 151.919 138.579 155.561 138.579 159.359V288.793C138.579 292.591 137.073 296.233 134.393 298.92C131.712 301.607 128.077 303.119 124.284 303.123" fill="#CECFD6"/>
<path d="M227.727 178.13C227.727 188.628 230.836 198.889 236.661 207.617C242.485 216.346 250.764 223.148 260.451 227.166C270.137 231.183 280.796 232.234 291.078 230.186C301.361 228.138 310.807 223.083 318.221 215.66C325.634 208.237 330.683 198.781 332.728 188.485C334.773 178.189 333.724 167.517 329.712 157.819C325.699 148.121 318.905 139.831 310.188 133.999C301.47 128.167 291.221 125.054 280.737 125.054C266.678 125.054 253.194 130.646 243.253 140.6C233.312 150.554 227.727 164.054 227.727 178.13Z" fill="#CECFD6"/>
<path d="M374.656 126.504C366.78 122.727 358.938 147.87 358.938 147.87C345.543 165.608 326.83 142.01 328.658 168.524C331.864 214.927 275.385 183.116 301.441 231.549C327.497 279.983 278.432 258.939 294.626 298C310.819 337.062 289.826 383.638 314.193 364.5C314.193 364.5 335.646 317.351 357.771 302.749C379.897 288.147 344.515 270.847 351.436 251.03C361.515 222.245 385.719 223.375 368.234 192.445C350.75 161.514 401.437 139.335 374.656 126.504Z" fill="#00FFD1"/>
<path d="M306.481 346.752C317.039 339.309 329.403 287.421 330.137 256.519C330.516 240.691 335.181 234.095 339.304 228.273C343.239 222.712 346.637 217.91 344.66 206.883C340.873 185.801 350.827 176.703 350.923 176.616L349.776 175.298C349.33 175.688 338.968 185.074 342.942 207.191C344.79 217.496 341.737 221.807 337.878 227.263C333.828 232.988 328.784 240.113 328.395 256.476C327.603 289.644 314.956 338.63 305.477 345.323L306.481 346.752Z" fill="white"/>
<path d="M271.349 165.57C282.388 161.779 280.08 183.078 284.735 198.839C289.39 214.6 336.569 205.714 316.757 245.17C296.945 284.626 341.795 258.367 328.405 292.8C315.015 327.233 327.239 364.057 312.682 354.69C298.125 345.322 304.523 301.96 289.371 296.807C274.22 291.655 271.762 285.645 286.746 271.64C301.73 257.635 247.477 243.736 260.868 215.447C274.258 187.157 258.602 169.948 271.349 165.57Z" fill="#00D8AE"/>
<path d="M305.929 353.045C307.316 347.151 319.156 295.273 308.108 289.004C298.375 283.476 298.61 261.98 300.131 241.682C301.475 223.712 278.452 215.312 277.473 214.966L276.893 216.616C277.118 216.698 299.632 224.92 298.389 241.552C296.829 262.398 296.661 284.52 307.249 290.529C315.638 295.292 307.916 336.98 304.23 352.645L305.929 353.045Z" fill="white"/>
<path d="M280.871 334.574L296.608 394.425H331.783L347.52 334.574H280.871Z" fill="#FFA800"/>
<path d="M280.871 334.574C280.871 334.574 315.518 341.094 315.518 394.425H331.783L347.52 334.574H280.871Z" fill="#FFA800"/>
<path d="M65.2408 191.06L90.6215 205.047L116.113 164.838L85.2801 154.104L65.2408 191.06Z" fill="#23172D"/>
<path d="M66.85 189.853L90.5895 202.934L114.423 165.33L85.5919 155.29L66.85 189.853Z" fill="#F5F7FF"/>
<path d="M58.1557 182.821C58.1557 182.821 62.5762 180.704 64.5122 179.596C66.4482 178.488 71.4335 176.97 71.8428 176.597C72.2521 176.223 86.6269 175.366 87.4987 174.59C88.3705 173.815 89.2219 176.359 85.4931 177.179C81.7644 178 76.5785 179.998 76.2961 181.459C76.0137 182.919 80.123 183.264 80.5405 184.47C80.958 185.677 80.4218 185.402 79.8324 185.66C79.243 185.919 74.9453 183.531 73.0502 184.208C71.1552 184.885 68.2655 183.945 66.8165 184.442C65.3676 184.938 58.3153 187.314 58.3153 187.314L58.1557 182.821Z" fill="white"/>
<path d="M91.8584 200.004C91.8584 200.004 95.5707 196.652 97.3675 195.253C99.1644 193.854 102.533 189.73 103.028 189.509C103.523 189.287 109.962 176.026 111.009 175.497C112.057 174.968 110.019 173.183 107.801 176.388C105.582 179.592 101.661 183.707 100.192 183.408C98.7223 183.108 99.9871 179.087 99.0129 178.226C98.0388 177.364 98.0919 177.971 97.6213 178.431C97.1506 178.89 97.7195 183.88 96.3443 185.406C94.9691 186.932 94.7071 190.03 93.692 191.203C92.677 192.377 87.6835 198.096 87.6835 198.096L91.8584 200.004Z" fill="white"/>
<path d="M11.9302 378.976C11.9302 378.976 11.1116 384.561 11.0256 385.402C10.9397 386.243 2.09468 384.909 2.09468 384.909L1.3784 378.258C1.3784 378.258 10.8251 378.188 11.9302 378.976Z" fill="#454971"/>
<path d="M11.1229 384.692C11.1229 384.692 13.9184 388.056 16.6239 389.525C19.3294 390.994 23.582 391.576 25.1823 393.09C26.3366 394.186 29.39 398.908 18.1506 398.81C6.91118 398.712 1.49208 399.479 0.288739 397.669C-0.914605 395.86 2.03226 384.314 2.03226 384.314C2.03226 384.314 4.6928 385.274 11.1229 384.692Z" fill="#5F8BE3"/>
<path d="M75.2041 378.976C75.2041 378.976 74.3855 384.561 74.2996 385.402C74.2136 386.243 65.3687 384.909 65.3687 384.909L64.6524 378.258C64.6524 378.258 74.099 378.188 75.2041 378.976Z" fill="#454971"/>
<path d="M74.3925 384.692C74.3925 384.692 77.1881 388.056 79.8977 389.525C82.6073 390.994 92.5573 392.196 94.1617 393.714C95.3159 394.814 97.2356 399.224 81.4244 398.81C70.185 398.519 64.7658 399.479 63.5625 397.669C62.3592 395.86 65.3061 384.314 65.3061 384.314C65.3061 384.314 67.811 385.34 74.3925 384.692Z" fill="#5F8BE3"/>
<path d="M19.2436 235.434C19.2436 235.434 10.943 248.645 11.5651 260.593C12.1873 272.541 8.55681 285.58 7.30844 298.057C5.92091 311.97 0.231598 344.901 0.0269471 352.344C-0.177704 359.786 0.906906 383.526 0.906906 383.526L12.2896 383.789C12.2896 383.789 21.851 326.241 24.3272 320.365C26.8035 314.49 39.0989 272.607 39.5082 267.909C39.9175 263.211 19.2436 235.434 19.2436 235.434Z" fill="#5F8BE3"/>
<path d="M62.9206 237.231C62.9206 237.231 69.1747 269.968 69.9974 277.28C70.8201 284.591 71.3727 312.664 71.7902 317.235C72.2077 321.805 74.5406 377.027 76.7427 383.818H62.188C62.188 383.818 51.0182 343.67 51.0182 324.673C51.0182 305.676 42.386 283.381 36.8154 270.846C31.2448 258.312 18.495 258.016 15.0651 234.765C15.0651 234.765 58.2873 229.853 62.9206 237.231Z" fill="#5F8BE3"/>
<path d="M33.0867 124.337C33.0867 124.337 44.2238 120.164 49.3605 128.666C54.4972 137.167 54.0019 154.178 48.3863 156.267C42.7707 158.355 34.3391 157.268 31.4659 151.95C28.5926 146.633 25.9976 138.944 26.1204 133.807C26.2432 128.67 30.1643 125.818 33.0867 124.337Z" fill="white"/>
<path d="M29.4771 147.781C29.4771 147.781 30.529 149.513 34.798 148.84C39.067 148.167 44.3019 142.46 46.0865 141.832C47.871 141.204 47.8915 140.154 47.8915 140.154L49.0129 141.795L50.9081 141.918C50.9081 141.918 49.1767 136.81 51.788 134.726C54.3993 132.642 49.0785 118.195 35.3506 123.008C35.3506 123.008 24.807 125.921 25.1876 131.932C25.5683 137.943 27.1195 144.786 29.4771 147.781Z" fill="#FFA800"/>
<path d="M48.3816 160.977C48.3816 160.977 48.3325 158.142 47.0514 157.871C45.7702 157.6 32.8895 156.357 31.3177 156.976V160.283C31.3177 160.283 34.3507 162.154 48.3816 160.977Z" fill="#CECBD0"/>
<path d="M47.6208 137.967C47.3793 136.958 44.8212 134.078 43.8429 137.147C42.8647 140.216 45.3246 144.38 46.7081 144.027C48.0915 143.675 48.2266 140.523 47.6208 137.967Z" fill="white"/>
<path d="M9.88256 266.92C9.88256 266.92 16.7138 268.938 28.3584 270.202C40.003 271.466 69.1043 269.738 69.2885 268.36C69.4727 266.981 63.0303 216.999 63.3946 214.422C63.7589 211.846 63.9594 202.68 63.9594 202.68C64.1026 205.191 66.6567 215.456 69.7388 221.053C70.8562 223.075 74.589 229.41 76.3899 227.97C85.108 220.995 98.6067 194.695 99.4622 194.478C98.7459 194.162 93.0689 191.54 92.2708 191.273C91.5709 191.044 85.284 197.719 81.4734 201.855C79.7748 203.701 78.5674 205.039 78.5674 205.039C77.4664 202.577 73.4593 186.924 72.211 181.512C69.4031 169.306 69.837 168.793 69.837 168.793C61.3153 166.208 48.3814 160.948 48.3814 160.948L31.3176 160.251C31.3176 160.251 15.6537 163.71 9.48555 166.5C8.90025 166.766 8.89611 180.507 7.29165 184.109L12.4079 194.925C12.4079 194.925 15.359 216.396 15.9729 225.906C16.2553 230.28 9.88256 266.92 9.88256 266.92Z" fill="#8600C7"/>
<path d="M78.5681 205.072L79.9965 211.14C79.9965 211.14 81.5477 205.051 81.474 201.888C79.7754 203.722 78.5681 205.072 78.5681 205.072Z" fill="#762020"/>
<path d="M104.378 162.68L105.86 160.128L94.1746 156.086L92.6888 158.626L104.378 162.68Z" fill="#23172D"/>
<path d="M186.654 396.278H190.526V276.784H186.654V396.278Z" fill="#6C6473"/>
<path d="M239.196 269.963H227.562V234.581H239.196V269.963Z" fill="#4667A8"/>
<path d="M335.108 276.797H164.874V270.007H335.108V276.797Z" fill="#6C6473"/>
<path d="M161.525 385.375C161.525 385.375 164.178 388.563 166.752 389.954C169.326 391.345 173.346 391.89 174.862 393.334C175.96 394.367 178.852 398.838 168.198 398.746C157.544 398.654 152.404 399.378 151.263 397.664C150.122 395.95 152.914 385.017 152.914 385.017C152.914 385.017 155.44 385.929 161.529 385.375" fill="#8600C7"/>
<path d="M215.188 385.423C215.188 385.423 217.84 388.611 220.414 389.998C222.989 391.385 232.423 392.532 233.939 393.966C235.032 395.009 236.853 399.2 221.86 398.794C211.211 398.519 206.071 399.427 204.925 397.713C203.78 395.999 206.581 385.065 206.581 385.065C206.581 385.065 208.955 386.034 215.196 385.423" fill="#8600C7"/>
<path d="M135.313 288.607C135.313 288.607 165.751 293.766 172.628 294.847C179.506 295.929 216.773 305.214 221.434 308.044C225.149 310.294 219.491 364.398 218.171 385.035H203.488L202.421 323.107C184.802 323.543 172.232 318.982 159.404 320.927C146.577 322.872 135.884 325.654 127.725 314.703C127.725 314.703 127.421 290.983 135.313 288.589" fill="#8600C7"/>
<path d="M165.315 385.07L151.006 384.198L149.612 323.116C142.029 323.308 139.429 322.824 133.287 322.078L121.736 295.196C131.863 297.224 164.3 305.414 168.625 308.04C172.336 310.294 166.634 364.442 165.315 385.083" fill="#8600C7"/>
<path d="M149.33 174.346C149.33 174.346 160.489 171.258 164.744 179.928C169 188.598 167.07 205.044 161.447 206.592C155.824 208.14 147.735 206.357 145.405 200.957C143.075 195.558 141.206 187.874 141.764 182.924C142.321 177.974 146.368 175.532 149.33 174.346" fill="white"/>
<path d="M158.524 204.873C158.524 204.873 158.406 211.467 159.129 212.876C159.852 214.285 143.593 213.927 143.593 213.927C143.593 213.927 146.154 206.007 144.703 199.261C143.253 192.514 158.524 204.873 158.524 204.873" fill="white"/>
<path d="M143.828 196.762C143.828 196.762 144.699 198.533 148.907 198.245C153.115 197.957 158.668 192.876 160.454 192.423C162.24 191.969 162.349 190.949 162.349 190.949L163.294 192.632L165.123 192.911C165.123 192.911 163.882 187.818 166.591 186.021C169.3 184.224 165.371 169.771 151.647 173.26C151.647 173.26 141.171 175.179 141.027 181.04C140.884 186.902 141.794 193.661 143.828 196.762" fill="#23172D"/>
<path d="M159.988 212.724C159.988 212.724 159.94 210.037 158.724 209.78C157.509 209.523 145.94 207.926 144.446 208.515L143.806 212.061C143.806 212.061 146.681 213.836 159.988 212.724Z" fill="#E2D2CA"/>
<path d="M163.333 189.75C163.02 187.547 160.52 185.018 159.091 188.441C157.662 191.865 160.058 196.867 161.661 196.601C163.264 196.335 163.756 192.733 163.333 189.745" fill="white"/>
<path d="M115.755 392.313L116.77 395.166L159.53 381.899L157.483 376.129L115.755 392.313Z" fill="#918783"/>
<path d="M160.998 379.867H156.137V333.321H160.998V379.867Z" fill="#918783"/>
<path d="M172.903 333.591H144.238V330.848H172.903V333.591Z" fill="#5E5854"/>
<path d="M201.755 392.314L200.74 395.166L157.98 381.899L159.857 375.763L201.755 392.335" fill="#918783"/>
<path d="M171.627 394.86V398.175L157.98 381.899L159.858 375.763L171.618 394.86" fill="#918783"/>
<path d="M205.75 396.277C205.75 397.07 205.516 397.844 205.077 398.503C204.638 399.162 204.014 399.676 203.283 399.98C202.552 400.283 201.748 400.363 200.972 400.209C200.196 400.054 199.483 399.673 198.924 399.113C198.364 398.553 197.983 397.839 197.829 397.062C197.675 396.285 197.754 395.479 198.058 394.748C198.361 394.016 198.874 393.391 199.532 392.951C200.19 392.512 200.964 392.277 201.755 392.278C202.815 392.278 203.831 392.7 204.58 393.45C205.329 394.2 205.75 395.217 205.75 396.277Z" fill="#BFB2AC"/>
<path d="M171.979 396.277C171.98 397.069 171.746 397.844 171.307 398.503C170.868 399.162 170.244 399.676 169.514 399.979C168.783 400.283 167.979 400.363 167.203 400.209C166.427 400.055 165.714 399.674 165.155 399.114C164.595 398.555 164.214 397.841 164.059 397.065C163.905 396.288 163.983 395.483 164.286 394.751C164.588 394.019 165.101 393.393 165.759 392.953C166.416 392.513 167.19 392.278 167.981 392.278C169.04 392.278 170.057 392.7 170.806 393.449C171.556 394.199 171.978 395.216 171.979 396.277" fill="#BFB2AC"/>
<path d="M119.755 396.277C119.756 397.069 119.522 397.844 119.083 398.503C118.644 399.162 118.02 399.676 117.289 399.979C116.559 400.283 115.755 400.363 114.979 400.209C114.203 400.055 113.49 399.674 112.93 399.114C112.371 398.555 111.99 397.841 111.835 397.065C111.68 396.288 111.759 395.483 112.062 394.751C112.364 394.019 112.877 393.393 113.534 392.953C114.192 392.513 114.965 392.278 115.756 392.278C116.816 392.278 117.832 392.7 118.582 393.449C119.332 394.199 119.754 395.216 119.755 396.277" fill="#BFB2AC"/>
<path d="M187.59 330.848H129.92C128.562 330.847 127.26 330.306 126.3 329.345C125.339 328.383 124.799 327.079 124.798 325.72V325.584C124.799 324.224 125.339 322.921 126.3 321.959C127.26 320.998 128.562 320.457 129.92 320.456H187.59C188.948 320.457 190.25 320.998 191.21 321.959C192.171 322.921 192.711 324.224 192.712 325.584V325.72C192.711 327.079 192.171 328.383 191.21 329.345C190.25 330.306 188.948 330.847 187.59 330.848" fill="#6C6473"/>
<path d="M313.33 396.278H309.458V276.784H313.33V396.278Z" fill="#6C6473"/>
<path d="M278.501 251.62H188.252C186.897 251.62 185.598 251.082 184.64 250.123C183.682 249.165 183.143 247.865 183.142 246.509V185.776C183.142 184.42 183.681 183.119 184.639 182.159C185.597 181.2 186.897 180.661 188.252 180.661H278.501C279.856 180.661 281.156 181.2 282.114 182.159C283.072 183.119 283.611 184.42 283.611 185.776V246.509C283.609 247.865 283.071 249.165 282.113 250.123C281.155 251.082 279.856 251.62 278.501 251.62" fill="#5F8BE3"/>
<path d="M279.678 240.5H187.08V184.494H279.678V240.5Z" fill="#F5F7FF"/>
<path d="M279.678 188.951H187.08V184.494H279.678V188.951Z" fill="#CECFD6"/>
<path d="M273.091 237.054H268.239C267.824 237.054 267.413 236.972 267.029 236.813C266.645 236.654 266.297 236.421 266.003 236.127C265.71 235.833 265.477 235.484 265.318 235.1C265.159 234.716 265.077 234.304 265.077 233.888V195.471C265.077 195.055 265.159 194.644 265.318 194.26C265.477 193.875 265.71 193.526 266.003 193.232C266.297 192.938 266.645 192.705 267.029 192.546C267.413 192.387 267.824 192.305 268.239 192.305H273.078C273.917 192.305 274.721 192.639 275.315 193.232C275.908 193.826 276.241 194.631 276.241 195.471V233.888C276.241 234.728 275.908 235.533 275.315 236.127C274.721 236.721 273.917 237.054 273.078 237.054" fill="#CECFD6"/>
<path d="M208.353 196.448H191.405C191.181 196.449 190.959 196.405 190.752 196.32C190.545 196.234 190.357 196.109 190.198 195.95C190.04 195.792 189.914 195.604 189.828 195.396C189.742 195.189 189.698 194.967 189.698 194.743V194.015C189.698 193.561 189.878 193.126 190.198 192.806C190.518 192.485 190.952 192.305 191.405 192.305H208.353C208.806 192.305 209.24 192.485 209.56 192.806C209.881 193.126 210.061 193.561 210.061 194.015V194.743C210.061 194.967 210.016 195.189 209.93 195.396C209.845 195.604 209.719 195.792 209.56 195.95C209.402 196.109 209.213 196.234 209.006 196.32C208.799 196.405 208.577 196.449 208.353 196.448" fill="#CECFD6"/>
<path d="M206.537 238.196H193.226C192.29 238.196 191.393 237.824 190.731 237.162C190.069 236.499 189.698 235.601 189.698 234.664V202.758C189.698 201.821 190.069 200.923 190.731 200.26C191.393 199.598 192.29 199.226 193.226 199.226H206.537C207.472 199.227 208.368 199.6 209.029 200.262C209.689 200.924 210.061 201.822 210.061 202.758V234.664C210.061 235.6 209.689 236.498 209.029 237.16C208.368 237.823 207.472 238.195 206.537 238.196" fill="#CECFD6"/>
<path d="M236.617 245.868C236.616 246.509 236.426 247.136 236.069 247.669C235.712 248.202 235.206 248.618 234.614 248.862C234.021 249.107 233.37 249.171 232.742 249.045C232.113 248.92 231.536 248.61 231.084 248.156C230.631 247.702 230.323 247.124 230.198 246.495C230.073 245.866 230.138 245.214 230.383 244.621C230.628 244.028 231.044 243.522 231.577 243.165C232.109 242.809 232.736 242.619 233.377 242.619C233.802 242.619 234.224 242.703 234.618 242.866C235.011 243.03 235.369 243.269 235.67 243.571C235.971 243.873 236.209 244.231 236.372 244.625C236.534 245.019 236.618 245.441 236.617 245.868Z" fill="#59524F"/>
<path d="M254.176 270.094V268.833C254.176 268.833 252.403 260.983 239.863 260.983C227.323 260.983 227.571 270.098 227.571 270.098H254.176" fill="#314875"/>
<path d="M227.422 262.148C227.422 262.148 230.145 261.934 231.146 261.332C232.148 260.73 238.115 256.705 239.518 257.351C240.92 257.996 250.255 260.839 249.932 262.226C249.61 263.613 248.743 263.46 248.085 263.216C247.428 262.972 240.646 261.55 240.049 261.79C240.049 261.79 246.705 264.224 246.735 265.999C246.766 267.774 245.341 268.205 244.71 268.873C244.078 269.54 243.32 271.214 241.604 271.341C239.888 271.467 231.517 268.554 229.792 268.419C228.067 268.284 224.878 268.524 224.661 268.245C224.443 267.965 227.422 262.139 227.422 262.139" fill="white"/>
<path d="M177.82 216.426C169.13 214.9 159.988 212.706 159.988 212.706L143.807 212.043C143.807 212.043 128.958 215.318 123.108 217.961C122.555 218.214 122.551 231.228 121.031 234.638L125.878 244.878C125.878 244.878 128.679 265.166 129.258 274.189C129.529 278.332 128.505 314.219 128.505 314.219C128.505 314.219 129.96 314.939 141.001 316.156C152.043 317.372 179.632 315.719 179.806 314.411C179.981 313.103 174.466 265.785 174.222 263.334C173.848 259.575 175.302 242.196 175.302 242.196C177.385 244.996 182.707 257.63 188.217 263.644C191.471 267.181 207.574 269.348 210.61 269.448C217.213 269.671 229.27 270.988 229.622 270.321C229.901 269.937 230.672 259.61 229.914 259.357C229.252 259.139 206.873 257.843 201.136 254.799C199.041 253.683 192.769 239.972 192.769 239.972C192.769 239.972 182.611 218.541 177.82 216.382" fill="#FFA800"/>
<path d="M145.932 313.181H118.77C116.162 313.181 113.66 312.144 111.816 310.297C109.971 308.45 108.935 305.946 108.935 303.334V258.079C108.935 255.467 109.971 252.962 111.816 251.114C113.66 249.267 116.162 248.228 118.77 248.227H145.932C148.541 248.228 151.043 249.267 152.887 251.114C154.731 252.962 155.768 255.467 155.768 258.079V303.325C155.768 305.937 154.731 308.442 152.887 310.288C151.042 312.135 148.541 313.173 145.932 313.173" fill="#6C6473"/>
<path d="M147.469 328.262C140.566 328.262 134.964 325.937 130.822 321.363C121.461 311.009 123.143 292.819 123.221 292.047C123.227 291.685 123.307 291.329 123.458 290.999C123.608 290.67 123.825 290.376 124.095 290.135C124.365 289.894 124.682 289.712 125.025 289.6C125.369 289.488 125.732 289.448 126.092 289.484C126.452 289.52 126.8 289.63 127.115 289.807C127.431 289.985 127.705 290.226 127.923 290.515C128.14 290.804 128.295 291.136 128.378 291.488C128.461 291.84 128.47 292.206 128.404 292.562C128.404 292.771 126.893 309.261 134.694 317.856C137.852 321.345 142.029 323.033 147.469 323.033C148.162 323.033 148.827 323.309 149.317 323.799C149.807 324.29 150.083 324.956 150.083 325.65C150.083 326.344 149.807 327.009 149.317 327.5C148.827 327.991 148.162 328.266 147.469 328.266" fill="#E2D2CA"/>
<path d="M232.036 207.386C232.036 209.973 232.802 212.503 234.238 214.654C235.674 216.806 237.714 218.483 240.102 219.473C242.49 220.463 245.117 220.722 247.652 220.217C250.187 219.713 252.515 218.467 254.342 216.637C256.17 214.807 257.414 212.476 257.919 209.938C258.423 207.4 258.164 204.769 257.175 202.379C256.186 199.988 254.511 197.945 252.362 196.507C250.213 195.07 247.687 194.302 245.103 194.302C241.637 194.302 238.313 195.681 235.863 198.134C233.412 200.588 232.036 203.916 232.036 207.386Z" fill="#CECFD6"/>
<ellipse cx="171.573" cy="68.9261" rx="69.4461" ry="68.0844" fill="#00D8AE"/>
<path d="M165.035 104.67L127.922 72.8412C127.146 72.2363 126.503 71.483 126.031 70.6266C125.56 69.7702 125.27 68.8285 125.18 67.8587C125.089 66.8889 125.199 65.9109 125.503 64.9842C125.808 64.0576 126.3 63.2013 126.951 62.4672C127.602 61.7331 128.397 61.1366 129.289 60.7136C130.181 60.2906 131.15 60.0499 132.14 60.0062C133.129 59.9625 134.117 60.1168 135.044 60.4595C135.971 60.8021 136.817 61.326 137.532 61.9998L163.772 84.5036L201.205 43.4539C202.5 42.0358 204.314 41.1813 206.248 41.0787C208.183 40.976 210.08 41.6336 211.522 42.9065C212.964 44.1795 213.832 45.9635 213.936 47.8663C214.041 49.7692 213.372 51.6349 212.078 53.053L164.992 104.67" fill="white"/>
</svg>
