<svg width="235" height="228" viewBox="0 0 235 228" fill="none" xmlns="http://www.w3.org/2000/svg">
<path d="M194.343 93.5813C192.494 86.4438 189.656 79.5991 185.912 73.2457L194.499 60.3857L182.582 48.4713L170.665 36.5457L157.756 45.1339C151.401 41.3876 144.552 38.5492 137.408 36.7015L134.345 21.4497H100.644L97.592 36.6459C90.4512 38.4916 83.6054 41.3302 77.2551 45.0783L64.3357 36.4901L52.4187 48.4156L40.5017 60.3857L49.0886 73.3013C45.3426 79.6553 42.5012 86.4996 40.6465 93.637L25.4551 96.6517V130.348L40.6465 133.418C42.4991 140.556 45.3406 147.401 49.0886 153.754L40.5017 166.67L52.4187 178.595L64.3357 190.543L77.2551 181.955C83.6054 185.703 90.4512 188.541 97.592 190.387L100.644 205.583H134.345L137.408 190.387C144.552 188.54 151.401 185.701 157.756 181.955L170.665 190.543L182.582 178.629L194.499 166.703L185.912 153.787C189.656 147.434 192.494 140.589 194.343 133.452L209.545 130.381V96.6517L194.343 93.5925" stroke="#AD00FF" stroke-width="8" stroke-linecap="round" stroke-linejoin="round"/>
<path d="M79.9502 159.394C80.1198 149.559 84.1505 140.184 91.174 133.288C98.1975 126.392 107.652 122.528 117.5 122.528C127.348 122.528 136.802 126.392 143.826 133.288C150.849 140.184 154.88 149.559 155.05 159.394" stroke="#FFA800" stroke-width="8" stroke-linecap="round" stroke-linejoin="round"/>
<path d="M118.341 121.827C131.153 121.827 141.54 111.452 141.54 98.6544C141.54 85.8566 131.153 75.4819 118.341 75.4819C105.528 75.4819 95.1416 85.8566 95.1416 98.6544C95.1416 111.452 105.528 121.827 118.341 121.827Z" stroke="#FFA800" stroke-width="8" stroke-linecap="round" stroke-linejoin="round"/>
<path d="M117.517 172.555C102.919 172.525 88.853 167.073 78.0552 157.26C67.2574 147.447 60.4989 133.974 59.094 119.46C57.689 104.946 61.7379 90.4292 70.4535 78.7316C79.1691 67.034 91.9284 58.9918 106.251 56.1688C120.573 53.3458 135.434 55.9437 147.945 63.4574C160.456 70.9711 169.723 82.8635 173.943 96.8224C178.163 110.781 177.035 125.809 170.779 138.984C164.523 152.158 153.585 162.538 140.092 168.105C132.932 171.053 125.261 172.565 117.517 172.555V172.555Z" stroke="#00FFD1" stroke-width="8" stroke-linecap="round" stroke-linejoin="round"/>
</svg>
