<svg width="60" height="51" viewBox="0 0 60 51" fill="none" xmlns="http://www.w3.org/2000/svg">
<g clip-path="url(#clip0_525_397)">
<path d="M8.09308 34.108C7.82828 34.108 7.56667 34.0241 7.34335 33.8627C6.95094 33.5756 6.75314 33.0852 6.83608 32.6012L8.5812 22.3184L1.19238 15.0362C0.844638 14.6941 0.720215 14.1811 0.870161 13.7133C1.02011 13.2455 1.4189 12.9067 1.90064 12.8357L12.1097 11.3354L16.6719 1.97854C16.8856 1.53651 17.3291 1.25903 17.8172 1.25903C18.3021 1.25903 18.7456 1.53651 18.9625 1.97854L23.5279 11.3354L33.737 12.8357C34.2187 12.9067 34.6175 13.2455 34.7675 13.7133C34.9174 14.1811 34.793 14.6941 34.4452 15.0362L27.0596 22.3184L28.8047 32.6012C28.8877 33.0852 28.6899 33.5756 28.2975 33.8627C27.905 34.1531 27.3818 34.1886 26.9543 33.9595L17.8236 29.1037L8.69286 33.9595C8.50782 34.0596 8.30364 34.108 8.09946 34.108H8.09308ZM4.82618 15.0136L10.8431 20.9439C11.143 21.2407 11.2802 21.6666 11.21 22.086L9.79033 30.4588L17.227 26.5063C17.6003 26.3095 18.0437 26.3095 18.4138 26.5063L25.8505 30.4588L24.4308 22.086C24.3606 21.6666 24.4978 21.2407 24.7977 20.9439L30.8146 15.0136L22.5006 13.7907C22.0859 13.7294 21.7254 13.4649 21.5403 13.0841L17.8236 5.46638L14.1069 13.0841C13.9218 13.4649 13.5613 13.7294 13.1466 13.7907L4.83256 15.0136H4.82618Z" fill="#00FFD1"/>
<path d="M52.6803 21.7181C52.4761 21.7181 52.2719 21.6697 52.0869 21.5697L46.9281 18.8272L41.7694 21.5697C41.3387 21.7988 40.8186 21.76 40.4262 21.4729C40.0338 21.1857 39.836 20.6953 39.919 20.2113L40.9048 14.4036L36.7318 10.2899C36.3841 9.94786 36.2596 9.43485 36.4096 8.96701C36.5595 8.49916 36.9583 8.16038 37.4401 8.0894L43.2082 7.24083L45.786 1.95584C45.9997 1.51381 46.4432 1.23633 46.9313 1.23633C47.4162 1.23633 47.8597 1.51381 48.0766 1.95584L50.6544 7.24083L56.4226 8.0894C56.9043 8.16038 57.3031 8.49916 57.453 8.96701C57.603 9.43485 57.4785 9.94786 57.1308 10.2899L52.9578 14.4036L53.9437 20.2113C54.0266 20.6953 53.8288 21.1857 53.4364 21.4729C53.2131 21.6374 52.9515 21.7181 52.6867 21.7181H52.6803ZM40.3656 10.2641L43.1667 13.0259C43.4666 13.3228 43.6038 13.7487 43.5336 14.1681L42.8732 18.0689L46.3379 16.2266C46.7112 16.0298 47.1546 16.0298 47.5247 16.2266L50.9862 18.0689L50.3258 14.1681C50.2556 13.7487 50.3928 13.3228 50.6927 13.0259L53.4938 10.2641L49.6208 9.69619C49.206 9.63489 48.8455 9.37032 48.6605 8.98959L46.9281 5.44045L45.1958 8.98959C45.0107 9.37032 44.6502 9.63489 44.2355 9.69619L40.3624 10.2641H40.3656Z" fill="#AD00FF"/>
<path d="M53.7395 49.8176C53.5353 49.8176 53.3311 49.7692 53.1461 49.6692L46.9281 46.362L40.7101 49.6692C40.2794 49.8982 39.7594 49.8595 39.367 49.5724C38.9746 49.282 38.7768 48.7948 38.8597 48.3108L40.0465 41.3093L35.0154 36.3502C34.6676 36.0082 34.5432 35.4952 34.6932 35.0273C34.8431 34.5595 35.2419 34.2207 35.7236 34.1497L42.6754 33.1269L45.7859 26.7578C45.9997 26.3158 46.4432 26.0383 46.9313 26.0383C47.4162 26.0383 47.8597 26.3158 48.0766 26.7578L51.184 33.1269L58.1357 34.1497C58.6175 34.2207 59.0163 34.5595 59.1662 35.0273C59.3162 35.4952 59.1917 36.0082 58.844 36.3502L53.8128 41.3093L54.9996 48.3108C55.0826 48.7948 54.8848 49.2852 54.4924 49.5724C54.269 49.7369 54.0074 49.8176 53.7426 49.8176H53.7395ZM38.6492 36.3244L42.3085 39.9316C42.6084 40.2284 42.7456 40.6543 42.6754 41.0738L41.8108 46.1684L46.3347 43.7647C46.708 43.5679 47.1514 43.5679 47.5215 43.7647L52.0454 46.1684L51.1808 41.0738C51.1106 40.6543 51.2478 40.2284 51.5477 39.9316L55.207 36.3244L50.1503 35.5823C49.7356 35.521 49.3751 35.2564 49.19 34.8757L46.9281 30.2425L44.6661 34.8757C44.4811 35.2564 44.1206 35.521 43.7058 35.5823L38.6492 36.3244Z" fill="#FFA800"/>
<path d="M13.8101 49.7531C13.5453 49.7531 13.2837 49.6693 13.0604 49.5079C12.668 49.2175 12.4702 48.7304 12.5531 48.2464L13.204 44.4036L10.4443 41.6837C10.0966 41.3417 9.97217 40.8287 10.1221 40.3608C10.2721 39.893 10.6709 39.5542 11.1526 39.4832L14.9682 38.9218L16.6751 35.4275C16.8888 34.9855 17.3323 34.708 17.8204 34.708C18.3053 34.708 18.7488 34.9855 18.9657 35.4275L20.6725 38.9218L24.4882 39.4832C24.9699 39.5542 25.3687 39.893 25.5187 40.3608C25.6686 40.8287 25.5442 41.3417 25.1964 41.6837L22.4368 44.4036L23.0876 48.2464C23.1706 48.7304 22.9728 49.2208 22.5804 49.5079C22.188 49.7951 21.6647 49.8338 21.2372 49.6047L17.8268 47.7914L14.4131 49.6047C14.2281 49.7047 14.0239 49.7531 13.8197 49.7531H13.8101ZM17.8172 45.0425C18.0214 45.0425 18.2256 45.0909 18.4106 45.1909L20.127 46.104L19.7984 44.1713C19.7282 43.7519 19.8654 43.326 20.1653 43.0291L21.5531 41.6611L19.6325 41.3804C19.2178 41.3191 18.8572 41.0545 18.6722 40.6738L17.814 38.9154L16.9558 40.6738C16.7708 41.0545 16.4103 41.3191 15.9955 41.3804L14.0749 41.6611L15.4627 43.0291C15.7626 43.326 15.8998 43.7519 15.8296 44.1713L15.501 46.104L17.2174 45.1909C17.4025 45.0909 17.6066 45.0425 17.8108 45.0425H17.8172Z" fill="#AD00FF"/>
</g>
<defs>
<clipPath id="clip0_525_397">
<rect width="59.2268" height="50.7007" fill="white" transform="translate(0 0.142822)"/>
</clipPath>
</defs>
</svg>
