<svg width="46" height="47" viewBox="0 0 46 47" fill="none" xmlns="http://www.w3.org/2000/svg">
<path d="M18.3402 36.084V33.228H21.6522V24.42H18.7962V22.236C19.6282 22.076 20.3322 21.884 20.9082 21.66C21.5002 21.436 22.0602 21.164 22.5882 20.844H25.1802V33.228H28.0362V36.084H18.3402Z" fill="#91CAFF"/>
<circle cx="23" cy="22.584" r="22" fill="#2E2B39" stroke="#AC00FF"/>
<path d="M22.5 27.7333L17.236 30.8396L18.622 24.9828L13.974 21.0417L20.106 20.5354L22.5 15.007L24.894 20.5354L31.026 21.0417L26.378 24.9828L27.764 30.8396L22.5 27.7333ZM36.5 19.3175L26.434 18.4828L22.5 9.41016L18.566 18.4828L8.5 19.3175L16.13 25.7902L13.848 35.4102L22.5 30.3059L31.152 35.4102L28.856 25.7902L36.5 19.3175Z" fill="white"/>
</svg>
