<svg width="64" height="52" viewBox="0 0 64 52" fill="none" xmlns="http://www.w3.org/2000/svg">
<g clip-path="url(#clip0_525_365)">
<path d="M26.3692 25.2389C25.729 25.2389 25.2104 24.7204 25.2104 24.0802V20.5982C25.2104 19.958 25.729 19.4395 26.3692 19.4395C27.0094 19.4395 27.5279 19.958 27.5279 20.5982V24.0802C27.5279 24.7204 27.0094 25.2389 26.3692 25.2389Z" fill="#AD00FF"/>
<path d="M36.4472 51.6928H26.3692C25.729 51.6928 25.2104 51.1742 25.2104 50.534V40.485C25.2104 39.8448 25.729 39.3262 26.3692 39.3262C27.0094 39.3262 27.5279 39.8448 27.5279 40.485V49.3753H35.2885V40.4038C35.2885 39.7636 35.807 39.2451 36.4472 39.2451C37.0874 39.2451 37.606 39.7636 37.606 40.4038V50.534C37.606 51.1742 37.0874 51.6928 36.4472 51.6928Z" fill="#AD00FF"/>
<path d="M36.4472 25.2765C35.807 25.2765 35.2885 24.758 35.2885 24.1178V20.5953C35.2885 19.9551 35.807 19.4365 36.4472 19.4365C37.0874 19.4365 37.6059 19.9551 37.6059 20.5953V24.1178C37.6059 24.758 37.0874 25.2765 36.4472 25.2765Z" fill="#AD00FF"/>
<path d="M26.3692 5.49992C25.729 5.49992 25.2104 4.98139 25.2104 4.34119V1.40092C25.2104 0.760719 25.729 0.242188 26.3692 0.242188H36.4472C37.0874 0.242188 37.606 0.760719 37.606 1.40092V4.26008C37.606 4.90028 37.0874 5.41881 36.4472 5.41881C35.807 5.41881 35.2885 4.90028 35.2885 4.26008V2.55965H27.5279V4.34119C27.5279 4.98139 27.0094 5.49992 26.3692 5.49992V5.49992Z" fill="#AD00FF"/>
<path d="M44.2802 38.3934H9.2721C9.05484 38.3934 8.84337 38.3326 8.65798 38.2167L0.627977 33.2168C0.289049 33.0024 0.083374 32.6316 0.083374 32.229C0.083374 31.8263 0.294842 31.4555 0.636668 31.2441L8.66667 26.3079C8.84917 26.1949 9.06063 26.137 9.2721 26.137H44.2802C44.9204 26.137 45.439 26.6555 45.439 27.2957V37.2347C45.439 37.8749 44.9204 38.3934 44.2802 38.3934ZM9.60234 36.076H43.1215V28.4544H9.59944L3.44369 32.2377L9.60234 36.076Z" fill="#FFA800"/>
<path d="M54.6943 18.5184H19.6862C19.046 18.5184 18.5274 17.9998 18.5274 17.3596V7.84647C18.5274 7.20628 19.046 6.68774 19.6862 6.68774H54.6943C54.9029 6.68774 55.1086 6.74568 55.2882 6.84997L63.3182 11.6384C63.6687 11.847 63.8859 12.2265 63.883 12.6378C63.883 13.0463 63.6658 13.4258 63.3124 13.6343L55.2824 18.3591C55.1057 18.4633 54.9 18.5184 54.6943 18.5184ZM20.8449 16.2009H54.3786L60.4503 12.6291L54.3757 9.0052H20.8449V16.2009Z" fill="#00FFD1"/>
</g>
<defs>
<clipPath id="clip0_525_365">
<rect width="63.7997" height="51.4505" fill="white" transform="translate(0.083374 0.242188)"/>
</clipPath>
</defs>
</svg>
